*
*
G04 PADS 9.3 Build Number: 433611 generated Gerber (RS-274-X) file*
G04 PC Version=2.1*
*
%IN "GPS.pcb"*%
*
%MOIN*%
*
%FSDAX24Y24*%
*
*
*
*
G04 PC Standard Apertures*
*
*
G04 Thermal Relief Aperture macro.*
%AMTER*
1,1,$1,0,0*
1,0,$1-$2,0,0*
21,0,$3,$4,0,0,45*
21,0,$3,$4,0,0,135*
%
*
*
G04 Annular Aperture macro.*
%AMANN*
1,1,$1,0,0*
1,0,$2,0,0*
%
*
*
G04 Odd Aperture macro.*
%AMODD*
1,1,$1,0,0*
1,0,$1-0.005,0,0*
%
*
*
G04 PC Custom Aperture Macros*
*
*
*
*
*
*
G04 PC Aperture Table*
*
%ADD010C,0.001*%
%ADD013C,0.01*%
%ADD015C,0.005*%
%ADD036C,0.006*%
%ADD070C,0.007*%
*
*
*
*
G04 PC Circuitry*
G04 Layer Name GPS.pcb - circuitry*
%LPD*%
*
*
G04 PC Custom Flashes*
G04 Layer Name GPS.pcb - flashes*
%LPD*%
*
*
G04 PC Circuitry*
G04 Layer Name GPS.pcb - circuitry*
%LPD*%
*
G54D10*
G01X012000Y013280D02*
X012060Y013237D01*
X012108Y013184*
X012108D02*
X012137Y013122D01*
X012136Y013056*
X012110Y012994*
X012110D02*
X012069Y012938D01*
X011966Y012831*
X011966D02*
X011916Y012772D01*
X011876Y012702*
X011876D02*
X011860Y012621D01*
X011860D02*
X011868Y012542D01*
X011898Y012468*
X011950Y012408*
X012017Y012369*
X012091Y012352*
X012091D02*
X012023Y012382D01*
X012023D02*
X011967Y012426D01*
X011967D02*
X011928Y012484D01*
X011928D02*
X011908Y012550D01*
X011905Y012618*
X011905D02*
X011922Y012683D01*
X011922D02*
X011957Y012742D01*
X012004Y012796*
X012106Y012906*
X012106D02*
X012150Y012972D01*
X012150D02*
X012176Y013049D01*
X012178Y013090*
X012178D02*
X012169Y013131D01*
X012169D02*
X012128Y013200D01*
X012128D02*
X012068Y013248D01*
X012068D02*
X012000Y013280D01*
X012000*
X011794Y013920D02*
X011881Y013858D01*
X011881D02*
X011950Y013782D01*
X011950D02*
X011975Y013739D01*
X011975D02*
X011991Y013693D01*
X011991D02*
X011996Y013646D01*
X011996D02*
X011990Y013599D01*
X011990D02*
X011953Y013510D01*
X011953D02*
X011893Y013430D01*
X011893D02*
X011746Y013278D01*
X011674Y013193*
X011674D02*
X011618Y013092D01*
X011618D02*
X011601Y013035D01*
X011601D02*
X011594Y012977D01*
X011594D02*
X011606Y012863D01*
X011623Y012808*
X011623D02*
X011649Y012757D01*
X011683Y012710*
X011683D02*
X011723Y012671D01*
X011723D02*
X011819Y012615D01*
X011819D02*
X011925Y012592D01*
X011925D02*
X011828Y012634D01*
X011828D02*
X011748Y012698D01*
X011748D02*
X011692Y012780D01*
X011692D02*
X011663Y012875D01*
X011663D02*
X011659Y012973D01*
X011659D02*
X011684Y013065D01*
X011733Y013149*
X011733D02*
X011800Y013227D01*
X011800D02*
X011947Y013384D01*
X011947D02*
X012010Y013479D01*
X012010D02*
X012033Y013532D01*
X012033D02*
X012047Y013589D01*
X012047D02*
X012049Y013648D01*
X012049D02*
X012038Y013707D01*
X012013Y013760*
X012013D02*
X011979Y013805D01*
X011979D02*
X011893Y013875D01*
X011893D02*
X011794Y013920D01*
X011794D02*
X011794D01*
X011524Y014779D02*
X011649Y014682D01*
X011702Y014626*
X011747Y014564*
X011747D02*
X011781Y014499D01*
X011781D02*
X011801Y014429D01*
X011801D02*
X011805Y014359D01*
X011805D02*
X011793Y014290D01*
X011793D02*
X011768Y014223D01*
X011732Y014159*
X011732D02*
X011638Y014044D01*
X011638D02*
X011409Y013828D01*
X011296Y013706*
X011296D02*
X011247Y013636D01*
X011247D02*
X011206Y013560D01*
X011206D02*
X011178Y013477D01*
X011163Y013391*
X011161Y013304*
X011161D02*
X011163Y013283D01*
X011163D02*
X011166Y013262D01*
X011173Y013220*
X011195Y013137*
X011195D02*
X011230Y013059D01*
X011230D02*
X011277Y012988D01*
X011277D02*
X011334Y012927D01*
X011334D02*
X011401Y012876D01*
X011401D02*
X011474Y012837D01*
X011474D02*
X011550Y012810D01*
X011550D02*
X011630Y012795D01*
X011630D02*
X011556Y012826D01*
X011556D02*
X011488Y012865D01*
X011488D02*
X011427Y012911D01*
X011427D02*
X011373Y012965D01*
X011373D02*
X011329Y013025D01*
X011329D02*
X011296Y013091D01*
X011272Y013161*
X011272D02*
X011259Y013233D01*
X011259D02*
X011256Y013270D01*
X011256D02*
X011255Y013288D01*
X011255D02*
Y013307D01*
X011255D02*
X011260Y013380D01*
X011275Y013449*
X011275D02*
X011302Y013515D01*
X011302D02*
X011382Y013637D01*
X011382D02*
X011486Y013748D01*
X011486D02*
X011601Y013857D01*
X011716Y013973*
X011816Y014108*
X011816D02*
X011854Y014186D01*
X011854D02*
X011878Y014270D01*
X011878D02*
X011885Y014358D01*
X011885D02*
X011872Y014446D01*
X011839Y014526*
X011839D02*
X011791Y014597D01*
X011733Y014656*
X011668Y014706*
X011668D02*
X011598Y014747D01*
X011598D02*
X011524Y014779D01*
X011524D02*
X011524D01*
X011432Y012085D02*
X011406Y012126D01*
X011406D02*
X011710Y012437D01*
X011751Y012410*
X011751D02*
X011432Y012085D01*
X011432D02*
X011432D01*
X011154Y012421D02*
X011118Y012453D01*
X011118D02*
X011292Y012627D01*
X011385Y012725D02*
X011417Y012689D01*
X011417D02*
X011154Y012421D01*
X011154D02*
X011154D01*
X011073Y012489D02*
X011034Y012518D01*
X011317Y012807*
X011347Y012769*
X011347D02*
X011073Y012489D01*
X011073D02*
X011073D01*
X010985Y012551D02*
X010943Y012576D01*
X010943D02*
X011254Y012894D01*
X011254D02*
X011282Y012854D01*
X011282D02*
X010985Y012551D01*
X010985D02*
X010985D01*
X010818Y013008D02*
X010782Y012965D01*
X010782D02*
X010753Y012914D01*
X010753D02*
X010733Y012859D01*
X010723Y012803*
X010723D02*
X010727Y012748D01*
X010746Y012697*
X010746D02*
X010782Y012654D01*
X010782D02*
X010838Y012622D01*
X010838D02*
X010954Y012567D01*
X011062Y012498*
X011162Y012417*
X011162D02*
X011253Y012329D01*
X011334Y012236*
X011334D02*
X011404Y012143D01*
X011404D02*
X011506Y011968D01*
X011506D02*
X011531Y011935D01*
X011565Y011915*
X011565D02*
X011607Y011907D01*
X011653Y011909*
X011653D02*
X011751Y011943D01*
X011751D02*
X011839Y012008D01*
X011839*
X011901Y012096*
X011901D02*
X011933Y012194D01*
X011933D02*
X011935Y012241D01*
X011926Y012282*
X011926D02*
X011905Y012316D01*
X011905D02*
X011872Y012341D01*
X011784Y012387*
X011784D02*
X011693Y012447D01*
X011693D02*
X011510Y012599D01*
X011510D02*
X011341Y012786D01*
X011267Y012888*
X011267D02*
X011204Y012995D01*
X011170Y013039*
X011170D02*
X011127Y013070D01*
X011076Y013087*
X011076D02*
X011021Y013092D01*
X011021D02*
X010965Y013085D01*
X010965D02*
X010910Y013069D01*
X010910D02*
X010860Y013042D01*
X010860D02*
X010818Y013008D01*
X010818*
X010818*
X010876Y012927D02*
X010893Y012953D01*
X010893D02*
X010899Y012983D01*
X010893Y013013*
X010875Y013038*
X010875D02*
X010460Y013445D01*
X010460D02*
X010433Y013462D01*
X010433D02*
X010404Y013468D01*
X010374Y013462*
X010374D02*
X010348Y013444D01*
X010348D02*
X010348D01*
X010348D02*
X010331Y013418D01*
X010331D02*
X010326Y013388D01*
X010326D02*
X010332Y013359D01*
X010332D02*
X010350Y013333D01*
X010765Y012926*
X010791Y012909*
X010791D02*
X010821Y012904D01*
X010850Y012910*
X010850D02*
X010876Y012927D01*
X010876D02*
X010876D01*
X010876D02*
X010876D01*
X010758Y012919D02*
X010788Y012900D01*
X010821Y012894*
X010854Y012901*
X010883Y012920*
X010883D02*
X010902Y012950D01*
X010902D02*
X010908Y012983D01*
X010908D02*
X010901Y013016D01*
X010901D02*
X010882Y013045D01*
X010882D02*
X010466Y013452D01*
X010466D02*
X010437Y013471D01*
X010437D02*
X010404Y013477D01*
X010404D02*
X010371Y013470D01*
X010371D02*
X010342Y013451D01*
X010323Y013421*
X010323D02*
X010316Y013388D01*
X010316D02*
X010323Y013355D01*
X010323D02*
X010343Y013326D01*
X010758Y012919*
X010758D02*
X010758D01*
X011738Y012118D02*
X011721Y012092D01*
X011721D02*
X011716Y012062D01*
X011716D02*
X011722Y012033D01*
X011739Y012007*
X011739D02*
X012155Y011600D01*
X012155D02*
X012181Y011583D01*
X012181D02*
X012211Y011578D01*
X012240Y011584*
X012240D02*
X012266Y011601D01*
X012266D02*
X012266D01*
X012266D02*
X012283Y011628D01*
X012288Y011657*
X012288D02*
X012282Y011687D01*
X012282D02*
X012265Y011713D01*
X011849Y012119*
X011849D02*
X011823Y012136D01*
X011823D02*
X011794Y012142D01*
X011764Y012136*
X011764D02*
X011738Y012118D01*
X011738D02*
X011738D01*
X011738D02*
X011738D01*
X012148Y011593D02*
X012177Y011574D01*
X012177D02*
X012211Y011568D01*
X012211D02*
X012244Y011575D01*
X012273Y011595*
X012292Y011624*
X012292D02*
X012298Y011657D01*
X012298D02*
X012291Y011691D01*
X012291D02*
X012271Y011720D01*
X012271D02*
X011856Y012126D01*
X011856D02*
X011827Y012145D01*
X011827D02*
X011794Y012151D01*
X011794D02*
X011760Y012145D01*
X011760D02*
X011731Y012125D01*
X011731D02*
X011712Y012096D01*
X011712D02*
X011706Y012062D01*
X011706D02*
X011713Y012029D01*
X011713D02*
X011733Y012000D01*
X011733D02*
X012148Y011593D01*
X012148D02*
X012148D01*
X012298Y011658D02*
Y011656D01*
X012285Y011672D02*
Y011699D01*
Y011641D02*
Y011614D01*
X012273Y011701D02*
Y011718D01*
Y011612D02*
Y011595D01*
X012260Y011717D02*
Y011730D01*
Y011598D02*
Y011586D01*
X012248Y011729D02*
Y011743D01*
Y011589D02*
Y011578D01*
X012236Y011741D02*
Y011755D01*
Y011583D02*
Y011573D01*
X012223Y011753D02*
Y011767D01*
Y011580D02*
Y011571D01*
X012211Y011766D02*
Y011779D01*
Y011578D02*
Y011568D01*
X012198Y011778D02*
Y011791D01*
Y011580D02*
Y011571D01*
X012186Y011790D02*
Y011804D01*
Y011582D02*
Y011573D01*
X012173Y013041D02*
Y013111D01*
Y011816D02*
Y011802D01*
Y011577D02*
Y011588D01*
X012161Y013145D02*
Y013003D01*
Y011814D02*
Y011828D01*
Y011596D02*
Y011585D01*
X012148Y012969D02*
Y013166D01*
Y011840D02*
Y011827D01*
Y011593D02*
Y011606D01*
X012136Y013187D02*
Y013123D01*
Y012950D02*
Y013057D01*
Y011852D02*
Y011839D01*
Y011605D02*
Y011619D01*
X012124Y013204D02*
Y013150D01*
Y012931D02*
Y013026D01*
Y011864D02*
Y011851D01*
Y011617D02*
Y011631D01*
X012111Y013214D02*
Y013178D01*
Y012913D02*
Y012996D01*
Y011877D02*
Y011863D01*
Y011629D02*
Y011643D01*
X012099Y013224D02*
Y013194D01*
Y012898D02*
Y012978D01*
Y011889D02*
Y011875D01*
Y011642D02*
Y011655D01*
X012086Y013234D02*
Y013208D01*
Y012884D02*
Y012961D01*
Y012354D02*
Y012353D01*
Y011888D02*
Y011901D01*
Y011667D02*
Y011654D01*
X012074Y013222D02*
Y013244D01*
Y012945D02*
Y012871D01*
Y012356D02*
Y012360D01*
Y011913D02*
Y011900D01*
Y011666D02*
Y011680D01*
X012061Y013252D02*
Y013235D01*
Y012858D02*
Y012930D01*
Y012365D02*
Y012359D01*
Y011912D02*
Y011925D01*
Y011692D02*
Y011678D01*
X012049Y013634D02*
Y013651D01*
Y013257D02*
Y013244D01*
Y012844D02*
Y012917D01*
Y012371D02*
Y012362D01*
Y011924D02*
Y011938D01*
Y011704D02*
Y011690D01*
X012036Y013544D02*
Y013709D01*
Y013263D02*
Y013253D01*
Y012831D02*
Y012904D01*
Y012376D02*
Y012364D01*
Y011936D02*
Y011950D01*
Y011716D02*
Y011703D01*
X012024Y013510D02*
Y013736D01*
Y013268D02*
Y013262D01*
Y012818D02*
Y012892D01*
Y012382D02*
Y012367D01*
Y011948D02*
Y011962D01*
Y011728D02*
Y011715D01*
X012012Y013481D02*
Y013762D01*
Y013274D02*
Y013271D01*
Y012804D02*
Y012879D01*
Y012391D02*
Y012372D01*
Y011961D02*
Y011974D01*
Y011740D02*
Y011727D01*
X011999Y013462D02*
Y013778D01*
Y012866D02*
Y012790D01*
Y012379D02*
Y012401D01*
Y011986D02*
Y011973D01*
Y011739D02*
Y011753D01*
X011987Y013795D02*
Y013705D01*
Y013443D02*
Y013592D01*
Y012853D02*
Y012776D01*
Y012386D02*
Y012411D01*
Y011999D02*
Y011985D01*
Y011751D02*
Y011765D01*
X011974Y013809D02*
Y013741D01*
Y013425D02*
Y013562D01*
Y012840D02*
Y012762D01*
Y012394D02*
Y012421D01*
Y012011D02*
Y011997D01*
Y011764D02*
Y011777D01*
X011962Y013819D02*
Y013763D01*
Y013406D02*
Y013532D01*
Y012827D02*
Y012747D01*
Y012401D02*
Y012435D01*
Y012023D02*
Y012009D01*
Y011776D02*
Y011789D01*
X011949Y013829D02*
Y013784D01*
Y013387D02*
Y013505D01*
Y012812D02*
Y012729D01*
Y012408D02*
Y012453D01*
Y012035D02*
Y012022D01*
Y011788D02*
Y011801D01*
X011937Y013840D02*
Y013797D01*
Y013373D02*
Y013489D01*
Y012797D02*
Y012708D01*
Y012423D02*
Y012471D01*
Y012047D02*
Y012034D01*
Y011800D02*
Y011814D01*
X011924Y013850D02*
Y013811D01*
Y013360D02*
Y013472D01*
Y012782D02*
Y012686D01*
Y012592D02*
X011924D01*
Y012496D02*
Y012437D01*
Y012167D02*
Y012285D01*
Y012059D02*
Y012046D01*
Y011812D02*
Y011826D01*
X011912Y013860D02*
Y013824D01*
Y013346D02*
Y013455D01*
Y012765D02*
Y012644D01*
Y012595D02*
Y012598D01*
Y012536D02*
Y012451D01*
Y012129D02*
Y012305D01*
Y012072D02*
Y012058D01*
Y011824D02*
Y011838D01*
X011900Y013870D02*
Y013838D01*
Y013333D02*
Y013438D01*
Y012743D02*
Y012603D01*
Y012466D02*
Y012598D01*
Y012320D02*
Y012094D01*
Y012070D02*
Y012084D01*
Y011850D02*
Y011837D01*
X011887Y013852D02*
Y013878D01*
Y013424D02*
Y013320D01*
Y012608D02*
Y012721D01*
Y012600D02*
Y012494D01*
Y012096D02*
Y012330D01*
Y012083D02*
Y012076D01*
Y011849D02*
Y011862D01*
X011875Y014427D02*
Y014259D01*
Y013863D02*
Y013883D01*
Y013411D02*
Y013306D01*
Y012614D02*
Y012693D01*
Y012603D02*
Y012525D01*
Y012108D02*
Y012339D01*
Y012095D02*
Y012058D01*
Y011861D02*
Y011875D01*
X011862Y014469D02*
Y014216D01*
Y013872D02*
Y013889D01*
Y013398D02*
Y013293D01*
Y012619D02*
Y012634D01*
Y012606D02*
Y012596D01*
Y012120D02*
Y012346D01*
Y012107D02*
Y012041D01*
Y011873D02*
Y011887D01*
X011850Y014499D02*
Y014178D01*
Y013880D02*
Y013895D01*
Y013385D02*
Y013280D01*
Y012609D02*
Y012625D01*
Y012352D02*
Y012130D01*
Y012023D02*
Y012119D01*
Y011899D02*
Y011885D01*
X011837Y014153D02*
Y014528D01*
Y013900D02*
Y013889D01*
Y013266D02*
Y013372D01*
Y012630D02*
Y012611D01*
Y012139D02*
Y012359D01*
Y012127D02*
Y012007D01*
Y011898D02*
Y011911D01*
X011825Y014547D02*
Y014127D01*
Y013898D02*
Y013906D01*
Y013360D02*
Y013253D01*
Y012614D02*
Y012637D01*
Y012366D02*
Y012146D01*
Y011998D02*
Y012135D01*
Y011923D02*
Y011910D01*
X011812Y014104D02*
Y014565D01*
Y013912D02*
Y013907D01*
Y013240D02*
Y013347D01*
Y012647D02*
Y012619D01*
Y012148D02*
Y012372D01*
Y012138D02*
Y011988D01*
Y011922D02*
Y011936D01*
X011800Y014583D02*
Y014432D01*
Y014087D02*
Y014329D01*
Y013917D02*
Y013916D01*
Y013226D02*
Y013334D01*
Y012657D02*
Y012626D01*
Y012150D02*
Y012379D01*
Y012141D02*
Y011979D01*
Y011934D02*
Y011948D01*
X011788Y014600D02*
Y014476D01*
Y014070D02*
Y014274D01*
Y013321D02*
Y013212D01*
Y012634D02*
Y012667D01*
Y012386D02*
Y012150D01*
Y011970D02*
Y012141D01*
Y011960D02*
Y011946D01*
X011775Y014510D02*
Y014613D01*
Y014242D02*
Y014053D01*
Y013198D02*
Y013308D01*
Y012676D02*
Y012641D01*
Y012148D02*
Y012393D01*
Y012138D02*
Y011972D01*
Y011959D02*
Y011961D01*
X011763Y014625D02*
Y014534D01*
Y014036D02*
Y014213D01*
Y013295D02*
Y013183D01*
Y012648D02*
Y012686D01*
Y012402D02*
Y012145D01*
Y011984D02*
Y012135D01*
Y011971D02*
Y011952D01*
X011750Y014558D02*
Y014638D01*
Y014191D02*
Y014019D01*
Y013169D02*
Y013283D01*
Y012696D02*
Y012655D01*
Y012410D02*
Y012411D01*
Y012409D02*
Y012138D01*
Y011996D02*
Y012126D01*
Y011983D02*
Y011943D01*
X011738Y014577D02*
Y014651D01*
Y014169D02*
Y014003D01*
Y013154D02*
Y013269D01*
Y012713D02*
Y012662D01*
Y012418D02*
Y012419D01*
Y012397D02*
Y012129D01*
Y012009D02*
Y012117D01*
Y011995D02*
Y011938D01*
X011725Y014594D02*
Y014662D01*
Y014151D02*
Y013986D01*
Y013135D02*
Y013254D01*
Y012731D02*
Y012670D01*
Y012426D02*
Y012427D01*
Y012384D02*
Y012116D01*
Y012028D02*
Y012098D01*
Y012011D02*
Y011934D01*
X011713Y014611D02*
Y014671D01*
Y014135D02*
Y013970D01*
Y013114D02*
Y013239D01*
Y012750D02*
Y012681D01*
Y012434D02*
Y012435D01*
Y012371D02*
Y012096D01*
Y011930D02*
Y012030D01*
X011700Y014681D02*
Y014627D01*
Y013957D02*
Y014120D01*
Y013224D02*
Y013093D01*
Y012693D02*
Y012768D01*
Y012442D02*
Y012427D01*
Y011926D02*
Y012359D01*
X011688Y014690D02*
Y014641D01*
Y013945D02*
Y014105D01*
Y013209D02*
Y013072D01*
Y012705D02*
Y012793D01*
Y012451D02*
Y012414D01*
Y011921D02*
Y012346D01*
X011676Y014700D02*
Y014654D01*
Y013932D02*
Y014090D01*
Y013194D02*
Y013034D01*
Y012720D02*
Y012834D01*
Y012462D02*
Y012402D01*
Y011917D02*
Y012333D01*
X011663Y014709D02*
Y014667D01*
Y013919D02*
Y014074D01*
Y013172D02*
Y012987D01*
Y012737D02*
Y012875D01*
Y012472D02*
Y012389D01*
Y011913D02*
Y012320D01*
X011651Y014716D02*
Y014680D01*
Y013907D02*
Y014059D01*
Y013150D02*
Y012754D01*
Y012376D02*
Y012482D01*
Y012308D02*
Y011909D01*
X011638Y014690D02*
Y014723D01*
Y014044D02*
Y013894D01*
Y012778D02*
Y013128D01*
Y012493D02*
Y012363D01*
Y011908D02*
Y012295D01*
X011626Y014731D02*
Y014700D01*
Y013882D02*
Y014032D01*
Y013106D02*
Y012803D01*
Y012796D02*
Y012797D01*
Y012503D02*
Y012351D01*
Y011908D02*
Y012282D01*
X011613Y014738D02*
Y014710D01*
Y013869D02*
Y014020D01*
Y013076D02*
Y012839D01*
Y012798D02*
Y012802D01*
Y012513D02*
Y012338D01*
Y011907D02*
Y012270D01*
X011601Y014745D02*
Y014719D01*
Y013857D02*
Y014009D01*
Y013033D02*
Y012910D01*
Y012801D02*
Y012807D01*
Y012524D02*
Y012325D01*
Y011908D02*
Y012257D01*
X011588Y014751D02*
Y014729D01*
Y013845D02*
Y013997D01*
Y012813D02*
Y012803D01*
Y012313D02*
Y012534D01*
Y012244D02*
Y011910D01*
X011576Y014739D02*
Y014757D01*
Y013985D02*
Y013833D01*
Y012805D02*
Y012818D01*
Y012544D02*
Y012300D01*
Y011913D02*
Y012232D01*
X011564Y014762D02*
Y014748D01*
Y013821D02*
Y013974D01*
Y012823D02*
Y012808D01*
Y012287D02*
Y012555D01*
Y012219D02*
Y011916D01*
X011551Y014758D02*
Y014767D01*
Y013962D02*
Y013809D01*
Y012810D02*
Y012829D01*
Y012565D02*
Y012275D01*
Y011923D02*
Y012206D01*
X011539Y014773D02*
Y014768D01*
Y013798D02*
Y013950D01*
Y012836D02*
Y012814D01*
Y012262D02*
Y012576D01*
Y012193D02*
Y011930D01*
X011526Y014778D02*
X011526D01*
Y013939D02*
Y013786D01*
Y012819D02*
Y012843D01*
Y012586D02*
Y012249D01*
Y011941D02*
Y012181D01*
X011514Y013927D02*
Y013774D01*
Y012823D02*
Y012850D01*
Y012596D02*
Y012236D01*
Y011958D02*
Y012168D01*
X011501Y013915D02*
Y013762D01*
Y012828D02*
Y012857D01*
Y012609D02*
Y012224D01*
Y011976D02*
Y012155D01*
X011489Y013903D02*
Y013750D01*
Y012832D02*
Y012864D01*
Y012623D02*
Y012211D01*
Y011998D02*
Y012143D01*
X011476Y013892D02*
Y013737D01*
Y012836D02*
Y012874D01*
Y012636D02*
Y012198D01*
Y012019D02*
Y012130D01*
X011464Y013880D02*
Y013724D01*
Y012843D02*
Y012883D01*
Y012650D02*
Y012186D01*
Y012040D02*
Y012117D01*
X011452Y013868D02*
Y013711D01*
Y012849D02*
Y012893D01*
Y012664D02*
Y012173D01*
Y012061D02*
Y012104D01*
X011439Y013857D02*
Y013698D01*
Y012856D02*
Y012902D01*
Y012678D02*
Y012160D01*
Y012083D02*
Y012092D01*
X011427Y013845D02*
Y013684D01*
Y012863D02*
Y012911D01*
Y012691D02*
Y012147D01*
Y012093D02*
Y012104D01*
X011414Y013833D02*
Y013671D01*
Y012869D02*
Y012924D01*
Y012705D02*
Y012692D01*
Y012135D02*
Y012686D01*
Y012125D02*
Y012113D01*
X011402Y013658D02*
Y013820D01*
Y012937D02*
Y012876D01*
Y012706D02*
Y012719D01*
Y012674D02*
Y012146D01*
X011389Y013645D02*
Y013807D01*
Y012949D02*
Y012885D01*
Y012719D02*
Y012732D01*
Y012661D02*
Y012162D01*
X011377Y013629D02*
Y013793D01*
Y012962D02*
Y012895D01*
Y012717D02*
Y012746D01*
Y012648D02*
Y012179D01*
X011364Y013610D02*
Y013780D01*
Y012977D02*
Y012904D01*
Y012704D02*
Y012760D01*
Y012636D02*
Y012196D01*
X011352Y013591D02*
Y013766D01*
Y012994D02*
Y012913D01*
Y012691D02*
Y012773D01*
Y012623D02*
Y012212D01*
X011340Y013572D02*
Y013753D01*
Y013011D02*
Y012923D01*
Y012778D02*
Y012788D01*
Y012762D02*
Y012679D01*
Y012229D02*
Y012610D01*
X011327Y013739D02*
Y013553D01*
Y012934D02*
Y013029D01*
Y012805D02*
Y012794D01*
Y012666D02*
Y012749D01*
Y012598D02*
Y012244D01*
X011315Y013534D02*
Y013726D01*
Y013054D02*
Y012948D01*
Y012805D02*
Y012822D01*
Y012736D02*
Y012653D01*
Y012258D02*
Y012585D01*
X011302Y013712D02*
Y013515D01*
Y012961D02*
Y013078D01*
Y012840D02*
Y012792D01*
Y012641D02*
Y012724D01*
Y012572D02*
Y012272D01*
X011290Y013485D02*
Y013696D01*
Y013108D02*
Y012974D01*
Y012779D02*
Y012857D01*
Y012711D02*
Y012628D01*
Y012287D02*
Y012559D01*
X011277Y013679D02*
Y013454D01*
Y012988D02*
Y013146D01*
Y012874D02*
Y012860D01*
Y012767D02*
Y012850D01*
Y012698D02*
Y012615D01*
Y012301D02*
Y012547D01*
X011265Y013661D02*
Y013403D01*
Y013006D02*
Y013201D01*
Y012892D02*
Y012878D01*
Y012754D02*
Y012837D01*
Y012686D02*
Y012602D01*
Y012315D02*
Y012534D01*
X011252Y013644D02*
Y013025D01*
Y012893D02*
Y012913D01*
Y012824D02*
Y012741D01*
Y012590D02*
Y012673D01*
Y012521D02*
Y012329D01*
X011240Y013044D02*
Y013623D01*
Y012934D02*
Y012880D01*
Y012729D02*
Y012812D01*
Y012660D02*
Y012577D01*
Y012341D02*
Y012509D01*
X011228Y013599D02*
Y013064D01*
Y012867D02*
Y012955D01*
Y012799D02*
Y012716D01*
Y012564D02*
Y012647D01*
Y012496D02*
Y012353D01*
X011215Y013092D02*
Y013576D01*
Y012976D02*
Y012855D01*
Y012703D02*
Y012786D01*
Y012635D02*
Y012552D01*
Y012365D02*
Y012483D01*
X011203Y013549D02*
Y013120D01*
Y012842D02*
Y012997D01*
Y012774D02*
Y012690D01*
Y012539D02*
Y012622D01*
Y012470D02*
Y012377D01*
X011190Y013156D02*
Y013513D01*
Y013013D02*
Y012829D01*
Y012678D02*
Y012761D01*
Y012609D02*
Y012526D01*
Y012389D02*
Y012458D01*
X011178Y013477D02*
Y013202D01*
Y012817D02*
Y013030D01*
Y012748D02*
Y012665D01*
Y012513D02*
Y012597D01*
Y012445D02*
Y012401D01*
X011165Y013267D02*
Y013406D01*
Y013043D02*
Y012804D01*
Y012652D02*
Y012736D01*
Y012584D02*
Y012501D01*
Y012414D02*
Y012432D01*
X011153Y013052D02*
Y012791D01*
Y012640D02*
Y012723D01*
Y012571D02*
Y012488D01*
Y012422D02*
Y012424D01*
X011140Y013060D02*
Y012779D01*
Y012627D02*
Y012710D01*
Y012559D02*
Y012475D01*
Y012433D02*
Y012434D01*
X011128Y013069D02*
Y012766D01*
Y012614D02*
Y012697D01*
Y012546D02*
Y012463D01*
Y012444D02*
X011128D01*
X011116Y013073D02*
Y012753D01*
Y012602D02*
Y012685D01*
Y012533D02*
Y012454D01*
X011103Y012740D02*
Y013078D01*
Y012672D02*
Y012589D01*
Y012464D02*
Y012520D01*
X011091Y013082D02*
Y012728D01*
Y012576D02*
Y012659D01*
Y012508D02*
Y012474D01*
X011078Y012715D02*
Y013086D01*
Y012647D02*
Y012563D01*
Y012484D02*
Y012495D01*
X011066Y013088D02*
Y012702D01*
Y012551D02*
Y012634D01*
Y012494D02*
X011066D01*
X011053Y012690D02*
Y013089D01*
Y012621D02*
Y012538D01*
Y012503D02*
Y012504D01*
X011041Y013090D02*
Y012677D01*
Y012525D02*
Y012608D01*
Y012513D02*
Y012511D01*
X011028Y012664D02*
Y013091D01*
Y012596D02*
Y012519D01*
X011016Y012651D02*
Y013091D01*
Y012583D02*
Y012527D01*
X011004Y012639D02*
Y013090D01*
Y012570D02*
Y012535D01*
X010991Y012626D02*
Y013088D01*
Y012558D02*
Y012543D01*
X010979Y012613D02*
Y013087D01*
Y012555D02*
Y012551D01*
X010966Y012601D02*
Y013086D01*
Y012562D02*
Y012559D01*
X010954Y012588D02*
Y013082D01*
Y012570D02*
Y012567D01*
X010941Y012573D02*
Y013078D01*
X010929Y013074D02*
Y012579D01*
X010916Y012585D02*
Y013071D01*
X010904Y013065D02*
Y013004D01*
Y012591D02*
Y012960D01*
X010892Y013059D02*
Y013031D01*
Y012951D02*
Y013014D01*
Y012934D02*
Y012597D01*
X010879Y013048D02*
Y013052D01*
Y013032D02*
Y012932D01*
Y012602D02*
Y012918D01*
X010867Y013060D02*
Y013047D01*
Y012921D02*
Y013046D01*
Y012909D02*
Y012608D01*
X010854Y013059D02*
Y013072D01*
Y013038D02*
Y012912D01*
Y012614D02*
Y012901D01*
X010842Y013084D02*
Y013071D01*
Y012908D02*
Y013028D01*
Y012898D02*
Y012620D01*
X010829Y013083D02*
Y013097D01*
Y013017D02*
Y012905D01*
Y012627D02*
Y012896D01*
X010817Y013109D02*
Y013095D01*
Y012904D02*
Y013007D01*
Y012895D02*
Y012634D01*
X010804Y013107D02*
Y013121D01*
Y012992D02*
Y012907D01*
Y012642D02*
Y012897D01*
X010792Y013133D02*
Y013120D01*
Y012909D02*
Y012976D01*
Y012899D02*
Y012649D01*
X010780Y013132D02*
Y013145D01*
Y012960D02*
Y012916D01*
Y012658D02*
Y012905D01*
X010767Y013158D02*
Y013144D01*
Y012925D02*
Y012938D01*
Y012913D02*
Y012672D01*
X010755Y013156D02*
Y013170D01*
Y012936D02*
Y012923D01*
Y012687D02*
Y012916D01*
X010742Y013182D02*
Y013168D01*
Y012935D02*
Y012948D01*
Y012884D02*
Y012707D01*
X010730Y013181D02*
Y013194D01*
Y012960D02*
Y012947D01*
Y012740D02*
Y012841D01*
X010717Y013206D02*
Y013193D01*
Y012959D02*
Y012973D01*
X010705Y013218D02*
Y013205D01*
Y012971D02*
Y012985D01*
X010692Y013231D02*
Y013217D01*
Y012983D02*
Y012997D01*
X010680Y013243D02*
Y013229D01*
Y012996D02*
Y013009D01*
X010668Y013255D02*
Y013242D01*
Y013008D02*
Y013021D01*
X010655Y013267D02*
Y013254D01*
Y013020D02*
Y013034D01*
X010643Y013279D02*
Y013266D01*
Y013032D02*
Y013046D01*
X010630Y013292D02*
Y013278D01*
Y013044D02*
Y013058D01*
X010618Y013304D02*
Y013290D01*
Y013057D02*
Y013070D01*
X010605Y013316D02*
Y013302D01*
Y013069D02*
Y013082D01*
X010593Y013328D02*
Y013315D01*
Y013081D02*
Y013094D01*
X010580Y013340D02*
Y013327D01*
Y013093D02*
Y013107D01*
X010568Y013353D02*
Y013339D01*
Y013105D02*
Y013119D01*
X010556Y013365D02*
Y013351D01*
Y013118D02*
Y013131D01*
X010543Y013377D02*
Y013363D01*
Y013130D02*
Y013143D01*
X010531Y013389D02*
Y013376D01*
Y013142D02*
Y013155D01*
X010518Y013401D02*
Y013388D01*
Y013154D02*
Y013168D01*
X010506Y013413D02*
Y013400D01*
Y013166D02*
Y013180D01*
X010493Y013426D02*
Y013412D01*
Y013179D02*
Y013192D01*
X010481Y013438D02*
Y013424D01*
Y013191D02*
Y013204D01*
X010468Y013450D02*
Y013437D01*
Y013203D02*
Y013216D01*
X010456Y013459D02*
Y013448D01*
Y013215D02*
Y013229D01*
X010444Y013467D02*
Y013456D01*
Y013227D02*
Y013241D01*
X010431Y013472D02*
Y013463D01*
Y013239D02*
Y013253D01*
X010419Y013474D02*
Y013465D01*
Y013252D02*
Y013265D01*
X010406Y013477D02*
Y013467D01*
Y013264D02*
Y013277D01*
X010394Y013475D02*
Y013465D01*
Y013276D02*
Y013289D01*
X010381Y013473D02*
Y013463D01*
Y013288D02*
Y013302D01*
X010369Y013469D02*
Y013458D01*
Y013300D02*
Y013314D01*
X010356Y013461D02*
Y013449D01*
Y013313D02*
Y013326D01*
X010344Y013452D02*
Y013437D01*
Y013325D02*
Y013341D01*
X010332Y013435D02*
Y013418D01*
Y013343D02*
Y013361D01*
X010319Y013403D02*
Y013375D01*
G54D13*
X010000Y010000D02*
Y021811D01*
X018110*
Y010000*
X010000*
X010720Y020640D02*
X010732Y020922D01*
X010732D02*
X011014Y020910D01*
X011014D02*
X010720Y020640D01*
X017040Y020880D02*
X017321Y020911D01*
X017352Y020630*
X017040Y020880*
X017200Y020800D02*
X016920Y020520D01*
X015840*
X010800Y020880D02*
X011200Y020480D01*
X012320*
G54D15*
X014400Y016968D02*
Y016640D01*
Y016968D02*
X014297D01*
X014297D02*
X014263Y016952D01*
X014263D02*
X014252Y016936D01*
X014252D02*
X014240Y016905D01*
X014240D02*
Y016874D01*
X014240D02*
X014252Y016843D01*
X014263Y016827*
X014263D02*
X014297Y016811D01*
X014400D02*
X014297D01*
X014297D02*
X014263Y016796D01*
X014263D02*
X014252Y016780D01*
X014252D02*
X014240Y016749D01*
X014240D02*
Y016702D01*
X014240D02*
X014252Y016671D01*
X014263Y016655*
X014263D02*
X014297Y016640D01*
X014297D02*
X014400D01*
X014059Y016968D02*
Y016640D01*
X014138Y016968D02*
X013979D01*
X013877Y016905D02*
X013854Y016921D01*
X013854D02*
X013820Y016968D01*
Y016640*
G54D36*
X011589Y020259D02*
X011600Y020290D01*
X011600D02*
X011623Y020321D01*
X011623D02*
X011646Y020337D01*
X011646D02*
X011691D01*
X011691D02*
X011714Y020321D01*
X011714D02*
X011737Y020290D01*
X011737D02*
X011748Y020259D01*
X011748D02*
X011760Y020212D01*
X011760D02*
Y020134D01*
X011748Y020087*
X011748D02*
X011737Y020056D01*
X011714Y020025*
X011714D02*
X011691Y020009D01*
X011691D02*
X011646D01*
X011623Y020025*
X011623D02*
X011600Y020056D01*
X011600D02*
X011589Y020087D01*
X011589D02*
Y020134D01*
X011646D02*
X011589D01*
X011487Y020337D02*
Y020009D01*
Y020337D02*
X011328Y020009D01*
Y020337D02*
Y020009D01*
X011225Y020337D02*
Y020009D01*
Y020337D02*
X011146D01*
X011146D02*
X011112Y020321D01*
X011112D02*
X011089Y020290D01*
X011089D02*
X011078Y020259D01*
X011066Y020212*
X011066D02*
Y020134D01*
X011066D02*
X011078Y020087D01*
X011078D02*
X011089Y020056D01*
X011089D02*
X011112Y020025D01*
X011146Y020009*
X011225*
X012320Y019297D02*
Y018969D01*
Y019297D02*
X012217D01*
X012217D02*
X012183Y019281D01*
X012183D02*
X012172Y019266D01*
X012160Y019235*
X012160D02*
Y019188D01*
X012160D02*
X012172Y019156D01*
X012172D02*
X012183Y019141D01*
X012183D02*
X012217Y019125D01*
X012217D02*
X012320D01*
X012058Y019235D02*
X012035Y019250D01*
X012035D02*
X012001Y019297D01*
X012001D02*
Y018969D01*
X011899Y019297D02*
Y018969D01*
Y019297D02*
X011797D01*
X011797D02*
X011763Y019281D01*
X011763D02*
X011751Y019266D01*
X011751D02*
X011740Y019235D01*
Y019188*
X011751Y019156*
X011751D02*
X011763Y019141D01*
X011797Y019125*
X011797D02*
X011899D01*
X011638Y019297D02*
Y018969D01*
Y019297D02*
X011535D01*
X011535D02*
X011501Y019281D01*
X011501D02*
X011490Y019266D01*
X011479Y019235*
Y019188*
X011490Y019156*
X011490D02*
X011501Y019141D01*
X011501D02*
X011535Y019125D01*
X011535D02*
X011638D01*
X011217Y019250D02*
X011240Y019281D01*
X011240D02*
X011274Y019297D01*
X011274D02*
X011320D01*
X011320D02*
X011354Y019281D01*
X011354D02*
X011376Y019250D01*
X011376D02*
Y019219D01*
X011376D02*
X011365Y019188D01*
X011354Y019172*
X011354D02*
X011331Y019156D01*
X011331D02*
X011263Y019125D01*
X011263D02*
X011240Y019110D01*
X011229Y019094*
X011217Y019063*
X011217D02*
Y019016D01*
X011217D02*
X011240Y018985D01*
X011274Y018969*
X011274D02*
X011320D01*
X011354Y018985*
X011376Y019016*
X011104Y019219D02*
Y019235D01*
X011092Y019266*
X011092D02*
X011081Y019281D01*
X011081D02*
X011058Y019297D01*
X011058D02*
X011013D01*
X011013D02*
X010990Y019281D01*
X010990D02*
X010979Y019266D01*
X010967Y019235*
X010967D02*
Y019203D01*
X010967D02*
X010979Y019172D01*
X010979D02*
X011001Y019125D01*
X011001D02*
X011115Y018969D01*
X010956*
X011829Y018259D02*
X011840Y018290D01*
X011840D02*
X011863Y018321D01*
X011863D02*
X011886Y018337D01*
X011886D02*
X011931D01*
X011931D02*
X011954Y018321D01*
X011954D02*
X011977Y018290D01*
X011977D02*
X011988Y018259D01*
X011988D02*
X012000Y018212D01*
X012000D02*
Y018134D01*
X011988Y018087*
X011988D02*
X011977Y018056D01*
X011954Y018025*
X011954D02*
X011931Y018009D01*
X011931D02*
X011886D01*
X011863Y018025*
X011863D02*
X011840Y018056D01*
X011840D02*
X011829Y018087D01*
X011829D02*
Y018134D01*
X011886D02*
X011829D01*
X011727Y018337D02*
Y018009D01*
Y018337D02*
X011625D01*
X011625D02*
X011590Y018321D01*
X011590D02*
X011579Y018306D01*
X011579D02*
X011568Y018275D01*
Y018228*
X011579Y018196*
X011579D02*
X011590Y018181D01*
X011590D02*
X011625Y018165D01*
X011625D02*
X011727D01*
X011465Y018337D02*
Y018009D01*
X011295Y018337D02*
X011318Y018321D01*
X011318D02*
X011340Y018290D01*
X011340D02*
X011352Y018259D01*
X011363Y018212*
X011363D02*
Y018134D01*
X011363D02*
X011352Y018087D01*
X011352D02*
X011340Y018056D01*
X011340D02*
X011318Y018025D01*
X011295Y018009*
X011250*
X011227Y018025*
X011204Y018056*
X011204D02*
X011193Y018087D01*
X011193D02*
X011181Y018134D01*
X011181D02*
Y018212D01*
X011181D02*
X011193Y018259D01*
X011204Y018290*
X011204D02*
X011227Y018321D01*
X011227D02*
X011250Y018337D01*
X011250D02*
X011295D01*
X010943Y018290D02*
X010954Y018321D01*
X010954D02*
X010988Y018337D01*
X010988D02*
X011011D01*
X011011D02*
X011045Y018321D01*
X011045D02*
X011068Y018275D01*
X011079Y018196*
X011079D02*
Y018118D01*
X011079D02*
X011068Y018056D01*
X011045Y018025*
X011011Y018009*
X011000*
X010965Y018025*
X010965D02*
X010943Y018056D01*
X010931Y018103*
X010931D02*
Y018118D01*
X010931D02*
X010943Y018165D01*
X010943D02*
X010965Y018196D01*
X010965D02*
X011000Y018212D01*
X011000D02*
X011011D01*
X011011D02*
X011045Y018196D01*
X011045D02*
X011068Y018165D01*
X011068D02*
X011079Y018118D01*
X011440Y017330D02*
X011463Y017361D01*
X011463D02*
X011497Y017377D01*
X011497D02*
X011543D01*
X011543D02*
X011577Y017361D01*
X011577D02*
X011600Y017330D01*
X011600D02*
Y017299D01*
X011588Y017268*
X011588D02*
X011577Y017252D01*
X011577D02*
X011554Y017236D01*
X011554D02*
X011486Y017205D01*
X011486D02*
X011463Y017190D01*
X011463D02*
X011452Y017174D01*
X011440Y017143*
X011440D02*
Y017096D01*
X011440D02*
X011463Y017065D01*
X011463D02*
X011497Y017049D01*
X011497D02*
X011543D01*
X011577Y017065*
X011600Y017096*
X011338Y017377D02*
Y017049D01*
Y017377D02*
X011259D01*
X011259D02*
X011225Y017361D01*
X011225D02*
X011202Y017330D01*
X011202D02*
X011190Y017299D01*
X011190D02*
X011179Y017252D01*
X011179D02*
Y017174D01*
X011179D02*
X011190Y017127D01*
X011190D02*
X011202Y017096D01*
X011225Y017065*
X011259Y017049*
X011338*
X010986Y017377D02*
X011077Y017049D01*
X010986Y017377D02*
X010895Y017049D01*
X011043Y017158D02*
X010929D01*
X011440Y016210D02*
X011463Y016241D01*
X011463D02*
X011497Y016257D01*
X011497D02*
X011543D01*
X011543D02*
X011577Y016241D01*
X011577D02*
X011600Y016210D01*
X011600D02*
Y016179D01*
X011588Y016148*
X011588D02*
X011577Y016132D01*
X011577D02*
X011554Y016116D01*
X011554D02*
X011486Y016085D01*
X011486D02*
X011463Y016070D01*
X011463D02*
X011452Y016054D01*
X011440Y016023*
X011440D02*
Y015976D01*
X011440D02*
X011463Y015945D01*
X011463D02*
X011497Y015929D01*
X011497D02*
X011543D01*
X011577Y015945*
X011600Y015976*
X011168Y016179D02*
X011179Y016210D01*
X011179D02*
X011202Y016241D01*
X011202D02*
X011225Y016257D01*
X011225D02*
X011270D01*
X011270D02*
X011293Y016241D01*
X011293D02*
X011315Y016210D01*
X011315D02*
X011327Y016179D01*
X011338Y016132*
X011338D02*
Y016054D01*
X011338D02*
X011327Y016007D01*
X011327D02*
X011315Y015976D01*
X011315D02*
X011293Y015945D01*
X011270Y015929*
X011225*
X011202Y015945*
X011179Y015976*
X011179D02*
X011168Y016007D01*
X011065Y016257D02*
Y015929D01*
X011065D02*
X010929D01*
X011920Y015217D02*
X011829Y014889D01*
X011738Y015217D02*
X011829Y014889D01*
X011635Y015217D02*
Y014889D01*
Y015217D02*
X011533D01*
X011533D02*
X011499Y015201D01*
X011499D02*
X011488Y015186D01*
X011476Y015155*
X011476D02*
Y015123D01*
X011476D02*
X011488Y015092D01*
X011488D02*
X011499Y015076D01*
X011499D02*
X011533Y015061D01*
X011635D02*
X011533D01*
X011533D02*
X011499Y015045D01*
X011499D02*
X011488Y015030D01*
X011476Y014998*
X011476D02*
Y014951D01*
X011476D02*
X011488Y014920D01*
X011488D02*
X011499Y014905D01*
X011499D02*
X011533Y014889D01*
X011533D02*
X011635D01*
X011283Y015217D02*
X011374Y014889D01*
X011283Y015217D02*
X011192Y014889D01*
X011340Y014998D02*
X011226D01*
X011010Y015217D02*
Y014889D01*
X011090Y015217D02*
X010931D01*
X017120Y020337D02*
Y020009D01*
Y020337D02*
X017017D01*
X017017D02*
X016983Y020321D01*
X016983D02*
X016972Y020306D01*
X016960Y020275*
X016960D02*
Y020243D01*
X016960D02*
X016972Y020212D01*
X016972D02*
X016983Y020196D01*
X016983D02*
X017017Y020181D01*
X017017D02*
X017120D01*
X017040D02*
X016960Y020009D01*
X016858Y020337D02*
X016699Y020009D01*
Y020337D02*
X016858Y020009D01*
X016597Y020337D02*
Y020009D01*
Y020337D02*
X016517D01*
X016517D02*
X016483Y020321D01*
X016483D02*
X016460Y020290D01*
X016460D02*
X016449Y020259D01*
X016449D02*
X016438Y020212D01*
X016438D02*
Y020134D01*
X016449Y020087*
X016449D02*
X016460Y020056D01*
X016460D02*
X016483Y020025D01*
X016483D02*
X016517Y020009D01*
X016517D02*
X016597D01*
X016335Y020275D02*
X016313Y020290D01*
X016313D02*
X016279Y020337D01*
X016279D02*
Y020009D01*
X016960Y019250D02*
X016983Y019281D01*
X016983D02*
X017017Y019297D01*
X017017D02*
X017063D01*
X017063D02*
X017097Y019281D01*
X017097D02*
X017120Y019250D01*
X017120D02*
Y019219D01*
X017108Y019188*
X017108D02*
X017097Y019172D01*
X017097D02*
X017074Y019156D01*
X017074D02*
X017006Y019125D01*
X017006D02*
X016983Y019110D01*
X016983D02*
X016972Y019094D01*
X016960Y019063*
X016960D02*
Y019016D01*
X016960D02*
X016983Y018985D01*
X016983D02*
X017017Y018969D01*
X017017D02*
X017063D01*
X017097Y018985*
X017120Y019016*
X016858Y019297D02*
Y018969D01*
Y019297D02*
X016756D01*
X016756D02*
X016722Y019281D01*
X016722D02*
X016710Y019266D01*
X016710D02*
X016699Y019235D01*
X016699D02*
Y019188D01*
X016699D02*
X016710Y019156D01*
X016710D02*
X016722Y019141D01*
X016756Y019125*
X016756D02*
X016858D01*
X016597Y019297D02*
Y018969D01*
X016495Y018906D02*
X016256D01*
X016017Y019219D02*
X016029Y019250D01*
X016029D02*
X016051Y019281D01*
X016051D02*
X016074Y019297D01*
X016074D02*
X016120D01*
X016120D02*
X016142Y019281D01*
X016142D02*
X016165Y019250D01*
X016165D02*
X016176Y019219D01*
X016176D02*
X016188Y019172D01*
X016188D02*
Y019094D01*
X016176Y019047*
X016176D02*
X016165Y019016D01*
X016142Y018985*
X016142D02*
X016120Y018969D01*
X016074*
X016074D02*
X016051Y018985D01*
X016051D02*
X016029Y019016D01*
X016017Y019047*
X015756Y019250D02*
X015779Y019281D01*
X015779D02*
X015813Y019297D01*
X015813D02*
X015858D01*
X015858D02*
X015892Y019281D01*
X015892D02*
X015915Y019250D01*
X015915D02*
Y019219D01*
X015904Y019188*
X015892Y019172*
X015892D02*
X015870Y019156D01*
X015870D02*
X015801Y019125D01*
X015801D02*
X015779Y019110D01*
X015767Y019094*
X015767D02*
X015756Y019063D01*
Y019016*
X015779Y018985*
X015813Y018969*
X015858*
X015858D02*
X015892Y018985D01*
X015892D02*
X015915Y019016D01*
X015654Y019297D02*
Y018969D01*
Y019297D02*
X015495Y018969D01*
Y019297D02*
Y018969D01*
X016960Y018290D02*
X016983Y018321D01*
X016983D02*
X017017Y018337D01*
X017017D02*
X017063D01*
X017063D02*
X017097Y018321D01*
X017097D02*
X017120Y018290D01*
X017120D02*
Y018259D01*
X017108Y018228*
X017108D02*
X017097Y018212D01*
X017097D02*
X017074Y018196D01*
X017074D02*
X017006Y018165D01*
X017006D02*
X016983Y018150D01*
X016983D02*
X016972Y018134D01*
X016960Y018103*
X016960D02*
Y018056D01*
X016960D02*
X016983Y018025D01*
X016983D02*
X017017Y018009D01*
X017017D02*
X017063D01*
X017097Y018025*
X017120Y018056*
X016858Y018337D02*
Y018009D01*
Y018337D02*
X016756D01*
X016756D02*
X016722Y018321D01*
X016722D02*
X016710Y018306D01*
X016710D02*
X016699Y018275D01*
X016699D02*
Y018228D01*
X016699D02*
X016710Y018196D01*
X016710D02*
X016722Y018181D01*
X016756Y018165*
X016756D02*
X016858D01*
X016597Y018337D02*
Y018009D01*
X016495Y017946D02*
X016256D01*
X016017Y018259D02*
X016029Y018290D01*
X016029D02*
X016051Y018321D01*
X016051D02*
X016074Y018337D01*
X016074D02*
X016120D01*
X016120D02*
X016142Y018321D01*
X016142D02*
X016165Y018290D01*
X016165D02*
X016176Y018259D01*
X016176D02*
X016188Y018212D01*
X016188D02*
Y018134D01*
X016176Y018087*
X016176D02*
X016165Y018056D01*
X016142Y018025*
X016142D02*
X016120Y018009D01*
X016074*
X016074D02*
X016051Y018025D01*
X016051D02*
X016029Y018056D01*
X016017Y018087*
X015915Y018337D02*
Y018009D01*
X015779*
X015676Y018337D02*
Y018009D01*
X015517Y018337D02*
X015676Y018118D01*
X015620Y018196D02*
X015517Y018009D01*
X017120Y017377D02*
Y017049D01*
Y017377D02*
X017017D01*
X017017D02*
X016983Y017361D01*
X016983D02*
X016972Y017346D01*
X016960Y017315*
X016960D02*
Y017268D01*
X016960D02*
X016972Y017236D01*
X016972D02*
X016983Y017221D01*
X016983D02*
X017017Y017205D01*
X017017D02*
X017120D01*
X016858Y017315D02*
X016835Y017330D01*
X016835D02*
X016801Y017377D01*
X016801D02*
Y017049D01*
X016699Y017377D02*
Y017049D01*
Y017377D02*
X016597D01*
X016597D02*
X016563Y017361D01*
X016563D02*
X016551Y017346D01*
X016551D02*
X016540Y017315D01*
Y017268*
X016551Y017236*
X016551D02*
X016563Y017221D01*
X016597Y017205*
X016597D02*
X016699D01*
X016438Y017377D02*
Y017049D01*
Y017377D02*
X016335D01*
X016335D02*
X016301Y017361D01*
X016301D02*
X016290Y017346D01*
X016279Y017315*
Y017268*
X016290Y017236*
X016290D02*
X016301Y017221D01*
X016301D02*
X016335Y017205D01*
X016335D02*
X016438D01*
X016017Y017330D02*
X016040Y017361D01*
X016040D02*
X016074Y017377D01*
X016074D02*
X016120D01*
X016120D02*
X016154Y017361D01*
X016154D02*
X016176Y017330D01*
X016176D02*
Y017299D01*
X016176D02*
X016165Y017268D01*
X016154Y017252*
X016154D02*
X016131Y017236D01*
X016131D02*
X016063Y017205D01*
X016063D02*
X016040Y017190D01*
X016029Y017174*
X016017Y017143*
X016017D02*
Y017096D01*
X016017D02*
X016040Y017065D01*
X016074Y017049*
X016074D02*
X016120D01*
X016154Y017065*
X016176Y017096*
X017120Y016337D02*
Y016009D01*
Y016337D02*
X017029Y016009D01*
X016938Y016337D02*
X017029Y016009D01*
X016938Y016337D02*
Y016009D01*
X016835Y016337D02*
Y016009D01*
X016574Y016290D02*
X016597Y016321D01*
X016597D02*
X016631Y016337D01*
X016631D02*
X016676D01*
X016676D02*
X016710Y016321D01*
X016710D02*
X016733Y016290D01*
X016733D02*
Y016259D01*
X016733D02*
X016722Y016228D01*
X016710Y016212*
X016710D02*
X016688Y016196D01*
X016688D02*
X016620Y016165D01*
X016620D02*
X016597Y016150D01*
X016585Y016134*
X016585D02*
X016574Y016103D01*
X016574D02*
Y016056D01*
X016574D02*
X016597Y016025D01*
X016631Y016009*
X016676*
X016676D02*
X016710Y016025D01*
X016710D02*
X016733Y016056D01*
X016404Y016337D02*
X016426Y016321D01*
X016426D02*
X016449Y016290D01*
X016449D02*
X016460Y016259D01*
X016460D02*
X016472Y016212D01*
X016472D02*
Y016134D01*
X016460Y016087*
X016460D02*
X016449Y016056D01*
X016449D02*
X016426Y016025D01*
X016426D02*
X016404Y016009D01*
X016358*
X016358D02*
X016335Y016025D01*
X016335D02*
X016313Y016056D01*
X016301Y016087*
X016301D02*
X016290Y016134D01*
Y016212*
X016290D02*
X016301Y016259D01*
X016301D02*
X016313Y016290D01*
X016313D02*
X016335Y016321D01*
X016335D02*
X016358Y016337D01*
X016358D02*
X016404D01*
X017120Y015217D02*
Y014889D01*
Y015217D02*
X017029Y014889D01*
X016938Y015217D02*
X017029Y014889D01*
X016938Y015217D02*
Y014889D01*
X016767Y015217D02*
X016790Y015201D01*
X016790D02*
X016813Y015170D01*
X016813D02*
X016824Y015139D01*
X016824D02*
X016835Y015092D01*
X016835D02*
Y015014D01*
X016835D02*
X016824Y014967D01*
X016824D02*
X016813Y014936D01*
X016790Y014905*
X016767Y014889*
X016767D02*
X016722D01*
X016699Y014905*
X016699D02*
X016676Y014936D01*
X016676D02*
X016665Y014967D01*
X016665D02*
X016654Y015014D01*
Y015092*
X016654D02*
X016665Y015139D01*
X016676Y015170*
X016676D02*
X016699Y015201D01*
X016699D02*
X016722Y015217D01*
X016722D02*
X016767D01*
X016392Y015170D02*
X016415Y015201D01*
X016415D02*
X016449Y015217D01*
X016449D02*
X016495D01*
X016495D02*
X016529Y015201D01*
X016529D02*
X016551Y015170D01*
X016551D02*
Y015139D01*
X016551D02*
X016540Y015108D01*
X016529Y015092*
X016529D02*
X016506Y015076D01*
X016506D02*
X016438Y015045D01*
X016438D02*
X016415Y015030D01*
X016404Y015014*
X016392Y014983*
X016392D02*
Y014936D01*
X016392D02*
X016415Y014905D01*
X016449Y014889*
X016449D02*
X016495D01*
X016529Y014905*
X016551Y014936*
X016290Y015217D02*
Y014889D01*
X015680Y020657D02*
Y020329D01*
X015760Y020657D02*
X015600D01*
X015498D02*
X015339Y020329D01*
Y020657D02*
X015498Y020329D01*
X015237Y020657D02*
Y020329D01*
Y020657D02*
X015157D01*
X015157D02*
X015123Y020641D01*
X015123D02*
X015100Y020610D01*
X015100D02*
X015089Y020579D01*
X015089D02*
X015078Y020532D01*
X015078D02*
Y020454D01*
X015089Y020407*
X015089D02*
X015100Y020376D01*
X015100D02*
X015123Y020345D01*
X015123D02*
X015157Y020329D01*
X015157D02*
X015237D01*
X014975Y020595D02*
X014953Y020610D01*
X014953D02*
X014919Y020657D01*
X014919D02*
Y020329D01*
X013280Y020657D02*
Y020329D01*
Y020657D02*
X013177D01*
X013177D02*
X013143Y020641D01*
X013143D02*
X013132Y020626D01*
X013120Y020595*
X013120D02*
Y020563D01*
X013120D02*
X013132Y020532D01*
X013132D02*
X013143Y020516D01*
X013143D02*
X013177Y020501D01*
X013280D02*
X013177D01*
X013177D02*
X013143Y020485D01*
X013143D02*
X013132Y020470D01*
X013120Y020438*
X013120D02*
Y020391D01*
X013120D02*
X013132Y020360D01*
X013132D02*
X013143Y020345D01*
X013143D02*
X013177Y020329D01*
X013177D02*
X013280D01*
X012859Y020610D02*
X012882Y020641D01*
X012882D02*
X012916Y020657D01*
X012916D02*
X012961D01*
X012961D02*
X012995Y020641D01*
X012995D02*
X013018Y020610D01*
X013018D02*
Y020579D01*
X013018D02*
X013007Y020548D01*
X012995Y020532*
X012995D02*
X012973Y020516D01*
X012973D02*
X012905Y020485D01*
X012905D02*
X012882Y020470D01*
X012870Y020454*
X012870D02*
X012859Y020423D01*
X012859D02*
Y020376D01*
X012859D02*
X012882Y020345D01*
X012916Y020329*
X012961*
X012961D02*
X012995Y020345D01*
X012995D02*
X013018Y020376D01*
X012757Y020657D02*
Y020329D01*
Y020657D02*
X012609D01*
X012757Y020501D02*
X012666D01*
X012757Y020329D02*
X012609D01*
X012507Y020657D02*
Y020329D01*
X012370*
G54D70*
X017440Y013212D02*
X017303Y012720D01*
X017167Y013212D02*
X017303Y012720D01*
X017013Y012907D02*
X016809D01*
X016809D02*
Y012954D01*
X016826Y013001*
X016843Y013024*
X016843D02*
X016877Y013048D01*
X016877D02*
X016928D01*
X016928D02*
X016962Y013024D01*
X016962D02*
X016996Y012977D01*
X016996D02*
X017013Y012907D01*
X017013D02*
Y012860D01*
X017013D02*
X016996Y012790D01*
X016996D02*
X016962Y012743D01*
X016962D02*
X016928Y012720D01*
X016928D02*
X016877D01*
X016877D02*
X016843Y012743D01*
X016809Y012790*
X016655Y013048D02*
Y012720D01*
Y012954D02*
X016604Y013024D01*
X016604D02*
X016570Y013048D01*
X016570D02*
X016519D01*
X016519D02*
X016485Y013024D01*
X016485D02*
X016468Y012954D01*
Y012720*
X016315Y013048D02*
Y012813D01*
X016315D02*
X016298Y012743D01*
X016263Y012720*
X016263D02*
X016212D01*
X016212D02*
X016178Y012743D01*
X016178D02*
X016127Y012813D01*
Y013048D02*
Y012720D01*
X015786Y012977D02*
X015803Y013024D01*
X015803D02*
X015854Y013048D01*
X015854D02*
X015905D01*
X015905D02*
X015957Y013024D01*
X015957D02*
X015974Y012977D01*
X015974D02*
X015957Y012930D01*
X015957D02*
X015923Y012907D01*
X015923D02*
X015837Y012884D01*
X015837D02*
X015803Y012860D01*
X015803D02*
X015786Y012813D01*
X015786D02*
Y012790D01*
X015786D02*
X015803Y012743D01*
X015803D02*
X015854Y012720D01*
X015854D02*
X015905D01*
X015905D02*
X015957Y012743D01*
X015974Y012790*
X015548Y013212D02*
X015599Y013188D01*
X015599D02*
X015616Y013141D01*
X015616D02*
Y013095D01*
X015599Y013048*
X015565Y013024*
X015565D02*
X015496Y013001D01*
X015496D02*
X015445Y012977D01*
X015445D02*
X015411Y012930D01*
X015411D02*
X015394Y012884D01*
X015394D02*
Y012813D01*
X015394D02*
X015411Y012766D01*
X015411D02*
X015428Y012743D01*
X015428D02*
X015479Y012720D01*
X015479D02*
X015548D01*
X015599Y012743*
X015616Y012766*
X015616D02*
X015633Y012813D01*
X015633D02*
Y012884D01*
X015616Y012930*
X015616D02*
X015582Y012977D01*
X015582D02*
X015530Y013001D01*
X015530D02*
X015462Y013024D01*
X015462D02*
X015428Y013048D01*
X015428D02*
X015411Y013095D01*
X015411D02*
Y013141D01*
X015411D02*
X015428Y013188D01*
X015428D02*
X015479Y013212D01*
X015479D02*
X015548D01*
X015207D02*
X015019D01*
X015019D02*
X015121Y013024D01*
X015121D02*
X015070D01*
X015070D02*
X015036Y013001D01*
X015036D02*
X015019Y012977D01*
X015019D02*
X015002Y012907D01*
X015002D02*
Y012860D01*
X015002D02*
X015019Y012790D01*
X015019D02*
X015053Y012743D01*
X015053D02*
X015104Y012720D01*
X015104D02*
X015155D01*
X015155D02*
X015207Y012743D01*
X015224Y012766*
X015224D02*
X015241Y012813D01*
X014763Y013212D02*
X014815Y013188D01*
X014815D02*
X014832Y013141D01*
X014832D02*
Y013095D01*
X014815Y013048*
X014780Y013024*
X014780D02*
X014712Y013001D01*
X014712D02*
X014661Y012977D01*
X014661D02*
X014627Y012930D01*
X014627D02*
X014610Y012884D01*
Y012813*
X014610D02*
X014627Y012766D01*
X014627D02*
X014644Y012743D01*
X014644D02*
X014695Y012720D01*
X014695D02*
X014763D01*
X014763D02*
X014815Y012743D01*
X014832Y012766*
X014832D02*
X014849Y012813D01*
X014849D02*
Y012884D01*
X014832Y012930*
X014832D02*
X014798Y012977D01*
X014798D02*
X014746Y013001D01*
X014746D02*
X014678Y013024D01*
X014678D02*
X014644Y013048D01*
X014644D02*
X014627Y013095D01*
X014627D02*
Y013141D01*
X014627D02*
X014644Y013188D01*
X014644D02*
X014695Y013212D01*
X014695D02*
X014763D01*
X014457D02*
Y012720D01*
Y013212D02*
X014235D01*
X014457Y012977D02*
X014320D01*
X014082Y013212D02*
Y012720D01*
X013877*
X013724Y013212D02*
Y012720D01*
Y013212D02*
X013570D01*
X013570D02*
X013519Y013188D01*
X013519D02*
X013502Y013165D01*
X013502D02*
X013485Y013118D01*
Y013048*
X013502Y013001*
X013502D02*
X013519Y012977D01*
X013519D02*
X013570Y012954D01*
X013570D02*
X013724D01*
X013332Y013048D02*
X013144Y012720D01*
Y013048D02*
X013332Y012720D01*
X017920Y011368D02*
X017851Y011040D01*
X017783Y011368D02*
X017851Y011040D01*
X017783Y011368D02*
X017715Y011040D01*
X017647Y011368D02*
X017715Y011040D01*
X017493Y011368D02*
X017425Y011040D01*
X017357Y011368D02*
X017425Y011040D01*
X017357Y011368D02*
X017289Y011040D01*
X017221Y011368D02*
X017289Y011040D01*
X017067Y011368D02*
X016999Y011040D01*
X016931Y011368D02*
X016999Y011040D01*
X016931Y011368D02*
X016863Y011040D01*
X016795Y011368D02*
X016863Y011040D01*
X016624Y011086D02*
X016641Y011063D01*
X016641D02*
X016624Y011040D01*
X016624D02*
X016607Y011063D01*
X016607D02*
X016624Y011086D01*
X016266Y011297D02*
X016283Y011344D01*
X016283D02*
X016334Y011368D01*
X016334D02*
X016385D01*
X016385D02*
X016437Y011344D01*
X016437D02*
X016454Y011297D01*
X016454D02*
X016437Y011250D01*
X016437D02*
X016403Y011227D01*
X016403D02*
X016317Y011204D01*
X016317D02*
X016283Y011180D01*
X016283D02*
X016266Y011133D01*
X016266D02*
Y011110D01*
X016266D02*
X016283Y011063D01*
X016283D02*
X016334Y011040D01*
X016334D02*
X016385D01*
X016385D02*
X016437Y011063D01*
X016454Y011110*
X016113Y011368D02*
Y011040D01*
Y011274D02*
X016062Y011344D01*
X016062D02*
X016028Y011368D01*
X015976*
X015976D02*
X015942Y011344D01*
X015942D02*
X015925Y011274D01*
X015925D02*
Y011040D01*
Y011274D02*
X015874Y011344D01*
X015874D02*
X015840Y011368D01*
X015789*
X015755Y011344*
X015755D02*
X015738Y011274D01*
Y011040*
X015499Y011368D02*
X015533Y011344D01*
X015533D02*
X015567Y011297D01*
X015567D02*
X015584Y011227D01*
X015584D02*
Y011180D01*
X015584D02*
X015567Y011110D01*
X015567D02*
X015533Y011063D01*
X015533D02*
X015499Y011040D01*
X015499D02*
X015448D01*
X015414Y011063*
X015380Y011110*
X015363Y011180*
X015363D02*
Y011227D01*
X015363D02*
X015380Y011297D01*
X015380D02*
X015414Y011344D01*
X015414D02*
X015448Y011368D01*
X015499*
X015209Y011532D02*
Y011040D01*
X015039Y011368D02*
X015209Y011133D01*
X015141Y011227D02*
X015022Y011040D01*
X014868Y011532D02*
X014851Y011508D01*
X014851D02*
X014834Y011532D01*
X014834D02*
X014851Y011555D01*
X014851D02*
X014868Y011532D01*
X014851Y011368D02*
Y011040D01*
X014681Y011368D02*
Y011040D01*
Y011274D02*
X014630Y011344D01*
X014630D02*
X014596Y011368D01*
X014545*
X014510Y011344*
X014510D02*
X014493Y011274D01*
X014493D02*
Y011040D01*
X014135Y011368D02*
Y010993D01*
X014135D02*
X014153Y010922D01*
X014153D02*
X014170Y010899D01*
X014204Y010875*
X014204D02*
X014255D01*
X014255D02*
X014289Y010899D01*
X014135Y011297D02*
X014170Y011344D01*
X014170D02*
X014204Y011368D01*
X014255*
X014289Y011344*
X014289D02*
X014323Y011297D01*
X014323D02*
X014340Y011227D01*
X014340D02*
Y011180D01*
X014340D02*
X014323Y011110D01*
X014289Y011063*
X014255Y011040*
X014204*
X014170Y011063*
X014135Y011110*
X013982Y011368D02*
Y011040D01*
Y011227D02*
X013965Y011297D01*
X013965D02*
X013931Y011344D01*
X013931D02*
X013897Y011368D01*
X013846*
X013692Y011227D02*
X013488D01*
X013488D02*
Y011274D01*
X013505Y011321*
X013522Y011344*
X013522D02*
X013556Y011368D01*
X013607*
X013607D02*
X013641Y011344D01*
X013641D02*
X013675Y011297D01*
X013675D02*
X013692Y011227D01*
X013692D02*
Y011180D01*
X013692D02*
X013675Y011110D01*
X013675D02*
X013641Y011063D01*
X013641D02*
X013607Y011040D01*
X013607D02*
X013556D01*
X013522Y011063*
X013488Y011110*
X013147Y011297D02*
X013164Y011344D01*
X013164D02*
X013215Y011368D01*
X013266*
X013266D02*
X013317Y011344D01*
X013317D02*
X013334Y011297D01*
X013334D02*
X013317Y011250D01*
X013317D02*
X013283Y011227D01*
X013283D02*
X013198Y011204D01*
X013164Y011180*
X013164D02*
X013147Y011133D01*
X013147D02*
Y011110D01*
X013164Y011063*
X013215Y011040*
X013266*
X013266D02*
X013317Y011063D01*
X013317D02*
X013334Y011110D01*
X012993Y011532D02*
X012976Y011508D01*
X012976D02*
X012959Y011532D01*
X012959D02*
X012976Y011555D01*
X012976D02*
X012993Y011532D01*
X012976Y011368D02*
Y011040D01*
X012618Y011297D02*
X012635Y011344D01*
X012635D02*
X012687Y011368D01*
X012738*
X012789Y011344*
X012789D02*
X012806Y011297D01*
X012806D02*
X012789Y011250D01*
X012789D02*
X012755Y011227D01*
X012755D02*
X012670Y011204D01*
X012635Y011180*
X012635D02*
X012618Y011133D01*
X012618D02*
Y011110D01*
X012618D02*
X012635Y011063D01*
X012635D02*
X012687Y011040D01*
X012738*
X012789Y011063*
X012806Y011110*
X012414Y011532D02*
Y011133D01*
X012414D02*
X012397Y011063D01*
X012363Y011040*
X012329*
X012465Y011368D02*
X012346D01*
X012090D02*
X012124Y011344D01*
X012124D02*
X012158Y011297D01*
X012158D02*
X012175Y011227D01*
X012175D02*
Y011180D01*
X012175D02*
X012158Y011110D01*
X012158D02*
X012124Y011063D01*
X012124D02*
X012090Y011040D01*
X012039*
X012005Y011063*
X011971Y011110*
X011954Y011180*
X011954D02*
Y011227D01*
X011954D02*
X011971Y011297D01*
X011971D02*
X012005Y011344D01*
X012005D02*
X012039Y011368D01*
X012090*
X011800D02*
Y011040D01*
Y011227D02*
X011783Y011297D01*
X011783D02*
X011749Y011344D01*
X011749D02*
X011715Y011368D01*
X011664*
X011493Y011086D02*
X011510Y011063D01*
X011510D02*
X011493Y011040D01*
X011493D02*
X011476Y011063D01*
X011476D02*
X011493Y011086D01*
X011118Y011297D02*
X011153Y011344D01*
X011153D02*
X011187Y011368D01*
X011238*
X011272Y011344*
X011272D02*
X011306Y011297D01*
X011306D02*
X011323Y011227D01*
X011323D02*
Y011180D01*
X011323D02*
X011306Y011110D01*
X011272Y011063*
X011238Y011040*
X011187*
X011153Y011063*
X011118Y011110*
X010880Y011368D02*
X010914Y011344D01*
X010914D02*
X010948Y011297D01*
X010948D02*
X010965Y011227D01*
X010965D02*
Y011180D01*
X010965D02*
X010948Y011110D01*
X010914Y011063*
X010880Y011040*
X010829*
X010795Y011063*
X010760Y011110*
X010760D02*
X010743Y011180D01*
X010743D02*
Y011227D01*
X010743D02*
X010760Y011297D01*
X010760D02*
X010795Y011344D01*
X010795D02*
X010829Y011368D01*
X010880*
X010590D02*
Y011040D01*
Y011274D02*
X010539Y011344D01*
X010539D02*
X010505Y011368D01*
X010454*
X010420Y011344*
X010420D02*
X010403Y011274D01*
Y011040*
Y011274D02*
X010351Y011344D01*
X010351D02*
X010317Y011368D01*
X010317D02*
X010266D01*
X010266D02*
X010232Y011344D01*
X010232D02*
X010215Y011274D01*
Y011040*
X017104Y012375D02*
X017121Y012421D01*
X017121D02*
X017155Y012468D01*
X017155D02*
X017189Y012492D01*
X017189D02*
X017257D01*
X017257D02*
X017291Y012468D01*
X017291D02*
X017325Y012421D01*
X017325D02*
X017343Y012375D01*
X017360Y012304*
X017360D02*
Y012187D01*
X017360D02*
X017343Y012117D01*
X017325Y012070*
X017325D02*
X017291Y012023D01*
X017291D02*
X017257Y012000D01*
X017257D02*
X017189D01*
X017189D02*
X017155Y012023D01*
X017121Y012070*
X017104Y012117*
Y012187*
X017189D02*
X017104D01*
X016950Y012492D02*
Y012000D01*
Y012492D02*
X016797D01*
X016797D02*
X016746Y012468D01*
X016746D02*
X016729Y012445D01*
X016712Y012398*
Y012328*
X016729Y012281*
X016746Y012257*
X016746D02*
X016797Y012234D01*
X016797D02*
X016950D01*
X016320Y012421D02*
X016354Y012468D01*
X016354D02*
X016405Y012492D01*
X016473*
X016473D02*
X016524Y012468D01*
X016524D02*
X016558Y012421D01*
X016558D02*
Y012375D01*
X016558D02*
X016541Y012328D01*
X016541D02*
X016524Y012304D01*
X016524D02*
X016490Y012281D01*
X016490D02*
X016388Y012234D01*
X016354Y012210*
X016354D02*
X016337Y012187D01*
X016337D02*
X016320Y012140D01*
X016320D02*
Y012070D01*
X016354Y012023*
X016405Y012000*
X016473*
X016473D02*
X016524Y012023D01*
X016524D02*
X016558Y012070D01*
X015774Y012328D02*
X015672Y012000D01*
X015570Y012328D02*
X015672Y012000D01*
X015416Y012398D02*
X015382Y012421D01*
X015382D02*
X015331Y012492D01*
X015331D02*
Y012000D01*
X015161Y012046D02*
X015178Y012023D01*
X015161Y012000*
X015144Y012023*
X015161Y012046*
X014990Y012398D02*
X014956Y012421D01*
X014956D02*
X014905Y012492D01*
Y012000*
X000000Y000000D02*
M02*
