%
T1C.013F095S3
X01168Y01656
X01088Y01672
X01072Y01768
X0112Y01792
X01144Y01864
X01152Y01968
X012Y02144
X01504Y02136
X014Y02136
X01304Y02136
X0136Y0184
X01424Y0184
X01488Y0184
X01656Y01536
X01776Y01568
X01776Y01672
X01776Y01768
X01616Y01856
X01656Y01864
X01728Y01864
X01624Y01952
X01776Y01968
X01776Y02064
X01704Y02136
X016Y02136
T2C.02362F197S55
X011353Y010407
X012353Y010407
X010407Y010731
X01152Y01168
X01288Y01168
X010407Y011731
X01224Y01248
X01048Y0128
X01104Y01336
X01224Y01352
X01048Y01392
X0136Y01352
X01488Y01352
X0136Y01248
X01536Y01096
X013353Y010407
X016861Y010407
X017703Y010947
X01608Y0116
X017703Y011947
X017703Y012947
X01672Y01352
X01576Y01352
X017703Y013947
X01656Y01456
T3C.035F197S55
X010551Y015181
X010551Y016181
X010551Y017181
X010551Y018181
X010551Y019181
X010551Y020181
X010551Y021181
X01252Y021181
X01152Y021181
X01352Y021181
X01452Y021181
X01652Y021181
X01552Y021181
X01752Y021181
X01752Y020181
X01752Y019181
X01752Y018181
X01752Y017181
X01752Y016181
X01752Y015181
M30
