*
*
G04 PADS 9.3 Build Number: 433611 generated Gerber (RS-274-X) file*
G04 PC Version=2.1*
*
%IN "GPS.pcb"*%
*
%MOIN*%
*
%FSDAX24Y24*%
*
*
*
*
G04 PC Standard Apertures*
*
*
G04 Thermal Relief Aperture macro.*
%AMTER*
1,1,$1,0,0*
1,0,$1-$2,0,0*
21,0,$3,$4,0,0,45*
21,0,$3,$4,0,0,135*
%
*
*
G04 Annular Aperture macro.*
%AMANN*
1,1,$1,0,0*
1,0,$2,0,0*
%
*
*
G04 Odd Aperture macro.*
%AMODD*
1,1,$1,0,0*
1,0,$1-0.005,0,0*
%
*
*
G04 PC Custom Aperture Macros*
*
*
*
*
*
*
G04 PC Aperture Table*
*
%ADD010C,0.001*%
%ADD011C,0.00787*%
%ADD012C,0.00984*%
%ADD013C,0.01*%
%ADD036C,0.006*%
%ADD071C,0.00787*%
*
*
*
*
G04 PC Circuitry*
G04 Layer Name GPS.pcb - circuitry*
%LPD*%
*
*
G04 PC Custom Flashes*
G04 Layer Name GPS.pcb - flashes*
%LPD*%
*
*
G04 PC Circuitry*
G04 Layer Name GPS.pcb - circuitry*
%LPD*%
*
G54D10*
G54D11*
G01X015846Y017992D02*
X015881D01*
X015881D02*
X016023Y017850D01*
X016023D02*
Y017815D01*
X015846Y014055D02*
X016023D01*
X016023D02*
Y014232D01*
X012263Y017992D02*
X012086D01*
X012086D02*
Y017815D01*
X012263Y014055D02*
X012086D01*
X012086D02*
Y014232D01*
G54D12*
X015679Y018385D02*
G75*
G03X015679I-000049J0D01*
G54D13*
G01X010000Y010000D02*
Y021811D01*
X018110*
Y010000*
X010000*
X012640Y020560D02*
X012840Y020760D01*
X013040Y020560*
X012640*
X013600Y020720D02*
X013400Y020520D01*
X013200Y020720*
X013600*
G54D36*
X011142Y020817D02*
X011267D01*
X011267D02*
X011199Y020692D01*
X011199D02*
X011233D01*
X011233D02*
X011256Y020676D01*
X011256D02*
X011267Y020661D01*
X011267D02*
X011279Y020614D01*
Y020583*
X011267Y020536*
X011267D02*
X011245Y020505D01*
X011210Y020489*
X011210D02*
X011176D01*
X011176D02*
X011142Y020505D01*
X011142D02*
X011131Y020520D01*
X011131D02*
X011120Y020551D01*
X011392Y020520D02*
X011381Y020505D01*
X011392Y020489*
X011392D02*
X011404Y020505D01*
X011392Y020520*
X011529Y020817D02*
X011654D01*
X011654D02*
X011585Y020692D01*
X011585D02*
X011620D01*
X011620D02*
X011642Y020676D01*
X011642D02*
X011654Y020661D01*
X011665Y020614*
Y020583*
X011654Y020536*
X011631Y020505*
X011597Y020489*
X011563*
X011529Y020505*
X011517Y020520*
X011517D02*
X011506Y020551D01*
X011767Y020817D02*
X011858Y020489D01*
X011949Y020817D02*
X011858Y020489D01*
X014410Y020739D02*
X014399Y020770D01*
X014399D02*
X014376Y020801D01*
X014376D02*
X014353Y020817D01*
X014353D02*
X014308D01*
X014308D02*
X014285Y020801D01*
X014285D02*
X014262Y020770D01*
X014262D02*
X014251Y020739D01*
X014240Y020692*
X014240D02*
Y020614D01*
X014251Y020567*
X014251D02*
X014262Y020536D01*
X014262D02*
X014285Y020505D01*
X014308Y020489*
X014353*
X014353D02*
X014376Y020505D01*
X014399Y020536*
X014410Y020567*
X014410D02*
Y020614D01*
X014353D02*
X014410D01*
X014512Y020817D02*
Y020489D01*
Y020817D02*
X014671Y020489D01*
Y020817D02*
Y020489D01*
X014774Y020817D02*
Y020489D01*
Y020817D02*
X014853D01*
X014853D02*
X014887Y020801D01*
X014887D02*
X014910Y020770D01*
X014910D02*
X014921Y020739D01*
X014921D02*
X014933Y020692D01*
X014933D02*
Y020614D01*
X014921Y020567*
X014921D02*
X014910Y020536D01*
X014887Y020505*
X014887D02*
X014853Y020489D01*
X014853D02*
X014774D01*
X013680Y020817D02*
Y020489D01*
Y020817D02*
X013782D01*
X013782D02*
X013816Y020801D01*
X013816D02*
X013827Y020786D01*
X013827D02*
X013839Y020755D01*
Y020723*
X013839D02*
X013827Y020692D01*
X013827D02*
X013816Y020676D01*
X013816D02*
X013782Y020661D01*
X013680*
X013759D02*
X013839Y020489D01*
X013941Y020817D02*
X014100Y020489D01*
Y020817D02*
X013941Y020489D01*
X012239Y020817D02*
Y020489D01*
X012160Y020817D02*
X012319D01*
X012421D02*
X012580Y020489D01*
Y020817D02*
X012421Y020489D01*
X015200Y020817D02*
Y020489D01*
Y020817D02*
X015302D01*
X015302D02*
X015336Y020801D01*
X015336D02*
X015347Y020786D01*
X015347D02*
X015359Y020755D01*
Y020723*
X015359D02*
X015347Y020692D01*
X015347D02*
X015336Y020676D01*
X015336D02*
X015302Y020661D01*
X015200*
X015279D02*
X015359Y020489D01*
X015620Y020770D02*
X015597Y020801D01*
X015597D02*
X015563Y020817D01*
X015563D02*
X015518D01*
X015518D02*
X015484Y020801D01*
X015484D02*
X015461Y020770D01*
X015461D02*
Y020739D01*
X015472Y020708*
X015472D02*
X015484Y020692D01*
X015484D02*
X015506Y020676D01*
X015506D02*
X015575Y020645D01*
X015575D02*
X015597Y020630D01*
X015597D02*
X015609Y020614D01*
X015620Y020583*
Y020536*
X015597Y020505*
X015597D02*
X015563Y020489D01*
X015563D02*
X015518D01*
X015484Y020505*
X015461Y020536*
X015802Y020817D02*
Y020489D01*
X015722Y020817D02*
X015881D01*
X016410Y020739D02*
X016399Y020770D01*
X016399D02*
X016376Y020801D01*
X016376D02*
X016353Y020817D01*
X016353D02*
X016308D01*
X016308D02*
X016285Y020801D01*
X016285D02*
X016262Y020770D01*
X016262D02*
X016251Y020739D01*
X016240Y020692*
X016240D02*
Y020614D01*
X016251Y020567*
X016251D02*
X016262Y020536D01*
X016262D02*
X016285Y020505D01*
X016308Y020489*
X016353*
X016353D02*
X016376Y020505D01*
X016399Y020536*
X016410Y020567*
X016410D02*
Y020614D01*
X016353D02*
X016410D01*
X016512Y020817D02*
Y020489D01*
Y020817D02*
X016671Y020489D01*
Y020817D02*
Y020489D01*
X016774Y020817D02*
Y020489D01*
Y020817D02*
X016853D01*
X016853D02*
X016887Y020801D01*
X016887D02*
X016910Y020770D01*
X016910D02*
X016921Y020739D01*
X016921D02*
X016933Y020692D01*
X016933D02*
Y020614D01*
X016921Y020567*
X016921D02*
X016910Y020536D01*
X016887Y020505*
X016887D02*
X016853Y020489D01*
X016853D02*
X016774D01*
G54D71*
X011180Y015140D02*
X011516D01*
X011180Y014940D02*
X011480D01*
X011330Y015090*
X011180Y014940*
X012955Y019033D02*
X012619D01*
X012955Y019233D02*
X012655D01*
X012655D02*
X012805Y019083D01*
X012805D02*
X012955Y019233D01*
X014065Y010324D02*
Y012824D01*
X014065D02*
X016565D01*
X016565D02*
Y010324D01*
X016565D02*
X014065D01*
G74*
X000000Y000000D02*
M02*
