G75*
%MOIN*%
%OFA0B0*%
%FSLAX24Y24*%
%IPPOS*%
%LPD*%
%AMOC8*
5,1,8,0,0,1.08239X$1,22.5*
%
%ADD10C,0.0080*%
%ADD11C,0.0050*%
%ADD12R,0.2000X0.2000*%
%ADD13C,0.0079*%
%ADD14R,0.0098X0.0098*%
%ADD15C,0.0059*%
%ADD16C,0.0100*%
%ADD17C,0.0060*%
%ADD18C,0.0039*%
%ADD19R,0.0118X0.0118*%
%ADD20C,0.0126*%
D10*
X017383Y017535D02*
X017580Y017338D01*
X022620Y017338D01*
X022817Y017535D01*
X022817Y022575D01*
X022620Y022772D01*
X017580Y022772D01*
X017383Y022575D01*
X017383Y017535D01*
X017580Y022378D02*
X017582Y022405D01*
X017588Y022432D01*
X017597Y022458D01*
X017610Y022482D01*
X017626Y022505D01*
X017645Y022524D01*
X017667Y022541D01*
X017691Y022555D01*
X017716Y022565D01*
X017743Y022572D01*
X017770Y022575D01*
X017798Y022574D01*
X017825Y022569D01*
X017851Y022561D01*
X017875Y022549D01*
X017898Y022533D01*
X017919Y022515D01*
X017936Y022494D01*
X017951Y022470D01*
X017962Y022445D01*
X017970Y022419D01*
X017974Y022392D01*
X017974Y022364D01*
X017970Y022337D01*
X017962Y022311D01*
X017951Y022286D01*
X017936Y022262D01*
X017919Y022241D01*
X017898Y022223D01*
X017876Y022207D01*
X017851Y022195D01*
X017825Y022187D01*
X017798Y022182D01*
X017770Y022181D01*
X017743Y022184D01*
X017716Y022191D01*
X017691Y022201D01*
X017667Y022215D01*
X017645Y022232D01*
X017626Y022251D01*
X017610Y022274D01*
X017597Y022298D01*
X017588Y022324D01*
X017582Y022351D01*
X017580Y022378D01*
X032496Y014617D02*
X032763Y014617D01*
X032817Y014563D01*
X032817Y014510D01*
X032710Y014457D02*
X032710Y014617D01*
X032710Y014457D02*
X032657Y014403D01*
X032496Y014403D01*
X032496Y014265D02*
X032496Y014158D01*
X032443Y014211D02*
X032657Y014211D01*
X032710Y014265D01*
X032990Y014257D02*
X032990Y014150D01*
X033043Y014096D01*
X033257Y014096D01*
X033043Y014310D01*
X033257Y014310D01*
X033310Y014257D01*
X033310Y014150D01*
X033257Y014096D01*
X033043Y014310D02*
X032990Y014257D01*
X033096Y014465D02*
X032990Y014571D01*
X033310Y014571D01*
X033310Y014465D02*
X033310Y014678D01*
X033696Y014740D02*
X033696Y014579D01*
X033750Y014526D01*
X033857Y014526D01*
X033910Y014579D01*
X033910Y014740D01*
X033963Y014740D02*
X033696Y014740D01*
X033963Y014740D02*
X034017Y014686D01*
X034017Y014633D01*
X033696Y014379D02*
X033696Y014326D01*
X033803Y014219D01*
X033910Y014219D02*
X033696Y014219D01*
X033750Y014064D02*
X033803Y014064D01*
X033803Y013851D01*
X033750Y013851D02*
X033696Y013904D01*
X033696Y014011D01*
X033750Y014064D01*
X033910Y014011D02*
X033910Y013904D01*
X033857Y013851D01*
X033750Y013851D01*
X033750Y013696D02*
X033696Y013643D01*
X033696Y013483D01*
X033590Y013483D02*
X033910Y013483D01*
X033910Y013643D01*
X033857Y013696D01*
X033750Y013696D01*
X033750Y013328D02*
X033910Y013328D01*
X033750Y013328D02*
X033696Y013274D01*
X033696Y013114D01*
X033910Y013114D01*
X033803Y012959D02*
X033803Y012746D01*
X033750Y012746D02*
X033696Y012799D01*
X033696Y012906D01*
X033750Y012959D01*
X033803Y012959D01*
X033910Y012906D02*
X033910Y012799D01*
X033857Y012746D01*
X033750Y012746D01*
X033750Y012591D02*
X033803Y012591D01*
X033803Y012378D01*
X033750Y012378D02*
X033696Y012431D01*
X033696Y012538D01*
X033750Y012591D01*
X033910Y012538D02*
X033910Y012431D01*
X033857Y012378D01*
X033750Y012378D01*
X033696Y012231D02*
X033696Y012177D01*
X033803Y012071D01*
X033910Y012071D02*
X033696Y012071D01*
X033643Y011916D02*
X033590Y011863D01*
X033590Y011756D01*
X033643Y011702D01*
X033857Y011702D01*
X033910Y011756D01*
X033910Y011863D01*
X033857Y011916D01*
X033750Y011916D01*
X033750Y011809D01*
X033310Y011887D02*
X033310Y012100D01*
X033310Y011993D02*
X032990Y011993D01*
X033096Y011887D01*
X033043Y011732D02*
X033257Y011518D01*
X033310Y011572D01*
X033310Y011678D01*
X033257Y011732D01*
X033043Y011732D01*
X032990Y011678D01*
X032990Y011572D01*
X033043Y011518D01*
X033257Y011518D01*
X033310Y011363D02*
X033310Y011150D01*
X033096Y011363D01*
X033043Y011363D01*
X032990Y011310D01*
X032990Y011203D01*
X033043Y011150D01*
X032710Y011179D02*
X032710Y011019D01*
X032657Y010966D01*
X032603Y011019D01*
X032603Y011179D01*
X032550Y011179D02*
X032710Y011179D01*
X032550Y011179D02*
X032496Y011126D01*
X032496Y011019D01*
X032550Y010811D02*
X032657Y010811D01*
X032710Y010758D01*
X032710Y010597D01*
X032817Y010597D02*
X032496Y010597D01*
X032496Y010758D01*
X032550Y010811D01*
X032110Y010819D02*
X032110Y010712D01*
X032057Y010659D01*
X031950Y010766D02*
X031950Y010819D01*
X032003Y010872D01*
X032057Y010872D01*
X032110Y010819D01*
X031950Y010819D02*
X031896Y010872D01*
X031843Y010872D01*
X031790Y010819D01*
X031790Y010712D01*
X031843Y010659D01*
X031896Y010504D02*
X032110Y010397D01*
X031896Y010291D01*
X032496Y010282D02*
X032550Y010229D01*
X032603Y010282D01*
X032603Y010389D01*
X032657Y010443D01*
X032710Y010389D01*
X032710Y010229D01*
X032657Y010074D02*
X032550Y010074D01*
X032496Y010021D01*
X032496Y009914D01*
X032550Y009861D01*
X032657Y009861D01*
X032710Y009914D01*
X032710Y010021D01*
X032657Y010074D01*
X032496Y010282D02*
X032496Y010443D01*
X032990Y010258D02*
X033310Y010045D01*
X033310Y009890D02*
X033096Y009890D01*
X033096Y009677D02*
X033257Y009677D01*
X033310Y009730D01*
X033310Y009890D01*
X033310Y009522D02*
X032990Y009522D01*
X033096Y009522D02*
X033096Y009362D01*
X033150Y009308D01*
X033257Y009308D01*
X033310Y009362D01*
X033310Y009522D01*
X033590Y009292D02*
X033696Y009399D01*
X033910Y009399D01*
X033910Y009554D02*
X033696Y009554D01*
X033696Y009714D01*
X033750Y009767D01*
X033910Y009767D01*
X033857Y009922D02*
X033750Y009922D01*
X033696Y009976D01*
X033696Y010136D01*
X033590Y010136D02*
X033910Y010136D01*
X033910Y009976D01*
X033857Y009922D01*
X033910Y010291D02*
X033696Y010291D01*
X033696Y010397D02*
X033696Y010451D01*
X033696Y010397D02*
X033803Y010291D01*
X033803Y010597D02*
X033803Y010811D01*
X033750Y010811D01*
X033696Y010758D01*
X033696Y010651D01*
X033750Y010597D01*
X033857Y010597D01*
X033910Y010651D01*
X033910Y010758D01*
X033857Y010966D02*
X033910Y011019D01*
X033857Y011073D01*
X033910Y011126D01*
X033857Y011179D01*
X033696Y011179D01*
X033696Y010966D02*
X033857Y010966D01*
X032710Y011387D02*
X032710Y011548D01*
X032710Y011387D02*
X032657Y011334D01*
X032550Y011334D01*
X032496Y011387D01*
X032496Y011548D01*
X032550Y011702D02*
X032496Y011756D01*
X032496Y011863D01*
X032550Y011916D01*
X032603Y011916D01*
X032603Y011702D01*
X032550Y011702D02*
X032657Y011702D01*
X032710Y011756D01*
X032710Y011863D01*
X032990Y012255D02*
X033150Y012255D01*
X033096Y012362D01*
X033096Y012415D01*
X033150Y012468D01*
X033257Y012468D01*
X033310Y012415D01*
X033310Y012308D01*
X033257Y012255D01*
X032990Y012255D02*
X032990Y012468D01*
X032710Y012492D02*
X032710Y012599D01*
X032657Y012653D01*
X032603Y012653D01*
X032550Y012599D01*
X032550Y012492D01*
X032496Y012439D01*
X032443Y012439D01*
X032390Y012492D01*
X032390Y012599D01*
X032443Y012653D01*
X032550Y012807D02*
X032657Y012807D01*
X032710Y012861D01*
X032710Y012967D01*
X032657Y013021D01*
X032550Y013021D01*
X032496Y012967D01*
X032496Y012861D01*
X032550Y012807D01*
X032550Y013176D02*
X032657Y013176D01*
X032710Y013229D01*
X032710Y013389D01*
X032710Y013544D02*
X032710Y013651D01*
X032710Y013597D02*
X032496Y013597D01*
X032496Y013544D01*
X032390Y013597D02*
X032336Y013597D01*
X032496Y013389D02*
X032496Y013229D01*
X032550Y013176D01*
X032990Y013152D02*
X033043Y013205D01*
X033257Y012991D01*
X033310Y013045D01*
X033310Y013152D01*
X033257Y013205D01*
X033043Y013205D01*
X032990Y013152D02*
X032990Y013045D01*
X033043Y012991D01*
X033257Y012991D01*
X032990Y012837D02*
X033310Y012623D01*
X032710Y012492D02*
X032657Y012439D01*
X033150Y013360D02*
X033150Y013573D01*
X033310Y013520D02*
X032990Y013520D01*
X033150Y013360D01*
X033310Y013728D02*
X032990Y013942D01*
X032710Y013950D02*
X032710Y013843D01*
X032657Y013789D01*
X032550Y013789D01*
X032496Y013843D01*
X032496Y013950D01*
X032550Y014003D01*
X032603Y014003D01*
X032603Y013789D01*
X032057Y011425D02*
X031843Y011425D01*
X032057Y011211D01*
X032110Y011265D01*
X032110Y011371D01*
X032057Y011425D01*
X032057Y011211D02*
X031843Y011211D01*
X031790Y011265D01*
X031790Y011371D01*
X031843Y011425D01*
X032057Y011081D02*
X032110Y011081D01*
X032110Y011027D01*
X032057Y011027D01*
X032057Y011081D01*
X032110Y009767D02*
X031790Y009767D01*
X031896Y009767D02*
X031896Y009607D01*
X031950Y009554D01*
X032057Y009554D01*
X032110Y009607D01*
X032110Y009767D01*
X032496Y009714D02*
X032496Y009661D01*
X032603Y009554D01*
X032710Y009554D02*
X032496Y009554D01*
X032550Y009399D02*
X032603Y009399D01*
X032603Y009186D01*
X032550Y009186D02*
X032657Y009186D01*
X032710Y009239D01*
X032710Y009346D01*
X032550Y009399D02*
X032496Y009346D01*
X032496Y009239D01*
X032550Y009186D01*
X032550Y009031D02*
X032550Y008817D01*
X032496Y008817D02*
X032390Y008924D01*
X032496Y009031D01*
X032710Y009031D01*
X032710Y008817D02*
X032496Y008817D01*
X032110Y008932D02*
X032110Y009092D01*
X031950Y009092D01*
X031896Y009039D01*
X031896Y008932D01*
X032003Y008932D02*
X032003Y009092D01*
X032003Y009247D02*
X031896Y009354D01*
X031896Y009407D01*
X031896Y009247D02*
X032110Y009247D01*
X032110Y008932D02*
X032057Y008879D01*
X032003Y008932D01*
X031950Y008724D02*
X031896Y008670D01*
X031896Y008564D01*
X031950Y008510D01*
X032057Y008510D01*
X032110Y008564D01*
X032110Y008670D01*
X032057Y008724D01*
X031950Y008724D01*
X032003Y008356D02*
X032057Y008356D01*
X032110Y008302D01*
X032110Y008142D01*
X031790Y008142D01*
X031790Y008302D01*
X031843Y008356D01*
X031896Y008356D01*
X031950Y008302D01*
X031950Y008142D01*
X031950Y008302D02*
X032003Y008356D01*
X032496Y008241D02*
X032550Y008294D01*
X032603Y008294D01*
X032603Y008081D01*
X032550Y008081D02*
X032657Y008081D01*
X032710Y008134D01*
X032710Y008241D01*
X032496Y008241D02*
X032496Y008134D01*
X032550Y008081D01*
X032496Y007942D02*
X032496Y007835D01*
X032443Y007888D02*
X032657Y007888D01*
X032710Y007942D01*
X032710Y007680D02*
X032550Y007680D01*
X032496Y007627D01*
X032496Y007520D01*
X032603Y007520D02*
X032657Y007467D01*
X032710Y007520D01*
X032710Y007680D01*
X032603Y007680D02*
X032603Y007520D01*
X032496Y007328D02*
X032496Y007221D01*
X032443Y007275D02*
X032657Y007275D01*
X032710Y007328D01*
X032657Y007066D02*
X032710Y007013D01*
X032710Y006906D01*
X032657Y006853D01*
X032550Y006906D02*
X032550Y007013D01*
X032603Y007066D01*
X032657Y007066D01*
X032550Y006906D02*
X032496Y006853D01*
X032443Y006853D01*
X032390Y006906D01*
X032390Y007013D01*
X032443Y007066D01*
X032110Y007144D02*
X031790Y007144D01*
X031790Y007037D02*
X031790Y007251D01*
X031843Y007405D02*
X031896Y007405D01*
X031950Y007459D01*
X031950Y007566D01*
X032003Y007619D01*
X032057Y007619D01*
X032110Y007566D01*
X032110Y007459D01*
X032057Y007405D01*
X031843Y007405D02*
X031790Y007459D01*
X031790Y007566D01*
X031843Y007619D01*
X031843Y006882D02*
X031790Y006829D01*
X031790Y006722D01*
X031843Y006669D01*
X032057Y006669D01*
X032110Y006722D01*
X032110Y006829D01*
X032057Y006882D01*
X031843Y006882D01*
X031843Y006514D02*
X031790Y006461D01*
X031790Y006354D01*
X031843Y006300D01*
X032057Y006300D01*
X032110Y006354D01*
X032110Y006461D01*
X032057Y006514D01*
X032390Y006330D02*
X032710Y006330D01*
X032710Y006170D01*
X032657Y006116D01*
X032550Y006116D01*
X032496Y006170D01*
X032496Y006330D01*
X032550Y005961D02*
X032710Y005961D01*
X032550Y005961D02*
X032496Y005908D01*
X032496Y005748D01*
X032710Y005748D01*
X032710Y005593D02*
X032710Y005433D01*
X032657Y005380D01*
X032603Y005433D01*
X032603Y005593D01*
X032550Y005593D02*
X032710Y005593D01*
X032550Y005593D02*
X032496Y005540D01*
X032496Y005433D01*
X032390Y005187D02*
X032710Y005187D01*
X032710Y005134D02*
X032710Y005241D01*
X032710Y004995D02*
X032657Y004942D01*
X032443Y004942D01*
X032496Y004889D02*
X032496Y004995D01*
X032390Y005134D02*
X032390Y005187D01*
X032110Y004987D02*
X032110Y004881D01*
X032057Y004827D01*
X031950Y004881D02*
X031950Y004987D01*
X032003Y005041D01*
X032057Y005041D01*
X032110Y004987D01*
X031950Y004881D02*
X031896Y004827D01*
X031843Y004827D01*
X031790Y004881D01*
X031790Y004987D01*
X031843Y005041D01*
X031843Y004672D02*
X031950Y004672D01*
X032003Y004619D01*
X032003Y004459D01*
X032110Y004459D02*
X031790Y004459D01*
X031790Y004619D01*
X031843Y004672D01*
X031843Y004304D02*
X031790Y004251D01*
X031790Y004144D01*
X031843Y004091D01*
X032057Y004091D01*
X032110Y004144D01*
X032110Y004251D01*
X032057Y004304D01*
X031950Y004304D01*
X031950Y004197D01*
X031896Y003952D02*
X032163Y003952D01*
X032217Y003898D01*
X032217Y003845D01*
X032390Y003845D02*
X032390Y004005D01*
X032443Y004059D01*
X032550Y004059D01*
X032603Y004005D01*
X032603Y003845D01*
X032710Y003845D02*
X032390Y003845D01*
X032550Y004213D02*
X032657Y004213D01*
X032710Y004267D01*
X032710Y004373D01*
X032657Y004427D01*
X032550Y004427D01*
X032496Y004373D01*
X032496Y004267D01*
X032550Y004213D01*
X032603Y004582D02*
X032496Y004688D01*
X032496Y004742D01*
X032496Y004582D02*
X032710Y004582D01*
X033043Y004512D02*
X033257Y004512D01*
X033310Y004566D01*
X033310Y004704D02*
X033310Y004865D01*
X033257Y004918D01*
X033150Y004918D01*
X033096Y004865D01*
X033096Y004704D01*
X033417Y004704D01*
X033696Y004742D02*
X033750Y004795D01*
X033910Y004795D01*
X033910Y004950D02*
X033696Y004950D01*
X033696Y005110D01*
X033750Y005163D01*
X033910Y005163D01*
X033857Y005318D02*
X033750Y005318D01*
X033696Y005372D01*
X033696Y005478D01*
X033750Y005532D01*
X033803Y005532D01*
X033803Y005318D01*
X033857Y005318D02*
X033910Y005372D01*
X033910Y005478D01*
X033910Y005687D02*
X033696Y005687D01*
X033696Y005793D02*
X033803Y005687D01*
X033696Y005793D02*
X033696Y005847D01*
X033417Y005994D02*
X033096Y005994D01*
X033096Y006154D01*
X033150Y006207D01*
X033257Y006207D01*
X033310Y006154D01*
X033310Y005994D01*
X032990Y005839D02*
X033310Y005625D01*
X032990Y005470D02*
X033310Y005257D01*
X033310Y005126D02*
X033257Y005126D01*
X033257Y005073D01*
X033310Y005073D01*
X033310Y005126D01*
X033150Y005126D02*
X033150Y005073D01*
X033096Y005073D01*
X033096Y005126D01*
X033150Y005126D01*
X033096Y004566D02*
X033096Y004459D01*
X033096Y004320D02*
X033096Y004213D01*
X033043Y004267D02*
X033257Y004267D01*
X033310Y004320D01*
X033310Y004059D02*
X033150Y004059D01*
X033096Y004005D01*
X033096Y003898D01*
X033150Y003845D01*
X032990Y003845D02*
X033310Y003845D01*
X033590Y003952D02*
X033590Y004059D01*
X033590Y004005D02*
X033857Y004005D01*
X033910Y003952D01*
X033910Y003898D01*
X033857Y003845D01*
X033857Y004213D02*
X033750Y004213D01*
X033696Y004267D01*
X033696Y004373D01*
X033750Y004427D01*
X033803Y004427D01*
X033803Y004213D01*
X033857Y004213D02*
X033910Y004267D01*
X033910Y004373D01*
X033910Y004582D02*
X033696Y004582D01*
X033696Y004742D01*
X032057Y005671D02*
X031843Y005671D01*
X031950Y005777D02*
X031950Y005564D01*
X033096Y006415D02*
X033096Y006575D01*
X033203Y006522D02*
X033203Y006415D01*
X033150Y006362D01*
X033096Y006415D01*
X033203Y006522D02*
X033257Y006575D01*
X033310Y006522D01*
X033310Y006362D01*
X033590Y006362D02*
X033910Y006362D01*
X033750Y006362D02*
X033750Y006575D01*
X033590Y006575D02*
X033910Y006575D01*
X033857Y006730D02*
X033803Y006784D01*
X033803Y006944D01*
X033750Y006944D02*
X033910Y006944D01*
X033910Y006784D01*
X033857Y006730D01*
X033696Y006784D02*
X033696Y006890D01*
X033750Y006944D01*
X033696Y007098D02*
X033696Y007259D01*
X033750Y007312D01*
X033910Y007312D01*
X033910Y007467D02*
X033696Y007467D01*
X033696Y007627D01*
X033750Y007680D01*
X033910Y007680D01*
X033910Y007835D02*
X033910Y007942D01*
X033910Y007888D02*
X033696Y007888D01*
X033696Y007835D01*
X033590Y007888D02*
X033536Y007888D01*
X033310Y007811D02*
X033310Y007651D01*
X033417Y007651D02*
X033096Y007651D01*
X033096Y007811D01*
X033150Y007864D01*
X033257Y007864D01*
X033310Y007811D01*
X033257Y008019D02*
X033150Y008019D01*
X033096Y008073D01*
X033096Y008233D01*
X032990Y008233D02*
X033310Y008233D01*
X033310Y008073D01*
X033257Y008019D01*
X033310Y008388D02*
X033096Y008601D01*
X033096Y008388D02*
X033310Y008601D01*
X033310Y008756D02*
X033257Y008756D01*
X033257Y008809D01*
X033310Y008809D01*
X033310Y008756D01*
X033257Y008940D02*
X033310Y008993D01*
X033310Y009100D01*
X033203Y009154D02*
X033203Y008940D01*
X033150Y008940D02*
X033096Y008993D01*
X033096Y009100D01*
X033150Y009154D01*
X033203Y009154D01*
X033257Y008940D02*
X033150Y008940D01*
X033590Y009292D02*
X033696Y009186D01*
X033910Y009186D01*
X033750Y009186D02*
X033750Y009399D01*
X033803Y008662D02*
X033910Y008556D01*
X033910Y008502D01*
X033857Y008449D01*
X033803Y008449D01*
X033696Y008556D01*
X033643Y008556D01*
X033590Y008502D01*
X033643Y008449D01*
X033696Y008449D01*
X033910Y008662D01*
X033310Y007520D02*
X033257Y007520D01*
X033257Y007467D01*
X033310Y007467D01*
X033310Y007520D01*
X033257Y007312D02*
X033203Y007259D01*
X033203Y007152D01*
X033150Y007098D01*
X033096Y007152D01*
X033096Y007312D01*
X033257Y007312D02*
X033310Y007259D01*
X033310Y007098D01*
X033310Y006944D02*
X033150Y006944D01*
X033096Y006890D01*
X033096Y006784D01*
X033203Y006784D02*
X033203Y006944D01*
X033310Y006944D02*
X033310Y006784D01*
X033257Y006730D01*
X033203Y006784D01*
X033696Y007098D02*
X033910Y007098D01*
X031790Y003952D02*
X031736Y003952D01*
D11*
X029699Y004297D02*
X029566Y004163D01*
X029566Y004130D01*
X029469Y004163D02*
X029469Y004297D01*
X029435Y004330D01*
X029335Y004330D01*
X029335Y004130D01*
X029435Y004130D01*
X029469Y004163D01*
X029566Y004330D02*
X029699Y004330D01*
X029699Y004297D01*
X029239Y004330D02*
X029105Y004330D01*
X029105Y004130D01*
X029239Y004130D01*
X029172Y004230D02*
X029105Y004230D01*
X029008Y004130D02*
X028875Y004130D01*
X028875Y004330D01*
X028636Y003941D02*
X028164Y003941D01*
X028164Y003469D01*
X028636Y003469D01*
X028636Y003941D01*
X028742Y003845D02*
X028875Y003845D01*
X028809Y003845D02*
X028809Y003645D01*
X028972Y003645D02*
X028972Y003845D01*
X029072Y003845D01*
X029106Y003812D01*
X029106Y003745D01*
X029072Y003712D01*
X028972Y003712D01*
X029202Y003645D02*
X029336Y003778D01*
X029336Y003812D01*
X029302Y003845D01*
X029236Y003845D01*
X029202Y003812D01*
X029202Y003645D02*
X029336Y003645D01*
X029433Y003678D02*
X029466Y003645D01*
X029533Y003645D01*
X029566Y003678D01*
X029566Y003812D01*
X029533Y003845D01*
X029466Y003845D01*
X029433Y003812D01*
X029433Y003778D01*
X029466Y003745D01*
X029566Y003745D01*
X029046Y003180D02*
X028913Y003180D01*
X028880Y003147D01*
X028880Y003080D01*
X028913Y003047D01*
X028946Y003047D01*
X028980Y003080D01*
X028980Y003180D01*
X029046Y003180D02*
X029080Y003147D01*
X029080Y003080D01*
X029046Y003047D01*
X029080Y002950D02*
X029080Y002816D01*
X029080Y002883D02*
X028880Y002883D01*
X028946Y002816D01*
X028913Y002720D02*
X028880Y002686D01*
X028880Y002620D01*
X028913Y002586D01*
X029046Y002586D01*
X029080Y002620D01*
X029080Y002686D01*
X029046Y002720D01*
X029130Y002459D02*
X029130Y002325D01*
X029130Y002392D02*
X028930Y002392D01*
X028996Y002325D01*
X028996Y002229D02*
X028963Y002229D01*
X028930Y002195D01*
X028930Y002129D01*
X028963Y002095D01*
X028963Y001998D02*
X029030Y001998D01*
X029063Y001965D01*
X029063Y001865D01*
X029130Y001865D02*
X028930Y001865D01*
X028930Y001965D01*
X028963Y001998D01*
X029063Y001932D02*
X029130Y001998D01*
X029130Y002095D02*
X028996Y002229D01*
X029130Y002229D02*
X029130Y002095D01*
X028748Y002085D02*
X028614Y002218D01*
X028581Y002218D01*
X028548Y002185D01*
X028548Y002118D01*
X028581Y002085D01*
X028581Y001988D02*
X028548Y001954D01*
X028548Y001888D01*
X028581Y001854D01*
X028714Y001854D01*
X028748Y001888D01*
X028748Y001954D01*
X028714Y001988D01*
X028748Y002085D02*
X028748Y002218D01*
X028648Y002315D02*
X028648Y002448D01*
X028748Y002415D02*
X028548Y002415D01*
X028648Y002315D01*
X028581Y002604D02*
X028714Y002604D01*
X028748Y002638D01*
X028748Y002704D01*
X028714Y002738D01*
X028748Y002835D02*
X028614Y002968D01*
X028581Y002968D01*
X028548Y002935D01*
X028548Y002868D01*
X028581Y002835D01*
X028581Y002738D02*
X028548Y002704D01*
X028548Y002638D01*
X028581Y002604D01*
X028436Y002541D02*
X027964Y002541D01*
X027964Y002069D01*
X028436Y002069D01*
X028436Y002541D01*
X028748Y002835D02*
X028748Y002968D01*
X028748Y003065D02*
X028614Y003198D01*
X028581Y003198D01*
X028548Y003165D01*
X028548Y003098D01*
X028581Y003065D01*
X028748Y003065D02*
X028748Y003198D01*
X027543Y003768D02*
X027510Y003735D01*
X027443Y003735D01*
X027410Y003768D01*
X027476Y003835D02*
X027510Y003835D01*
X027543Y003801D01*
X027543Y003768D01*
X027510Y003835D02*
X027543Y003868D01*
X027543Y003902D01*
X027510Y003935D01*
X027443Y003935D01*
X027410Y003902D01*
X027313Y003902D02*
X027280Y003935D01*
X027213Y003935D01*
X027180Y003902D01*
X027083Y003902D02*
X027083Y003835D01*
X027049Y003801D01*
X026949Y003801D01*
X026949Y003735D02*
X026949Y003935D01*
X027049Y003935D01*
X027083Y003902D01*
X027016Y003801D02*
X027083Y003735D01*
X027180Y003735D02*
X027313Y003868D01*
X027313Y003902D01*
X027313Y003735D02*
X027180Y003735D01*
X027960Y004775D02*
X027960Y004975D01*
X028060Y004975D01*
X028093Y004942D01*
X028093Y004875D01*
X028060Y004842D01*
X027960Y004842D01*
X028027Y004842D02*
X028093Y004775D01*
X028190Y004775D02*
X028324Y004909D01*
X028324Y004942D01*
X028290Y004975D01*
X028224Y004975D01*
X028190Y004942D01*
X028183Y005045D02*
X028216Y005078D01*
X028216Y005112D01*
X028183Y005145D01*
X028083Y005145D01*
X028083Y005078D01*
X028116Y005045D01*
X028183Y005045D01*
X028313Y005078D02*
X028313Y005112D01*
X028346Y005145D01*
X028413Y005145D01*
X028446Y005112D01*
X028446Y005078D01*
X028413Y005045D01*
X028346Y005045D01*
X028313Y005078D01*
X028346Y005145D02*
X028313Y005178D01*
X028313Y005212D01*
X028346Y005245D01*
X028413Y005245D01*
X028446Y005212D01*
X028446Y005178D01*
X028413Y005145D01*
X028454Y004975D02*
X028420Y004942D01*
X028454Y004975D02*
X028521Y004975D01*
X028554Y004942D01*
X028554Y004909D01*
X028420Y004775D01*
X028554Y004775D01*
X028324Y004775D02*
X028190Y004775D01*
X027953Y005045D02*
X027986Y005078D01*
X027953Y005045D02*
X027886Y005045D01*
X027853Y005078D01*
X027853Y005212D01*
X027886Y005245D01*
X027953Y005245D01*
X027986Y005212D01*
X028083Y005145D02*
X028149Y005212D01*
X028216Y005245D01*
X028592Y005195D02*
X028725Y005195D01*
X028659Y005195D02*
X028659Y004995D01*
X028822Y004995D02*
X028822Y005195D01*
X028922Y005195D01*
X028956Y005162D01*
X028956Y005095D01*
X028922Y005062D01*
X028822Y005062D01*
X029052Y005028D02*
X029052Y004995D01*
X029052Y005028D02*
X029186Y005162D01*
X029186Y005195D01*
X029052Y005195D01*
X029136Y005269D02*
X028664Y005269D01*
X028664Y005741D01*
X029136Y005741D01*
X029136Y005269D01*
X029881Y005615D02*
X029881Y005715D01*
X029914Y005748D01*
X030048Y005748D01*
X030081Y005715D01*
X030081Y005615D01*
X029881Y005615D01*
X029948Y005845D02*
X029881Y005912D01*
X030081Y005912D01*
X030081Y005845D02*
X030081Y005979D01*
X030030Y006465D02*
X029830Y006465D01*
X029830Y006565D01*
X029863Y006598D01*
X029930Y006598D01*
X029963Y006565D01*
X029963Y006465D01*
X029963Y006532D02*
X030030Y006598D01*
X030030Y006695D02*
X029896Y006829D01*
X029863Y006829D01*
X029830Y006795D01*
X029830Y006729D01*
X029863Y006695D01*
X030030Y006695D02*
X030030Y006829D01*
X029930Y006925D02*
X029930Y007059D01*
X030030Y007026D02*
X029830Y007026D01*
X029930Y006925D01*
X029310Y006868D02*
X029277Y006868D01*
X029143Y007001D01*
X029110Y007001D01*
X029110Y006868D01*
X029110Y006771D02*
X029143Y006704D01*
X029210Y006638D01*
X029210Y006738D01*
X029243Y006771D01*
X029277Y006771D01*
X029310Y006738D01*
X029310Y006671D01*
X029277Y006638D01*
X029210Y006638D01*
X029277Y006541D02*
X029310Y006508D01*
X029310Y006441D01*
X029277Y006408D01*
X029143Y006408D01*
X029110Y006441D01*
X029110Y006508D01*
X029143Y006541D01*
X028019Y007180D02*
X027885Y007180D01*
X027952Y007180D02*
X027952Y007380D01*
X027885Y007313D01*
X027789Y007180D02*
X027655Y007180D01*
X027722Y007180D02*
X027722Y007380D01*
X027655Y007313D01*
X027558Y007380D02*
X027558Y007213D01*
X027525Y007180D01*
X027458Y007180D01*
X027425Y007213D01*
X027425Y007380D01*
X027264Y007198D02*
X027131Y007198D01*
X027098Y007165D01*
X027098Y007098D01*
X027131Y007065D01*
X027164Y007065D01*
X027198Y007098D01*
X027198Y007198D01*
X027264Y007198D02*
X027298Y007165D01*
X027298Y007098D01*
X027264Y007065D01*
X027264Y006968D02*
X027231Y006968D01*
X027198Y006935D01*
X027198Y006835D01*
X027264Y006835D01*
X027298Y006868D01*
X027298Y006935D01*
X027264Y006968D01*
X027131Y006901D02*
X027198Y006835D01*
X027131Y006901D02*
X027098Y006968D01*
X027131Y006738D02*
X027098Y006704D01*
X027098Y006638D01*
X027131Y006604D01*
X027264Y006604D01*
X027298Y006638D01*
X027298Y006704D01*
X027264Y006738D01*
X027160Y006207D02*
X027193Y006174D01*
X027060Y006041D01*
X027093Y006007D01*
X027160Y006007D01*
X027193Y006041D01*
X027193Y006174D01*
X027160Y006207D02*
X027093Y006207D01*
X027060Y006174D01*
X027060Y006041D01*
X026963Y006174D02*
X026830Y006041D01*
X026830Y006007D01*
X026733Y006041D02*
X026699Y006007D01*
X026633Y006007D01*
X026599Y006041D01*
X026599Y006174D01*
X026633Y006207D01*
X026699Y006207D01*
X026733Y006174D01*
X026830Y006207D02*
X026963Y006207D01*
X026963Y006174D01*
X026708Y005913D02*
X026472Y005913D01*
X026708Y005913D02*
X026708Y005677D01*
X026636Y006369D02*
X026164Y006369D01*
X026164Y006841D01*
X026636Y006841D01*
X026636Y006369D01*
X026602Y006945D02*
X026536Y006945D01*
X026502Y006978D01*
X026536Y007045D02*
X026636Y007045D01*
X026636Y006978D02*
X026636Y007112D01*
X026602Y007145D01*
X026536Y007145D01*
X026502Y007112D01*
X026502Y007078D01*
X026536Y007045D01*
X026602Y006945D02*
X026636Y006978D01*
X026406Y007045D02*
X026372Y007012D01*
X026272Y007012D01*
X026272Y006945D02*
X026272Y007145D01*
X026372Y007145D01*
X026406Y007112D01*
X026406Y007045D01*
X026175Y007145D02*
X026042Y007145D01*
X026109Y007145D02*
X026109Y006945D01*
X025186Y006912D02*
X025186Y006878D01*
X025152Y006845D01*
X025086Y006845D01*
X025052Y006878D01*
X025052Y006912D01*
X025086Y006945D01*
X025152Y006945D01*
X025186Y006912D01*
X025152Y006845D02*
X025186Y006812D01*
X025186Y006778D01*
X025152Y006745D01*
X025086Y006745D01*
X025052Y006778D01*
X025052Y006812D01*
X025086Y006845D01*
X024956Y006845D02*
X024922Y006812D01*
X024822Y006812D01*
X024822Y006745D02*
X024822Y006945D01*
X024922Y006945D01*
X024956Y006912D01*
X024956Y006845D01*
X024725Y006945D02*
X024592Y006945D01*
X024659Y006945D02*
X024659Y006745D01*
X024664Y006641D02*
X025136Y006641D01*
X025136Y006169D01*
X024664Y006169D01*
X024664Y006641D01*
X024493Y006757D02*
X024360Y006757D01*
X024493Y006891D01*
X024493Y006924D01*
X024460Y006957D01*
X024393Y006957D01*
X024360Y006924D01*
X024263Y006924D02*
X024263Y006891D01*
X024230Y006857D01*
X024163Y006857D01*
X024130Y006891D01*
X024130Y006924D01*
X024163Y006957D01*
X024230Y006957D01*
X024263Y006924D01*
X024230Y006857D02*
X024263Y006824D01*
X024263Y006791D01*
X024230Y006757D01*
X024163Y006757D01*
X024130Y006791D01*
X024130Y006824D01*
X024163Y006857D01*
X024033Y006791D02*
X023999Y006757D01*
X023933Y006757D01*
X023899Y006791D01*
X023899Y006924D01*
X023933Y006957D01*
X023999Y006957D01*
X024033Y006924D01*
X023786Y007041D02*
X023786Y006569D01*
X023314Y006569D01*
X023314Y007041D01*
X023786Y007041D01*
X023486Y007469D02*
X023014Y007469D01*
X023014Y007941D01*
X023486Y007941D01*
X023486Y007469D01*
X023601Y007598D02*
X023634Y007565D01*
X023768Y007565D01*
X023801Y007598D01*
X023801Y007665D01*
X023768Y007698D01*
X023768Y007795D02*
X023801Y007829D01*
X023801Y007895D01*
X023768Y007929D01*
X023701Y007929D01*
X023668Y007895D01*
X023668Y007862D01*
X023701Y007795D01*
X023601Y007795D01*
X023601Y007929D01*
X023634Y008025D02*
X023668Y008025D01*
X023701Y008059D01*
X023701Y008159D01*
X023768Y008159D02*
X023634Y008159D01*
X023601Y008126D01*
X023601Y008059D01*
X023634Y008025D01*
X023768Y008025D02*
X023801Y008059D01*
X023801Y008126D01*
X023768Y008159D01*
X023634Y007698D02*
X023601Y007665D01*
X023601Y007598D01*
X023236Y007041D02*
X022764Y007041D01*
X022764Y006569D01*
X023236Y006569D01*
X023236Y007041D01*
X022925Y007397D02*
X022725Y007397D01*
X022725Y007463D02*
X022725Y007330D01*
X022677Y007171D02*
X022610Y007171D01*
X022577Y007138D01*
X022577Y007104D01*
X022610Y007038D01*
X022510Y007038D01*
X022510Y007171D01*
X022677Y007171D02*
X022710Y007138D01*
X022710Y007071D01*
X022677Y007038D01*
X022710Y006941D02*
X022710Y006807D01*
X022577Y006941D01*
X022543Y006941D01*
X022510Y006907D01*
X022510Y006841D01*
X022543Y006807D01*
X022543Y006711D02*
X022610Y006711D01*
X022643Y006677D01*
X022643Y006577D01*
X022710Y006577D02*
X022510Y006577D01*
X022510Y006677D01*
X022543Y006711D01*
X022510Y006480D02*
X022510Y006347D01*
X022510Y006414D02*
X022710Y006414D01*
X022992Y006395D02*
X023125Y006395D01*
X023059Y006395D02*
X023059Y006195D01*
X023222Y006195D02*
X023222Y006395D01*
X023322Y006395D01*
X023356Y006362D01*
X023356Y006295D01*
X023322Y006262D01*
X023222Y006262D01*
X023452Y006195D02*
X023586Y006328D01*
X023586Y006362D01*
X023552Y006395D01*
X023486Y006395D01*
X023452Y006362D01*
X023452Y006195D02*
X023586Y006195D01*
X023683Y006195D02*
X023683Y006228D01*
X023816Y006362D01*
X023816Y006395D01*
X023683Y006395D01*
X022928Y005913D02*
X022692Y005913D01*
X022692Y005677D01*
X022239Y006155D02*
X022105Y006155D01*
X022239Y006288D01*
X022239Y006322D01*
X022205Y006355D01*
X022139Y006355D01*
X022105Y006322D01*
X022008Y006322D02*
X022008Y006255D01*
X021975Y006222D01*
X021875Y006222D01*
X021942Y006222D02*
X022008Y006155D01*
X021875Y006155D02*
X021875Y006355D01*
X021975Y006355D01*
X022008Y006322D01*
X022000Y006505D02*
X021933Y006505D01*
X021900Y006538D01*
X021900Y006672D01*
X021933Y006705D01*
X022000Y006705D01*
X022033Y006672D01*
X022130Y006605D02*
X022264Y006605D01*
X022230Y006505D02*
X022230Y006705D01*
X022130Y006605D01*
X022033Y006538D02*
X022000Y006505D01*
X021619Y006538D02*
X021585Y006505D01*
X021519Y006505D01*
X021485Y006538D01*
X021485Y006572D01*
X021519Y006605D01*
X021585Y006605D01*
X021619Y006572D01*
X021619Y006538D01*
X021585Y006605D02*
X021619Y006638D01*
X021619Y006672D01*
X021585Y006705D01*
X021519Y006705D01*
X021485Y006672D01*
X021485Y006638D01*
X021519Y006605D01*
X021389Y006505D02*
X021255Y006505D01*
X021322Y006505D02*
X021322Y006705D01*
X021255Y006638D01*
X021158Y006672D02*
X021125Y006705D01*
X021058Y006705D01*
X021025Y006672D01*
X021025Y006538D01*
X021058Y006505D01*
X021125Y006505D01*
X021158Y006538D01*
X021125Y006355D02*
X021058Y006355D01*
X021025Y006322D01*
X021025Y006188D01*
X021058Y006155D01*
X021125Y006155D01*
X021158Y006188D01*
X021255Y006155D02*
X021389Y006155D01*
X021322Y006155D02*
X021322Y006355D01*
X021255Y006288D01*
X021158Y006322D02*
X021125Y006355D01*
X021485Y006322D02*
X021519Y006355D01*
X021585Y006355D01*
X021619Y006322D01*
X021619Y006288D01*
X021485Y006155D01*
X021619Y006155D01*
X020828Y005672D02*
X020828Y005638D01*
X020795Y005605D01*
X020828Y005572D01*
X020828Y005538D01*
X020795Y005505D01*
X020728Y005505D01*
X020695Y005538D01*
X020762Y005605D02*
X020795Y005605D01*
X020828Y005672D02*
X020795Y005705D01*
X020728Y005705D01*
X020695Y005672D01*
X020598Y005672D02*
X020565Y005705D01*
X020498Y005705D01*
X020465Y005672D01*
X020465Y005538D01*
X020498Y005505D01*
X020565Y005505D01*
X020598Y005538D01*
X019914Y005130D02*
X019780Y005130D01*
X019780Y005030D01*
X019847Y005063D01*
X019880Y005063D01*
X019914Y005030D01*
X019914Y004963D01*
X019880Y004930D01*
X019814Y004930D01*
X019780Y004963D01*
X019683Y004963D02*
X019650Y004930D01*
X019583Y004930D01*
X019550Y004963D01*
X019550Y005097D01*
X019583Y005130D01*
X019650Y005130D01*
X019683Y005097D01*
X019200Y005238D02*
X019200Y005305D01*
X019167Y005338D01*
X019167Y005435D02*
X019200Y005469D01*
X019200Y005535D01*
X019167Y005569D01*
X019133Y005569D01*
X019100Y005535D01*
X019100Y005435D01*
X019167Y005435D01*
X019100Y005435D02*
X019033Y005502D01*
X019000Y005569D01*
X019033Y005338D02*
X019000Y005305D01*
X019000Y005238D01*
X019033Y005205D01*
X019167Y005205D01*
X019200Y005238D01*
X020225Y004310D02*
X020225Y004244D01*
X020258Y004210D01*
X020292Y004210D01*
X020325Y004244D01*
X020325Y004344D01*
X020392Y004344D02*
X020258Y004344D01*
X020225Y004310D01*
X020392Y004344D02*
X020425Y004310D01*
X020425Y004244D01*
X020392Y004210D01*
X020425Y004113D02*
X020358Y004047D01*
X020358Y004080D02*
X020358Y003980D01*
X020425Y003980D02*
X020225Y003980D01*
X020225Y004080D01*
X020258Y004113D01*
X020325Y004113D01*
X020358Y004080D01*
X020144Y003680D02*
X020010Y003680D01*
X020010Y003580D01*
X020077Y003613D01*
X020110Y003613D01*
X020144Y003580D01*
X020144Y003513D01*
X020110Y003480D01*
X020044Y003480D01*
X020010Y003513D01*
X019914Y003480D02*
X019780Y003480D01*
X019847Y003480D02*
X019847Y003680D01*
X019780Y003613D01*
X019683Y003647D02*
X019650Y003680D01*
X019583Y003680D01*
X019550Y003647D01*
X019550Y003513D01*
X019583Y003480D01*
X019650Y003480D01*
X019683Y003513D01*
X019436Y003419D02*
X018964Y003419D01*
X018964Y003891D01*
X019436Y003891D01*
X019436Y003419D01*
X019304Y003292D02*
X019304Y003259D01*
X019271Y003225D01*
X019304Y003192D01*
X019304Y003159D01*
X019271Y003125D01*
X019204Y003125D01*
X019170Y003159D01*
X019237Y003225D02*
X019271Y003225D01*
X019304Y003292D02*
X019271Y003325D01*
X019204Y003325D01*
X019170Y003292D01*
X019074Y003325D02*
X019007Y003292D01*
X018940Y003225D01*
X019040Y003225D01*
X019074Y003192D01*
X019074Y003159D01*
X019040Y003125D01*
X018974Y003125D01*
X018940Y003159D01*
X018940Y003225D01*
X018843Y003159D02*
X018810Y003125D01*
X018743Y003125D01*
X018710Y003159D01*
X018710Y003292D01*
X018743Y003325D01*
X018810Y003325D01*
X018843Y003292D01*
X018810Y002975D02*
X018743Y002975D01*
X018710Y002942D01*
X018710Y002809D01*
X018743Y002775D01*
X018810Y002775D01*
X018843Y002809D01*
X018940Y002809D02*
X018974Y002775D01*
X019040Y002775D01*
X019074Y002809D01*
X019074Y002842D01*
X019040Y002875D01*
X018940Y002875D01*
X018940Y002809D01*
X018940Y002875D02*
X019007Y002942D01*
X019074Y002975D01*
X019170Y002875D02*
X019304Y002875D01*
X019271Y002775D02*
X019271Y002975D01*
X019170Y002875D01*
X018843Y002942D02*
X018810Y002975D01*
X017736Y002819D02*
X017264Y002819D01*
X017264Y003291D01*
X017736Y003291D01*
X017736Y002819D01*
X017169Y003004D02*
X017136Y002971D01*
X017069Y002971D01*
X017036Y003004D01*
X017169Y003137D01*
X017169Y003004D01*
X017036Y003004D02*
X017036Y003137D01*
X017069Y003171D01*
X017136Y003171D01*
X017169Y003137D01*
X016939Y002971D02*
X016805Y002971D01*
X016872Y002971D02*
X016872Y003171D01*
X016805Y003104D01*
X016709Y003137D02*
X016709Y003071D01*
X016675Y003037D01*
X016575Y003037D01*
X016575Y002971D02*
X016575Y003171D01*
X016675Y003171D01*
X016709Y003137D01*
X016479Y003171D02*
X016345Y003171D01*
X016412Y003171D02*
X016412Y002971D01*
X016829Y003518D02*
X016963Y003518D01*
X017060Y003551D02*
X017060Y003585D01*
X017093Y003618D01*
X017160Y003618D01*
X017193Y003585D01*
X017193Y003551D01*
X017160Y003518D01*
X017093Y003518D01*
X017060Y003551D01*
X017093Y003618D02*
X017060Y003651D01*
X017060Y003685D01*
X017093Y003718D01*
X017160Y003718D01*
X017193Y003685D01*
X017193Y003651D01*
X017160Y003618D01*
X016829Y003718D02*
X016829Y003518D01*
X016541Y004616D02*
X016408Y004616D01*
X016474Y004616D02*
X016474Y004817D01*
X016408Y004750D01*
X016311Y004817D02*
X016311Y004650D01*
X016277Y004616D01*
X016211Y004616D01*
X016177Y004650D01*
X016177Y004817D01*
X014835Y006404D02*
X014869Y006438D01*
X014869Y006504D01*
X014835Y006538D01*
X014835Y006635D02*
X014869Y006668D01*
X014869Y006735D01*
X014835Y006768D01*
X014769Y006768D01*
X014735Y006735D01*
X014735Y006701D01*
X014769Y006635D01*
X014669Y006635D01*
X014669Y006768D01*
X014702Y006865D02*
X014735Y006865D01*
X014769Y006898D01*
X014769Y006965D01*
X014802Y006998D01*
X014835Y006998D01*
X014869Y006965D01*
X014869Y006898D01*
X014835Y006865D01*
X014802Y006865D01*
X014769Y006898D01*
X014769Y006965D02*
X014735Y006998D01*
X014702Y006998D01*
X014669Y006965D01*
X014669Y006898D01*
X014702Y006865D01*
X014702Y006538D02*
X014669Y006504D01*
X014669Y006438D01*
X014702Y006404D01*
X014835Y006404D01*
X015625Y007063D02*
X015658Y007030D01*
X015792Y007030D01*
X015825Y007063D01*
X015825Y007130D01*
X015792Y007163D01*
X015792Y007260D02*
X015758Y007260D01*
X015725Y007294D01*
X015725Y007360D01*
X015758Y007394D01*
X015792Y007394D01*
X015825Y007360D01*
X015825Y007294D01*
X015792Y007260D01*
X015725Y007294D02*
X015692Y007260D01*
X015658Y007260D01*
X015625Y007294D01*
X015625Y007360D01*
X015658Y007394D01*
X015692Y007394D01*
X015725Y007360D01*
X015658Y007163D02*
X015625Y007130D01*
X015625Y007063D01*
X015975Y007038D02*
X016008Y007005D01*
X016142Y007005D01*
X016175Y007038D01*
X016175Y007105D01*
X016142Y007138D01*
X016175Y007235D02*
X016175Y007369D01*
X016175Y007302D02*
X015975Y007302D01*
X016042Y007235D01*
X016008Y007138D02*
X015975Y007105D01*
X015975Y007038D01*
X016008Y007465D02*
X015975Y007499D01*
X015975Y007565D01*
X016008Y007599D01*
X016042Y007599D01*
X016075Y007565D01*
X016108Y007599D01*
X016142Y007599D01*
X016175Y007565D01*
X016175Y007499D01*
X016142Y007465D01*
X016075Y007532D02*
X016075Y007565D01*
X016375Y008305D02*
X016375Y008405D01*
X016408Y008438D01*
X016475Y008438D01*
X016508Y008405D01*
X016508Y008305D01*
X016508Y008372D02*
X016575Y008438D01*
X016575Y008305D02*
X016375Y008305D01*
X016475Y008535D02*
X016475Y008669D01*
X016575Y008635D02*
X016375Y008635D01*
X016475Y008535D01*
X016775Y008577D02*
X016975Y008577D01*
X016975Y008510D02*
X016975Y008644D01*
X016875Y008740D02*
X016875Y008874D01*
X016975Y008840D02*
X016775Y008840D01*
X016875Y008740D01*
X016775Y008577D02*
X016842Y008510D01*
X016808Y008413D02*
X016775Y008380D01*
X016775Y008313D01*
X016808Y008280D01*
X016942Y008280D01*
X016975Y008313D01*
X016975Y008380D01*
X016942Y008413D01*
X017125Y008380D02*
X017125Y008313D01*
X017158Y008280D01*
X017292Y008280D01*
X017325Y008313D01*
X017325Y008380D01*
X017292Y008413D01*
X017292Y008510D02*
X017325Y008510D01*
X017292Y008510D02*
X017158Y008644D01*
X017125Y008644D01*
X017125Y008510D01*
X017158Y008413D02*
X017125Y008380D01*
X017890Y007972D02*
X017890Y007838D01*
X017923Y007805D01*
X017990Y007805D01*
X018023Y007838D01*
X018120Y007805D02*
X018253Y007938D01*
X018253Y007972D01*
X018220Y008005D01*
X018153Y008005D01*
X018120Y007972D01*
X018023Y007972D02*
X017990Y008005D01*
X017923Y008005D01*
X017890Y007972D01*
X018120Y007805D02*
X018253Y007805D01*
X018214Y008219D02*
X018214Y008691D01*
X018686Y008691D01*
X018686Y008219D01*
X018214Y008219D01*
X018209Y008795D02*
X018209Y008995D01*
X018275Y008995D02*
X018142Y008995D01*
X018372Y008995D02*
X018472Y008995D01*
X018506Y008962D01*
X018506Y008895D01*
X018472Y008862D01*
X018372Y008862D01*
X018372Y008795D02*
X018372Y008995D01*
X018602Y008928D02*
X018669Y008995D01*
X018669Y008795D01*
X018602Y008795D02*
X018736Y008795D01*
X019143Y008671D02*
X020457Y008671D01*
X020730Y008665D02*
X020730Y008598D01*
X020763Y008565D01*
X020896Y008565D01*
X020930Y008598D01*
X020930Y008665D01*
X020896Y008698D01*
X020896Y008795D02*
X020930Y008829D01*
X020930Y008895D01*
X020896Y008929D01*
X020830Y008929D01*
X020796Y008895D01*
X020796Y008862D01*
X020830Y008795D01*
X020730Y008795D01*
X020730Y008929D01*
X020730Y009025D02*
X020730Y009159D01*
X020763Y009159D01*
X020896Y009025D01*
X020930Y009025D01*
X021180Y008945D02*
X021213Y008979D01*
X021246Y008979D01*
X021280Y008945D01*
X021313Y008979D01*
X021346Y008979D01*
X021380Y008945D01*
X021380Y008879D01*
X021346Y008845D01*
X021280Y008912D02*
X021280Y008945D01*
X021180Y008945D02*
X021180Y008879D01*
X021213Y008845D01*
X021213Y008748D02*
X021180Y008715D01*
X021180Y008648D01*
X021213Y008615D01*
X021346Y008615D01*
X021380Y008648D01*
X021380Y008715D01*
X021346Y008748D01*
X021380Y009075D02*
X021380Y009209D01*
X021380Y009142D02*
X021180Y009142D01*
X021246Y009075D01*
X020763Y008698D02*
X020730Y008665D01*
X020461Y008183D02*
X020461Y008127D01*
X019906Y008425D02*
X019908Y008448D01*
X019914Y008469D01*
X019923Y008490D01*
X019936Y008509D01*
X019952Y008525D01*
X019971Y008538D01*
X019992Y008547D01*
X020013Y008553D01*
X020036Y008555D01*
X020059Y008553D01*
X020080Y008547D01*
X020101Y008538D01*
X020120Y008525D01*
X020136Y008509D01*
X020149Y008490D01*
X020158Y008469D01*
X020164Y008448D01*
X020166Y008425D01*
X020164Y008402D01*
X020158Y008381D01*
X020149Y008360D01*
X020136Y008341D01*
X020120Y008325D01*
X020101Y008312D01*
X020080Y008303D01*
X020059Y008297D01*
X020036Y008295D01*
X020013Y008297D01*
X019992Y008303D01*
X019971Y008312D01*
X019952Y008325D01*
X019936Y008341D01*
X019923Y008360D01*
X019914Y008381D01*
X019908Y008402D01*
X019906Y008425D01*
X019930Y008755D02*
X019930Y008955D01*
X019830Y008855D01*
X019964Y008855D01*
X019733Y008788D02*
X019733Y008955D01*
X019600Y008955D02*
X019600Y008788D01*
X019633Y008755D01*
X019700Y008755D01*
X019733Y008788D01*
X019143Y008183D02*
X019143Y008127D01*
X019143Y007639D02*
X020457Y007639D01*
X020171Y006974D02*
X020204Y006941D01*
X020204Y006907D01*
X020171Y006874D01*
X020204Y006840D01*
X020204Y006807D01*
X020171Y006774D01*
X020104Y006774D01*
X020070Y006807D01*
X020137Y006874D02*
X020171Y006874D01*
X020171Y006974D02*
X020104Y006974D01*
X020070Y006941D01*
X019974Y006974D02*
X019840Y006974D01*
X019840Y006874D01*
X019907Y006907D01*
X019940Y006907D01*
X019974Y006874D01*
X019974Y006807D01*
X019940Y006774D01*
X019874Y006774D01*
X019840Y006807D01*
X019743Y006807D02*
X019710Y006774D01*
X019643Y006774D01*
X019610Y006807D01*
X019610Y006941D01*
X019643Y006974D01*
X019710Y006974D01*
X019743Y006941D01*
X019325Y006930D02*
X019292Y006963D01*
X019325Y006930D02*
X019325Y006863D01*
X019292Y006830D01*
X019158Y006830D01*
X019125Y006863D01*
X019125Y006930D01*
X019158Y006963D01*
X019192Y007060D02*
X019125Y007127D01*
X019325Y007127D01*
X019325Y007060D02*
X019325Y007194D01*
X019325Y007290D02*
X019292Y007290D01*
X019158Y007424D01*
X019125Y007424D01*
X019125Y007290D01*
X018375Y007310D02*
X018375Y007244D01*
X018342Y007210D01*
X018275Y007244D02*
X018275Y007344D01*
X018342Y007344D02*
X018208Y007344D01*
X018175Y007310D01*
X018175Y007244D01*
X018208Y007210D01*
X018242Y007210D01*
X018275Y007244D01*
X018375Y007310D02*
X018342Y007344D01*
X018342Y007113D02*
X018375Y007080D01*
X018375Y007013D01*
X018342Y006980D01*
X018208Y006980D01*
X018175Y007013D01*
X018175Y007080D01*
X018208Y007113D01*
X015601Y008848D02*
X015601Y008915D01*
X015568Y008948D01*
X015601Y008848D02*
X015568Y008815D01*
X015434Y008815D01*
X015401Y008848D01*
X015401Y008915D01*
X015434Y008948D01*
X015501Y009045D02*
X015501Y009179D01*
X015468Y009275D02*
X015401Y009342D01*
X015601Y009342D01*
X015601Y009275D02*
X015601Y009409D01*
X015601Y009145D02*
X015401Y009145D01*
X015501Y009045D01*
X014389Y008730D02*
X014389Y008697D01*
X014255Y008563D01*
X014255Y008530D01*
X014158Y008563D02*
X014158Y008730D01*
X014255Y008730D02*
X014389Y008730D01*
X014158Y008563D02*
X014125Y008530D01*
X014058Y008530D01*
X014025Y008563D01*
X014025Y008730D01*
X013725Y008740D02*
X013692Y008774D01*
X013625Y008774D01*
X013592Y008740D01*
X013592Y008707D01*
X013625Y008640D01*
X013525Y008640D01*
X013525Y008774D01*
X013725Y008740D02*
X013725Y008674D01*
X013692Y008640D01*
X013692Y008544D02*
X013725Y008510D01*
X013725Y008444D01*
X013692Y008410D01*
X013625Y008410D02*
X013592Y008477D01*
X013592Y008510D01*
X013625Y008544D01*
X013692Y008544D01*
X013625Y008410D02*
X013525Y008410D01*
X013525Y008544D01*
X013558Y008313D02*
X013525Y008280D01*
X013525Y008213D01*
X013558Y008180D01*
X013692Y008180D01*
X013725Y008213D01*
X013725Y008280D01*
X013692Y008313D01*
X012436Y008369D02*
X011964Y008369D01*
X011964Y008841D01*
X012436Y008841D01*
X012436Y008369D01*
X011849Y008563D02*
X011816Y008530D01*
X011749Y008530D01*
X011716Y008563D01*
X011716Y008630D02*
X011782Y008663D01*
X011816Y008663D01*
X011849Y008630D01*
X011849Y008563D01*
X011716Y008630D02*
X011716Y008730D01*
X011849Y008730D01*
X011552Y008730D02*
X011552Y008530D01*
X011485Y008530D02*
X011619Y008530D01*
X011485Y008663D02*
X011552Y008730D01*
X011389Y008697D02*
X011389Y008630D01*
X011355Y008597D01*
X011255Y008597D01*
X011255Y008530D02*
X011255Y008730D01*
X011355Y008730D01*
X011389Y008697D01*
X011158Y008730D02*
X011025Y008730D01*
X011092Y008730D02*
X011092Y008530D01*
X011286Y009219D02*
X010814Y009219D01*
X010814Y009691D01*
X011286Y009691D01*
X011286Y009219D01*
X012175Y009130D02*
X012175Y009063D01*
X012208Y009030D01*
X012342Y009030D01*
X012375Y009063D01*
X012375Y009130D01*
X012342Y009163D01*
X012275Y009260D02*
X012275Y009394D01*
X012375Y009360D02*
X012175Y009360D01*
X012275Y009260D01*
X012208Y009163D02*
X012175Y009130D01*
X012208Y009490D02*
X012175Y009524D01*
X012175Y009590D01*
X012208Y009624D01*
X012242Y009624D01*
X012375Y009490D01*
X012375Y009624D01*
X013375Y010263D02*
X013408Y010230D01*
X013475Y010230D01*
X013508Y010263D01*
X013605Y010330D02*
X013739Y010330D01*
X013705Y010230D02*
X013705Y010430D01*
X013605Y010330D01*
X013508Y010397D02*
X013475Y010430D01*
X013408Y010430D01*
X013375Y010397D01*
X013375Y010263D01*
X013835Y010263D02*
X013869Y010230D01*
X013935Y010230D01*
X013969Y010263D01*
X013969Y010297D01*
X013935Y010330D01*
X013902Y010330D01*
X013935Y010330D02*
X013969Y010363D01*
X013969Y010397D01*
X013935Y010430D01*
X013869Y010430D01*
X013835Y010397D01*
X015725Y011780D02*
X015725Y011980D01*
X015825Y011980D01*
X015858Y011947D01*
X015858Y011880D01*
X015825Y011847D01*
X015725Y011847D01*
X015792Y011847D02*
X015858Y011780D01*
X015955Y011880D02*
X016089Y011880D01*
X016055Y011780D02*
X016055Y011980D01*
X015955Y011880D01*
X016185Y011947D02*
X016219Y011980D01*
X016285Y011980D01*
X016319Y011947D01*
X016319Y011913D01*
X016185Y011780D01*
X016319Y011780D01*
X016085Y012180D02*
X016019Y012180D01*
X015985Y012213D01*
X015985Y012280D02*
X016052Y012313D01*
X016085Y012313D01*
X016119Y012280D01*
X016119Y012213D01*
X016085Y012180D01*
X015985Y012280D02*
X015985Y012380D01*
X016119Y012380D01*
X015822Y012380D02*
X015822Y012180D01*
X015755Y012180D02*
X015889Y012180D01*
X015755Y012313D02*
X015822Y012380D01*
X015658Y012347D02*
X015658Y012280D01*
X015625Y012247D01*
X015525Y012247D01*
X015592Y012247D02*
X015658Y012180D01*
X015525Y012180D02*
X015525Y012380D01*
X015625Y012380D01*
X015658Y012347D01*
X014375Y013313D02*
X014375Y013380D01*
X014342Y013413D01*
X014342Y013510D02*
X014375Y013544D01*
X014375Y013610D01*
X014342Y013644D01*
X014308Y013644D01*
X014275Y013610D01*
X014275Y013577D01*
X014275Y013610D02*
X014242Y013644D01*
X014208Y013644D01*
X014175Y013610D01*
X014175Y013544D01*
X014208Y013510D01*
X014208Y013413D02*
X014175Y013380D01*
X014175Y013313D01*
X014208Y013280D01*
X014342Y013280D01*
X014375Y013313D01*
X014275Y013740D02*
X014275Y013874D01*
X014375Y013840D02*
X014175Y013840D01*
X014275Y013740D01*
X013019Y014630D02*
X012885Y014630D01*
X013019Y014763D01*
X013019Y014797D01*
X012985Y014830D01*
X012919Y014830D01*
X012885Y014797D01*
X012789Y014797D02*
X012789Y014763D01*
X012755Y014730D01*
X012789Y014697D01*
X012789Y014663D01*
X012755Y014630D01*
X012689Y014630D01*
X012655Y014663D01*
X012722Y014730D02*
X012755Y014730D01*
X012789Y014797D02*
X012755Y014830D01*
X012689Y014830D01*
X012655Y014797D01*
X012558Y014797D02*
X012525Y014830D01*
X012458Y014830D01*
X012425Y014797D01*
X012425Y014663D01*
X012458Y014630D01*
X012525Y014630D01*
X012558Y014663D01*
X012775Y014980D02*
X012975Y014980D01*
X012975Y015113D01*
X012942Y015210D02*
X012975Y015244D01*
X012975Y015310D01*
X012942Y015344D01*
X012908Y015344D01*
X012875Y015310D01*
X012875Y015277D01*
X012875Y015310D02*
X012842Y015344D01*
X012808Y015344D01*
X012775Y015310D01*
X012775Y015244D01*
X012808Y015210D01*
X013731Y015229D02*
X013731Y015295D01*
X013764Y015329D01*
X013798Y015329D01*
X013831Y015295D01*
X013865Y015329D01*
X013898Y015329D01*
X013931Y015295D01*
X013931Y015229D01*
X013898Y015195D01*
X013831Y015262D02*
X013831Y015295D01*
X013731Y015229D02*
X013764Y015195D01*
X013764Y015098D02*
X013731Y015065D01*
X013731Y014998D01*
X013764Y014965D01*
X013898Y014965D01*
X013931Y014998D01*
X013931Y015065D01*
X013898Y015098D01*
X013898Y015425D02*
X013931Y015459D01*
X013931Y015526D01*
X013898Y015559D01*
X013865Y015559D01*
X013831Y015526D01*
X013831Y015425D01*
X013898Y015425D01*
X013831Y015425D02*
X013764Y015492D01*
X013731Y015559D01*
X013825Y016430D02*
X013825Y016530D01*
X013858Y016563D01*
X013925Y016563D01*
X013958Y016530D01*
X013958Y016430D01*
X013958Y016497D02*
X014025Y016563D01*
X014025Y016660D02*
X014025Y016794D01*
X014025Y016727D02*
X013825Y016727D01*
X013892Y016660D01*
X013825Y016430D02*
X014025Y016430D01*
X014025Y016890D02*
X013992Y016890D01*
X013858Y017024D01*
X013825Y017024D01*
X013825Y016890D01*
X012969Y016697D02*
X012969Y016663D01*
X012935Y016630D01*
X012869Y016630D01*
X012835Y016663D01*
X012835Y016697D01*
X012869Y016730D01*
X012935Y016730D01*
X012969Y016697D01*
X012935Y016630D02*
X012969Y016597D01*
X012969Y016563D01*
X012935Y016530D01*
X012869Y016530D01*
X012835Y016563D01*
X012835Y016597D01*
X012869Y016630D01*
X012739Y016663D02*
X012739Y016697D01*
X012705Y016730D01*
X012639Y016730D01*
X012605Y016697D01*
X012508Y016697D02*
X012475Y016730D01*
X012408Y016730D01*
X012375Y016697D01*
X012375Y016563D01*
X012408Y016530D01*
X012475Y016530D01*
X012508Y016563D01*
X012605Y016530D02*
X012739Y016663D01*
X012739Y016530D02*
X012605Y016530D01*
X012786Y017219D02*
X012314Y017219D01*
X012314Y017691D01*
X012786Y017691D01*
X012786Y017219D01*
X012235Y018030D02*
X012269Y018063D01*
X012269Y018097D01*
X012235Y018130D01*
X012135Y018130D01*
X012135Y018063D01*
X012169Y018030D01*
X012235Y018030D01*
X012135Y018130D02*
X012202Y018197D01*
X012269Y018230D01*
X012242Y018330D02*
X012242Y018530D01*
X012308Y018530D02*
X012175Y018530D01*
X012314Y018619D02*
X012786Y018619D01*
X012786Y019091D01*
X012314Y019091D01*
X012314Y018619D01*
X012405Y018530D02*
X012405Y018330D01*
X012405Y018397D02*
X012505Y018397D01*
X012539Y018430D01*
X012539Y018497D01*
X012505Y018530D01*
X012405Y018530D01*
X012635Y018463D02*
X012702Y018530D01*
X012702Y018330D01*
X012635Y018330D02*
X012769Y018330D01*
X012866Y018363D02*
X012899Y018330D01*
X012966Y018330D01*
X012999Y018363D01*
X012999Y018397D01*
X012966Y018430D01*
X012932Y018430D01*
X012966Y018430D02*
X012999Y018463D01*
X012999Y018497D01*
X012966Y018530D01*
X012899Y018530D01*
X012866Y018497D01*
X012970Y018753D02*
X013206Y018516D01*
X013994Y018516D01*
X014230Y018753D01*
X014230Y021115D01*
X012970Y021115D01*
X012970Y018753D01*
X012125Y019013D02*
X012125Y019080D01*
X012092Y019113D01*
X012092Y019210D02*
X012125Y019244D01*
X012125Y019310D01*
X012092Y019344D01*
X012025Y019344D01*
X011992Y019310D01*
X011992Y019277D01*
X012025Y019210D01*
X011925Y019210D01*
X011925Y019344D01*
X012025Y019440D02*
X012025Y019574D01*
X012125Y019540D02*
X011925Y019540D01*
X012025Y019440D01*
X011958Y019113D02*
X011925Y019080D01*
X011925Y019013D01*
X011958Y018980D01*
X012092Y018980D01*
X012125Y019013D01*
X011972Y018630D02*
X011972Y018430D01*
X011905Y018430D02*
X012039Y018430D01*
X011905Y018563D02*
X011972Y018630D01*
X011808Y018597D02*
X011808Y018530D01*
X011775Y018497D01*
X011675Y018497D01*
X011742Y018497D02*
X011808Y018430D01*
X011675Y018430D02*
X011675Y018630D01*
X011775Y018630D01*
X011808Y018597D01*
X011775Y018230D02*
X011708Y018230D01*
X011675Y018197D01*
X011675Y018063D01*
X011708Y018030D01*
X011775Y018030D01*
X011808Y018063D01*
X011905Y018030D02*
X012039Y018163D01*
X012039Y018197D01*
X012005Y018230D01*
X011939Y018230D01*
X011905Y018197D01*
X011808Y018197D02*
X011775Y018230D01*
X011905Y018030D02*
X012039Y018030D01*
X011375Y017650D02*
X011375Y017583D01*
X011342Y017550D01*
X011275Y017617D02*
X011275Y017650D01*
X011308Y017683D01*
X011342Y017683D01*
X011375Y017650D01*
X011275Y017650D02*
X011242Y017683D01*
X011208Y017683D01*
X011175Y017650D01*
X011175Y017583D01*
X011208Y017550D01*
X011208Y017453D02*
X011275Y017453D01*
X011308Y017420D01*
X011308Y017320D01*
X011308Y017386D02*
X011375Y017453D01*
X011375Y017320D02*
X011175Y017320D01*
X011175Y017420D01*
X011208Y017453D01*
X011192Y016924D02*
X011225Y016890D01*
X011225Y016824D01*
X011192Y016790D01*
X011125Y016790D02*
X011092Y016857D01*
X011092Y016890D01*
X011125Y016924D01*
X011192Y016924D01*
X011125Y016790D02*
X011025Y016790D01*
X011025Y016924D01*
X011058Y016694D02*
X011092Y016694D01*
X011125Y016660D01*
X011158Y016694D01*
X011192Y016694D01*
X011225Y016660D01*
X011225Y016594D01*
X011192Y016560D01*
X011125Y016627D02*
X011125Y016660D01*
X011058Y016694D02*
X011025Y016660D01*
X011025Y016594D01*
X011058Y016560D01*
X011058Y016463D02*
X011025Y016430D01*
X011025Y016363D01*
X011058Y016330D01*
X011192Y016330D01*
X011225Y016363D01*
X011225Y016430D01*
X011192Y016463D01*
X010430Y016488D02*
X010430Y015622D01*
X010625Y015380D02*
X010758Y015380D01*
X010692Y015380D02*
X010692Y015180D01*
X010855Y015180D02*
X010989Y015180D01*
X010922Y015180D02*
X010922Y015380D01*
X010855Y015313D01*
X010975Y014533D02*
X011008Y014533D01*
X011142Y014400D01*
X011175Y014400D01*
X011142Y014303D02*
X011175Y014270D01*
X011175Y014203D01*
X011142Y014170D01*
X011075Y014236D02*
X011075Y014270D01*
X011108Y014303D01*
X011142Y014303D01*
X011075Y014270D02*
X011042Y014303D01*
X011008Y014303D01*
X010975Y014270D01*
X010975Y014203D01*
X011008Y014170D01*
X011008Y014073D02*
X010975Y014039D01*
X010975Y013973D01*
X011008Y013939D01*
X011142Y013939D01*
X011175Y013973D01*
X011175Y014039D01*
X011142Y014073D01*
X010975Y014400D02*
X010975Y014533D01*
X010430Y014038D02*
X010430Y013172D01*
X010556Y012889D02*
X010689Y012889D01*
X010622Y012889D02*
X010622Y012689D01*
X010786Y012689D02*
X010919Y012822D01*
X010919Y012855D01*
X010886Y012889D01*
X010819Y012889D01*
X010786Y012855D01*
X010786Y012689D02*
X010919Y012689D01*
X009800Y012719D02*
X009485Y012719D01*
X009019Y012447D02*
X008885Y012313D01*
X008919Y012280D01*
X008985Y012280D01*
X009019Y012313D01*
X009019Y012447D01*
X008985Y012480D01*
X008919Y012480D01*
X008885Y012447D01*
X008885Y012313D01*
X008789Y012280D02*
X008655Y012280D01*
X008722Y012280D02*
X008722Y012480D01*
X008655Y012413D01*
X008558Y012380D02*
X008525Y012347D01*
X008425Y012347D01*
X008492Y012347D02*
X008558Y012280D01*
X008558Y012380D02*
X008558Y012447D01*
X008525Y012480D01*
X008425Y012480D01*
X008425Y012280D01*
X008425Y012130D02*
X008525Y012130D01*
X008558Y012097D01*
X008558Y012030D01*
X008525Y011997D01*
X008425Y011997D01*
X008492Y011997D02*
X008558Y011930D01*
X008655Y011930D02*
X008789Y011930D01*
X008722Y011930D02*
X008722Y012130D01*
X008655Y012063D01*
X008885Y012063D02*
X008952Y012130D01*
X008952Y011930D01*
X008885Y011930D02*
X009019Y011930D01*
X008425Y011930D02*
X008425Y012130D01*
X008275Y012130D02*
X008242Y012163D01*
X008275Y012130D02*
X008275Y012063D01*
X008242Y012030D01*
X008108Y012030D01*
X008075Y012063D01*
X008075Y012130D01*
X008108Y012163D01*
X008175Y012260D02*
X008075Y012360D01*
X008275Y012360D01*
X008175Y012394D02*
X008175Y012260D01*
X008175Y012490D02*
X008175Y012624D01*
X008275Y012590D02*
X008075Y012590D01*
X008175Y012490D01*
X009170Y013172D02*
X009170Y014038D01*
X009800Y014491D02*
X010115Y014491D01*
X009800Y015169D02*
X009485Y015169D01*
X009170Y015622D02*
X009170Y016488D01*
X009800Y016941D02*
X010115Y016941D01*
X008669Y017063D02*
X008635Y017030D01*
X008569Y017030D01*
X008535Y017063D01*
X008602Y017130D02*
X008635Y017130D01*
X008669Y017097D01*
X008669Y017063D01*
X008635Y017130D02*
X008669Y017163D01*
X008669Y017197D01*
X008635Y017230D01*
X008569Y017230D01*
X008535Y017197D01*
X008439Y017197D02*
X008439Y017163D01*
X008405Y017130D01*
X008439Y017097D01*
X008439Y017063D01*
X008405Y017030D01*
X008339Y017030D01*
X008305Y017063D01*
X008372Y017130D02*
X008405Y017130D01*
X008439Y017197D02*
X008405Y017230D01*
X008339Y017230D01*
X008305Y017197D01*
X008208Y017197D02*
X008175Y017230D01*
X008108Y017230D01*
X008075Y017197D01*
X008075Y017063D01*
X008108Y017030D01*
X008175Y017030D01*
X008208Y017063D01*
X008292Y016435D02*
X008292Y016234D01*
X008225Y016234D02*
X008359Y016234D01*
X008225Y016368D02*
X008292Y016435D01*
X008129Y016234D02*
X007995Y016234D01*
X007995Y016435D01*
X005486Y016191D02*
X005486Y015719D01*
X005014Y015719D01*
X005014Y016191D01*
X005486Y016191D01*
X005486Y015491D02*
X005014Y015491D01*
X005014Y015019D01*
X005486Y015019D01*
X005486Y015491D01*
X005486Y014691D02*
X005014Y014691D01*
X005014Y014219D01*
X005486Y014219D01*
X005486Y014691D01*
X005486Y013991D02*
X005014Y013991D01*
X005014Y013519D01*
X005486Y013519D01*
X005486Y013991D01*
X007995Y014234D02*
X008129Y014234D01*
X007995Y014234D02*
X007995Y014435D01*
X008225Y014334D02*
X008359Y014334D01*
X008325Y014234D02*
X008325Y014435D01*
X008225Y014334D01*
X009958Y018080D02*
X010092Y018080D01*
X010125Y018113D01*
X010125Y018180D01*
X010092Y018213D01*
X010125Y018310D02*
X009992Y018444D01*
X009958Y018444D01*
X009925Y018410D01*
X009925Y018344D01*
X009958Y018310D01*
X009958Y018213D02*
X009925Y018180D01*
X009925Y018113D01*
X009958Y018080D01*
X010125Y018310D02*
X010125Y018444D01*
X010125Y018540D02*
X010125Y018674D01*
X010125Y018607D02*
X009925Y018607D01*
X009992Y018540D01*
X009375Y018510D02*
X009342Y018510D01*
X009208Y018644D01*
X009175Y018644D01*
X009175Y018510D01*
X009208Y018413D02*
X009175Y018380D01*
X009175Y018280D01*
X009375Y018280D01*
X009308Y018280D02*
X009308Y018380D01*
X009275Y018413D01*
X009208Y018413D01*
X009308Y018347D02*
X009375Y018413D01*
X007925Y019013D02*
X007892Y018980D01*
X007758Y018980D01*
X007725Y019013D01*
X007725Y019080D01*
X007758Y019113D01*
X007758Y019210D02*
X007725Y019244D01*
X007725Y019310D01*
X007758Y019344D01*
X007792Y019344D01*
X007925Y019210D01*
X007925Y019344D01*
X007892Y019440D02*
X007925Y019474D01*
X007925Y019540D01*
X007892Y019574D01*
X007825Y019574D01*
X007792Y019540D01*
X007792Y019507D01*
X007825Y019440D01*
X007725Y019440D01*
X007725Y019574D01*
X007425Y019290D02*
X007425Y019224D01*
X007392Y019190D01*
X007325Y019190D02*
X007292Y019257D01*
X007292Y019290D01*
X007325Y019324D01*
X007392Y019324D01*
X007425Y019290D01*
X007325Y019190D02*
X007225Y019190D01*
X007225Y019324D01*
X007225Y019094D02*
X007258Y019027D01*
X007325Y018960D01*
X007325Y019060D01*
X007358Y019094D01*
X007392Y019094D01*
X007425Y019060D01*
X007425Y018994D01*
X007392Y018960D01*
X007325Y018960D01*
X007392Y018863D02*
X007425Y018830D01*
X007425Y018763D01*
X007392Y018730D01*
X007258Y018730D01*
X007225Y018763D01*
X007225Y018830D01*
X007258Y018863D01*
X006675Y019180D02*
X006675Y019280D01*
X006642Y019313D01*
X006508Y019313D01*
X006475Y019280D01*
X006475Y019180D01*
X006675Y019180D01*
X006675Y019410D02*
X006542Y019544D01*
X006508Y019544D01*
X006475Y019510D01*
X006475Y019444D01*
X006508Y019410D01*
X006675Y019410D02*
X006675Y019544D01*
X006286Y019291D02*
X006286Y018819D01*
X005814Y018819D01*
X005814Y019291D01*
X006286Y019291D01*
X006202Y018730D02*
X006202Y018530D01*
X006135Y018530D02*
X006269Y018530D01*
X006366Y018530D02*
X006499Y018663D01*
X006499Y018697D01*
X006466Y018730D01*
X006399Y018730D01*
X006366Y018697D01*
X006366Y018530D02*
X006499Y018530D01*
X006202Y018730D02*
X006135Y018663D01*
X006039Y018630D02*
X006005Y018597D01*
X005905Y018597D01*
X005905Y018530D02*
X005905Y018730D01*
X006005Y018730D01*
X006039Y018697D01*
X006039Y018630D01*
X005808Y018730D02*
X005675Y018730D01*
X005742Y018730D02*
X005742Y018530D01*
X007892Y019113D02*
X007925Y019080D01*
X007925Y019013D01*
X007950Y020656D02*
X011950Y020656D01*
X011950Y024534D01*
X007950Y024534D01*
X007950Y020656D01*
X005749Y020530D02*
X005616Y020530D01*
X005682Y020530D02*
X005682Y020730D01*
X005616Y020663D01*
X005586Y020819D02*
X005114Y020819D01*
X005114Y021291D01*
X005586Y021291D01*
X005586Y020819D01*
X005452Y020730D02*
X005452Y020530D01*
X005385Y020530D02*
X005519Y020530D01*
X005385Y020663D02*
X005452Y020730D01*
X005289Y020697D02*
X005289Y020630D01*
X005255Y020597D01*
X005155Y020597D01*
X005155Y020530D02*
X005155Y020730D01*
X005255Y020730D01*
X005289Y020697D01*
X005058Y020730D02*
X004925Y020730D01*
X004992Y020730D02*
X004992Y020530D01*
X012175Y023730D02*
X012175Y023830D01*
X012208Y023863D01*
X012275Y023863D01*
X012308Y023830D01*
X012308Y023730D01*
X012308Y023797D02*
X012375Y023863D01*
X012342Y023960D02*
X012375Y023994D01*
X012375Y024060D01*
X012342Y024094D01*
X012308Y024094D01*
X012275Y024060D01*
X012275Y023960D01*
X012342Y023960D01*
X012275Y023960D02*
X012208Y024027D01*
X012175Y024094D01*
X012175Y024330D02*
X012208Y024363D01*
X012208Y024530D01*
X012305Y024497D02*
X012339Y024530D01*
X012405Y024530D01*
X012439Y024497D01*
X012439Y024463D01*
X012405Y024430D01*
X012339Y024430D01*
X012305Y024463D01*
X012305Y024497D01*
X012339Y024430D02*
X012305Y024397D01*
X012305Y024363D01*
X012339Y024330D01*
X012405Y024330D01*
X012439Y024363D01*
X012439Y024397D01*
X012405Y024430D01*
X012175Y024330D02*
X012108Y024330D01*
X012075Y024363D01*
X012075Y024530D01*
X013242Y024080D02*
X013308Y024080D01*
X013275Y024080D02*
X013275Y023913D01*
X013242Y023880D01*
X013208Y023880D01*
X013175Y023913D01*
X013405Y023880D02*
X013539Y023880D01*
X013472Y023880D02*
X013472Y024080D01*
X013405Y024013D01*
X012375Y023730D02*
X012175Y023730D01*
X012575Y022662D02*
X012775Y022662D01*
X012775Y022596D02*
X012775Y022729D01*
X012642Y022596D02*
X012575Y022662D01*
X012608Y022499D02*
X012575Y022465D01*
X012575Y022365D01*
X012775Y022365D01*
X012775Y022465D01*
X012742Y022499D01*
X012608Y022499D01*
X012575Y022269D02*
X012575Y022135D01*
X012775Y022135D01*
X012775Y022269D01*
X012675Y022202D02*
X012675Y022135D01*
X012775Y022038D02*
X012775Y021905D01*
X012575Y021905D01*
X012558Y021574D02*
X012525Y021540D01*
X012525Y021474D01*
X012558Y021440D01*
X012592Y021440D01*
X012625Y021474D01*
X012625Y021574D01*
X012692Y021574D02*
X012558Y021574D01*
X012692Y021574D02*
X012725Y021540D01*
X012725Y021474D01*
X012692Y021440D01*
X012692Y021344D02*
X012725Y021310D01*
X012725Y021244D01*
X012692Y021210D01*
X012625Y021277D02*
X012625Y021310D01*
X012658Y021344D01*
X012692Y021344D01*
X012625Y021310D02*
X012592Y021344D01*
X012558Y021344D01*
X012525Y021310D01*
X012525Y021244D01*
X012558Y021210D01*
X012558Y021113D02*
X012525Y021080D01*
X012525Y021013D01*
X012558Y020980D01*
X012692Y020980D01*
X012725Y021013D01*
X012725Y021080D01*
X012692Y021113D01*
X014406Y020837D02*
X014406Y020790D01*
X014501Y020695D01*
X014548Y020695D01*
X014595Y020743D01*
X014595Y020790D01*
X014664Y020858D02*
X014711Y020858D01*
X014758Y020905D01*
X014758Y020953D01*
X014734Y020976D01*
X014687Y020976D01*
X014664Y020953D01*
X014687Y020976D02*
X014687Y021023D01*
X014664Y021047D01*
X014616Y021047D01*
X014569Y021000D01*
X014569Y020953D01*
X014501Y020884D02*
X014454Y020884D01*
X014406Y020837D01*
X014732Y021115D02*
X014732Y021162D01*
X014779Y021210D01*
X014826Y021210D01*
X014826Y021021D01*
X014873Y021021D01*
X014921Y021068D01*
X014921Y021115D01*
X014826Y021210D01*
X014732Y021115D02*
X014826Y021021D01*
X015325Y021330D02*
X015325Y021463D01*
X015325Y021397D02*
X015525Y021397D01*
X015575Y021480D02*
X015708Y021480D01*
X015642Y021480D02*
X015642Y021280D01*
X015805Y021280D02*
X015805Y021480D01*
X015905Y021480D01*
X015939Y021447D01*
X015939Y021380D01*
X015905Y021347D01*
X015805Y021347D01*
X015825Y021124D02*
X015858Y021124D01*
X015992Y020990D01*
X016025Y020990D01*
X016025Y020860D02*
X015825Y020860D01*
X015925Y020760D01*
X015925Y020894D01*
X015825Y020990D02*
X015825Y021124D01*
X016035Y021313D02*
X016069Y021280D01*
X016135Y021280D01*
X016169Y021313D01*
X016169Y021380D01*
X016135Y021413D01*
X016102Y021413D01*
X016035Y021380D01*
X016035Y021480D01*
X016169Y021480D01*
X016186Y021569D02*
X015714Y021569D01*
X015714Y022041D01*
X016186Y022041D01*
X016186Y021569D01*
X016214Y021919D02*
X016686Y021919D01*
X016686Y022391D01*
X016214Y022391D01*
X016214Y021919D01*
X015525Y021890D02*
X015325Y021890D01*
X015425Y021790D01*
X015425Y021924D01*
X015492Y022021D02*
X015358Y022154D01*
X015492Y022154D01*
X015525Y022121D01*
X015525Y022054D01*
X015492Y022021D01*
X015358Y022021D01*
X015325Y022054D01*
X015325Y022121D01*
X015358Y022154D01*
X015358Y021694D02*
X015425Y021694D01*
X015458Y021660D01*
X015458Y021560D01*
X015525Y021560D02*
X015325Y021560D01*
X015325Y021660D01*
X015358Y021694D01*
X015364Y020839D02*
X015366Y020857D01*
X015371Y020874D01*
X015380Y020889D01*
X015392Y020902D01*
X015406Y020913D01*
X015423Y020920D01*
X015440Y020924D01*
X015458Y020924D01*
X015475Y020920D01*
X015491Y020913D01*
X015506Y020902D01*
X015518Y020889D01*
X015527Y020874D01*
X015532Y020857D01*
X015534Y020839D01*
X015532Y020821D01*
X015527Y020804D01*
X015518Y020789D01*
X015506Y020776D01*
X015492Y020765D01*
X015475Y020758D01*
X015458Y020754D01*
X015440Y020754D01*
X015423Y020758D01*
X015407Y020765D01*
X015392Y020776D01*
X015380Y020789D01*
X015371Y020804D01*
X015366Y020821D01*
X015364Y020839D01*
X015825Y020630D02*
X015825Y020563D01*
X015858Y020530D01*
X015992Y020530D01*
X016025Y020563D01*
X016025Y020630D01*
X015992Y020663D01*
X015858Y020663D02*
X015825Y020630D01*
X015177Y020306D02*
X015149Y020278D01*
X014708Y020145D02*
X014614Y020051D01*
X014661Y020098D02*
X014520Y020240D01*
X014520Y020145D01*
X014404Y020124D02*
X014451Y019888D01*
X014546Y019982D02*
X014310Y020030D01*
X014677Y019349D02*
X014583Y019254D01*
X014583Y019207D01*
X014630Y019160D01*
X014677Y019160D01*
X014722Y019068D02*
X014911Y019068D01*
X014934Y019092D01*
X014934Y019139D01*
X014887Y019186D01*
X014840Y019186D01*
X014771Y019254D02*
X014771Y019302D01*
X014724Y019349D01*
X014677Y019349D01*
X014722Y019068D02*
X014816Y018974D01*
X014908Y018929D02*
X014908Y018882D01*
X014955Y018834D01*
X015003Y018834D01*
X015097Y018929D01*
X015097Y018976D01*
X015050Y019023D01*
X015003Y019023D01*
X014979Y019000D01*
X014979Y018952D01*
X015050Y018882D01*
X015175Y018980D02*
X015308Y018980D01*
X015242Y018980D02*
X015242Y018780D01*
X015405Y018780D02*
X015405Y018980D01*
X015505Y018980D01*
X015539Y018947D01*
X015539Y018880D01*
X015505Y018847D01*
X015405Y018847D01*
X015635Y018880D02*
X015769Y018880D01*
X015735Y018780D02*
X015735Y018980D01*
X015635Y018880D01*
X015808Y019080D02*
X015875Y019080D01*
X015908Y019113D01*
X015808Y019080D02*
X015775Y019113D01*
X015775Y019247D01*
X015808Y019280D01*
X015875Y019280D01*
X015908Y019247D01*
X016005Y019180D02*
X016105Y019280D01*
X016105Y019080D01*
X016139Y019180D02*
X016005Y019180D01*
X016025Y019380D02*
X016025Y019480D01*
X016058Y019513D01*
X016125Y019513D01*
X016158Y019480D01*
X016158Y019380D01*
X016158Y019447D02*
X016225Y019513D01*
X016225Y019610D02*
X016225Y019744D01*
X016225Y019677D02*
X016025Y019677D01*
X016092Y019610D01*
X016092Y019840D02*
X016058Y019840D01*
X016025Y019874D01*
X016025Y019940D01*
X016058Y019974D01*
X016092Y019974D01*
X016125Y019940D01*
X016125Y019874D01*
X016092Y019840D01*
X016125Y019874D02*
X016158Y019840D01*
X016192Y019840D01*
X016225Y019874D01*
X016225Y019940D01*
X016192Y019974D01*
X016158Y019974D01*
X016125Y019940D01*
X015622Y019861D02*
X015594Y019833D01*
X016025Y019380D02*
X016225Y019380D01*
X016302Y019247D02*
X016235Y019180D01*
X016335Y019180D01*
X016369Y019147D01*
X016369Y019113D01*
X016335Y019080D01*
X016269Y019080D01*
X016235Y019113D01*
X016235Y019180D01*
X016302Y019247D02*
X016369Y019280D01*
X015302Y018580D02*
X015302Y018380D01*
X015235Y018380D02*
X015369Y018380D01*
X015235Y018513D02*
X015302Y018580D01*
X015139Y018580D02*
X015072Y018547D01*
X015005Y018480D01*
X015105Y018480D01*
X015139Y018447D01*
X015139Y018413D01*
X015105Y018380D01*
X015039Y018380D01*
X015005Y018413D01*
X015005Y018480D01*
X014908Y018413D02*
X014875Y018380D01*
X014808Y018380D01*
X014775Y018413D01*
X014775Y018547D01*
X014808Y018580D01*
X014875Y018580D01*
X014908Y018547D01*
X015925Y017847D02*
X015925Y017713D01*
X015958Y017680D01*
X016025Y017680D01*
X016058Y017713D01*
X016155Y017680D02*
X016289Y017680D01*
X016222Y017680D02*
X016222Y017880D01*
X016155Y017813D01*
X016058Y017847D02*
X016025Y017880D01*
X015958Y017880D01*
X015925Y017847D01*
X016385Y017813D02*
X016452Y017880D01*
X016452Y017680D01*
X016385Y017680D02*
X016519Y017680D01*
X015175Y017071D02*
X015175Y017004D01*
X015142Y016971D01*
X015075Y016971D01*
X015075Y017071D01*
X015108Y017104D01*
X015142Y017104D01*
X015175Y017071D01*
X015075Y016971D02*
X015008Y017037D01*
X014975Y017104D01*
X015008Y016874D02*
X014975Y016840D01*
X014975Y016740D01*
X015175Y016740D01*
X015175Y016840D01*
X015142Y016874D01*
X015008Y016874D01*
X014975Y016644D02*
X014975Y016510D01*
X015175Y016510D01*
X015175Y016644D01*
X015075Y016577D02*
X015075Y016510D01*
X015175Y016413D02*
X015175Y016280D01*
X014975Y016280D01*
X015013Y015459D02*
X015046Y015459D01*
X015080Y015426D01*
X015113Y015459D01*
X015146Y015459D01*
X015180Y015426D01*
X015180Y015359D01*
X015146Y015325D01*
X015080Y015392D02*
X015080Y015426D01*
X015013Y015459D02*
X014980Y015426D01*
X014980Y015359D01*
X015013Y015325D01*
X015013Y015229D02*
X014980Y015195D01*
X014980Y015129D01*
X015013Y015095D01*
X015013Y014998D02*
X014980Y014965D01*
X014980Y014898D01*
X015013Y014865D01*
X015146Y014865D01*
X015180Y014898D01*
X015180Y014965D01*
X015146Y014998D01*
X015180Y015095D02*
X015046Y015229D01*
X015013Y015229D01*
X015180Y015229D02*
X015180Y015095D01*
X016125Y014880D02*
X016258Y014880D01*
X016192Y014880D02*
X016192Y014680D01*
X016355Y014680D02*
X016355Y014880D01*
X016455Y014880D01*
X016489Y014847D01*
X016489Y014780D01*
X016455Y014747D01*
X016355Y014747D01*
X016585Y014813D02*
X016652Y014880D01*
X016652Y014680D01*
X016585Y014680D02*
X016719Y014680D01*
X016816Y014713D02*
X016849Y014680D01*
X016916Y014680D01*
X016949Y014713D01*
X016949Y014747D01*
X016916Y014780D01*
X016816Y014780D01*
X016816Y014713D01*
X016816Y014780D02*
X016882Y014847D01*
X016949Y014880D01*
X017275Y015280D02*
X017275Y015480D01*
X017375Y015480D01*
X017408Y015447D01*
X017408Y015380D01*
X017375Y015347D01*
X017275Y015347D01*
X017342Y015347D02*
X017408Y015280D01*
X017505Y015380D02*
X017639Y015380D01*
X017605Y015280D02*
X017605Y015480D01*
X017505Y015380D01*
X017735Y015313D02*
X017769Y015280D01*
X017835Y015280D01*
X017869Y015313D01*
X017869Y015347D01*
X017835Y015380D01*
X017802Y015380D01*
X017835Y015380D02*
X017869Y015413D01*
X017869Y015447D01*
X017835Y015480D01*
X017769Y015480D01*
X017735Y015447D01*
X017385Y016280D02*
X017319Y016280D01*
X017285Y016313D01*
X017285Y016380D02*
X017352Y016413D01*
X017385Y016413D01*
X017419Y016380D01*
X017419Y016313D01*
X017385Y016280D01*
X017285Y016380D02*
X017285Y016480D01*
X017419Y016480D01*
X017189Y016380D02*
X017055Y016380D01*
X017155Y016480D01*
X017155Y016280D01*
X016958Y016313D02*
X016925Y016280D01*
X016858Y016280D01*
X016825Y016313D01*
X016825Y016447D01*
X016858Y016480D01*
X016925Y016480D01*
X016958Y016447D01*
X019025Y016630D02*
X019158Y016630D01*
X019092Y016630D02*
X019092Y016430D01*
X019214Y016341D02*
X019686Y016341D01*
X019686Y015869D01*
X019214Y015869D01*
X019214Y016341D01*
X019255Y016430D02*
X019255Y016630D01*
X019355Y016630D01*
X019389Y016597D01*
X019389Y016530D01*
X019355Y016497D01*
X019255Y016497D01*
X019485Y016463D02*
X019519Y016430D01*
X019585Y016430D01*
X019619Y016463D01*
X019619Y016497D01*
X019585Y016530D01*
X019552Y016530D01*
X019585Y016530D02*
X019619Y016563D01*
X019619Y016597D01*
X019585Y016630D01*
X019519Y016630D01*
X019485Y016597D01*
X019716Y016597D02*
X019716Y016563D01*
X019749Y016530D01*
X019816Y016530D01*
X019849Y016497D01*
X019849Y016463D01*
X019816Y016430D01*
X019749Y016430D01*
X019716Y016463D01*
X019716Y016497D01*
X019749Y016530D01*
X019816Y016530D02*
X019849Y016563D01*
X019849Y016597D01*
X019816Y016630D01*
X019749Y016630D01*
X019716Y016597D01*
X020425Y016180D02*
X020525Y016180D01*
X020558Y016147D01*
X020558Y016080D01*
X020525Y016047D01*
X020425Y016047D01*
X020492Y016047D02*
X020558Y015980D01*
X020655Y016013D02*
X020689Y015980D01*
X020755Y015980D01*
X020789Y016013D01*
X020789Y016047D01*
X020755Y016080D01*
X020689Y016080D01*
X020655Y016113D01*
X020655Y016147D01*
X020689Y016180D01*
X020755Y016180D01*
X020789Y016147D01*
X020789Y016113D01*
X020755Y016080D01*
X020689Y016080D02*
X020655Y016047D01*
X020655Y016013D01*
X020425Y015980D02*
X020425Y016180D01*
X021375Y015897D02*
X021375Y015763D01*
X021408Y015730D01*
X021475Y015730D01*
X021508Y015763D01*
X021605Y015763D02*
X021639Y015730D01*
X021705Y015730D01*
X021739Y015763D01*
X021739Y015830D01*
X021705Y015863D01*
X021672Y015863D01*
X021605Y015830D01*
X021605Y015930D01*
X021739Y015930D01*
X021835Y015897D02*
X021869Y015930D01*
X021935Y015930D01*
X021969Y015897D01*
X021969Y015863D01*
X021835Y015730D01*
X021969Y015730D01*
X021508Y015897D02*
X021475Y015930D01*
X021408Y015930D01*
X021375Y015897D01*
X022625Y016463D02*
X022625Y016597D01*
X022658Y016630D01*
X022725Y016630D01*
X022758Y016597D01*
X022855Y016530D02*
X022989Y016530D01*
X023085Y016497D02*
X023119Y016530D01*
X023185Y016530D01*
X023219Y016497D01*
X023219Y016463D01*
X023185Y016430D01*
X023119Y016430D01*
X023085Y016463D01*
X023085Y016497D01*
X023119Y016530D02*
X023085Y016563D01*
X023085Y016597D01*
X023119Y016630D01*
X023185Y016630D01*
X023219Y016597D01*
X023219Y016563D01*
X023185Y016530D01*
X022955Y016430D02*
X022955Y016630D01*
X022855Y016530D01*
X022758Y016463D02*
X022725Y016430D01*
X022658Y016430D01*
X022625Y016463D01*
X022992Y015995D02*
X023125Y015995D01*
X023059Y015995D02*
X023059Y015795D01*
X023164Y015691D02*
X023636Y015691D01*
X023636Y015219D01*
X023164Y015219D01*
X023164Y015691D01*
X023222Y015795D02*
X023222Y015995D01*
X023322Y015995D01*
X023356Y015962D01*
X023356Y015895D01*
X023322Y015862D01*
X023222Y015862D01*
X023452Y015895D02*
X023552Y015895D01*
X023586Y015862D01*
X023586Y015828D01*
X023552Y015795D01*
X023486Y015795D01*
X023452Y015828D01*
X023452Y015895D01*
X023519Y015962D01*
X023586Y015995D01*
X024075Y015740D02*
X024108Y015774D01*
X024142Y015774D01*
X024175Y015740D01*
X024208Y015774D01*
X024242Y015774D01*
X024275Y015740D01*
X024275Y015674D01*
X024242Y015640D01*
X024175Y015707D02*
X024175Y015740D01*
X024075Y015740D02*
X024075Y015674D01*
X024108Y015640D01*
X024108Y015544D02*
X024242Y015410D01*
X024275Y015410D01*
X024242Y015313D02*
X024275Y015280D01*
X024275Y015213D01*
X024242Y015180D01*
X024108Y015180D01*
X024075Y015213D01*
X024075Y015280D01*
X024108Y015313D01*
X024075Y015410D02*
X024075Y015544D01*
X024108Y015544D01*
X024725Y016130D02*
X024725Y016330D01*
X024825Y016330D01*
X024858Y016297D01*
X024858Y016230D01*
X024825Y016197D01*
X024725Y016197D01*
X024792Y016197D02*
X024858Y016130D01*
X024955Y016130D02*
X025089Y016130D01*
X025022Y016130D02*
X025022Y016330D01*
X024955Y016263D01*
X024955Y016430D02*
X025089Y016430D01*
X025022Y016430D02*
X025022Y016630D01*
X024955Y016563D01*
X024858Y016530D02*
X024825Y016497D01*
X024725Y016497D01*
X024792Y016497D02*
X024858Y016430D01*
X024858Y016530D02*
X024858Y016597D01*
X024825Y016630D01*
X024725Y016630D01*
X024725Y016430D01*
X024725Y016730D02*
X024725Y016930D01*
X024825Y016930D01*
X024858Y016897D01*
X024858Y016830D01*
X024825Y016797D01*
X024725Y016797D01*
X024792Y016797D02*
X024858Y016730D01*
X024955Y016730D02*
X025089Y016863D01*
X025089Y016897D01*
X025055Y016930D01*
X024989Y016930D01*
X024955Y016897D01*
X024955Y016730D02*
X025089Y016730D01*
X025185Y016763D02*
X025319Y016897D01*
X025319Y016763D01*
X025285Y016730D01*
X025219Y016730D01*
X025185Y016763D01*
X025185Y016897D01*
X025219Y016930D01*
X025285Y016930D01*
X025319Y016897D01*
X025319Y016630D02*
X025252Y016597D01*
X025185Y016530D01*
X025285Y016530D01*
X025319Y016497D01*
X025319Y016463D01*
X025285Y016430D01*
X025219Y016430D01*
X025185Y016463D01*
X025185Y016530D01*
X025285Y016330D02*
X025185Y016230D01*
X025319Y016230D01*
X025285Y016130D02*
X025285Y016330D01*
X026325Y016830D02*
X026325Y016930D01*
X026358Y016963D01*
X026425Y016963D01*
X026458Y016930D01*
X026458Y016830D01*
X026458Y016897D02*
X026525Y016963D01*
X026525Y017060D02*
X026392Y017194D01*
X026358Y017194D01*
X026325Y017160D01*
X026325Y017094D01*
X026358Y017060D01*
X026525Y017060D02*
X026525Y017194D01*
X026492Y017290D02*
X026525Y017324D01*
X026525Y017390D01*
X026492Y017424D01*
X026458Y017424D01*
X026425Y017390D01*
X026425Y017290D01*
X026492Y017290D01*
X026425Y017290D02*
X026358Y017357D01*
X026325Y017424D01*
X026375Y017630D02*
X026375Y017763D01*
X026375Y017697D02*
X026575Y017697D01*
X026575Y017860D02*
X026375Y017860D01*
X026375Y017960D01*
X026408Y017994D01*
X026475Y017994D01*
X026508Y017960D01*
X026508Y017860D01*
X026575Y018090D02*
X026442Y018224D01*
X026408Y018224D01*
X026375Y018190D01*
X026375Y018124D01*
X026408Y018090D01*
X026575Y018090D02*
X026575Y018224D01*
X026851Y018465D02*
X031123Y018465D01*
X031123Y018938D01*
X031123Y020217D02*
X031123Y022402D01*
X031281Y021880D02*
X031348Y021880D01*
X031315Y021880D02*
X031315Y021713D01*
X031281Y021680D01*
X031248Y021680D01*
X031215Y021713D01*
X031445Y021713D02*
X031445Y021680D01*
X031445Y021713D02*
X031578Y021847D01*
X031578Y021880D01*
X031445Y021880D01*
X032742Y021280D02*
X032808Y021280D01*
X032775Y021280D02*
X032775Y021113D01*
X032742Y021080D01*
X032708Y021080D01*
X032675Y021113D01*
X032905Y021180D02*
X033039Y021180D01*
X033005Y021080D02*
X033005Y021280D01*
X032905Y021180D01*
X028875Y020390D02*
X028842Y020390D01*
X028708Y020524D01*
X028675Y020524D01*
X028675Y020390D01*
X028675Y020294D02*
X028708Y020294D01*
X028842Y020160D01*
X028875Y020160D01*
X028842Y020063D02*
X028875Y020030D01*
X028875Y019963D01*
X028842Y019930D01*
X028708Y019930D01*
X028675Y019963D01*
X028675Y020030D01*
X028708Y020063D01*
X028675Y020160D02*
X028675Y020294D01*
X028419Y020097D02*
X028419Y020063D01*
X028385Y020030D01*
X028319Y020030D01*
X028285Y020063D01*
X028285Y020097D01*
X028319Y020130D01*
X028385Y020130D01*
X028419Y020097D01*
X028385Y020030D02*
X028419Y019997D01*
X028419Y019963D01*
X028385Y019930D01*
X028319Y019930D01*
X028285Y019963D01*
X028285Y019997D01*
X028319Y020030D01*
X028189Y020097D02*
X028055Y019963D01*
X028055Y019930D01*
X027958Y019963D02*
X027925Y019930D01*
X027858Y019930D01*
X027825Y019963D01*
X027825Y020097D01*
X027858Y020130D01*
X027925Y020130D01*
X027958Y020097D01*
X028055Y020130D02*
X028189Y020130D01*
X028189Y020097D01*
X028189Y019780D02*
X028189Y019747D01*
X028055Y019613D01*
X028055Y019580D01*
X027958Y019613D02*
X027925Y019580D01*
X027858Y019580D01*
X027825Y019613D01*
X027825Y019747D01*
X027858Y019780D01*
X027925Y019780D01*
X027958Y019747D01*
X028055Y019780D02*
X028189Y019780D01*
X028285Y019680D02*
X028385Y019680D01*
X028419Y019647D01*
X028419Y019613D01*
X028385Y019580D01*
X028319Y019580D01*
X028285Y019613D01*
X028285Y019680D01*
X028352Y019747D01*
X028419Y019780D01*
X028385Y019430D02*
X028285Y019330D01*
X028419Y019330D01*
X028385Y019230D02*
X028385Y019430D01*
X028189Y019430D02*
X028189Y019397D01*
X028055Y019263D01*
X028055Y019230D01*
X027958Y019263D02*
X027925Y019230D01*
X027858Y019230D01*
X027825Y019263D01*
X027825Y019397D01*
X027858Y019430D01*
X027925Y019430D01*
X027958Y019397D01*
X028055Y019430D02*
X028189Y019430D01*
X028775Y018280D02*
X028775Y018113D01*
X028808Y018080D01*
X028875Y018080D01*
X028908Y018113D01*
X028908Y018280D01*
X029005Y018213D02*
X029072Y018280D01*
X029072Y018080D01*
X029005Y018080D02*
X029139Y018080D01*
X029235Y018180D02*
X029369Y018180D01*
X029335Y018080D02*
X029335Y018280D01*
X029235Y018180D01*
X029958Y016530D02*
X029925Y016497D01*
X029925Y016363D01*
X029958Y016330D01*
X030025Y016330D01*
X030058Y016363D01*
X030155Y016363D02*
X030155Y016330D01*
X030155Y016363D02*
X030289Y016497D01*
X030289Y016530D01*
X030155Y016530D01*
X030058Y016497D02*
X030025Y016530D01*
X029958Y016530D01*
X029786Y016391D02*
X029314Y016391D01*
X029314Y015919D01*
X029786Y015919D01*
X029786Y016391D01*
X030385Y016363D02*
X030419Y016330D01*
X030485Y016330D01*
X030519Y016363D01*
X030519Y016430D01*
X030485Y016463D01*
X030452Y016463D01*
X030385Y016430D01*
X030385Y016530D01*
X030519Y016530D01*
X030175Y015904D02*
X030175Y015771D01*
X030175Y015837D02*
X029975Y015837D01*
X030042Y015771D01*
X030042Y015674D02*
X030008Y015674D01*
X029975Y015640D01*
X029975Y015574D01*
X030008Y015540D01*
X030008Y015444D02*
X030075Y015444D01*
X030108Y015410D01*
X030108Y015310D01*
X030175Y015310D02*
X029975Y015310D01*
X029975Y015410D01*
X030008Y015444D01*
X030175Y015540D02*
X030042Y015674D01*
X030175Y015674D02*
X030175Y015540D01*
X029975Y015213D02*
X029975Y015080D01*
X029975Y015147D02*
X030175Y015147D01*
X030525Y013874D02*
X030525Y013740D01*
X030525Y013807D02*
X030325Y013807D01*
X030392Y013740D01*
X030358Y013644D02*
X030492Y013510D01*
X030525Y013510D01*
X030492Y013413D02*
X030525Y013380D01*
X030525Y013313D01*
X030492Y013280D01*
X030358Y013280D01*
X030325Y013313D01*
X030325Y013380D01*
X030358Y013413D01*
X030325Y013510D02*
X030325Y013644D01*
X030358Y013644D01*
X029950Y012480D02*
X029952Y012500D01*
X029958Y012518D01*
X029967Y012536D01*
X029979Y012551D01*
X029994Y012563D01*
X030012Y012572D01*
X030030Y012578D01*
X030050Y012580D01*
X030070Y012578D01*
X030088Y012572D01*
X030106Y012563D01*
X030121Y012551D01*
X030133Y012536D01*
X030142Y012518D01*
X030148Y012500D01*
X030150Y012480D01*
X030148Y012460D01*
X030142Y012442D01*
X030133Y012424D01*
X030121Y012409D01*
X030106Y012397D01*
X030088Y012388D01*
X030070Y012382D01*
X030050Y012380D01*
X030030Y012382D01*
X030012Y012388D01*
X029994Y012397D01*
X029979Y012409D01*
X029967Y012424D01*
X029958Y012442D01*
X029952Y012460D01*
X029950Y012480D01*
X029935Y012230D02*
X029969Y012197D01*
X029969Y012163D01*
X029935Y012130D01*
X029969Y012097D01*
X029969Y012063D01*
X029935Y012030D01*
X029869Y012030D01*
X029835Y012063D01*
X029902Y012130D02*
X029935Y012130D01*
X029935Y012230D02*
X029869Y012230D01*
X029835Y012197D01*
X029672Y012230D02*
X029672Y012030D01*
X029605Y012030D02*
X029739Y012030D01*
X029605Y012163D02*
X029672Y012230D01*
X029508Y012230D02*
X029508Y012063D01*
X029475Y012030D01*
X029408Y012030D01*
X029375Y012063D01*
X029375Y012230D01*
X029375Y011754D02*
X029375Y011621D01*
X029275Y011721D01*
X029475Y011721D01*
X029575Y011687D02*
X029775Y011687D01*
X029775Y011621D02*
X029775Y011754D01*
X029875Y011721D02*
X029908Y011754D01*
X029942Y011754D01*
X029975Y011721D01*
X030008Y011754D01*
X030042Y011754D01*
X030075Y011721D01*
X030075Y011654D01*
X030042Y011621D01*
X029975Y011687D02*
X029975Y011721D01*
X029875Y011721D02*
X029875Y011654D01*
X029908Y011621D01*
X029908Y011524D02*
X029875Y011490D01*
X029875Y011424D01*
X029908Y011390D01*
X029908Y011294D02*
X029975Y011294D01*
X030008Y011260D01*
X030008Y011160D01*
X030075Y011160D02*
X029875Y011160D01*
X029875Y011260D01*
X029908Y011294D01*
X029775Y011424D02*
X029742Y011390D01*
X029775Y011424D02*
X029775Y011490D01*
X029742Y011524D01*
X029708Y011524D01*
X029675Y011490D01*
X029675Y011457D01*
X029675Y011490D02*
X029642Y011524D01*
X029608Y011524D01*
X029575Y011490D01*
X029575Y011424D01*
X029608Y011390D01*
X029608Y011294D02*
X029675Y011294D01*
X029708Y011260D01*
X029708Y011160D01*
X029775Y011160D02*
X029575Y011160D01*
X029575Y011260D01*
X029608Y011294D01*
X029475Y011424D02*
X029442Y011390D01*
X029475Y011424D02*
X029475Y011490D01*
X029442Y011524D01*
X029408Y011524D01*
X029375Y011490D01*
X029375Y011457D01*
X029375Y011490D02*
X029342Y011524D01*
X029308Y011524D01*
X029275Y011490D01*
X029275Y011424D01*
X029308Y011390D01*
X029308Y011294D02*
X029375Y011294D01*
X029408Y011260D01*
X029408Y011160D01*
X029475Y011160D02*
X029275Y011160D01*
X029275Y011260D01*
X029308Y011294D01*
X029136Y011391D02*
X029136Y010919D01*
X028664Y010919D01*
X028664Y011391D01*
X029136Y011391D01*
X029275Y011063D02*
X029275Y010930D01*
X029275Y010997D02*
X029475Y010997D01*
X029575Y010997D02*
X029775Y010997D01*
X029875Y010997D02*
X030075Y010997D01*
X030175Y010997D02*
X030375Y010997D01*
X030375Y011160D02*
X030175Y011160D01*
X030175Y011260D01*
X030208Y011294D01*
X030275Y011294D01*
X030308Y011260D01*
X030308Y011160D01*
X030175Y011063D02*
X030175Y010930D01*
X029875Y010930D02*
X029875Y011063D01*
X029575Y011063D02*
X029575Y010930D01*
X030075Y011390D02*
X029942Y011524D01*
X029908Y011524D01*
X030075Y011524D02*
X030075Y011390D01*
X030175Y011424D02*
X030208Y011390D01*
X030175Y011424D02*
X030175Y011490D01*
X030208Y011524D01*
X030242Y011524D01*
X030375Y011390D01*
X030375Y011524D01*
X030275Y011621D02*
X030275Y011754D01*
X030375Y011721D02*
X030175Y011721D01*
X030275Y011621D01*
X029642Y011621D02*
X029575Y011687D01*
X028486Y011391D02*
X028486Y010919D01*
X028014Y010919D01*
X028014Y011391D01*
X028486Y011391D01*
X027836Y011391D02*
X027836Y010919D01*
X027364Y010919D01*
X027364Y011391D01*
X027836Y011391D01*
X027186Y011391D02*
X027186Y010919D01*
X026714Y010919D01*
X026714Y011391D01*
X027186Y011391D01*
X026469Y010997D02*
X026435Y011030D01*
X026369Y011030D01*
X026335Y010997D01*
X026239Y010997D02*
X026105Y010863D01*
X026105Y010830D01*
X026008Y010863D02*
X025975Y010830D01*
X025908Y010830D01*
X025875Y010863D01*
X025875Y010997D01*
X025908Y011030D01*
X025975Y011030D01*
X026008Y010997D01*
X026105Y011030D02*
X026239Y011030D01*
X026239Y010997D01*
X026335Y010830D02*
X026469Y010963D01*
X026469Y010997D01*
X026469Y010830D02*
X026335Y010830D01*
X025019Y010497D02*
X025019Y010463D01*
X024985Y010430D01*
X025019Y010397D01*
X025019Y010363D01*
X024985Y010330D01*
X024919Y010330D01*
X024885Y010363D01*
X024952Y010430D02*
X024985Y010430D01*
X025019Y010497D02*
X024985Y010530D01*
X024919Y010530D01*
X024885Y010497D01*
X024789Y010497D02*
X024789Y010463D01*
X024755Y010430D01*
X024689Y010430D01*
X024655Y010463D01*
X024655Y010497D01*
X024689Y010530D01*
X024755Y010530D01*
X024789Y010497D01*
X024755Y010430D02*
X024789Y010397D01*
X024789Y010363D01*
X024755Y010330D01*
X024689Y010330D01*
X024655Y010363D01*
X024655Y010397D01*
X024689Y010430D01*
X024558Y010363D02*
X024525Y010330D01*
X024458Y010330D01*
X024425Y010363D01*
X024425Y010497D01*
X024458Y010530D01*
X024525Y010530D01*
X024558Y010497D01*
X023496Y011145D02*
X023463Y011112D01*
X023396Y011112D01*
X023363Y011145D01*
X023363Y011212D02*
X023429Y011245D01*
X023463Y011245D01*
X023496Y011212D01*
X023496Y011145D01*
X023363Y011212D02*
X023363Y011312D01*
X023496Y011312D01*
X023266Y011312D02*
X023266Y011145D01*
X023233Y011112D01*
X023166Y011112D01*
X023132Y011145D01*
X023132Y011312D01*
X023114Y011804D02*
X022981Y011804D01*
X022948Y011838D01*
X022948Y011904D01*
X022981Y011938D01*
X022981Y012035D02*
X023014Y012035D01*
X023048Y012068D01*
X023048Y012135D01*
X023081Y012168D01*
X023114Y012168D01*
X023148Y012135D01*
X023148Y012068D01*
X023114Y012035D01*
X023081Y012035D01*
X023048Y012068D01*
X023048Y012135D02*
X023014Y012168D01*
X022981Y012168D01*
X022948Y012135D01*
X022948Y012068D01*
X022981Y012035D01*
X023114Y011938D02*
X023148Y011904D01*
X023148Y011838D01*
X023114Y011804D01*
X023048Y012265D02*
X022948Y012365D01*
X023148Y012365D01*
X023048Y012398D02*
X023048Y012265D01*
X023310Y012675D02*
X023310Y012875D01*
X023410Y012875D01*
X023443Y012842D01*
X023443Y012775D01*
X023410Y012742D01*
X023310Y012742D01*
X023377Y012742D02*
X023443Y012675D01*
X023540Y012675D02*
X023674Y012809D01*
X023674Y012842D01*
X023640Y012875D01*
X023574Y012875D01*
X023540Y012842D01*
X023540Y012675D02*
X023674Y012675D01*
X023770Y012675D02*
X023770Y012709D01*
X023904Y012842D01*
X023904Y012875D01*
X023770Y012875D01*
X023436Y009591D02*
X022964Y009591D01*
X022964Y009119D01*
X023436Y009119D01*
X023436Y009591D01*
X024210Y009421D02*
X024210Y009287D01*
X024243Y009254D01*
X024310Y009254D01*
X024343Y009287D01*
X024440Y009287D02*
X024474Y009254D01*
X024540Y009254D01*
X024574Y009287D01*
X024574Y009321D01*
X024540Y009354D01*
X024440Y009354D01*
X024440Y009287D01*
X024440Y009354D02*
X024507Y009421D01*
X024574Y009454D01*
X024670Y009421D02*
X024704Y009454D01*
X024771Y009454D01*
X024804Y009421D01*
X024670Y009287D01*
X024704Y009254D01*
X024771Y009254D01*
X024804Y009287D01*
X024804Y009421D01*
X024670Y009421D02*
X024670Y009287D01*
X024343Y009421D02*
X024310Y009454D01*
X024243Y009454D01*
X024210Y009421D01*
X025999Y009265D02*
X025999Y009198D01*
X026032Y009165D01*
X026166Y009165D01*
X026032Y009298D01*
X026166Y009298D01*
X026199Y009265D01*
X026199Y009198D01*
X026166Y009165D01*
X026099Y009068D02*
X026099Y008935D01*
X025999Y009035D01*
X026199Y009035D01*
X026166Y008838D02*
X026199Y008804D01*
X026199Y008738D01*
X026166Y008704D01*
X026032Y008704D01*
X025999Y008738D01*
X025999Y008804D01*
X026032Y008838D01*
X025999Y009265D02*
X026032Y009298D01*
X025178Y007530D02*
X025112Y007497D01*
X025045Y007430D01*
X025145Y007430D01*
X025178Y007397D01*
X025178Y007363D01*
X025145Y007330D01*
X025078Y007330D01*
X025045Y007363D01*
X025045Y007430D01*
X024948Y007363D02*
X024948Y007530D01*
X024815Y007530D02*
X024815Y007363D01*
X024848Y007330D01*
X024915Y007330D01*
X024948Y007363D01*
X022925Y007560D02*
X022725Y007560D01*
X022725Y007660D01*
X022758Y007694D01*
X022825Y007694D01*
X022858Y007660D01*
X022858Y007560D01*
X022792Y007790D02*
X022725Y007857D01*
X022925Y007857D01*
X022925Y007790D02*
X022925Y007924D01*
X022825Y008021D02*
X022825Y008154D01*
X022925Y008121D02*
X022725Y008121D01*
X022825Y008021D01*
X021789Y007680D02*
X021655Y007680D01*
X021655Y007580D01*
X021722Y007613D01*
X021755Y007613D01*
X021789Y007580D01*
X021789Y007513D01*
X021755Y007480D01*
X021689Y007480D01*
X021655Y007513D01*
X021558Y007480D02*
X021492Y007547D01*
X021525Y007547D02*
X021425Y007547D01*
X021425Y007480D02*
X021425Y007680D01*
X021525Y007680D01*
X021558Y007647D01*
X021558Y007580D01*
X021525Y007547D01*
X021686Y004141D02*
X021214Y004141D01*
X021214Y003669D01*
X021686Y003669D01*
X021686Y004141D01*
X021669Y003580D02*
X021735Y003580D01*
X021769Y003547D01*
X021769Y003513D01*
X021735Y003480D01*
X021769Y003447D01*
X021769Y003413D01*
X021735Y003380D01*
X021669Y003380D01*
X021635Y003413D01*
X021702Y003480D02*
X021735Y003480D01*
X021669Y003580D02*
X021635Y003547D01*
X021539Y003547D02*
X021539Y003480D01*
X021505Y003447D01*
X021405Y003447D01*
X021405Y003380D02*
X021405Y003580D01*
X021505Y003580D01*
X021539Y003547D01*
X021308Y003580D02*
X021175Y003580D01*
X021242Y003580D02*
X021242Y003380D01*
X022692Y002133D02*
X022692Y001897D01*
X022928Y001897D01*
X022911Y001125D02*
X023045Y001125D01*
X023045Y001092D01*
X022911Y000959D01*
X022911Y000925D01*
X022815Y000959D02*
X022781Y000925D01*
X022715Y000925D01*
X022681Y000959D01*
X022681Y001092D01*
X022715Y001125D01*
X022781Y001125D01*
X022815Y001092D01*
X023142Y001092D02*
X023142Y001059D01*
X023175Y001025D01*
X023275Y001025D01*
X023275Y000959D02*
X023275Y001092D01*
X023242Y001125D01*
X023175Y001125D01*
X023142Y001092D01*
X023142Y000959D02*
X023175Y000925D01*
X023242Y000925D01*
X023275Y000959D01*
X024049Y001041D02*
X024083Y001007D01*
X024149Y001007D01*
X024183Y001041D01*
X024280Y001041D02*
X024280Y001074D01*
X024313Y001107D01*
X024380Y001107D01*
X024413Y001074D01*
X024413Y001041D01*
X024380Y001007D01*
X024313Y001007D01*
X024280Y001041D01*
X024313Y001107D02*
X024280Y001141D01*
X024280Y001174D01*
X024313Y001207D01*
X024380Y001207D01*
X024413Y001174D01*
X024413Y001141D01*
X024380Y001107D01*
X024510Y001041D02*
X024643Y001174D01*
X024643Y001041D01*
X024610Y001007D01*
X024543Y001007D01*
X024510Y001041D01*
X024510Y001174D01*
X024543Y001207D01*
X024610Y001207D01*
X024643Y001174D01*
X024764Y001119D02*
X024764Y001591D01*
X025236Y001591D01*
X025236Y001119D01*
X024764Y001119D01*
X024183Y001174D02*
X024149Y001207D01*
X024083Y001207D01*
X024049Y001174D01*
X024049Y001041D01*
X025342Y001295D02*
X025475Y001295D01*
X025409Y001295D02*
X025409Y001095D01*
X025572Y001095D02*
X025572Y001295D01*
X025672Y001295D01*
X025706Y001262D01*
X025706Y001195D01*
X025672Y001162D01*
X025572Y001162D01*
X025802Y001128D02*
X025836Y001095D01*
X025902Y001095D01*
X025936Y001128D01*
X025936Y001162D01*
X025902Y001195D01*
X025869Y001195D01*
X025902Y001195D02*
X025936Y001228D01*
X025936Y001262D01*
X025902Y001295D01*
X025836Y001295D01*
X025802Y001262D01*
X026033Y001262D02*
X026033Y001128D01*
X026166Y001262D01*
X026166Y001128D01*
X026133Y001095D01*
X026066Y001095D01*
X026033Y001128D01*
X026033Y001262D02*
X026066Y001295D01*
X026133Y001295D01*
X026166Y001262D01*
X026575Y001613D02*
X026575Y001780D01*
X026708Y001780D02*
X026708Y001613D01*
X026675Y001580D01*
X026608Y001580D01*
X026575Y001613D01*
X026805Y001613D02*
X026839Y001580D01*
X026905Y001580D01*
X026939Y001613D01*
X026939Y001747D01*
X026905Y001780D01*
X026839Y001780D01*
X026805Y001747D01*
X026805Y001713D01*
X026839Y001680D01*
X026939Y001680D01*
X026708Y002094D02*
X026480Y001897D01*
X026962Y002330D02*
X026964Y002350D01*
X026970Y002368D01*
X026979Y002386D01*
X026991Y002401D01*
X027006Y002413D01*
X027024Y002422D01*
X027042Y002428D01*
X027062Y002430D01*
X027082Y002428D01*
X027100Y002422D01*
X027118Y002413D01*
X027133Y002401D01*
X027145Y002386D01*
X027154Y002368D01*
X027160Y002350D01*
X027162Y002330D01*
X027160Y002310D01*
X027154Y002292D01*
X027145Y002274D01*
X027133Y002259D01*
X027118Y002247D01*
X027100Y002238D01*
X027082Y002232D01*
X027062Y002230D01*
X027042Y002232D01*
X027024Y002238D01*
X027006Y002247D01*
X026991Y002259D01*
X026979Y002274D01*
X026970Y002292D01*
X026964Y002310D01*
X026962Y002330D01*
X028140Y001883D02*
X028173Y001916D01*
X028207Y001916D01*
X028240Y001883D01*
X028240Y001816D01*
X028207Y001783D01*
X028173Y001783D01*
X028140Y001816D01*
X028140Y001883D01*
X028240Y001883D02*
X028273Y001916D01*
X028307Y001916D01*
X028340Y001883D01*
X028340Y001816D01*
X028307Y001783D01*
X028273Y001783D01*
X028240Y001816D01*
X028207Y001686D02*
X028173Y001686D01*
X028140Y001653D01*
X028140Y001586D01*
X028173Y001553D01*
X028173Y001456D02*
X028240Y001456D01*
X028273Y001423D01*
X028273Y001322D01*
X028340Y001322D02*
X028140Y001322D01*
X028140Y001423D01*
X028173Y001456D01*
X028340Y001553D02*
X028207Y001686D01*
X028340Y001686D02*
X028340Y001553D01*
X028140Y001226D02*
X028140Y001092D01*
X028140Y001159D02*
X028340Y001159D01*
X030633Y007505D02*
X030700Y007505D01*
X030733Y007538D01*
X030830Y007538D02*
X030830Y007572D01*
X030863Y007605D01*
X030930Y007605D01*
X030963Y007572D01*
X030963Y007538D01*
X030930Y007505D01*
X030863Y007505D01*
X030830Y007538D01*
X030863Y007605D02*
X030830Y007638D01*
X030830Y007672D01*
X030863Y007705D01*
X030930Y007705D01*
X030963Y007672D01*
X030963Y007638D01*
X030930Y007605D01*
X031060Y007605D02*
X031127Y007638D01*
X031160Y007638D01*
X031194Y007605D01*
X031194Y007538D01*
X031160Y007505D01*
X031094Y007505D01*
X031060Y007538D01*
X031060Y007605D02*
X031060Y007705D01*
X031194Y007705D01*
X030733Y007672D02*
X030700Y007705D01*
X030633Y007705D01*
X030600Y007672D01*
X030600Y007538D01*
X030633Y007505D01*
X031008Y011580D02*
X031042Y011580D01*
X031075Y011613D01*
X031075Y011780D01*
X031042Y011780D02*
X031108Y011780D01*
X031205Y011780D02*
X031205Y011580D01*
X031205Y011647D02*
X031305Y011647D01*
X031339Y011680D01*
X031339Y011747D01*
X031305Y011780D01*
X031205Y011780D01*
X031435Y011713D02*
X031502Y011780D01*
X031502Y011580D01*
X031435Y011580D02*
X031569Y011580D01*
X031008Y011580D02*
X030975Y011613D01*
X031925Y012163D02*
X031925Y012230D01*
X031958Y012263D01*
X031992Y012263D01*
X032025Y012230D01*
X032058Y012263D01*
X032092Y012263D01*
X032125Y012230D01*
X032125Y012163D01*
X032092Y012130D01*
X032025Y012197D02*
X032025Y012230D01*
X031958Y012130D02*
X031925Y012163D01*
X032092Y012360D02*
X032092Y012394D01*
X032125Y012394D01*
X032125Y012360D01*
X032092Y012360D01*
X032092Y012475D02*
X032125Y012509D01*
X032125Y012575D01*
X032092Y012609D01*
X032058Y012609D01*
X032025Y012575D01*
X032025Y012542D01*
X032025Y012575D02*
X031992Y012609D01*
X031958Y012609D01*
X031925Y012575D01*
X031925Y012509D01*
X031958Y012475D01*
X031958Y013080D02*
X032092Y013080D01*
X032125Y013113D01*
X032125Y013180D01*
X032092Y013213D01*
X032025Y013213D01*
X032025Y013147D01*
X031958Y013213D02*
X031925Y013180D01*
X031925Y013113D01*
X031958Y013080D01*
X031925Y013310D02*
X032125Y013444D01*
X031925Y013444D01*
X031925Y013540D02*
X031925Y013640D01*
X031958Y013674D01*
X032092Y013674D01*
X032125Y013640D01*
X032125Y013540D01*
X031925Y013540D01*
X031925Y013310D02*
X032125Y013310D01*
X033558Y016930D02*
X033625Y016930D01*
X033658Y016963D01*
X033755Y016963D02*
X033789Y016930D01*
X033855Y016930D01*
X033889Y016963D01*
X033889Y016997D01*
X033855Y017030D01*
X033755Y017030D01*
X033755Y016963D01*
X033755Y017030D02*
X033822Y017097D01*
X033889Y017130D01*
X033985Y017097D02*
X034019Y017130D01*
X034085Y017130D01*
X034119Y017097D01*
X034119Y017063D01*
X033985Y016930D01*
X034119Y016930D01*
X033658Y017097D02*
X033625Y017130D01*
X033558Y017130D01*
X033525Y017097D01*
X033525Y016963D01*
X033558Y016930D01*
X032125Y017197D02*
X031925Y017197D01*
X031925Y017263D02*
X031925Y017130D01*
X031925Y017360D02*
X031992Y017427D01*
X031925Y017494D01*
X032125Y017494D01*
X032092Y017590D02*
X032125Y017624D01*
X032125Y017690D01*
X032092Y017724D01*
X032058Y017724D01*
X032025Y017690D01*
X032025Y017624D01*
X031992Y017590D01*
X031958Y017590D01*
X031925Y017624D01*
X031925Y017690D01*
X031958Y017724D01*
X031925Y017360D02*
X032125Y017360D01*
X026525Y016830D02*
X026325Y016830D01*
X024349Y017080D02*
X024216Y017080D01*
X024349Y017213D01*
X024349Y017247D01*
X024316Y017280D01*
X024249Y017280D01*
X024216Y017247D01*
X024119Y017247D02*
X024085Y017280D01*
X023985Y017280D01*
X023985Y017080D01*
X024085Y017080D01*
X024119Y017113D01*
X024119Y017247D01*
X023889Y017280D02*
X023755Y017280D01*
X023755Y017080D01*
X023889Y017080D01*
X023822Y017180D02*
X023755Y017180D01*
X023658Y017080D02*
X023525Y017080D01*
X023525Y017280D01*
X023525Y017580D02*
X023658Y017580D01*
X023755Y017580D02*
X023755Y017780D01*
X023889Y017780D01*
X023985Y017780D02*
X024085Y017780D01*
X024119Y017747D01*
X024119Y017613D01*
X024085Y017580D01*
X023985Y017580D01*
X023985Y017780D01*
X023822Y017680D02*
X023755Y017680D01*
X023755Y017580D02*
X023889Y017580D01*
X024216Y017680D02*
X024316Y017780D01*
X024316Y017580D01*
X024349Y017680D02*
X024216Y017680D01*
X024249Y018080D02*
X024216Y018113D01*
X024249Y018080D02*
X024316Y018080D01*
X024349Y018113D01*
X024349Y018180D01*
X024316Y018213D01*
X024282Y018213D01*
X024216Y018180D01*
X024216Y018280D01*
X024349Y018280D01*
X024119Y018247D02*
X024085Y018280D01*
X023985Y018280D01*
X023985Y018080D01*
X024085Y018080D01*
X024119Y018113D01*
X024119Y018247D01*
X023889Y018280D02*
X023755Y018280D01*
X023755Y018080D01*
X023889Y018080D01*
X023822Y018180D02*
X023755Y018180D01*
X023658Y018080D02*
X023525Y018080D01*
X023525Y018280D01*
X023525Y017780D02*
X023525Y017580D01*
X024652Y018766D02*
X026203Y018766D01*
X026379Y018997D02*
X026379Y019174D01*
X026379Y019942D02*
X026379Y022402D01*
X026175Y022463D02*
X026175Y022530D01*
X026142Y022563D01*
X026175Y022660D02*
X026175Y022794D01*
X026175Y022727D02*
X025975Y022727D01*
X026042Y022660D01*
X026008Y022563D02*
X025975Y022530D01*
X025975Y022463D01*
X026008Y022430D01*
X026142Y022430D01*
X026175Y022463D01*
X025775Y022463D02*
X025775Y022530D01*
X025742Y022563D01*
X025775Y022660D02*
X025642Y022794D01*
X025608Y022794D01*
X025575Y022760D01*
X025575Y022694D01*
X025608Y022660D01*
X025608Y022563D02*
X025575Y022530D01*
X025575Y022463D01*
X025608Y022430D01*
X025742Y022430D01*
X025775Y022463D01*
X025775Y022660D02*
X025775Y022794D01*
X025742Y022890D02*
X025608Y023024D01*
X025742Y023024D01*
X025775Y022990D01*
X025775Y022924D01*
X025742Y022890D01*
X025608Y022890D01*
X025575Y022924D01*
X025575Y022990D01*
X025608Y023024D01*
X025975Y022990D02*
X026008Y023024D01*
X026142Y022890D01*
X026175Y022924D01*
X026175Y022990D01*
X026142Y023024D01*
X026008Y023024D01*
X025975Y022990D02*
X025975Y022924D01*
X026008Y022890D01*
X026142Y022890D01*
X025139Y023080D02*
X025005Y023080D01*
X025072Y023080D02*
X025072Y023280D01*
X025005Y023213D01*
X024908Y023247D02*
X024908Y023113D01*
X024875Y023080D01*
X024808Y023080D01*
X024775Y023113D01*
X024775Y023247D01*
X024808Y023280D01*
X024875Y023280D01*
X024908Y023247D01*
X024842Y023147D02*
X024908Y023080D01*
X024675Y022624D02*
X024675Y022490D01*
X024675Y022557D02*
X024475Y022557D01*
X024542Y022490D01*
X024575Y022394D02*
X024642Y022394D01*
X024675Y022360D01*
X024675Y022294D01*
X024642Y022260D01*
X024575Y022260D02*
X024542Y022327D01*
X024542Y022360D01*
X024575Y022394D01*
X024475Y022394D02*
X024475Y022260D01*
X024575Y022260D01*
X024642Y022163D02*
X024675Y022130D01*
X024675Y022063D01*
X024642Y022030D01*
X024508Y022030D01*
X024475Y022063D01*
X024475Y022130D01*
X024508Y022163D01*
X023635Y023130D02*
X023569Y023130D01*
X023535Y023163D01*
X023669Y023297D01*
X023669Y023163D01*
X023635Y023130D01*
X023535Y023163D02*
X023535Y023297D01*
X023569Y023330D01*
X023635Y023330D01*
X023669Y023297D01*
X023439Y023330D02*
X023305Y023330D01*
X023305Y023230D01*
X023372Y023263D01*
X023405Y023263D01*
X023439Y023230D01*
X023439Y023163D01*
X023405Y023130D01*
X023339Y023130D01*
X023305Y023163D01*
X023208Y023163D02*
X023175Y023130D01*
X023108Y023130D01*
X023075Y023163D01*
X023075Y023297D01*
X023108Y023330D01*
X023175Y023330D01*
X023208Y023297D01*
X023625Y023680D02*
X023625Y023780D01*
X023658Y023813D01*
X023725Y023813D01*
X023758Y023780D01*
X023758Y023680D01*
X023758Y023747D02*
X023825Y023813D01*
X023825Y023910D02*
X023825Y024044D01*
X023825Y023977D02*
X023625Y023977D01*
X023692Y023910D01*
X023658Y024140D02*
X023625Y024174D01*
X023625Y024240D01*
X023658Y024274D01*
X023692Y024274D01*
X023825Y024140D01*
X023825Y024274D01*
X023825Y023680D02*
X023625Y023680D01*
X021449Y023963D02*
X021416Y023930D01*
X021349Y023930D01*
X021316Y023963D01*
X021316Y024030D02*
X021382Y024063D01*
X021416Y024063D01*
X021449Y024030D01*
X021449Y023963D01*
X021316Y024030D02*
X021316Y024130D01*
X021449Y024130D01*
X021219Y024097D02*
X021219Y024063D01*
X021185Y024030D01*
X021219Y023997D01*
X021219Y023963D01*
X021185Y023930D01*
X021119Y023930D01*
X021085Y023963D01*
X021152Y024030D02*
X021185Y024030D01*
X021219Y024097D02*
X021185Y024130D01*
X021119Y024130D01*
X021085Y024097D01*
X020989Y024097D02*
X020989Y024030D01*
X020955Y023997D01*
X020855Y023997D01*
X020855Y023930D02*
X020855Y024130D01*
X020955Y024130D01*
X020989Y024097D01*
X020758Y024130D02*
X020625Y024130D01*
X020692Y024130D02*
X020692Y023930D01*
X020886Y023841D02*
X020414Y023841D01*
X020414Y023369D01*
X020886Y023369D01*
X020886Y023841D01*
X020436Y023841D02*
X020436Y023369D01*
X019964Y023369D01*
X019964Y023841D01*
X020436Y023841D01*
X020316Y023930D02*
X020349Y023963D01*
X020349Y023997D01*
X020316Y024030D01*
X020216Y024030D01*
X020216Y023963D01*
X020249Y023930D01*
X020316Y023930D01*
X020216Y024030D02*
X020282Y024097D01*
X020349Y024130D01*
X020119Y024097D02*
X020119Y024063D01*
X020085Y024030D01*
X020119Y023997D01*
X020119Y023963D01*
X020085Y023930D01*
X020019Y023930D01*
X019985Y023963D01*
X020052Y024030D02*
X020085Y024030D01*
X020119Y024097D02*
X020085Y024130D01*
X020019Y024130D01*
X019985Y024097D01*
X019889Y024097D02*
X019889Y024030D01*
X019855Y023997D01*
X019755Y023997D01*
X019755Y023930D02*
X019755Y024130D01*
X019855Y024130D01*
X019889Y024097D01*
X019658Y024130D02*
X019525Y024130D01*
X019592Y024130D02*
X019592Y023930D01*
X019069Y023913D02*
X019069Y024047D01*
X019035Y024080D01*
X018969Y024080D01*
X018935Y024047D01*
X018935Y024013D01*
X018969Y023980D01*
X019069Y023980D01*
X019069Y023913D02*
X019035Y023880D01*
X018969Y023880D01*
X018935Y023913D01*
X018839Y023880D02*
X018705Y023880D01*
X018772Y023880D02*
X018772Y024080D01*
X018705Y024013D01*
X018608Y024047D02*
X018608Y023980D01*
X018575Y023947D01*
X018475Y023947D01*
X018542Y023947D02*
X018608Y023880D01*
X018475Y023880D02*
X018475Y024080D01*
X018575Y024080D01*
X018608Y024047D01*
X018019Y024047D02*
X018019Y023913D01*
X017985Y023880D01*
X017919Y023880D01*
X017885Y023913D01*
X017919Y023980D02*
X018019Y023980D01*
X018019Y024047D02*
X017985Y024080D01*
X017919Y024080D01*
X017885Y024047D01*
X017885Y024013D01*
X017919Y023980D01*
X017789Y023980D02*
X017655Y023980D01*
X017755Y024080D01*
X017755Y023880D01*
X017558Y023913D02*
X017525Y023880D01*
X017458Y023880D01*
X017425Y023913D01*
X017425Y024047D01*
X017458Y024080D01*
X017525Y024080D01*
X017558Y024047D01*
X017405Y023030D02*
X017339Y023030D01*
X017305Y022997D01*
X017208Y023030D02*
X017208Y022863D01*
X017175Y022830D01*
X017108Y022830D01*
X017075Y022863D01*
X017075Y023030D01*
X017305Y022830D02*
X017439Y022963D01*
X017439Y022997D01*
X017405Y023030D01*
X017439Y022830D02*
X017305Y022830D01*
X016566Y022712D02*
X016533Y022745D01*
X016466Y022745D01*
X016433Y022712D01*
X016433Y022678D01*
X016466Y022645D01*
X016566Y022645D01*
X016566Y022578D02*
X016566Y022712D01*
X016566Y022578D02*
X016533Y022545D01*
X016466Y022545D01*
X016433Y022578D01*
X016336Y022578D02*
X016302Y022545D01*
X016236Y022545D01*
X016202Y022578D01*
X016269Y022645D02*
X016302Y022645D01*
X016336Y022612D01*
X016336Y022578D01*
X016302Y022645D02*
X016336Y022678D01*
X016336Y022712D01*
X016302Y022745D01*
X016236Y022745D01*
X016202Y022712D01*
X016106Y022712D02*
X016106Y022645D01*
X016072Y022612D01*
X015972Y022612D01*
X015972Y022545D02*
X015972Y022745D01*
X016072Y022745D01*
X016106Y022712D01*
X015875Y022745D02*
X015742Y022745D01*
X015809Y022745D02*
X015809Y022545D01*
X023675Y020880D02*
X023675Y020680D01*
X023675Y020747D02*
X023775Y020747D01*
X023808Y020780D01*
X023808Y020847D01*
X023775Y020880D01*
X023675Y020880D01*
X023742Y020747D02*
X023808Y020680D01*
X023905Y020713D02*
X023939Y020680D01*
X024005Y020680D01*
X024039Y020713D01*
X024039Y020747D01*
X024005Y020780D01*
X023972Y020780D01*
X024005Y020780D02*
X024039Y020813D01*
X024039Y020847D01*
X024005Y020880D01*
X023939Y020880D01*
X023905Y020847D01*
X024135Y020847D02*
X024135Y020813D01*
X024169Y020780D01*
X024269Y020780D01*
X024269Y020713D02*
X024269Y020847D01*
X024235Y020880D01*
X024169Y020880D01*
X024135Y020847D01*
X024135Y020713D02*
X024169Y020680D01*
X024235Y020680D01*
X024269Y020713D01*
X024235Y020580D02*
X024269Y020547D01*
X024135Y020413D01*
X024169Y020380D01*
X024235Y020380D01*
X024269Y020413D01*
X024269Y020547D01*
X024235Y020580D02*
X024169Y020580D01*
X024135Y020547D01*
X024135Y020413D01*
X024039Y020480D02*
X023905Y020480D01*
X024005Y020580D01*
X024005Y020380D01*
X024005Y020280D02*
X024039Y020247D01*
X024039Y020213D01*
X024005Y020180D01*
X024039Y020147D01*
X024039Y020113D01*
X024005Y020080D01*
X023939Y020080D01*
X023905Y020113D01*
X023972Y020180D02*
X024005Y020180D01*
X024005Y020280D02*
X023939Y020280D01*
X023905Y020247D01*
X023808Y020247D02*
X023808Y020180D01*
X023775Y020147D01*
X023675Y020147D01*
X023742Y020147D02*
X023808Y020080D01*
X023675Y020080D02*
X023675Y020280D01*
X023775Y020280D01*
X023808Y020247D01*
X023808Y020380D02*
X023742Y020447D01*
X023775Y020447D02*
X023675Y020447D01*
X023675Y020380D02*
X023675Y020580D01*
X023775Y020580D01*
X023808Y020547D01*
X023808Y020480D01*
X023775Y020447D01*
X024135Y020247D02*
X024135Y020213D01*
X024169Y020180D01*
X024235Y020180D01*
X024269Y020147D01*
X024269Y020113D01*
X024235Y020080D01*
X024169Y020080D01*
X024135Y020113D01*
X024135Y020147D01*
X024169Y020180D01*
X024235Y020180D02*
X024269Y020213D01*
X024269Y020247D01*
X024235Y020280D01*
X024169Y020280D01*
X024135Y020247D01*
X024652Y020144D02*
X025848Y020144D01*
X025630Y020301D02*
X025596Y020267D01*
X025530Y020267D01*
X025496Y020301D01*
X025563Y020367D02*
X025596Y020367D01*
X025630Y020334D01*
X025630Y020301D01*
X025596Y020367D02*
X025630Y020401D01*
X025630Y020434D01*
X025596Y020468D01*
X025530Y020468D01*
X025496Y020434D01*
X025400Y020434D02*
X025366Y020468D01*
X025266Y020468D01*
X025266Y020267D01*
X025366Y020267D01*
X025400Y020301D01*
X025400Y020434D01*
X025169Y020468D02*
X025036Y020468D01*
X025036Y020267D01*
X025169Y020267D01*
X025103Y020367D02*
X025036Y020367D01*
X024939Y020267D02*
X024806Y020267D01*
X024806Y020468D01*
X025053Y020014D02*
X025447Y020014D01*
X025250Y020006D02*
X025250Y018904D01*
X025053Y018896D02*
X025447Y018896D01*
X026930Y023052D02*
X027265Y023052D01*
X017919Y013580D02*
X017919Y013547D01*
X017785Y013413D01*
X017785Y013380D01*
X017689Y013380D02*
X017555Y013380D01*
X017689Y013513D01*
X017689Y013547D01*
X017655Y013580D01*
X017589Y013580D01*
X017555Y013547D01*
X017458Y013547D02*
X017425Y013580D01*
X017358Y013580D01*
X017325Y013547D01*
X017325Y013413D01*
X017358Y013380D01*
X017425Y013380D01*
X017458Y013413D01*
X017785Y013580D02*
X017919Y013580D01*
X009225Y007390D02*
X009192Y007424D01*
X009125Y007424D01*
X009092Y007390D01*
X009092Y007357D01*
X009125Y007290D01*
X009025Y007290D01*
X009025Y007424D01*
X009225Y007390D02*
X009225Y007324D01*
X009192Y007290D01*
X009225Y007194D02*
X009225Y007060D01*
X009092Y007194D01*
X009058Y007194D01*
X009025Y007160D01*
X009025Y007094D01*
X009058Y007060D01*
X009058Y006963D02*
X009125Y006963D01*
X009158Y006930D01*
X009158Y006830D01*
X009158Y006897D02*
X009225Y006963D01*
X009225Y006830D02*
X009025Y006830D01*
X009025Y006930D01*
X009058Y006963D01*
X008898Y006904D02*
X008864Y006938D01*
X008898Y006904D02*
X008898Y006838D01*
X008864Y006804D01*
X008731Y006804D01*
X008698Y006838D01*
X008698Y006904D01*
X008731Y006938D01*
X008764Y007035D02*
X008698Y007101D01*
X008898Y007101D01*
X008898Y007035D02*
X008898Y007168D01*
X009458Y006829D02*
X009458Y006695D01*
X009558Y006695D01*
X009525Y006762D01*
X009525Y006795D01*
X009558Y006829D01*
X009625Y006829D01*
X009658Y006795D01*
X009658Y006729D01*
X009625Y006695D01*
X009658Y006598D02*
X009658Y006465D01*
X009458Y006465D01*
X010610Y006647D02*
X010743Y006647D01*
X010840Y006647D02*
X010974Y006780D01*
X010974Y006813D01*
X010940Y006847D01*
X010874Y006847D01*
X010840Y006813D01*
X010840Y006647D02*
X010974Y006647D01*
X011093Y006425D02*
X011060Y006392D01*
X011060Y006259D01*
X011093Y006225D01*
X011160Y006225D01*
X011193Y006259D01*
X011290Y006259D02*
X011324Y006225D01*
X011390Y006225D01*
X011424Y006259D01*
X011424Y006325D01*
X011390Y006359D01*
X011357Y006359D01*
X011290Y006325D01*
X011290Y006425D01*
X011424Y006425D01*
X011520Y006325D02*
X011621Y006325D01*
X011654Y006292D01*
X011654Y006259D01*
X011621Y006225D01*
X011554Y006225D01*
X011520Y006259D01*
X011520Y006325D01*
X011587Y006392D01*
X011654Y006425D01*
X011577Y006057D02*
X011577Y005857D01*
X011643Y005857D02*
X011510Y005857D01*
X011413Y005891D02*
X011380Y005857D01*
X011313Y005857D01*
X011280Y005891D01*
X011280Y005924D01*
X011313Y005957D01*
X011380Y005957D01*
X011413Y005924D01*
X011413Y005891D01*
X011380Y005957D02*
X011413Y005991D01*
X011413Y006024D01*
X011380Y006057D01*
X011313Y006057D01*
X011280Y006024D01*
X011280Y005991D01*
X011313Y005957D01*
X011183Y005891D02*
X011149Y005857D01*
X011083Y005857D01*
X011049Y005891D01*
X011049Y006024D01*
X011083Y006057D01*
X011149Y006057D01*
X011183Y006024D01*
X011510Y005991D02*
X011577Y006057D01*
X011193Y006392D02*
X011160Y006425D01*
X011093Y006425D01*
X010610Y006647D02*
X010610Y006847D01*
X010560Y007025D02*
X010560Y007225D01*
X010660Y007225D01*
X010693Y007192D01*
X010693Y007125D01*
X010660Y007092D01*
X010560Y007092D01*
X010627Y007092D02*
X010693Y007025D01*
X010790Y007025D02*
X010924Y007025D01*
X010857Y007025D02*
X010857Y007225D01*
X010790Y007159D01*
X011020Y007192D02*
X011054Y007225D01*
X011121Y007225D01*
X011154Y007192D01*
X011154Y007159D01*
X011121Y007125D01*
X011154Y007092D01*
X011154Y007059D01*
X011121Y007025D01*
X011054Y007025D01*
X011020Y007059D01*
X011087Y007125D02*
X011121Y007125D01*
X012175Y005930D02*
X012175Y005763D01*
X012208Y005730D01*
X012275Y005730D01*
X012308Y005763D01*
X012308Y005930D01*
X012405Y005863D02*
X012472Y005930D01*
X012472Y005730D01*
X012405Y005730D02*
X012539Y005730D01*
X012635Y005763D02*
X012669Y005730D01*
X012735Y005730D01*
X012769Y005763D01*
X012769Y005897D01*
X012635Y005763D01*
X012635Y005897D01*
X012669Y005930D01*
X012735Y005930D01*
X012769Y005897D01*
X009107Y004609D02*
X009074Y004642D01*
X009007Y004642D01*
X008974Y004609D01*
X009107Y004609D02*
X009107Y004575D01*
X008974Y004442D01*
X009107Y004442D01*
X008877Y004442D02*
X008743Y004442D01*
X008810Y004442D02*
X008810Y004642D01*
X008743Y004575D01*
X008647Y004642D02*
X008647Y004475D01*
X008613Y004442D01*
X008547Y004442D01*
X008513Y004475D01*
X008513Y004642D01*
X006539Y008130D02*
X006405Y008130D01*
X006539Y008263D01*
X006539Y008297D01*
X006505Y008330D01*
X006439Y008330D01*
X006405Y008297D01*
X006308Y008330D02*
X006242Y008330D01*
X006275Y008330D02*
X006275Y008163D01*
X006242Y008130D01*
X006208Y008130D01*
X006175Y008163D01*
X018850Y004197D02*
X018850Y004063D01*
X018883Y004030D01*
X018950Y004030D01*
X018983Y004063D01*
X019080Y004030D02*
X019214Y004030D01*
X019147Y004030D02*
X019147Y004230D01*
X019080Y004163D01*
X018983Y004197D02*
X018950Y004230D01*
X018883Y004230D01*
X018850Y004197D01*
X019310Y004130D02*
X019410Y004130D01*
X019444Y004097D01*
X019444Y004063D01*
X019410Y004030D01*
X019344Y004030D01*
X019310Y004063D01*
X019310Y004130D01*
X019377Y004197D01*
X019444Y004230D01*
D12*
X033100Y015905D03*
D13*
X029190Y015827D02*
X029072Y015945D01*
X025528Y015945D02*
X025410Y015827D01*
X025410Y012283D02*
X025528Y012165D01*
X027578Y009825D02*
X027578Y009589D01*
X027460Y009707D02*
X027696Y009707D01*
X027303Y009392D02*
X028248Y009392D01*
X028011Y008605D02*
X028013Y008678D01*
X028019Y008751D01*
X028029Y008823D01*
X028043Y008895D01*
X028061Y008966D01*
X028082Y009036D01*
X028108Y009105D01*
X028137Y009172D01*
X028170Y009237D01*
X028206Y009301D01*
X028246Y009362D01*
X028289Y009421D01*
X028335Y009478D01*
X028384Y009532D01*
X028436Y009584D01*
X028491Y009632D01*
X028548Y009677D01*
X028608Y009720D01*
X028670Y009758D01*
X028734Y009794D01*
X028800Y009826D01*
X028867Y009854D01*
X028936Y009878D01*
X029006Y009899D01*
X029078Y009916D01*
X029150Y009929D01*
X029222Y009938D01*
X029295Y009943D01*
X029368Y009944D01*
X029441Y009941D01*
X029514Y009934D01*
X029587Y009923D01*
X029658Y009908D01*
X029729Y009889D01*
X029798Y009867D01*
X029867Y009840D01*
X029933Y009810D01*
X029998Y009777D01*
X030061Y009739D01*
X030122Y009699D01*
X030181Y009655D01*
X030237Y009608D01*
X030290Y009558D01*
X030341Y009505D01*
X030389Y009450D01*
X030433Y009392D01*
X030475Y009332D01*
X030513Y009269D01*
X030547Y009205D01*
X030578Y009138D01*
X030605Y009071D01*
X030629Y009001D01*
X030649Y008931D01*
X030665Y008859D01*
X030677Y008787D01*
X030685Y008715D01*
X030689Y008642D01*
X030689Y008568D01*
X030685Y008495D01*
X030677Y008423D01*
X030665Y008351D01*
X030649Y008279D01*
X030629Y008209D01*
X030605Y008139D01*
X030578Y008072D01*
X030547Y008005D01*
X030513Y007941D01*
X030475Y007878D01*
X030433Y007818D01*
X030389Y007760D01*
X030341Y007705D01*
X030290Y007652D01*
X030237Y007602D01*
X030181Y007555D01*
X030122Y007511D01*
X030061Y007471D01*
X029998Y007433D01*
X029933Y007400D01*
X029867Y007370D01*
X029798Y007343D01*
X029729Y007321D01*
X029658Y007302D01*
X029587Y007287D01*
X029514Y007276D01*
X029441Y007269D01*
X029368Y007266D01*
X029295Y007267D01*
X029222Y007272D01*
X029150Y007281D01*
X029078Y007294D01*
X029006Y007311D01*
X028936Y007332D01*
X028867Y007356D01*
X028800Y007384D01*
X028734Y007416D01*
X028670Y007452D01*
X028608Y007490D01*
X028548Y007533D01*
X028491Y007578D01*
X028436Y007626D01*
X028384Y007678D01*
X028335Y007732D01*
X028289Y007789D01*
X028246Y007848D01*
X028206Y007909D01*
X028170Y007973D01*
X028137Y008038D01*
X028108Y008105D01*
X028082Y008174D01*
X028061Y008244D01*
X028043Y008315D01*
X028029Y008387D01*
X028019Y008459D01*
X028013Y008532D01*
X028011Y008605D01*
X028248Y007818D02*
X027303Y007818D01*
X030570Y008014D02*
X030885Y008014D01*
X030885Y009196D02*
X030570Y009196D01*
X030689Y009629D02*
X030689Y009865D01*
X029072Y012165D02*
X029190Y012283D01*
X018584Y006689D02*
X018584Y006492D01*
X018584Y006689D02*
X018387Y006689D01*
X016813Y006689D02*
X016616Y006689D01*
X016616Y006492D01*
X016616Y004918D02*
X016813Y004721D01*
X018387Y004721D02*
X018584Y004721D01*
X018584Y004918D01*
X013067Y013890D02*
X012633Y013890D01*
X012633Y014520D02*
X013067Y014520D01*
X012967Y015790D02*
X012533Y015790D01*
X012533Y016420D02*
X012967Y016420D01*
X008917Y017390D02*
X008483Y017390D01*
X008483Y018020D02*
X008917Y018020D01*
D14*
X014700Y016606D03*
X012300Y022404D03*
X024851Y018205D03*
X024851Y017705D03*
X024851Y017205D03*
X028051Y004205D03*
D15*
X016237Y012968D02*
X016080Y012968D01*
X016237Y012968D02*
X016237Y013125D01*
X014820Y012968D02*
X014663Y012968D01*
X014663Y013125D01*
X014663Y014385D02*
X014820Y014542D01*
X014545Y014621D02*
X014547Y014633D01*
X014552Y014644D01*
X014561Y014653D01*
X014572Y014658D01*
X014584Y014660D01*
X014596Y014658D01*
X014607Y014653D01*
X014616Y014644D01*
X014621Y014633D01*
X014623Y014621D01*
X014621Y014609D01*
X014616Y014598D01*
X014607Y014589D01*
X014596Y014584D01*
X014584Y014582D01*
X014572Y014584D01*
X014561Y014589D01*
X014552Y014598D01*
X014547Y014609D01*
X014545Y014621D01*
X016080Y014542D02*
X016237Y014542D01*
X016237Y014385D01*
X024755Y023409D02*
X025052Y023409D01*
X025052Y023749D01*
X024748Y023820D02*
X024748Y024100D01*
X025052Y024151D02*
X025052Y024501D01*
X024755Y024501D01*
D16*
X004650Y001855D02*
X004652Y001932D01*
X004658Y002009D01*
X004668Y002086D01*
X004682Y002162D01*
X004699Y002237D01*
X004721Y002311D01*
X004746Y002384D01*
X004776Y002456D01*
X004808Y002526D01*
X004845Y002594D01*
X004884Y002660D01*
X004927Y002724D01*
X004974Y002786D01*
X005023Y002845D01*
X005076Y002902D01*
X005131Y002956D01*
X005189Y003007D01*
X005250Y003055D01*
X005313Y003100D01*
X005378Y003141D01*
X005445Y003179D01*
X005514Y003214D01*
X005585Y003244D01*
X005657Y003272D01*
X005731Y003295D01*
X005805Y003315D01*
X005881Y003331D01*
X005957Y003343D01*
X006034Y003351D01*
X006111Y003355D01*
X006189Y003355D01*
X006266Y003351D01*
X006343Y003343D01*
X006419Y003331D01*
X006495Y003315D01*
X006569Y003295D01*
X006643Y003272D01*
X006715Y003244D01*
X006786Y003214D01*
X006855Y003179D01*
X006922Y003141D01*
X006987Y003100D01*
X007050Y003055D01*
X007111Y003007D01*
X007169Y002956D01*
X007224Y002902D01*
X007277Y002845D01*
X007326Y002786D01*
X007373Y002724D01*
X007416Y002660D01*
X007455Y002594D01*
X007492Y002526D01*
X007524Y002456D01*
X007554Y002384D01*
X007579Y002311D01*
X007601Y002237D01*
X007618Y002162D01*
X007632Y002086D01*
X007642Y002009D01*
X007648Y001932D01*
X007650Y001855D01*
X007648Y001778D01*
X007642Y001701D01*
X007632Y001624D01*
X007618Y001548D01*
X007601Y001473D01*
X007579Y001399D01*
X007554Y001326D01*
X007524Y001254D01*
X007492Y001184D01*
X007455Y001116D01*
X007416Y001050D01*
X007373Y000986D01*
X007326Y000924D01*
X007277Y000865D01*
X007224Y000808D01*
X007169Y000754D01*
X007111Y000703D01*
X007050Y000655D01*
X006987Y000610D01*
X006922Y000569D01*
X006855Y000531D01*
X006786Y000496D01*
X006715Y000466D01*
X006643Y000438D01*
X006569Y000415D01*
X006495Y000395D01*
X006419Y000379D01*
X006343Y000367D01*
X006266Y000359D01*
X006189Y000355D01*
X006111Y000355D01*
X006034Y000359D01*
X005957Y000367D01*
X005881Y000379D01*
X005805Y000395D01*
X005731Y000415D01*
X005657Y000438D01*
X005585Y000466D01*
X005514Y000496D01*
X005445Y000531D01*
X005378Y000569D01*
X005313Y000610D01*
X005250Y000655D01*
X005189Y000703D01*
X005131Y000754D01*
X005076Y000808D01*
X005023Y000865D01*
X004974Y000924D01*
X004927Y000986D01*
X004884Y001050D01*
X004845Y001116D01*
X004808Y001184D01*
X004776Y001254D01*
X004746Y001326D01*
X004721Y001399D01*
X004699Y001473D01*
X004682Y001548D01*
X004668Y001624D01*
X004658Y001701D01*
X004652Y001778D01*
X004650Y001855D01*
X010476Y005855D02*
X010478Y005884D01*
X010484Y005913D01*
X010493Y005941D01*
X010506Y005967D01*
X010522Y005991D01*
X010542Y006013D01*
X010564Y006033D01*
X010588Y006049D01*
X010614Y006062D01*
X010642Y006071D01*
X010671Y006077D01*
X010700Y006079D01*
X010729Y006077D01*
X010758Y006071D01*
X010786Y006062D01*
X010812Y006049D01*
X010836Y006033D01*
X010858Y006013D01*
X010878Y005991D01*
X010894Y005967D01*
X010907Y005941D01*
X010916Y005913D01*
X010922Y005884D01*
X010924Y005855D01*
X010922Y005826D01*
X010916Y005797D01*
X010907Y005769D01*
X010894Y005743D01*
X010878Y005719D01*
X010858Y005697D01*
X010836Y005677D01*
X010812Y005661D01*
X010786Y005648D01*
X010758Y005639D01*
X010729Y005633D01*
X010700Y005631D01*
X010671Y005633D01*
X010642Y005639D01*
X010614Y005648D01*
X010588Y005661D01*
X010564Y005677D01*
X010542Y005697D01*
X010522Y005719D01*
X010506Y005743D01*
X010493Y005769D01*
X010484Y005797D01*
X010478Y005826D01*
X010476Y005855D01*
X011085Y005605D02*
X011085Y003505D01*
X012715Y003505D01*
X012715Y005605D01*
X011085Y005605D01*
X031450Y001855D02*
X031452Y001932D01*
X031458Y002009D01*
X031468Y002086D01*
X031482Y002162D01*
X031499Y002237D01*
X031521Y002311D01*
X031546Y002384D01*
X031576Y002456D01*
X031608Y002526D01*
X031645Y002594D01*
X031684Y002660D01*
X031727Y002724D01*
X031774Y002786D01*
X031823Y002845D01*
X031876Y002902D01*
X031931Y002956D01*
X031989Y003007D01*
X032050Y003055D01*
X032113Y003100D01*
X032178Y003141D01*
X032245Y003179D01*
X032314Y003214D01*
X032385Y003244D01*
X032457Y003272D01*
X032531Y003295D01*
X032605Y003315D01*
X032681Y003331D01*
X032757Y003343D01*
X032834Y003351D01*
X032911Y003355D01*
X032989Y003355D01*
X033066Y003351D01*
X033143Y003343D01*
X033219Y003331D01*
X033295Y003315D01*
X033369Y003295D01*
X033443Y003272D01*
X033515Y003244D01*
X033586Y003214D01*
X033655Y003179D01*
X033722Y003141D01*
X033787Y003100D01*
X033850Y003055D01*
X033911Y003007D01*
X033969Y002956D01*
X034024Y002902D01*
X034077Y002845D01*
X034126Y002786D01*
X034173Y002724D01*
X034216Y002660D01*
X034255Y002594D01*
X034292Y002526D01*
X034324Y002456D01*
X034354Y002384D01*
X034379Y002311D01*
X034401Y002237D01*
X034418Y002162D01*
X034432Y002086D01*
X034442Y002009D01*
X034448Y001932D01*
X034450Y001855D01*
X034448Y001778D01*
X034442Y001701D01*
X034432Y001624D01*
X034418Y001548D01*
X034401Y001473D01*
X034379Y001399D01*
X034354Y001326D01*
X034324Y001254D01*
X034292Y001184D01*
X034255Y001116D01*
X034216Y001050D01*
X034173Y000986D01*
X034126Y000924D01*
X034077Y000865D01*
X034024Y000808D01*
X033969Y000754D01*
X033911Y000703D01*
X033850Y000655D01*
X033787Y000610D01*
X033722Y000569D01*
X033655Y000531D01*
X033586Y000496D01*
X033515Y000466D01*
X033443Y000438D01*
X033369Y000415D01*
X033295Y000395D01*
X033219Y000379D01*
X033143Y000367D01*
X033066Y000359D01*
X032989Y000355D01*
X032911Y000355D01*
X032834Y000359D01*
X032757Y000367D01*
X032681Y000379D01*
X032605Y000395D01*
X032531Y000415D01*
X032457Y000438D01*
X032385Y000466D01*
X032314Y000496D01*
X032245Y000531D01*
X032178Y000569D01*
X032113Y000610D01*
X032050Y000655D01*
X031989Y000703D01*
X031931Y000754D01*
X031876Y000808D01*
X031823Y000865D01*
X031774Y000924D01*
X031727Y000986D01*
X031684Y001050D01*
X031645Y001116D01*
X031608Y001184D01*
X031576Y001254D01*
X031546Y001326D01*
X031521Y001399D01*
X031499Y001473D01*
X031482Y001548D01*
X031468Y001624D01*
X031458Y001701D01*
X031452Y001778D01*
X031450Y001855D01*
X031450Y023155D02*
X031452Y023232D01*
X031458Y023309D01*
X031468Y023386D01*
X031482Y023462D01*
X031499Y023537D01*
X031521Y023611D01*
X031546Y023684D01*
X031576Y023756D01*
X031608Y023826D01*
X031645Y023894D01*
X031684Y023960D01*
X031727Y024024D01*
X031774Y024086D01*
X031823Y024145D01*
X031876Y024202D01*
X031931Y024256D01*
X031989Y024307D01*
X032050Y024355D01*
X032113Y024400D01*
X032178Y024441D01*
X032245Y024479D01*
X032314Y024514D01*
X032385Y024544D01*
X032457Y024572D01*
X032531Y024595D01*
X032605Y024615D01*
X032681Y024631D01*
X032757Y024643D01*
X032834Y024651D01*
X032911Y024655D01*
X032989Y024655D01*
X033066Y024651D01*
X033143Y024643D01*
X033219Y024631D01*
X033295Y024615D01*
X033369Y024595D01*
X033443Y024572D01*
X033515Y024544D01*
X033586Y024514D01*
X033655Y024479D01*
X033722Y024441D01*
X033787Y024400D01*
X033850Y024355D01*
X033911Y024307D01*
X033969Y024256D01*
X034024Y024202D01*
X034077Y024145D01*
X034126Y024086D01*
X034173Y024024D01*
X034216Y023960D01*
X034255Y023894D01*
X034292Y023826D01*
X034324Y023756D01*
X034354Y023684D01*
X034379Y023611D01*
X034401Y023537D01*
X034418Y023462D01*
X034432Y023386D01*
X034442Y023309D01*
X034448Y023232D01*
X034450Y023155D01*
X034448Y023078D01*
X034442Y023001D01*
X034432Y022924D01*
X034418Y022848D01*
X034401Y022773D01*
X034379Y022699D01*
X034354Y022626D01*
X034324Y022554D01*
X034292Y022484D01*
X034255Y022416D01*
X034216Y022350D01*
X034173Y022286D01*
X034126Y022224D01*
X034077Y022165D01*
X034024Y022108D01*
X033969Y022054D01*
X033911Y022003D01*
X033850Y021955D01*
X033787Y021910D01*
X033722Y021869D01*
X033655Y021831D01*
X033586Y021796D01*
X033515Y021766D01*
X033443Y021738D01*
X033369Y021715D01*
X033295Y021695D01*
X033219Y021679D01*
X033143Y021667D01*
X033066Y021659D01*
X032989Y021655D01*
X032911Y021655D01*
X032834Y021659D01*
X032757Y021667D01*
X032681Y021679D01*
X032605Y021695D01*
X032531Y021715D01*
X032457Y021738D01*
X032385Y021766D01*
X032314Y021796D01*
X032245Y021831D01*
X032178Y021869D01*
X032113Y021910D01*
X032050Y021955D01*
X031989Y022003D01*
X031931Y022054D01*
X031876Y022108D01*
X031823Y022165D01*
X031774Y022224D01*
X031727Y022286D01*
X031684Y022350D01*
X031645Y022416D01*
X031608Y022484D01*
X031576Y022554D01*
X031546Y022626D01*
X031521Y022699D01*
X031499Y022773D01*
X031482Y022848D01*
X031468Y022924D01*
X031458Y023001D01*
X031452Y023078D01*
X031450Y023155D01*
X004650Y023155D02*
X004652Y023232D01*
X004658Y023309D01*
X004668Y023386D01*
X004682Y023462D01*
X004699Y023537D01*
X004721Y023611D01*
X004746Y023684D01*
X004776Y023756D01*
X004808Y023826D01*
X004845Y023894D01*
X004884Y023960D01*
X004927Y024024D01*
X004974Y024086D01*
X005023Y024145D01*
X005076Y024202D01*
X005131Y024256D01*
X005189Y024307D01*
X005250Y024355D01*
X005313Y024400D01*
X005378Y024441D01*
X005445Y024479D01*
X005514Y024514D01*
X005585Y024544D01*
X005657Y024572D01*
X005731Y024595D01*
X005805Y024615D01*
X005881Y024631D01*
X005957Y024643D01*
X006034Y024651D01*
X006111Y024655D01*
X006189Y024655D01*
X006266Y024651D01*
X006343Y024643D01*
X006419Y024631D01*
X006495Y024615D01*
X006569Y024595D01*
X006643Y024572D01*
X006715Y024544D01*
X006786Y024514D01*
X006855Y024479D01*
X006922Y024441D01*
X006987Y024400D01*
X007050Y024355D01*
X007111Y024307D01*
X007169Y024256D01*
X007224Y024202D01*
X007277Y024145D01*
X007326Y024086D01*
X007373Y024024D01*
X007416Y023960D01*
X007455Y023894D01*
X007492Y023826D01*
X007524Y023756D01*
X007554Y023684D01*
X007579Y023611D01*
X007601Y023537D01*
X007618Y023462D01*
X007632Y023386D01*
X007642Y023309D01*
X007648Y023232D01*
X007650Y023155D01*
X007648Y023078D01*
X007642Y023001D01*
X007632Y022924D01*
X007618Y022848D01*
X007601Y022773D01*
X007579Y022699D01*
X007554Y022626D01*
X007524Y022554D01*
X007492Y022484D01*
X007455Y022416D01*
X007416Y022350D01*
X007373Y022286D01*
X007326Y022224D01*
X007277Y022165D01*
X007224Y022108D01*
X007169Y022054D01*
X007111Y022003D01*
X007050Y021955D01*
X006987Y021910D01*
X006922Y021869D01*
X006855Y021831D01*
X006786Y021796D01*
X006715Y021766D01*
X006643Y021738D01*
X006569Y021715D01*
X006495Y021695D01*
X006419Y021679D01*
X006343Y021667D01*
X006266Y021659D01*
X006189Y021655D01*
X006111Y021655D01*
X006034Y021659D01*
X005957Y021667D01*
X005881Y021679D01*
X005805Y021695D01*
X005731Y021715D01*
X005657Y021738D01*
X005585Y021766D01*
X005514Y021796D01*
X005445Y021831D01*
X005378Y021869D01*
X005313Y021910D01*
X005250Y021955D01*
X005189Y022003D01*
X005131Y022054D01*
X005076Y022108D01*
X005023Y022165D01*
X004974Y022224D01*
X004927Y022286D01*
X004884Y022350D01*
X004845Y022416D01*
X004808Y022484D01*
X004776Y022554D01*
X004746Y022626D01*
X004721Y022699D01*
X004699Y022773D01*
X004682Y022848D01*
X004668Y022924D01*
X004658Y023001D01*
X004652Y023078D01*
X004650Y023155D01*
D17*
X006500Y020205D02*
X006600Y020105D01*
X006700Y020205D01*
X012530Y023435D02*
X012690Y023435D01*
X012610Y023435D02*
X012610Y023675D01*
X012530Y023595D01*
X012850Y023505D02*
X012850Y022905D01*
X012850Y022105D02*
X012850Y021505D01*
X014850Y021505D02*
X014850Y023505D01*
X016705Y022566D02*
X016785Y022486D01*
X016705Y022566D02*
X016945Y022566D01*
X016945Y022486D02*
X016945Y022646D01*
X028731Y017965D02*
X029369Y017965D01*
X028731Y017571D02*
X028731Y017239D01*
X028731Y016845D02*
X029369Y016845D01*
X029365Y016814D02*
X029363Y016796D01*
X029358Y016779D01*
X029350Y016762D01*
X029339Y016748D01*
X029326Y016736D01*
X029311Y016726D01*
X029294Y016720D01*
X029276Y016716D01*
X029258Y016716D01*
X029240Y016720D01*
X029223Y016726D01*
X029208Y016736D01*
X029195Y016748D01*
X029184Y016762D01*
X029176Y016779D01*
X029171Y016796D01*
X029169Y016814D01*
X030750Y016655D02*
X030750Y016155D01*
X031000Y015905D01*
X031500Y015905D01*
X031750Y016155D01*
X031750Y016655D01*
X031500Y016905D01*
X031750Y017155D01*
X031750Y017655D01*
X031500Y017905D01*
X031000Y017905D01*
X030750Y017655D01*
X030750Y017155D01*
X031000Y016905D01*
X031500Y016905D01*
X031000Y016905D02*
X030750Y016655D01*
X031000Y015905D02*
X030750Y015655D01*
X030750Y015155D01*
X031000Y014905D01*
X031500Y014905D01*
X031750Y015155D01*
X031750Y015655D01*
X031500Y015905D01*
X031500Y014905D02*
X031750Y014655D01*
X031750Y014155D01*
X031500Y013905D01*
X031750Y013655D01*
X031750Y013155D01*
X031500Y012905D01*
X031750Y012655D01*
X031750Y012155D01*
X031500Y011905D01*
X031000Y011905D01*
X030750Y012155D01*
X030750Y012655D01*
X031000Y012905D01*
X030750Y013155D01*
X030750Y013655D01*
X031000Y013905D01*
X031500Y013905D01*
X031000Y013905D02*
X030750Y014155D01*
X030750Y014655D01*
X031000Y014905D01*
X031000Y012905D02*
X031500Y012905D01*
X029550Y005855D02*
X029450Y005755D01*
X029550Y005855D02*
X029650Y005755D01*
X017443Y004022D02*
X017324Y004022D01*
X017324Y003962D01*
X017324Y003648D02*
X017324Y003588D01*
X017443Y003588D01*
D18*
X009689Y005022D02*
X009689Y005219D01*
X009689Y005022D02*
X009492Y005022D01*
X009689Y005691D02*
X009689Y005888D01*
X009492Y005888D01*
X008665Y005888D02*
X008469Y005888D01*
X008469Y005849D01*
X008469Y005691D01*
X008453Y005693D01*
X008437Y005698D01*
X008423Y005706D01*
X008410Y005717D01*
X008401Y005731D01*
X008394Y005746D01*
X008390Y005762D01*
X008390Y005778D01*
X008394Y005794D01*
X008401Y005810D01*
X008410Y005823D01*
X008423Y005834D01*
X008437Y005842D01*
X008453Y005847D01*
X008469Y005849D01*
X008469Y005219D02*
X008469Y005022D01*
X008665Y005022D01*
X024035Y011064D02*
X024665Y011064D01*
X024665Y012246D02*
X024035Y012246D01*
D19*
X025112Y019278D03*
X025368Y019455D03*
X025112Y019632D03*
D20*
X024192Y012289D02*
X024193Y012303D01*
X024191Y012317D01*
X024185Y012330D01*
X024177Y012342D01*
X024166Y012351D01*
X024154Y012357D01*
X024140Y012361D01*
X024126Y012361D01*
X024112Y012357D01*
X024100Y012351D01*
X024089Y012342D01*
X024081Y012330D01*
X024075Y012317D01*
X024073Y012303D01*
X024074Y012289D01*
M02*
