G75*
%MOIN*%
%OFA0B0*%
%FSLAX24Y24*%
%IPPOS*%
%LPD*%
%AMOC8*
5,1,8,0,0,1.08239X$1,22.5*
%
%ADD10C,0.0039*%
%ADD11R,0.0193X0.0244*%
%ADD12C,0.0157*%
%ADD13C,0.0157*%
%ADD14R,0.0374X0.0669*%
%ADD15R,0.0244X0.0193*%
%ADD16R,0.0295X0.0157*%
%ADD17R,0.0177X0.0433*%
%ADD18R,0.0315X0.0315*%
%ADD19R,0.0492X0.0492*%
%ADD20R,0.0118X0.0374*%
%ADD21R,0.0374X0.0118*%
%ADD22R,0.0307X0.0343*%
%ADD23R,0.0350X0.0310*%
%ADD24R,0.0591X0.0591*%
%ADD25R,0.0512X0.0591*%
%ADD26R,0.0315X0.0591*%
%ADD27R,0.0315X0.0551*%
%ADD28R,0.0276X0.0689*%
%ADD29R,0.0591X0.0394*%
%ADD30R,0.0394X0.0591*%
%ADD31R,0.0531X0.0157*%
%ADD32R,0.0350X0.0949*%
%ADD33R,0.2106X0.3362*%
%ADD34R,0.0945X0.0591*%
%ADD35R,0.0270X0.0130*%
%ADD36R,0.0394X0.0374*%
%ADD37R,0.0118X0.0472*%
%ADD38R,0.0472X0.0118*%
%ADD39R,0.0189X0.0091*%
%ADD40R,0.0091X0.0189*%
%ADD41R,0.0394X0.0394*%
%ADD42R,0.2000X0.0950*%
%ADD43R,0.2000X0.0900*%
%ADD44R,0.0354X0.0315*%
%ADD45R,0.0394X0.0142*%
%ADD46R,0.0142X0.0394*%
%ADD47C,0.0236*%
%ADD48R,0.0500X0.0300*%
%ADD49C,0.0118*%
%ADD50R,0.0591X0.0197*%
%ADD51R,0.0197X0.0591*%
%ADD52R,0.0472X0.0217*%
%ADD53R,0.0118X0.0118*%
%ADD54R,0.0138X0.0195*%
%ADD55R,0.0252X0.0195*%
%ADD56C,0.0040*%
%ADD57R,0.0571X0.0315*%
%ADD58R,0.0571X0.0236*%
%ADD59R,0.0394X0.1791*%
%ADD60R,0.1791X0.0394*%
%ADD61R,0.0394X0.1496*%
%ADD62R,0.1496X0.0394*%
%ADD63R,0.0394X0.0276*%
%ADD64R,0.0787X0.1969*%
%ADD65R,0.0669X0.1575*%
D10*
X008701Y006199D02*
X008701Y006357D01*
X008899Y006357D01*
X008899Y006199D01*
X008701Y006199D01*
X008701Y006237D02*
X008899Y006237D01*
X008899Y006275D02*
X008701Y006275D01*
X008701Y006313D02*
X008899Y006313D01*
X008899Y006351D02*
X008701Y006351D01*
X008701Y006553D02*
X008701Y006711D01*
X008899Y006711D01*
X008899Y006553D01*
X008701Y006553D01*
X008701Y006591D02*
X008899Y006591D01*
X008899Y006629D02*
X008701Y006629D01*
X008701Y006667D02*
X008899Y006667D01*
X008899Y006705D02*
X008701Y006705D01*
X010194Y006206D02*
X010352Y006206D01*
X010194Y006206D02*
X010194Y006404D01*
X010352Y006404D01*
X010352Y006206D01*
X010352Y006244D02*
X010194Y006244D01*
X010194Y006282D02*
X010352Y006282D01*
X010352Y006320D02*
X010194Y006320D01*
X010194Y006358D02*
X010352Y006358D01*
X010352Y006396D02*
X010194Y006396D01*
X010548Y006206D02*
X010706Y006206D01*
X010548Y006206D02*
X010548Y006404D01*
X010706Y006404D01*
X010706Y006206D01*
X010706Y006244D02*
X010548Y006244D01*
X010548Y006282D02*
X010706Y006282D01*
X010706Y006320D02*
X010548Y006320D01*
X010548Y006358D02*
X010706Y006358D01*
X010706Y006396D02*
X010548Y006396D01*
X010548Y005856D02*
X010706Y005856D01*
X010548Y005856D02*
X010548Y006054D01*
X010706Y006054D01*
X010706Y005856D01*
X010706Y005894D02*
X010548Y005894D01*
X010548Y005932D02*
X010706Y005932D01*
X010706Y005970D02*
X010548Y005970D01*
X010548Y006008D02*
X010706Y006008D01*
X010706Y006046D02*
X010548Y006046D01*
X010352Y005856D02*
X010194Y005856D01*
X010194Y006054D01*
X010352Y006054D01*
X010352Y005856D01*
X010352Y005894D02*
X010194Y005894D01*
X010194Y005932D02*
X010352Y005932D01*
X010352Y005970D02*
X010194Y005970D01*
X010194Y006008D02*
X010352Y006008D01*
X010352Y006046D02*
X010194Y006046D01*
X013499Y008849D02*
X013499Y009007D01*
X013499Y008849D02*
X013301Y008849D01*
X013301Y009007D01*
X013499Y009007D01*
X013499Y008887D02*
X013301Y008887D01*
X013301Y008925D02*
X013499Y008925D01*
X013499Y008963D02*
X013301Y008963D01*
X013301Y009001D02*
X013499Y009001D01*
X013499Y009203D02*
X013499Y009361D01*
X013499Y009203D02*
X013301Y009203D01*
X013301Y009361D01*
X013499Y009361D01*
X013499Y009241D02*
X013301Y009241D01*
X013301Y009279D02*
X013499Y009279D01*
X013499Y009317D02*
X013301Y009317D01*
X013301Y009355D02*
X013499Y009355D01*
X013444Y009856D02*
X013602Y009856D01*
X013444Y009856D02*
X013444Y010054D01*
X013602Y010054D01*
X013602Y009856D01*
X013602Y009894D02*
X013444Y009894D01*
X013444Y009932D02*
X013602Y009932D01*
X013602Y009970D02*
X013444Y009970D01*
X013444Y010008D02*
X013602Y010008D01*
X013602Y010046D02*
X013444Y010046D01*
X013798Y009856D02*
X013956Y009856D01*
X013798Y009856D02*
X013798Y010054D01*
X013956Y010054D01*
X013956Y009856D01*
X013956Y009894D02*
X013798Y009894D01*
X013798Y009932D02*
X013956Y009932D01*
X013956Y009970D02*
X013798Y009970D01*
X013798Y010008D02*
X013956Y010008D01*
X013956Y010046D02*
X013798Y010046D01*
X016999Y007961D02*
X016999Y007803D01*
X016801Y007803D01*
X016801Y007961D01*
X016999Y007961D01*
X016999Y007841D02*
X016801Y007841D01*
X016801Y007879D02*
X016999Y007879D01*
X016999Y007917D02*
X016801Y007917D01*
X016801Y007955D02*
X016999Y007955D01*
X017349Y007961D02*
X017349Y007803D01*
X017151Y007803D01*
X017151Y007961D01*
X017349Y007961D01*
X017349Y007841D02*
X017151Y007841D01*
X017151Y007879D02*
X017349Y007879D01*
X017349Y007917D02*
X017151Y007917D01*
X017151Y007955D02*
X017349Y007955D01*
X017349Y007607D02*
X017349Y007449D01*
X017151Y007449D01*
X017151Y007607D01*
X017349Y007607D01*
X017349Y007487D02*
X017151Y007487D01*
X017151Y007525D02*
X017349Y007525D01*
X017349Y007563D02*
X017151Y007563D01*
X017151Y007601D02*
X017349Y007601D01*
X016999Y007607D02*
X016999Y007449D01*
X016801Y007449D01*
X016801Y007607D01*
X016999Y007607D01*
X016999Y007487D02*
X016801Y007487D01*
X016801Y007525D02*
X016999Y007525D01*
X016999Y007563D02*
X016801Y007563D01*
X016801Y007601D02*
X016999Y007601D01*
X016199Y006861D02*
X016199Y006703D01*
X016001Y006703D01*
X016001Y006861D01*
X016199Y006861D01*
X016199Y006741D02*
X016001Y006741D01*
X016001Y006779D02*
X016199Y006779D01*
X016199Y006817D02*
X016001Y006817D01*
X016001Y006855D02*
X016199Y006855D01*
X015849Y006861D02*
X015849Y006703D01*
X015651Y006703D01*
X015651Y006861D01*
X015849Y006861D01*
X015849Y006741D02*
X015651Y006741D01*
X015651Y006779D02*
X015849Y006779D01*
X015849Y006817D02*
X015651Y006817D01*
X015651Y006855D02*
X015849Y006855D01*
X015849Y006507D02*
X015849Y006349D01*
X015651Y006349D01*
X015651Y006507D01*
X015849Y006507D01*
X015849Y006387D02*
X015651Y006387D01*
X015651Y006425D02*
X015849Y006425D01*
X015849Y006463D02*
X015651Y006463D01*
X015651Y006501D02*
X015849Y006501D01*
X016199Y006507D02*
X016199Y006349D01*
X016001Y006349D01*
X016001Y006507D01*
X016199Y006507D01*
X016199Y006387D02*
X016001Y006387D01*
X016001Y006425D02*
X016199Y006425D01*
X016199Y006463D02*
X016001Y006463D01*
X016001Y006501D02*
X016199Y006501D01*
X018699Y006849D02*
X018699Y007007D01*
X018699Y006849D02*
X018501Y006849D01*
X018501Y007007D01*
X018699Y007007D01*
X018699Y006887D02*
X018501Y006887D01*
X018501Y006925D02*
X018699Y006925D01*
X018699Y006963D02*
X018501Y006963D01*
X018501Y007001D02*
X018699Y007001D01*
X019049Y007007D02*
X019049Y006849D01*
X018851Y006849D01*
X018851Y007007D01*
X019049Y007007D01*
X019049Y006887D02*
X018851Y006887D01*
X018851Y006925D02*
X019049Y006925D01*
X019049Y006963D02*
X018851Y006963D01*
X018851Y007001D02*
X019049Y007001D01*
X019049Y007203D02*
X019049Y007361D01*
X019049Y007203D02*
X018851Y007203D01*
X018851Y007361D01*
X019049Y007361D01*
X019049Y007241D02*
X018851Y007241D01*
X018851Y007279D02*
X019049Y007279D01*
X019049Y007317D02*
X018851Y007317D01*
X018851Y007355D02*
X019049Y007355D01*
X018699Y007361D02*
X018699Y007203D01*
X018501Y007203D01*
X018501Y007361D01*
X018699Y007361D01*
X018699Y007241D02*
X018501Y007241D01*
X018501Y007279D02*
X018699Y007279D01*
X018699Y007317D02*
X018501Y007317D01*
X018501Y007355D02*
X018699Y007355D01*
X018748Y008004D02*
X018906Y008004D01*
X018906Y007806D01*
X018748Y007806D01*
X018748Y008004D01*
X018748Y007844D02*
X018906Y007844D01*
X018906Y007882D02*
X018748Y007882D01*
X018748Y007920D02*
X018906Y007920D01*
X018906Y007958D02*
X018748Y007958D01*
X018748Y007996D02*
X018906Y007996D01*
X018552Y008004D02*
X018394Y008004D01*
X018552Y008004D02*
X018552Y007806D01*
X018394Y007806D01*
X018394Y008004D01*
X018394Y007844D02*
X018552Y007844D01*
X018552Y007882D02*
X018394Y007882D01*
X018394Y007920D02*
X018552Y007920D01*
X018552Y007958D02*
X018394Y007958D01*
X018394Y007996D02*
X018552Y007996D01*
X019444Y006406D02*
X019602Y006406D01*
X019444Y006406D02*
X019444Y006604D01*
X019602Y006604D01*
X019602Y006406D01*
X019602Y006444D02*
X019444Y006444D01*
X019444Y006482D02*
X019602Y006482D01*
X019602Y006520D02*
X019444Y006520D01*
X019444Y006558D02*
X019602Y006558D01*
X019602Y006596D02*
X019444Y006596D01*
X019798Y006406D02*
X019956Y006406D01*
X019798Y006406D02*
X019798Y006604D01*
X019956Y006604D01*
X019956Y006406D01*
X019956Y006444D02*
X019798Y006444D01*
X019798Y006482D02*
X019956Y006482D01*
X019956Y006520D02*
X019798Y006520D01*
X019798Y006558D02*
X019956Y006558D01*
X019956Y006596D02*
X019798Y006596D01*
X019798Y006056D02*
X019956Y006056D01*
X019798Y006056D02*
X019798Y006254D01*
X019956Y006254D01*
X019956Y006056D01*
X019956Y006094D02*
X019798Y006094D01*
X019798Y006132D02*
X019956Y006132D01*
X019956Y006170D02*
X019798Y006170D01*
X019798Y006208D02*
X019956Y006208D01*
X019956Y006246D02*
X019798Y006246D01*
X019602Y006056D02*
X019444Y006056D01*
X019444Y006254D01*
X019602Y006254D01*
X019602Y006056D01*
X019602Y006094D02*
X019444Y006094D01*
X019444Y006132D02*
X019602Y006132D01*
X019602Y006170D02*
X019444Y006170D01*
X019444Y006208D02*
X019602Y006208D01*
X019602Y006246D02*
X019444Y006246D01*
X019444Y005556D02*
X019602Y005556D01*
X019444Y005556D02*
X019444Y005754D01*
X019602Y005754D01*
X019602Y005556D01*
X019602Y005594D02*
X019444Y005594D01*
X019444Y005632D02*
X019602Y005632D01*
X019602Y005670D02*
X019444Y005670D01*
X019444Y005708D02*
X019602Y005708D01*
X019602Y005746D02*
X019444Y005746D01*
X019444Y005206D02*
X019602Y005206D01*
X019444Y005206D02*
X019444Y005404D01*
X019602Y005404D01*
X019602Y005206D01*
X019602Y005244D02*
X019444Y005244D01*
X019444Y005282D02*
X019602Y005282D01*
X019602Y005320D02*
X019444Y005320D01*
X019444Y005358D02*
X019602Y005358D01*
X019602Y005396D02*
X019444Y005396D01*
X019798Y005206D02*
X019956Y005206D01*
X019798Y005206D02*
X019798Y005404D01*
X019956Y005404D01*
X019956Y005206D01*
X019956Y005244D02*
X019798Y005244D01*
X019798Y005282D02*
X019956Y005282D01*
X019956Y005320D02*
X019798Y005320D01*
X019798Y005358D02*
X019956Y005358D01*
X019956Y005396D02*
X019798Y005396D01*
X019798Y005556D02*
X019956Y005556D01*
X019798Y005556D02*
X019798Y005754D01*
X019956Y005754D01*
X019956Y005556D01*
X019956Y005594D02*
X019798Y005594D01*
X019798Y005632D02*
X019956Y005632D01*
X019956Y005670D02*
X019798Y005670D01*
X019798Y005708D02*
X019956Y005708D01*
X019956Y005746D02*
X019798Y005746D01*
X020394Y005806D02*
X020552Y005806D01*
X020394Y005806D02*
X020394Y006004D01*
X020552Y006004D01*
X020552Y005806D01*
X020552Y005844D02*
X020394Y005844D01*
X020394Y005882D02*
X020552Y005882D01*
X020552Y005920D02*
X020394Y005920D01*
X020394Y005958D02*
X020552Y005958D01*
X020552Y005996D02*
X020394Y005996D01*
X020748Y005806D02*
X020906Y005806D01*
X020748Y005806D02*
X020748Y006004D01*
X020906Y006004D01*
X020906Y005806D01*
X020906Y005844D02*
X020748Y005844D01*
X020748Y005882D02*
X020906Y005882D01*
X020906Y005920D02*
X020748Y005920D01*
X020748Y005958D02*
X020906Y005958D01*
X020906Y005996D02*
X020748Y005996D01*
X020748Y006704D02*
X020906Y006704D01*
X020906Y006506D01*
X020748Y006506D01*
X020748Y006704D01*
X020748Y006544D02*
X020906Y006544D01*
X020906Y006582D02*
X020748Y006582D01*
X020748Y006620D02*
X020906Y006620D01*
X020906Y006658D02*
X020748Y006658D01*
X020748Y006696D02*
X020906Y006696D01*
X020552Y006704D02*
X020394Y006704D01*
X020552Y006704D02*
X020552Y006506D01*
X020394Y006506D01*
X020394Y006704D01*
X020394Y006544D02*
X020552Y006544D01*
X020552Y006582D02*
X020394Y006582D01*
X020394Y006620D02*
X020552Y006620D01*
X020552Y006658D02*
X020394Y006658D01*
X020394Y006696D02*
X020552Y006696D01*
X020949Y007899D02*
X020949Y008057D01*
X020949Y007899D02*
X020751Y007899D01*
X020751Y008057D01*
X020949Y008057D01*
X020949Y007937D02*
X020751Y007937D01*
X020751Y007975D02*
X020949Y007975D01*
X020949Y008013D02*
X020751Y008013D01*
X020751Y008051D02*
X020949Y008051D01*
X020949Y008253D02*
X020949Y008411D01*
X020949Y008253D02*
X020751Y008253D01*
X020751Y008411D01*
X020949Y008411D01*
X020949Y008291D02*
X020751Y008291D01*
X020751Y008329D02*
X020949Y008329D01*
X020949Y008367D02*
X020751Y008367D01*
X020751Y008405D02*
X020949Y008405D01*
X021349Y008411D02*
X021349Y008253D01*
X021151Y008253D01*
X021151Y008411D01*
X021349Y008411D01*
X021349Y008291D02*
X021151Y008291D01*
X021151Y008329D02*
X021349Y008329D01*
X021349Y008367D02*
X021151Y008367D01*
X021151Y008405D02*
X021349Y008405D01*
X021349Y008057D02*
X021349Y007899D01*
X021151Y007899D01*
X021151Y008057D01*
X021349Y008057D01*
X021349Y007937D02*
X021151Y007937D01*
X021151Y007975D02*
X021349Y007975D01*
X021349Y008013D02*
X021151Y008013D01*
X021151Y008051D02*
X021349Y008051D01*
X023944Y006456D02*
X024102Y006456D01*
X023944Y006456D02*
X023944Y006654D01*
X024102Y006654D01*
X024102Y006456D01*
X024102Y006494D02*
X023944Y006494D01*
X023944Y006532D02*
X024102Y006532D01*
X024102Y006570D02*
X023944Y006570D01*
X023944Y006608D02*
X024102Y006608D01*
X024102Y006646D02*
X023944Y006646D01*
X024298Y006456D02*
X024456Y006456D01*
X024298Y006456D02*
X024298Y006654D01*
X024456Y006654D01*
X024456Y006456D01*
X024456Y006494D02*
X024298Y006494D01*
X024298Y006532D02*
X024456Y006532D01*
X024456Y006570D02*
X024298Y006570D01*
X024298Y006608D02*
X024456Y006608D01*
X024456Y006646D02*
X024298Y006646D01*
X026999Y006657D02*
X026999Y006499D01*
X026801Y006499D01*
X026801Y006657D01*
X026999Y006657D01*
X026999Y006537D02*
X026801Y006537D01*
X026801Y006575D02*
X026999Y006575D01*
X026999Y006613D02*
X026801Y006613D01*
X026801Y006651D02*
X026999Y006651D01*
X026999Y006853D02*
X026999Y007011D01*
X026999Y006853D02*
X026801Y006853D01*
X026801Y007011D01*
X026999Y007011D01*
X026999Y006891D02*
X026801Y006891D01*
X026801Y006929D02*
X026999Y006929D01*
X026999Y006967D02*
X026801Y006967D01*
X026801Y007005D02*
X026999Y007005D01*
X027544Y005906D02*
X027702Y005906D01*
X027544Y005906D02*
X027544Y006104D01*
X027702Y006104D01*
X027702Y005906D01*
X027702Y005944D02*
X027544Y005944D01*
X027544Y005982D02*
X027702Y005982D01*
X027702Y006020D02*
X027544Y006020D01*
X027544Y006058D02*
X027702Y006058D01*
X027702Y006096D02*
X027544Y006096D01*
X027898Y005906D02*
X028056Y005906D01*
X027898Y005906D02*
X027898Y006104D01*
X028056Y006104D01*
X028056Y005906D01*
X028056Y005944D02*
X027898Y005944D01*
X027898Y005982D02*
X028056Y005982D01*
X028056Y006020D02*
X027898Y006020D01*
X027898Y006058D02*
X028056Y006058D01*
X028056Y006096D02*
X027898Y006096D01*
X027249Y003111D02*
X027249Y002953D01*
X027051Y002953D01*
X027051Y003111D01*
X027249Y003111D01*
X027249Y002991D02*
X027051Y002991D01*
X027051Y003029D02*
X027249Y003029D01*
X027249Y003067D02*
X027051Y003067D01*
X027051Y003105D02*
X027249Y003105D01*
X027249Y002757D02*
X027249Y002599D01*
X027051Y002599D01*
X027051Y002757D01*
X027249Y002757D01*
X027249Y002637D02*
X027051Y002637D01*
X027051Y002675D02*
X027249Y002675D01*
X027249Y002713D02*
X027051Y002713D01*
X027051Y002751D02*
X027249Y002751D01*
X027249Y002411D02*
X027249Y002253D01*
X027051Y002253D01*
X027051Y002411D01*
X027249Y002411D01*
X027249Y002291D02*
X027051Y002291D01*
X027051Y002329D02*
X027249Y002329D01*
X027249Y002367D02*
X027051Y002367D01*
X027051Y002405D02*
X027249Y002405D01*
X027249Y002057D02*
X027249Y001899D01*
X027051Y001899D01*
X027051Y002057D01*
X027249Y002057D01*
X027249Y001937D02*
X027051Y001937D01*
X027051Y001975D02*
X027249Y001975D01*
X027249Y002013D02*
X027051Y002013D01*
X027051Y002051D02*
X027249Y002051D01*
X024356Y001306D02*
X024198Y001306D01*
X024198Y001504D01*
X024356Y001504D01*
X024356Y001306D01*
X024356Y001344D02*
X024198Y001344D01*
X024198Y001382D02*
X024356Y001382D01*
X024356Y001420D02*
X024198Y001420D01*
X024198Y001458D02*
X024356Y001458D01*
X024356Y001496D02*
X024198Y001496D01*
X024002Y001306D02*
X023844Y001306D01*
X023844Y001504D01*
X024002Y001504D01*
X024002Y001306D01*
X024002Y001344D02*
X023844Y001344D01*
X023844Y001382D02*
X024002Y001382D01*
X024002Y001420D02*
X023844Y001420D01*
X023844Y001458D02*
X024002Y001458D01*
X024002Y001496D02*
X023844Y001496D01*
X018506Y002756D02*
X018348Y002756D01*
X018348Y002954D01*
X018506Y002954D01*
X018506Y002756D01*
X018506Y002794D02*
X018348Y002794D01*
X018348Y002832D02*
X018506Y002832D01*
X018506Y002870D02*
X018348Y002870D01*
X018348Y002908D02*
X018506Y002908D01*
X018506Y002946D02*
X018348Y002946D01*
X018152Y002756D02*
X017994Y002756D01*
X017994Y002954D01*
X018152Y002954D01*
X018152Y002756D01*
X018152Y002794D02*
X017994Y002794D01*
X017994Y002832D02*
X018152Y002832D01*
X018152Y002870D02*
X017994Y002870D01*
X017994Y002908D02*
X018152Y002908D01*
X018152Y002946D02*
X017994Y002946D01*
X017994Y003156D02*
X018152Y003156D01*
X017994Y003156D02*
X017994Y003354D01*
X018152Y003354D01*
X018152Y003156D01*
X018152Y003194D02*
X017994Y003194D01*
X017994Y003232D02*
X018152Y003232D01*
X018152Y003270D02*
X017994Y003270D01*
X017994Y003308D02*
X018152Y003308D01*
X018152Y003346D02*
X017994Y003346D01*
X018348Y003156D02*
X018506Y003156D01*
X018348Y003156D02*
X018348Y003354D01*
X018506Y003354D01*
X018506Y003156D01*
X018506Y003194D02*
X018348Y003194D01*
X018348Y003232D02*
X018506Y003232D01*
X018506Y003270D02*
X018348Y003270D01*
X018348Y003308D02*
X018506Y003308D01*
X018506Y003346D02*
X018348Y003346D01*
X018352Y003656D02*
X018194Y003656D01*
X018194Y003854D01*
X018352Y003854D01*
X018352Y003656D01*
X018352Y003694D02*
X018194Y003694D01*
X018194Y003732D02*
X018352Y003732D01*
X018352Y003770D02*
X018194Y003770D01*
X018194Y003808D02*
X018352Y003808D01*
X018352Y003846D02*
X018194Y003846D01*
X018194Y004006D02*
X018352Y004006D01*
X018194Y004006D02*
X018194Y004204D01*
X018352Y004204D01*
X018352Y004006D01*
X018352Y004044D02*
X018194Y004044D01*
X018194Y004082D02*
X018352Y004082D01*
X018352Y004120D02*
X018194Y004120D01*
X018194Y004158D02*
X018352Y004158D01*
X018352Y004196D02*
X018194Y004196D01*
X018548Y004006D02*
X018706Y004006D01*
X018548Y004006D02*
X018548Y004204D01*
X018706Y004204D01*
X018706Y004006D01*
X018706Y004044D02*
X018548Y004044D01*
X018548Y004082D02*
X018706Y004082D01*
X018706Y004120D02*
X018548Y004120D01*
X018548Y004158D02*
X018706Y004158D01*
X018706Y004196D02*
X018548Y004196D01*
X018548Y003656D02*
X018706Y003656D01*
X018548Y003656D02*
X018548Y003854D01*
X018706Y003854D01*
X018706Y003656D01*
X018706Y003694D02*
X018548Y003694D01*
X018548Y003732D02*
X018706Y003732D01*
X018706Y003770D02*
X018548Y003770D01*
X018548Y003808D02*
X018706Y003808D01*
X018706Y003846D02*
X018548Y003846D01*
X024194Y008906D02*
X024352Y008906D01*
X024194Y008906D02*
X024194Y009104D01*
X024352Y009104D01*
X024352Y008906D01*
X024352Y008944D02*
X024194Y008944D01*
X024194Y008982D02*
X024352Y008982D01*
X024352Y009020D02*
X024194Y009020D01*
X024194Y009058D02*
X024352Y009058D01*
X024352Y009096D02*
X024194Y009096D01*
X024548Y008906D02*
X024706Y008906D01*
X024548Y008906D02*
X024548Y009104D01*
X024706Y009104D01*
X024706Y008906D01*
X024706Y008944D02*
X024548Y008944D01*
X024548Y008982D02*
X024706Y008982D01*
X024706Y009020D02*
X024548Y009020D01*
X024548Y009058D02*
X024706Y009058D01*
X024706Y009096D02*
X024548Y009096D01*
X024602Y010854D02*
X024444Y010854D01*
X024602Y010854D02*
X024602Y010656D01*
X024444Y010656D01*
X024444Y010854D01*
X024444Y010694D02*
X024602Y010694D01*
X024602Y010732D02*
X024444Y010732D01*
X024444Y010770D02*
X024602Y010770D01*
X024602Y010808D02*
X024444Y010808D01*
X024444Y010846D02*
X024602Y010846D01*
X024798Y010854D02*
X024956Y010854D01*
X024956Y010656D01*
X024798Y010656D01*
X024798Y010854D01*
X024798Y010694D02*
X024956Y010694D01*
X024956Y010732D02*
X024798Y010732D01*
X024798Y010770D02*
X024956Y010770D01*
X024956Y010808D02*
X024798Y010808D01*
X024798Y010846D02*
X024956Y010846D01*
X025644Y011354D02*
X025802Y011354D01*
X025802Y011156D01*
X025644Y011156D01*
X025644Y011354D01*
X025644Y011194D02*
X025802Y011194D01*
X025802Y011232D02*
X025644Y011232D01*
X025644Y011270D02*
X025802Y011270D01*
X025802Y011308D02*
X025644Y011308D01*
X025644Y011346D02*
X025802Y011346D01*
X025998Y011354D02*
X026156Y011354D01*
X026156Y011156D01*
X025998Y011156D01*
X025998Y011354D01*
X025998Y011194D02*
X026156Y011194D01*
X026156Y011232D02*
X025998Y011232D01*
X025998Y011270D02*
X026156Y011270D01*
X026156Y011308D02*
X025998Y011308D01*
X025998Y011346D02*
X026156Y011346D01*
X023251Y011599D02*
X023251Y011757D01*
X023449Y011757D01*
X023449Y011599D01*
X023251Y011599D01*
X023251Y011637D02*
X023449Y011637D01*
X023449Y011675D02*
X023251Y011675D01*
X023251Y011713D02*
X023449Y011713D01*
X023449Y011751D02*
X023251Y011751D01*
X023251Y011953D02*
X023251Y012111D01*
X023449Y012111D01*
X023449Y011953D01*
X023251Y011953D01*
X023251Y011991D02*
X023449Y011991D01*
X023449Y012029D02*
X023251Y012029D01*
X023251Y012067D02*
X023449Y012067D01*
X023449Y012105D02*
X023251Y012105D01*
X024549Y014599D02*
X024549Y014757D01*
X024549Y014599D02*
X024351Y014599D01*
X024351Y014757D01*
X024549Y014757D01*
X024549Y014637D02*
X024351Y014637D01*
X024351Y014675D02*
X024549Y014675D01*
X024549Y014713D02*
X024351Y014713D01*
X024351Y014751D02*
X024549Y014751D01*
X024549Y014953D02*
X024549Y015111D01*
X024549Y014953D02*
X024351Y014953D01*
X024351Y015111D01*
X024549Y015111D01*
X024549Y014991D02*
X024351Y014991D01*
X024351Y015029D02*
X024549Y015029D01*
X024549Y015067D02*
X024351Y015067D01*
X024351Y015105D02*
X024549Y015105D01*
X023156Y017104D02*
X022998Y017104D01*
X023156Y017104D02*
X023156Y016906D01*
X022998Y016906D01*
X022998Y017104D01*
X022998Y016944D02*
X023156Y016944D01*
X023156Y016982D02*
X022998Y016982D01*
X022998Y017020D02*
X023156Y017020D01*
X023156Y017058D02*
X022998Y017058D01*
X022998Y017096D02*
X023156Y017096D01*
X022802Y017104D02*
X022644Y017104D01*
X022802Y017104D02*
X022802Y016906D01*
X022644Y016906D01*
X022644Y017104D01*
X022644Y016944D02*
X022802Y016944D01*
X022802Y016982D02*
X022644Y016982D01*
X022644Y017020D02*
X022802Y017020D01*
X022802Y017058D02*
X022644Y017058D01*
X022644Y017096D02*
X022802Y017096D01*
X027194Y018004D02*
X027352Y018004D01*
X027352Y017806D01*
X027194Y017806D01*
X027194Y018004D01*
X027194Y017844D02*
X027352Y017844D01*
X027352Y017882D02*
X027194Y017882D01*
X027194Y017920D02*
X027352Y017920D01*
X027352Y017958D02*
X027194Y017958D01*
X027194Y017996D02*
X027352Y017996D01*
X027548Y018004D02*
X027706Y018004D01*
X027706Y017806D01*
X027548Y017806D01*
X027548Y018004D01*
X027548Y017844D02*
X027706Y017844D01*
X027706Y017882D02*
X027548Y017882D01*
X027548Y017920D02*
X027706Y017920D01*
X027706Y017958D02*
X027548Y017958D01*
X027548Y017996D02*
X027706Y017996D01*
X028099Y017957D02*
X028099Y017799D01*
X027901Y017799D01*
X027901Y017957D01*
X028099Y017957D01*
X028099Y017837D02*
X027901Y017837D01*
X027901Y017875D02*
X028099Y017875D01*
X028099Y017913D02*
X027901Y017913D01*
X027901Y017951D02*
X028099Y017951D01*
X028099Y018153D02*
X028099Y018311D01*
X028099Y018153D02*
X027901Y018153D01*
X027901Y018311D01*
X028099Y018311D01*
X028099Y018191D02*
X027901Y018191D01*
X027901Y018229D02*
X028099Y018229D01*
X028099Y018267D02*
X027901Y018267D01*
X027901Y018305D02*
X028099Y018305D01*
X027856Y017004D02*
X027698Y017004D01*
X027856Y017004D02*
X027856Y016806D01*
X027698Y016806D01*
X027698Y017004D01*
X027698Y016844D02*
X027856Y016844D01*
X027856Y016882D02*
X027698Y016882D01*
X027698Y016920D02*
X027856Y016920D01*
X027856Y016958D02*
X027698Y016958D01*
X027698Y016996D02*
X027856Y016996D01*
X027502Y017004D02*
X027344Y017004D01*
X027502Y017004D02*
X027502Y016806D01*
X027344Y016806D01*
X027344Y017004D01*
X027344Y016844D02*
X027502Y016844D01*
X027502Y016882D02*
X027344Y016882D01*
X027344Y016920D02*
X027502Y016920D01*
X027502Y016958D02*
X027344Y016958D01*
X027344Y016996D02*
X027502Y016996D01*
X030001Y014361D02*
X030001Y014203D01*
X030001Y014361D02*
X030199Y014361D01*
X030199Y014203D01*
X030001Y014203D01*
X030001Y014241D02*
X030199Y014241D01*
X030199Y014279D02*
X030001Y014279D01*
X030001Y014317D02*
X030199Y014317D01*
X030199Y014355D02*
X030001Y014355D01*
X030001Y014007D02*
X030001Y013849D01*
X030001Y014007D02*
X030199Y014007D01*
X030199Y013849D01*
X030001Y013849D01*
X030001Y013887D02*
X030199Y013887D01*
X030199Y013925D02*
X030001Y013925D01*
X030001Y013963D02*
X030199Y013963D01*
X030199Y014001D02*
X030001Y014001D01*
X033544Y017256D02*
X033702Y017256D01*
X033544Y017256D02*
X033544Y017454D01*
X033702Y017454D01*
X033702Y017256D01*
X033702Y017294D02*
X033544Y017294D01*
X033544Y017332D02*
X033702Y017332D01*
X033702Y017370D02*
X033544Y017370D01*
X033544Y017408D02*
X033702Y017408D01*
X033702Y017446D02*
X033544Y017446D01*
X033898Y017256D02*
X034056Y017256D01*
X033898Y017256D02*
X033898Y017454D01*
X034056Y017454D01*
X034056Y017256D01*
X034056Y017294D02*
X033898Y017294D01*
X033898Y017332D02*
X034056Y017332D01*
X034056Y017370D02*
X033898Y017370D01*
X033898Y017408D02*
X034056Y017408D01*
X034056Y017446D02*
X033898Y017446D01*
X026449Y023399D02*
X026449Y023557D01*
X026449Y023399D02*
X026251Y023399D01*
X026251Y023557D01*
X026449Y023557D01*
X026449Y023437D02*
X026251Y023437D01*
X026251Y023475D02*
X026449Y023475D01*
X026449Y023513D02*
X026251Y023513D01*
X026251Y023551D02*
X026449Y023551D01*
X026449Y023753D02*
X026449Y023911D01*
X026449Y023753D02*
X026251Y023753D01*
X026251Y023911D01*
X026449Y023911D01*
X026449Y023791D02*
X026251Y023791D01*
X026251Y023829D02*
X026449Y023829D01*
X026449Y023867D02*
X026251Y023867D01*
X026251Y023905D02*
X026449Y023905D01*
X023656Y022804D02*
X023498Y022804D01*
X023656Y022804D02*
X023656Y022606D01*
X023498Y022606D01*
X023498Y022804D01*
X023498Y022644D02*
X023656Y022644D01*
X023656Y022682D02*
X023498Y022682D01*
X023498Y022720D02*
X023656Y022720D01*
X023656Y022758D02*
X023498Y022758D01*
X023498Y022796D02*
X023656Y022796D01*
X023302Y022804D02*
X023144Y022804D01*
X023302Y022804D02*
X023302Y022606D01*
X023144Y022606D01*
X023144Y022804D01*
X023144Y022644D02*
X023302Y022644D01*
X023302Y022682D02*
X023144Y022682D01*
X023144Y022720D02*
X023302Y022720D01*
X023302Y022758D02*
X023144Y022758D01*
X023144Y022796D02*
X023302Y022796D01*
X018006Y023754D02*
X017848Y023754D01*
X018006Y023754D02*
X018006Y023556D01*
X017848Y023556D01*
X017848Y023754D01*
X017848Y023594D02*
X018006Y023594D01*
X018006Y023632D02*
X017848Y023632D01*
X017848Y023670D02*
X018006Y023670D01*
X018006Y023708D02*
X017848Y023708D01*
X017848Y023746D02*
X018006Y023746D01*
X017652Y023754D02*
X017494Y023754D01*
X017652Y023754D02*
X017652Y023556D01*
X017494Y023556D01*
X017494Y023754D01*
X017494Y023594D02*
X017652Y023594D01*
X017652Y023632D02*
X017494Y023632D01*
X017494Y023670D02*
X017652Y023670D01*
X017652Y023708D02*
X017494Y023708D01*
X017494Y023746D02*
X017652Y023746D01*
X016351Y020911D02*
X016351Y020753D01*
X016351Y020911D02*
X016549Y020911D01*
X016549Y020753D01*
X016351Y020753D01*
X016351Y020791D02*
X016549Y020791D01*
X016549Y020829D02*
X016351Y020829D01*
X016351Y020867D02*
X016549Y020867D01*
X016549Y020905D02*
X016351Y020905D01*
X016351Y020557D02*
X016351Y020399D01*
X016351Y020557D02*
X016549Y020557D01*
X016549Y020399D01*
X016351Y020399D01*
X016351Y020437D02*
X016549Y020437D01*
X016549Y020475D02*
X016351Y020475D01*
X016351Y020513D02*
X016549Y020513D01*
X016549Y020551D02*
X016351Y020551D01*
X015247Y020711D02*
X015136Y020600D01*
X014997Y020739D01*
X015108Y020850D01*
X015247Y020711D01*
X015174Y020638D02*
X015098Y020638D01*
X015060Y020676D02*
X015212Y020676D01*
X015244Y020714D02*
X015022Y020714D01*
X015010Y020752D02*
X015206Y020752D01*
X015168Y020790D02*
X015048Y020790D01*
X015086Y020828D02*
X015130Y020828D01*
X014996Y020461D02*
X014885Y020350D01*
X014746Y020489D01*
X014857Y020600D01*
X014996Y020461D01*
X014923Y020388D02*
X014847Y020388D01*
X014809Y020426D02*
X014961Y020426D01*
X014993Y020464D02*
X014771Y020464D01*
X014759Y020502D02*
X014955Y020502D01*
X014917Y020540D02*
X014797Y020540D01*
X014835Y020578D02*
X014879Y020578D01*
X014605Y019651D02*
X014716Y019540D01*
X014605Y019651D02*
X014744Y019790D01*
X014855Y019679D01*
X014716Y019540D01*
X014754Y019578D02*
X014678Y019578D01*
X014640Y019616D02*
X014792Y019616D01*
X014830Y019654D02*
X014608Y019654D01*
X014646Y019692D02*
X014842Y019692D01*
X014804Y019730D02*
X014684Y019730D01*
X014722Y019768D02*
X014766Y019768D01*
X014855Y019400D02*
X014966Y019289D01*
X014855Y019400D02*
X014994Y019539D01*
X015105Y019428D01*
X014966Y019289D01*
X015004Y019327D02*
X014928Y019327D01*
X014890Y019365D02*
X015042Y019365D01*
X015080Y019403D02*
X014858Y019403D01*
X014896Y019441D02*
X015092Y019441D01*
X015054Y019479D02*
X014934Y019479D01*
X014972Y019517D02*
X015016Y019517D01*
X016144Y018756D02*
X016302Y018756D01*
X016144Y018756D02*
X016144Y018954D01*
X016302Y018954D01*
X016302Y018756D01*
X016302Y018794D02*
X016144Y018794D01*
X016144Y018832D02*
X016302Y018832D01*
X016302Y018870D02*
X016144Y018870D01*
X016144Y018908D02*
X016302Y018908D01*
X016302Y018946D02*
X016144Y018946D01*
X016498Y018756D02*
X016656Y018756D01*
X016498Y018756D02*
X016498Y018954D01*
X016656Y018954D01*
X016656Y018756D01*
X016656Y018794D02*
X016498Y018794D01*
X016498Y018832D02*
X016656Y018832D01*
X016656Y018870D02*
X016498Y018870D01*
X016498Y018908D02*
X016656Y018908D01*
X016656Y018946D02*
X016498Y018946D01*
X016006Y018356D02*
X015848Y018356D01*
X015848Y018554D01*
X016006Y018554D01*
X016006Y018356D01*
X016006Y018394D02*
X015848Y018394D01*
X015848Y018432D02*
X016006Y018432D01*
X016006Y018470D02*
X015848Y018470D01*
X015848Y018508D02*
X016006Y018508D01*
X016006Y018546D02*
X015848Y018546D01*
X015652Y018356D02*
X015494Y018356D01*
X015494Y018554D01*
X015652Y018554D01*
X015652Y018356D01*
X015652Y018394D02*
X015494Y018394D01*
X015494Y018432D02*
X015652Y018432D01*
X015652Y018470D02*
X015494Y018470D01*
X015494Y018508D02*
X015652Y018508D01*
X015652Y018546D02*
X015494Y018546D01*
X015944Y018006D02*
X016102Y018006D01*
X015944Y018006D02*
X015944Y018204D01*
X016102Y018204D01*
X016102Y018006D01*
X016102Y018044D02*
X015944Y018044D01*
X015944Y018082D02*
X016102Y018082D01*
X016102Y018120D02*
X015944Y018120D01*
X015944Y018158D02*
X016102Y018158D01*
X016102Y018196D02*
X015944Y018196D01*
X016298Y018006D02*
X016456Y018006D01*
X016298Y018006D02*
X016298Y018204D01*
X016456Y018204D01*
X016456Y018006D01*
X016456Y018044D02*
X016298Y018044D01*
X016298Y018082D02*
X016456Y018082D01*
X016456Y018120D02*
X016298Y018120D01*
X016298Y018158D02*
X016456Y018158D01*
X016456Y018196D02*
X016298Y018196D01*
X017694Y016306D02*
X017852Y016306D01*
X017694Y016306D02*
X017694Y016504D01*
X017852Y016504D01*
X017852Y016306D01*
X017852Y016344D02*
X017694Y016344D01*
X017694Y016382D02*
X017852Y016382D01*
X017852Y016420D02*
X017694Y016420D01*
X017694Y016458D02*
X017852Y016458D01*
X017852Y016496D02*
X017694Y016496D01*
X018048Y016306D02*
X018206Y016306D01*
X018048Y016306D02*
X018048Y016504D01*
X018206Y016504D01*
X018206Y016306D01*
X018206Y016344D02*
X018048Y016344D01*
X018048Y016382D02*
X018206Y016382D01*
X018206Y016420D02*
X018048Y016420D01*
X018048Y016458D02*
X018206Y016458D01*
X018206Y016496D02*
X018048Y016496D01*
X014799Y015311D02*
X014799Y015153D01*
X014601Y015153D01*
X014601Y015311D01*
X014799Y015311D01*
X014799Y015191D02*
X014601Y015191D01*
X014601Y015229D02*
X014799Y015229D01*
X014799Y015267D02*
X014601Y015267D01*
X014601Y015305D02*
X014799Y015305D01*
X014799Y014957D02*
X014799Y014799D01*
X014601Y014799D01*
X014601Y014957D01*
X014799Y014957D01*
X014799Y014837D02*
X014601Y014837D01*
X014601Y014875D02*
X014799Y014875D01*
X014799Y014913D02*
X014601Y014913D01*
X014601Y014951D02*
X014799Y014951D01*
X014201Y014511D02*
X014201Y014353D01*
X014201Y014511D02*
X014399Y014511D01*
X014399Y014353D01*
X014201Y014353D01*
X014201Y014391D02*
X014399Y014391D01*
X014399Y014429D02*
X014201Y014429D01*
X014201Y014467D02*
X014399Y014467D01*
X014399Y014505D02*
X014201Y014505D01*
X014201Y014157D02*
X014201Y013999D01*
X014201Y014157D02*
X014399Y014157D01*
X014399Y013999D01*
X014201Y013999D01*
X014201Y014037D02*
X014399Y014037D01*
X014399Y014075D02*
X014201Y014075D01*
X014201Y014113D02*
X014399Y014113D01*
X014399Y014151D02*
X014201Y014151D01*
X016494Y013554D02*
X016652Y013554D01*
X016652Y013356D01*
X016494Y013356D01*
X016494Y013554D01*
X016494Y013394D02*
X016652Y013394D01*
X016652Y013432D02*
X016494Y013432D01*
X016494Y013470D02*
X016652Y013470D01*
X016652Y013508D02*
X016494Y013508D01*
X016494Y013546D02*
X016652Y013546D01*
X016848Y013554D02*
X017006Y013554D01*
X017006Y013356D01*
X016848Y013356D01*
X016848Y013554D01*
X016848Y013394D02*
X017006Y013394D01*
X017006Y013432D02*
X016848Y013432D01*
X016848Y013470D02*
X017006Y013470D01*
X017006Y013508D02*
X016848Y013508D01*
X016848Y013546D02*
X017006Y013546D01*
X010849Y013949D02*
X010849Y014107D01*
X010849Y013949D02*
X010651Y013949D01*
X010651Y014107D01*
X010849Y014107D01*
X010849Y013987D02*
X010651Y013987D01*
X010651Y014025D02*
X010849Y014025D01*
X010849Y014063D02*
X010651Y014063D01*
X010651Y014101D02*
X010849Y014101D01*
X010849Y014303D02*
X010849Y014461D01*
X010849Y014303D02*
X010651Y014303D01*
X010651Y014461D01*
X010849Y014461D01*
X010849Y014341D02*
X010651Y014341D01*
X010651Y014379D02*
X010849Y014379D01*
X010849Y014417D02*
X010651Y014417D01*
X010651Y014455D02*
X010849Y014455D01*
X008356Y012856D02*
X008198Y012856D01*
X008198Y013054D01*
X008356Y013054D01*
X008356Y012856D01*
X008356Y012894D02*
X008198Y012894D01*
X008198Y012932D02*
X008356Y012932D01*
X008356Y012970D02*
X008198Y012970D01*
X008198Y013008D02*
X008356Y013008D01*
X008356Y013046D02*
X008198Y013046D01*
X008002Y012856D02*
X007844Y012856D01*
X007844Y013054D01*
X008002Y013054D01*
X008002Y012856D01*
X008002Y012894D02*
X007844Y012894D01*
X007844Y012932D02*
X008002Y012932D01*
X008002Y012970D02*
X007844Y012970D01*
X007844Y013008D02*
X008002Y013008D01*
X008002Y013046D02*
X007844Y013046D01*
X010899Y016399D02*
X010899Y016557D01*
X010899Y016399D02*
X010701Y016399D01*
X010701Y016557D01*
X010899Y016557D01*
X010899Y016437D02*
X010701Y016437D01*
X010701Y016475D02*
X010899Y016475D01*
X010899Y016513D02*
X010701Y016513D01*
X010701Y016551D02*
X010899Y016551D01*
X010899Y016753D02*
X010899Y016911D01*
X010899Y016753D02*
X010701Y016753D01*
X010701Y016911D01*
X010899Y016911D01*
X010899Y016791D02*
X010701Y016791D01*
X010701Y016829D02*
X010899Y016829D01*
X010899Y016867D02*
X010701Y016867D01*
X010701Y016905D02*
X010899Y016905D01*
X010894Y018254D02*
X011052Y018254D01*
X011052Y018056D01*
X010894Y018056D01*
X010894Y018254D01*
X010894Y018094D02*
X011052Y018094D01*
X011052Y018132D02*
X010894Y018132D01*
X010894Y018170D02*
X011052Y018170D01*
X011052Y018208D02*
X010894Y018208D01*
X010894Y018246D02*
X011052Y018246D01*
X011248Y018254D02*
X011406Y018254D01*
X011406Y018056D01*
X011248Y018056D01*
X011248Y018254D01*
X011248Y018094D02*
X011406Y018094D01*
X011406Y018132D02*
X011248Y018132D01*
X011248Y018170D02*
X011406Y018170D01*
X011406Y018208D02*
X011248Y018208D01*
X011248Y018246D02*
X011406Y018246D01*
X010351Y018199D02*
X010351Y018357D01*
X010549Y018357D01*
X010549Y018199D01*
X010351Y018199D01*
X010351Y018237D02*
X010549Y018237D01*
X010549Y018275D02*
X010351Y018275D01*
X010351Y018313D02*
X010549Y018313D01*
X010549Y018351D02*
X010351Y018351D01*
X010351Y018553D02*
X010351Y018711D01*
X010549Y018711D01*
X010549Y018553D01*
X010351Y018553D01*
X010351Y018591D02*
X010549Y018591D01*
X010549Y018629D02*
X010351Y018629D01*
X010351Y018667D02*
X010549Y018667D01*
X010549Y018705D02*
X010351Y018705D01*
X012099Y019899D02*
X012099Y020057D01*
X012099Y019899D02*
X011901Y019899D01*
X011901Y020057D01*
X012099Y020057D01*
X012099Y019937D02*
X011901Y019937D01*
X011901Y019975D02*
X012099Y019975D01*
X012099Y020013D02*
X011901Y020013D01*
X011901Y020051D02*
X012099Y020051D01*
X012099Y020253D02*
X012099Y020411D01*
X012099Y020253D02*
X011901Y020253D01*
X011901Y020411D01*
X012099Y020411D01*
X012099Y020291D02*
X011901Y020291D01*
X011901Y020329D02*
X012099Y020329D01*
X012099Y020367D02*
X011901Y020367D01*
X011901Y020405D02*
X012099Y020405D01*
X007949Y020411D02*
X007949Y020253D01*
X007751Y020253D01*
X007751Y020411D01*
X007949Y020411D01*
X007949Y020291D02*
X007751Y020291D01*
X007751Y020329D02*
X007949Y020329D01*
X007949Y020367D02*
X007751Y020367D01*
X007751Y020405D02*
X007949Y020405D01*
X007949Y020057D02*
X007949Y019899D01*
X007751Y019899D01*
X007751Y020057D01*
X007949Y020057D01*
X007949Y019937D02*
X007751Y019937D01*
X007751Y019975D02*
X007949Y019975D01*
X007949Y020013D02*
X007751Y020013D01*
X007751Y020051D02*
X007949Y020051D01*
D11*
X010981Y018555D03*
X011319Y018555D03*
X017431Y015705D03*
X017769Y015705D03*
X020281Y016405D03*
X020619Y016405D03*
X023781Y019055D03*
X024119Y019055D03*
X024119Y019455D03*
X023781Y019455D03*
X023781Y019855D03*
X024119Y019855D03*
X025631Y018205D03*
X025969Y018205D03*
X025969Y017705D03*
X025631Y017705D03*
X025631Y017205D03*
X025969Y017205D03*
X023719Y012455D03*
X023381Y012455D03*
X021769Y007255D03*
X021431Y007255D03*
X020819Y006255D03*
X020481Y006255D03*
X027181Y004855D03*
X027519Y004855D03*
X027469Y004205D03*
X027131Y004205D03*
X015519Y011855D03*
X015181Y011855D03*
X015319Y012255D03*
X014981Y012255D03*
X008919Y012755D03*
X008581Y012755D03*
X008581Y013155D03*
X008919Y013155D03*
X009981Y007105D03*
X010319Y007105D03*
X018581Y023655D03*
X018919Y023655D03*
D12*
X024091Y022749D02*
X024091Y022591D01*
X024091Y022749D02*
X024309Y022749D01*
X024309Y022591D01*
X024091Y022591D01*
X024091Y022747D02*
X024309Y022747D01*
X024091Y022119D02*
X024091Y021961D01*
X024091Y022119D02*
X024309Y022119D01*
X024309Y021961D01*
X024091Y021961D01*
X024091Y022117D02*
X024309Y022117D01*
X025959Y023261D02*
X025959Y023419D01*
X025959Y023261D02*
X025741Y023261D01*
X025741Y023419D01*
X025959Y023419D01*
X025959Y023417D02*
X025741Y023417D01*
X025959Y023891D02*
X025959Y024049D01*
X025959Y023891D02*
X025741Y023891D01*
X025741Y024049D01*
X025959Y024049D01*
X025959Y024047D02*
X025741Y024047D01*
X027206Y017514D02*
X027364Y017514D01*
X027364Y017296D01*
X027206Y017296D01*
X027206Y017514D01*
X027206Y017452D02*
X027364Y017452D01*
X027836Y017514D02*
X027994Y017514D01*
X027994Y017296D01*
X027836Y017296D01*
X027836Y017514D01*
X027836Y017452D02*
X027994Y017452D01*
X030309Y017499D02*
X030309Y017341D01*
X030091Y017341D01*
X030091Y017499D01*
X030309Y017499D01*
X030309Y017497D02*
X030091Y017497D01*
X030309Y016869D02*
X030309Y016711D01*
X030091Y016711D01*
X030091Y016869D01*
X030309Y016869D01*
X030309Y016867D02*
X030091Y016867D01*
X022344Y016296D02*
X022186Y016296D01*
X022186Y016514D01*
X022344Y016514D01*
X022344Y016296D01*
X022344Y016452D02*
X022186Y016452D01*
X021714Y016296D02*
X021556Y016296D01*
X021556Y016514D01*
X021714Y016514D01*
X021714Y016296D01*
X021714Y016452D02*
X021556Y016452D01*
X014309Y015649D02*
X014309Y015491D01*
X014091Y015491D01*
X014091Y015649D01*
X014309Y015649D01*
X014309Y015647D02*
X014091Y015647D01*
X014309Y015019D02*
X014309Y014861D01*
X014091Y014861D01*
X014091Y015019D01*
X014309Y015019D01*
X014309Y015017D02*
X014091Y015017D01*
X012709Y019761D02*
X012709Y019919D01*
X012709Y019761D02*
X012491Y019761D01*
X012491Y019919D01*
X012709Y019919D01*
X012709Y019917D02*
X012491Y019917D01*
X012709Y020391D02*
X012709Y020549D01*
X012709Y020391D02*
X012491Y020391D01*
X012491Y020549D01*
X012709Y020549D01*
X012709Y020547D02*
X012491Y020547D01*
X007409Y020549D02*
X007409Y020391D01*
X007191Y020391D01*
X007191Y020549D01*
X007409Y020549D01*
X007409Y020547D02*
X007191Y020547D01*
X007409Y019919D02*
X007409Y019761D01*
X007191Y019761D01*
X007191Y019919D01*
X007409Y019919D01*
X007409Y019917D02*
X007191Y019917D01*
X013009Y009499D02*
X013009Y009341D01*
X012791Y009341D01*
X012791Y009499D01*
X013009Y009499D01*
X013009Y009497D02*
X012791Y009497D01*
X013009Y008869D02*
X013009Y008711D01*
X012791Y008711D01*
X012791Y008869D01*
X013009Y008869D01*
X013009Y008867D02*
X012791Y008867D01*
X015209Y008869D02*
X015209Y008711D01*
X014991Y008711D01*
X014991Y008869D01*
X015209Y008869D01*
X015209Y008867D02*
X014991Y008867D01*
X015209Y009341D02*
X015209Y009499D01*
X015209Y009341D02*
X014991Y009341D01*
X014991Y009499D01*
X015209Y009499D01*
X015209Y009497D02*
X014991Y009497D01*
X015359Y007249D02*
X015359Y007091D01*
X015141Y007091D01*
X015141Y007249D01*
X015359Y007249D01*
X015359Y007247D02*
X015141Y007247D01*
X015359Y006619D02*
X015359Y006461D01*
X015141Y006461D01*
X015141Y006619D01*
X015359Y006619D01*
X015359Y006617D02*
X015141Y006617D01*
X019506Y007364D02*
X019664Y007364D01*
X019664Y007146D01*
X019506Y007146D01*
X019506Y007364D01*
X019506Y007302D02*
X019664Y007302D01*
X020136Y007364D02*
X020294Y007364D01*
X020294Y007146D01*
X020136Y007146D01*
X020136Y007364D01*
X020136Y007302D02*
X020294Y007302D01*
X024159Y007761D02*
X024159Y007919D01*
X024159Y007761D02*
X023941Y007761D01*
X023941Y007919D01*
X024159Y007919D01*
X024159Y007917D02*
X023941Y007917D01*
X024159Y008391D02*
X024159Y008549D01*
X024159Y008391D02*
X023941Y008391D01*
X023941Y008549D01*
X024159Y008549D01*
X024159Y008547D02*
X023941Y008547D01*
X025959Y008549D02*
X025959Y008391D01*
X025741Y008391D01*
X025741Y008549D01*
X025959Y008549D01*
X025959Y008547D02*
X025741Y008547D01*
X025959Y007919D02*
X025959Y007761D01*
X025741Y007761D01*
X025741Y007919D01*
X025959Y007919D01*
X025959Y007917D02*
X025741Y007917D01*
X027506Y005396D02*
X027664Y005396D01*
X027506Y005396D02*
X027506Y005614D01*
X027664Y005614D01*
X027664Y005396D01*
X027664Y005552D02*
X027506Y005552D01*
X028136Y005396D02*
X028294Y005396D01*
X028136Y005396D02*
X028136Y005614D01*
X028294Y005614D01*
X028294Y005396D01*
X028294Y005552D02*
X028136Y005552D01*
X028741Y006161D02*
X028741Y006319D01*
X028959Y006319D01*
X028959Y006161D01*
X028741Y006161D01*
X028741Y006317D02*
X028959Y006317D01*
X028741Y006791D02*
X028741Y006949D01*
X028959Y006949D01*
X028959Y006791D01*
X028741Y006791D01*
X028741Y006947D02*
X028959Y006947D01*
D13*
X013537Y014731D02*
X013537Y014949D01*
X013537Y014731D02*
X013163Y014731D01*
X013163Y014949D01*
X013537Y014949D01*
X013537Y014887D02*
X013163Y014887D01*
X013537Y015361D02*
X013537Y015579D01*
X013537Y015361D02*
X013163Y015361D01*
X013163Y015579D01*
X013537Y015579D01*
X013537Y015517D02*
X013163Y015517D01*
D14*
X013301Y016105D03*
X012199Y016105D03*
X012299Y014205D03*
X013401Y014205D03*
X009251Y017705D03*
X008149Y017705D03*
D15*
X008950Y018286D03*
X008950Y018624D03*
X010950Y017724D03*
X010950Y017386D03*
X014250Y016874D03*
X014250Y016536D03*
X016450Y019486D03*
X016450Y019824D03*
X012300Y023186D03*
X012300Y023524D03*
X024050Y023786D03*
X024050Y024124D03*
X026750Y017174D03*
X026750Y016836D03*
X016500Y007874D03*
X016500Y007536D03*
X019950Y004374D03*
X019950Y004036D03*
X027550Y002324D03*
X027550Y001986D03*
X029550Y006586D03*
X029550Y006924D03*
X009150Y006624D03*
X009150Y006286D03*
D16*
X013875Y008949D03*
X013875Y009461D03*
X008764Y013698D03*
X008764Y014012D03*
X008036Y014012D03*
X008036Y013698D03*
X008036Y015698D03*
X008036Y016012D03*
X008764Y016012D03*
X008764Y015698D03*
X024625Y008511D03*
X024625Y007999D03*
X027525Y006911D03*
X027525Y006399D03*
D17*
X010341Y012818D03*
X010066Y012818D03*
X009269Y012818D03*
X009259Y014392D03*
X009534Y014392D03*
X010331Y014392D03*
X010341Y015268D03*
X010066Y015268D03*
X009269Y015268D03*
X009259Y016842D03*
X009534Y016842D03*
X010331Y016842D03*
D18*
X014700Y016950D03*
X014700Y016360D03*
X012300Y022060D03*
X012300Y022650D03*
X024605Y018205D03*
X024605Y017705D03*
X024605Y017205D03*
X025195Y017205D03*
X025195Y017705D03*
X025195Y018205D03*
X027805Y004205D03*
X028395Y004205D03*
D19*
X017895Y005450D03*
X017895Y006000D03*
X017305Y006000D03*
X017305Y005450D03*
D20*
X017403Y004740D03*
X017206Y004740D03*
X017009Y004740D03*
X017600Y004740D03*
X017797Y004740D03*
X017994Y004740D03*
X018191Y004740D03*
X018191Y006670D03*
X017994Y006670D03*
X017797Y006670D03*
X017600Y006670D03*
X017403Y006670D03*
X017206Y006670D03*
X017009Y006670D03*
D21*
X016635Y006296D03*
X016635Y006099D03*
X016635Y005902D03*
X016635Y005705D03*
X016635Y005508D03*
X016635Y005311D03*
X016635Y005114D03*
X018565Y005114D03*
X018565Y005311D03*
X018565Y005508D03*
X018565Y005705D03*
X018565Y005902D03*
X018565Y006099D03*
X018565Y006296D03*
D22*
X019206Y007887D03*
X019206Y008423D03*
X020394Y008423D03*
X020394Y007887D03*
D23*
X024450Y023580D03*
X025350Y023955D03*
X024450Y024330D03*
D24*
X026536Y022806D03*
D25*
X031015Y022806D03*
D26*
X031103Y019814D03*
D27*
X026398Y019558D03*
D28*
X027501Y022855D03*
X027934Y022855D03*
X028367Y022855D03*
X028800Y022855D03*
X029233Y022855D03*
X029666Y022855D03*
X030099Y022855D03*
X030532Y022855D03*
D29*
X030965Y019223D03*
D30*
X026556Y018603D03*
D31*
X032947Y019093D03*
X032947Y019349D03*
X032947Y019605D03*
X032947Y019861D03*
X032947Y020117D03*
D32*
X011450Y019451D03*
X010962Y019451D03*
X010450Y019451D03*
X009950Y019451D03*
X009450Y019451D03*
X008950Y019451D03*
X008450Y019451D03*
D33*
X009950Y022455D03*
D34*
X013600Y020761D03*
X013600Y018949D03*
D35*
X014525Y009470D03*
X014525Y009205D03*
X014525Y008940D03*
X025275Y008520D03*
X025275Y008255D03*
X025275Y007990D03*
X028175Y006920D03*
X028175Y006655D03*
X028175Y006390D03*
D36*
X029550Y006120D03*
X029550Y005490D03*
X006600Y019840D03*
X006600Y020470D03*
D37*
X017738Y023106D03*
X017935Y023106D03*
X018131Y023106D03*
X018328Y023106D03*
X018525Y023106D03*
X018722Y023106D03*
X018919Y023106D03*
X019116Y023106D03*
X019313Y023106D03*
X019509Y023106D03*
X019706Y023106D03*
X019903Y023106D03*
X020100Y023106D03*
X020297Y023106D03*
X020494Y023106D03*
X020691Y023106D03*
X020887Y023106D03*
X021084Y023106D03*
X021281Y023106D03*
X021478Y023106D03*
X021675Y023106D03*
X021872Y023106D03*
X022069Y023106D03*
X022265Y023106D03*
X022462Y023106D03*
X022462Y017004D03*
X022265Y017004D03*
X022069Y017004D03*
X021872Y017004D03*
X021675Y017004D03*
X021478Y017004D03*
X021281Y017004D03*
X021084Y017004D03*
X020887Y017004D03*
X020691Y017004D03*
X020494Y017004D03*
X020297Y017004D03*
X020100Y017004D03*
X019903Y017004D03*
X019706Y017004D03*
X019509Y017004D03*
X019313Y017004D03*
X019116Y017004D03*
X018919Y017004D03*
X018722Y017004D03*
X018525Y017004D03*
X018328Y017004D03*
X018138Y017004D03*
X017935Y017004D03*
X017731Y017004D03*
D38*
X017049Y017693D03*
X017049Y017890D03*
X017049Y018086D03*
X017049Y018283D03*
X017049Y018480D03*
X017049Y018677D03*
X017049Y018874D03*
X017049Y019071D03*
X017049Y019268D03*
X017049Y019464D03*
X017049Y019661D03*
X017049Y019858D03*
X017049Y020055D03*
X017049Y020252D03*
X017049Y020449D03*
X017049Y020646D03*
X017049Y020842D03*
X017049Y021039D03*
X017049Y021236D03*
X017049Y021433D03*
X017049Y021630D03*
X017049Y021827D03*
X017049Y022024D03*
X017049Y022220D03*
X017049Y022417D03*
X023151Y022417D03*
X023151Y022220D03*
X023151Y022024D03*
X023151Y021827D03*
X023151Y021630D03*
X023151Y021433D03*
X023151Y021236D03*
X023151Y021039D03*
X023151Y020842D03*
X023151Y020646D03*
X023151Y020449D03*
X023151Y020252D03*
X023151Y020055D03*
X023151Y019858D03*
X023151Y019661D03*
X023151Y019464D03*
X023151Y019268D03*
X023151Y019071D03*
X023151Y018874D03*
X023151Y018677D03*
X023151Y018480D03*
X023151Y018283D03*
X023151Y018086D03*
X023151Y017890D03*
X023151Y017693D03*
D39*
X016182Y014247D03*
X016182Y014050D03*
X016182Y013853D03*
X016182Y013657D03*
X016182Y013460D03*
X016182Y013263D03*
X014718Y013263D03*
X014718Y013460D03*
X014718Y013657D03*
X014718Y013853D03*
X014718Y014050D03*
X014718Y014247D03*
D40*
X014958Y014487D03*
X015155Y014487D03*
X015352Y014487D03*
X015548Y014487D03*
X015745Y014487D03*
X015942Y014487D03*
X015942Y013023D03*
X015745Y013023D03*
X015548Y013023D03*
X015352Y013023D03*
X015155Y013023D03*
X014958Y013023D03*
D41*
X015214Y013519D03*
X015214Y013991D03*
X015686Y013991D03*
X015686Y013519D03*
D42*
X005550Y004055D03*
X005550Y007455D03*
D43*
X005550Y005755D03*
D44*
G36*
X015108Y019708D02*
X015358Y019958D01*
X015580Y019736D01*
X015330Y019486D01*
X015108Y019708D01*
G37*
G36*
X014801Y020014D02*
X015051Y020264D01*
X015273Y020042D01*
X015023Y019792D01*
X014801Y020014D01*
G37*
G36*
X015191Y020404D02*
X015441Y020654D01*
X015663Y020432D01*
X015413Y020182D01*
X015191Y020404D01*
G37*
G36*
X015497Y020097D02*
X015747Y020347D01*
X015969Y020125D01*
X015719Y019875D01*
X015497Y020097D01*
G37*
D45*
X022771Y005480D03*
X022771Y005165D03*
X022771Y004850D03*
X022771Y004535D03*
X022771Y004220D03*
X022771Y003905D03*
X022771Y003590D03*
X022771Y003275D03*
X022771Y002960D03*
X022771Y002645D03*
X022771Y002330D03*
X026629Y002330D03*
X026629Y002645D03*
X026629Y002960D03*
X026629Y003275D03*
X026629Y003590D03*
X026629Y003905D03*
X026629Y004220D03*
X026629Y004535D03*
X026629Y004850D03*
X026629Y005165D03*
X026629Y005480D03*
D46*
X026275Y005834D03*
X025960Y005834D03*
X025645Y005834D03*
X025330Y005834D03*
X025015Y005834D03*
X024700Y005834D03*
X024385Y005834D03*
X024070Y005834D03*
X023755Y005834D03*
X023440Y005834D03*
X023125Y005834D03*
X023125Y001976D03*
X023440Y001976D03*
X023755Y001976D03*
X024070Y001976D03*
X024385Y001976D03*
X024700Y001976D03*
X025015Y001976D03*
X025330Y001976D03*
X025645Y001976D03*
X025960Y001976D03*
X026275Y001976D03*
D47*
X025881Y002724D03*
X025291Y002724D03*
X024700Y002724D03*
X024109Y002724D03*
X023519Y002724D03*
X023519Y003314D03*
X024109Y003314D03*
X024700Y003314D03*
X025291Y003314D03*
X025881Y003314D03*
X025881Y003905D03*
X025291Y003905D03*
X025291Y004496D03*
X025881Y004496D03*
X025881Y005086D03*
X025291Y005086D03*
X024700Y005086D03*
X024109Y005086D03*
X023519Y005086D03*
X023519Y004496D03*
X024109Y004496D03*
X024700Y004496D03*
X024700Y003905D03*
X024109Y003905D03*
X023519Y003905D03*
D48*
X013125Y003805D03*
X013125Y004305D03*
X013125Y004805D03*
X013125Y005305D03*
X010675Y005305D03*
X010675Y004805D03*
X010675Y004305D03*
X010675Y003805D03*
D49*
X022965Y001523D02*
X023083Y001523D01*
X023083Y001287D01*
X022965Y001287D01*
X022965Y001523D01*
X022965Y001404D02*
X023083Y001404D01*
X023083Y001521D02*
X022965Y001521D01*
X023517Y001523D02*
X023635Y001523D01*
X023635Y001287D01*
X023517Y001287D01*
X023517Y001523D01*
X023517Y001404D02*
X023635Y001404D01*
X023635Y001521D02*
X023517Y001521D01*
X027718Y002620D02*
X027718Y002738D01*
X027718Y002620D02*
X027482Y002620D01*
X027482Y002738D01*
X027718Y002738D01*
X027718Y002737D02*
X027482Y002737D01*
X027718Y003172D02*
X027718Y003290D01*
X027718Y003172D02*
X027482Y003172D01*
X027482Y003290D01*
X027718Y003290D01*
X027718Y003289D02*
X027482Y003289D01*
D50*
X029544Y012480D03*
X029544Y012795D03*
X029544Y013110D03*
X029544Y013425D03*
X029544Y013740D03*
X029544Y014055D03*
X029544Y014370D03*
X029544Y014685D03*
X029544Y015000D03*
X029544Y015315D03*
X029544Y015630D03*
X025056Y015630D03*
X025056Y015315D03*
X025056Y015000D03*
X025056Y014685D03*
X025056Y014370D03*
X025056Y014055D03*
X025056Y013740D03*
X025056Y013425D03*
X025056Y013110D03*
X025056Y012795D03*
X025056Y012480D03*
D51*
X025725Y011811D03*
X026040Y011811D03*
X026355Y011811D03*
X026670Y011811D03*
X026985Y011811D03*
X027300Y011811D03*
X027615Y011811D03*
X027930Y011811D03*
X028245Y011811D03*
X028560Y011811D03*
X028875Y011811D03*
X028875Y016299D03*
X028560Y016299D03*
X028245Y016299D03*
X027930Y016299D03*
X027615Y016299D03*
X027300Y016299D03*
X026985Y016299D03*
X026670Y016299D03*
X026355Y016299D03*
X026040Y016299D03*
X025725Y016299D03*
D52*
X028538Y017031D03*
X028538Y017779D03*
X029562Y017779D03*
X029562Y017405D03*
X029562Y017031D03*
D53*
X009551Y005750D03*
X009315Y005750D03*
X009551Y005455D03*
X009551Y005160D03*
X009315Y005160D03*
X008815Y005160D03*
X008606Y005160D03*
X008606Y005750D03*
X008815Y005750D03*
D54*
X008852Y005455D03*
X008636Y005455D03*
D55*
X009217Y005455D03*
D56*
X009455Y006323D02*
X009651Y006323D01*
X009651Y006087D01*
X009455Y006087D01*
X009455Y006323D01*
X009455Y006126D02*
X009651Y006126D01*
X009651Y006165D02*
X009455Y006165D01*
X009455Y006204D02*
X009651Y006204D01*
X009651Y006243D02*
X009455Y006243D01*
X009455Y006282D02*
X009651Y006282D01*
X009651Y006321D02*
X009455Y006321D01*
X009849Y006323D02*
X010045Y006323D01*
X010045Y006087D01*
X009849Y006087D01*
X009849Y006323D01*
X009849Y006126D02*
X010045Y006126D01*
X010045Y006165D02*
X009849Y006165D01*
X009849Y006204D02*
X010045Y006204D01*
X010045Y006243D02*
X009849Y006243D01*
X009849Y006282D02*
X010045Y006282D01*
X010045Y006321D02*
X009849Y006321D01*
X009855Y006823D02*
X010051Y006823D01*
X010051Y006587D01*
X009855Y006587D01*
X009855Y006823D01*
X009855Y006626D02*
X010051Y006626D01*
X010051Y006665D02*
X009855Y006665D01*
X009855Y006704D02*
X010051Y006704D01*
X010051Y006743D02*
X009855Y006743D01*
X009855Y006782D02*
X010051Y006782D01*
X010051Y006821D02*
X009855Y006821D01*
X010249Y006823D02*
X010445Y006823D01*
X010445Y006587D01*
X010249Y006587D01*
X010249Y006823D01*
X010249Y006626D02*
X010445Y006626D01*
X010445Y006665D02*
X010249Y006665D01*
X010249Y006704D02*
X010445Y006704D01*
X010445Y006743D02*
X010249Y006743D01*
X010249Y006782D02*
X010445Y006782D01*
X010445Y006821D02*
X010249Y006821D01*
D57*
X024650Y019042D03*
X024650Y019868D03*
X025850Y019868D03*
X025850Y019042D03*
D58*
X025850Y019455D03*
X024650Y019455D03*
D59*
X014409Y007065D03*
X007991Y007065D03*
X007991Y002045D03*
X014409Y002045D03*
D60*
X013710Y001346D03*
X008690Y001346D03*
X008690Y007764D03*
X013710Y007764D03*
D61*
X014409Y004555D03*
X007991Y004555D03*
D62*
X011200Y001346D03*
X011200Y007764D03*
D63*
X023838Y011281D03*
X023838Y011655D03*
X023838Y012029D03*
X024862Y012029D03*
X024862Y011655D03*
X024862Y011281D03*
D64*
X026791Y008605D03*
D65*
X031319Y008605D03*
M02*
