%
M48
M72
T01C0.0100
T02C0.0150
T03C0.0276
T04C0.0280
T05C0.0330
T06C0.0400
T07C0.0600
T08C0.0960
T09C0.1250
%
T01
X250Y2900
X800Y3100
X1000Y3800
X1150Y4700
X1700Y4700
X2250Y4850
X2550Y5100
X3100Y5100
X3800Y5100
X4200Y5200
X4650Y5200
X4500Y5500
X3800Y5900
X3100Y5900
X2550Y5900
X2200Y6250
X1700Y6300
X1150Y6300
X550Y6300
X250Y6450
X1000Y7200
X250Y7850
X250Y8850
X250Y9850
X250Y10250
X1250Y10250
X1250Y9850
X2200Y9850
X2200Y10250
X3200Y10250
X3200Y9850
X4200Y9850
X4200Y10250
X5200Y10250
X5200Y9850
X6200Y9850
X6200Y10250
X7200Y10250
X7200Y9850
X7950Y9350
X7950Y9050
X8350Y9550
X8200Y9850
X8750Y9700
X8850Y9350
X9650Y8950
X9250Y8350
X8850Y8200
X8450Y8150
X8150Y8150
X10050Y8350
X10250Y8150
X10550Y8150
X10850Y8150
X11950Y7850
X12350Y7850
X12700Y7850
X12700Y7050
X12350Y7050
X11950Y7050
X11200Y6750
X11050Y6900
X10700Y7200
X10350Y6900
X10500Y5950
X10700Y5950
X10900Y5950
X11300Y5950
X11500Y5950
X11700Y5950
X11700Y5675
X11700Y5200
X11200Y5050
X10700Y5050
X10200Y5050
X9500Y4800
X9000Y4600
X9000Y4000
X9500Y3800
X10200Y3550
X10700Y3550
X11350Y3350
X11750Y2850
X12000Y2250
X12500Y2250
X13000Y2250
X13500Y2250
X14000Y2250
X14500Y2250
X15000Y2250
X15500Y2250
X16000Y2250
X16500Y2250
X17000Y2250
X17300Y2650
X17850Y2850
X17900Y1900
X17550Y1500
X17000Y1450
X16500Y1450
X16000Y1450
X15500Y1450
X15000Y1450
X14500Y1450
X14000Y1450
X13500Y1450
X13000Y1450
X12500Y1450
X12000Y1450
X11500Y1550
X11100Y1900
X11000Y2500
X10350Y2750
X9450Y2750
X8950Y3050
X8350Y3050
X8000Y3550
X8100Y3950
X8100Y4600
X8000Y5100
X8400Y5550
X8950Y5550
X9450Y5850
X10200Y5850
X12100Y4500
X12650Y5050
X13050Y5450
X13450Y5050
X13450Y5850
X12650Y5850
X14050Y6450
X14400Y6450
X14400Y5850
X14700Y5850
X14750Y5450
X14750Y5150
X14350Y5450
X15550Y5400
X15550Y5050
X14900Y4050
X14500Y4200
X13500Y3850
X13500Y3500
X13050Y3900
X12850Y4050
X13050Y4175
X16000Y6875
X16000Y7125
X16300Y7475
X16700Y7475
X15550Y7625
X14400Y7250
X14050Y7250
X13700Y7900
X13700Y9000
X14150Y10050
X14750Y10050
X15500Y10050
X15450Y10750
X15700Y11600
X15600Y12150
X15300Y12500
X16100Y12000
X17300Y11550
X17550Y11950
X17800Y11550
X18050Y11950
X18300Y11550
X18550Y11400
X18800Y11200
X18100Y11100
X18050Y10650
X18100Y10050
X18750Y9850
X18750Y10250
X19750Y10250
X19750Y10500
X19750Y9850
X20750Y9850
X21200Y10700
X20650Y10800
X20650Y11000
X20950Y11000
X20700Y11600
X20700Y11800
X21490Y12050
X21490Y12250
X19750Y12600
X18550Y12250
X19900Y14180
X19600Y14450
X19600Y14750
X19900Y15050
X20500Y15650
X21100Y15400
X21450Y15050
X20950Y14850
X20950Y14650
X22200Y15350
X22650Y15600
X22850Y15600
X23700Y15400
X24350Y15400
X24800Y16435
X25000Y16435
X25200Y16435
X25550Y15750
X25550Y14265
X25800Y14050
X25850Y13700
X25550Y13450
X25450Y13250
X25450Y13050
X24500Y13050
X24500Y13250
X24450Y12100
X24750Y10250
X24750Y9850
X23750Y9850
X23750Y10250
X22750Y10250
X22750Y9850
X21750Y9850
X21750Y10250
X21300Y8600
X21000Y8600
X20700Y8600
X20400Y8000
X20000Y7400
X19800Y7200
X19500Y7200
X19200Y7200
X19100Y8100
X19100Y8400
X19500Y8750
X20800Y7400
X21000Y7200
X21300Y7200
X21600Y7200
X22650Y6150
X22800Y5750
X22700Y5400
X22700Y5200
X23250Y4600
X24200Y3950
X25000Y4900
X24300Y5700
X23900Y6150
X23950Y6400
X24150Y6900
X24450Y6900
X23650Y6900
X23300Y6400
X21700Y5200
X21700Y4900
X21350Y5150
X21350Y4550
X20750Y5200
X20800Y5950
X19550Y5100
X19550Y4550
X19950Y4450
X20350Y4450
X20350Y4050
X22600Y3000
X23400Y2950
X23450Y2450
X23650Y2450
X23000Y1500
X22600Y1500
X22300Y1750
X21750Y1300
X21100Y1300
X19950Y1150
X19350Y900
X19050Y850
X19200Y250
X18200Y1150
X18100Y250
X17200Y250
X16200Y250
X15200Y250
X14200Y250
X13200Y250
X12200Y250
X11200Y250
X10200Y250
X9200Y250
X8200Y250
X7200Y250
X6200Y250
X5200Y250
X4200Y250
X3200Y250
X2950Y550
X3900Y1550
X4400Y2050
X4850Y2450
X5000Y2350
X5000Y2150
X5000Y1950
X5000Y1750
X4850Y1650
X4700Y1550
X4700Y2550
X3900Y2550
X3050Y2500
X2200Y3200
X550Y4700
X250Y4550
X4000Y4600
X4250Y4600
X4750Y4600
X5100Y4600
X5650Y4150
X6550Y4100
X6750Y4550
X6550Y5000
X5750Y5300
X5350Y5600
X9950Y9550
X10250Y9550
X10550Y9550
X10850Y9550
X11200Y9850
X11200Y10250
X10200Y10250
X10200Y9850
X9200Y10250
X8200Y10250
X7600Y11600
X9650Y12900
X10600Y12450
X10150Y12000
X10350Y11600
X12050Y12900
X12350Y12900
X12650Y13200
X12350Y13500
X12450Y14200
X13250Y14350
X13300Y14000
X11500Y14700
X10800Y14800
X10800Y14550
X10150Y15250
X10150Y15450
X10350Y15750
X9750Y15600
X9550Y15600
X9000Y16400
X8600Y16400
X8800Y16800
X9400Y16600
X10600Y16450
X11350Y17050
X11200Y17250
X10998Y17448
X11050Y17900
X11700Y18200
X11050Y18500
X11400Y18600
X12000Y18900
X13000Y18750
X13000Y18400
X13250Y18400
X13000Y18000
X12100Y16900
X12250Y16700
X13000Y16150
X13200Y15900
X13600Y15900
X13800Y16150
X12800Y15800
X13450Y15450
X14900Y15450
X15750Y15900
X16800Y16150
X17100Y15800
X17550Y15700
X17300Y15300
X16950Y15300
X17800Y15300
X18050Y14700
X18300Y14300
X16600Y14150
X15800Y14150
X18200Y16500
X18550Y16500
X18550Y17000
X18200Y17000
X17750Y17400
X17750Y17650
X17500Y17400
X17200Y17250
X16900Y17250
X16350Y17250
X16100Y17250
X15150Y17250
X14900Y18050
X14650Y18250
X15550Y18800
X16600Y18300
X17000Y18600
X18100Y19000
X18100Y19550
X19450Y19950
X19850Y20350
X20250Y20550
X21300Y19950
X22200Y19300
X21300Y18450
X21650Y17450
X22450Y17150
X22650Y16650
X21800Y16500
X21450Y16500
X24500Y17150
X25000Y17835
X25550Y17450
X25750Y17450
X27400Y18450
X27400Y18750
X27700Y18750
X27700Y18450
X27950Y19750
X27950Y19950
X26750Y20650
X27700Y21350
X26800Y22100
X25950Y21700
X25550Y21700
X25250Y22100
X25000Y22100
X24650Y22000
X23800Y21600
X23350Y22000
X22950Y22000
X21800Y23000
X20950Y23150
X20000Y22450
X19650Y22700
X19300Y22450
X19100Y22700
X18700Y22700
X18450Y22450
X18100Y22050
X18100Y21850
X19050Y22000
X20050Y21600
X21650Y20950
X25000Y23100
X25250Y23100
X24750Y24250
X23750Y24250
X22750Y24250
X21750Y24250
X20750Y24250
X19600Y23300
X19400Y23300
X19150Y24250
X18200Y24250
X17200Y24250
X17300Y23400
X17100Y23250
X17500Y23250
X16500Y23250
X16200Y24250
X15200Y24250
X14750Y23400
X14200Y24250
X13200Y24250
X12800Y23400
X12400Y23400
X12150Y23200
X11750Y23250
X12950Y22850
X13400Y22400
X13650Y23400
X12200Y24250
X11200Y24250
X10200Y24250
X9200Y24250
X8200Y24250
X7200Y24250
X6350Y23800
X6200Y24250
X5400Y23800
X5200Y24250
X4450Y23800
X4200Y24250
X3200Y24250
X3000Y23900
X3300Y22950
X4450Y22200
X5200Y22000
X5600Y22000
X5600Y22400
X5200Y22400
X6350Y22200
X7750Y21450
X7950Y20550
X8150Y20550
X7600Y20350
X7050Y20050
X6350Y20600
X5450Y20600
X4700Y20050
X5250Y19850
X5550Y19850
X4450Y20600
X3600Y20100
X3300Y20300
X2850Y20500
X2650Y20500
X2250Y20550
X2250Y20900
X1850Y20900
X1850Y20550
X1500Y20450
X1300Y21250
X450Y21650
X250Y21300
X250Y20250
X250Y19250
X250Y18250
X250Y17250
X250Y16250
X250Y15250
X250Y14250
X250Y13250
X250Y12250
X250Y11250
X3400Y12350
X3400Y13050
X5050Y11850
X6200Y13500
X7350Y13950
X7750Y14500
X8100Y13950
X9350Y14300
X9450Y14150
X10650Y13750
X10650Y13250
X11150Y13250
X11150Y13750
X8000Y15850
X7650Y15300
X7250Y15850
X7650Y16400
X6400Y16900
X6100Y17150
X5900Y17800
X5650Y18050
X5550Y18550
X5250Y18550
X4350Y17700
X4350Y17450
X4350Y17200
X3950Y17150
X3950Y17450
X3950Y17750
X3250Y17450
X3900Y18550
X3550Y19200
X3300Y19500
X2850Y19300
X2650Y19300
X1500Y19350
X2300Y21350
X3050Y22000
X7350Y19450
X7550Y19450
X7950Y19250
X8150Y19250
X8650Y19150
X9050Y19150
X9450Y19150
X9987Y19249
X10022Y19567
X10164Y20062
X10164Y20416
X9450Y20050
X9250Y20050
X9050Y20050
X8850Y20050
X8650Y20050
X7250Y18900
X7000Y18300
X7000Y17900
X8850Y18250
X9250Y18250
X11600Y20200
X11600Y20550
X11900Y20850
X11750Y21200
X13000Y20450
X13000Y20100
X14550Y19800
X15550Y20800
X14950Y21900
X16350Y22200
X17950Y21000
X16550Y19800
X10600Y21350
X5050Y17450
X6250Y16000
X12200Y10250
X12200Y9850
X12800Y10050
X15700Y9300
X16100Y9450
X16700Y10050
X19500Y5950
X21700Y2400
X19800Y2200
X19400Y2200
X20750Y250
X21750Y250
X22750Y250
X23750Y250
X24750Y250
X25750Y250
X26750Y250
X27050Y550
X26700Y1500
X26950Y2500
X27750Y3150
X28750Y3250
X29750Y2850
X29750Y3850
X29750Y4850
X29750Y5850
X29750Y6850
X29750Y7850
X29750Y8850
X29750Y9850
X29750Y10250
X28750Y10250
X28750Y9850
X27750Y9850
X27750Y10250
X26750Y10250
X26750Y9850
X25750Y9850
X25750Y10250
X29750Y11250
X29750Y12250
X29750Y13250
X29750Y14250
X29750Y15250
X29750Y16250
X29750Y17250
X25950Y19000
X28950Y21300
X29750Y21850
X26700Y23000
X27100Y24000
X26750Y24250
X25750Y24250
X22750Y13800
T02
X25000Y15900
X18850Y15200
X14900Y15850
X8000Y17200
X8000Y18600
X11400Y21550
X11900Y21900
X15650Y23350
X16100Y23350
X1500Y18800
X800Y20800
X700Y15700
X700Y15000
X700Y14200
X700Y13500
X6500Y9200
X7650Y8350
X13900Y8200
X18450Y6550
X19000Y6550
X18700Y7450
X20350Y6150
X21850Y6350
X24350Y5250
X23850Y3450
X23650Y2050
X20450Y1100
X16900Y3650
X14650Y3400
X12950Y2800
X18650Y9100
X22400Y10900
X23050Y10900
X23700Y10900
X24350Y10900
T03
X9550Y21250
X9050Y21250
X9550Y21750
X9550Y22250
X9050Y22250
X9050Y22750
X9550Y22750
X9550Y23250
X9050Y23250
T04
X2350Y16350
X1850Y16350
X1850Y15850
X2350Y15850
X2350Y15350
X1850Y15350
X1850Y14850
X2350Y14850
X2350Y14350
X1850Y14350
X1850Y13850
X2350Y13850
X2350Y13350
X1850Y13350
X1850Y12850
X2350Y12850
T05
X28269Y18395
X28269Y20305
T06
X26700Y17150
X26700Y16150
X26700Y15150
X26700Y14150
X26700Y13150
X26700Y12150
T07
X29450Y17968
X29450Y20732
T08
X2100Y17553
X2100Y11411
T09
X1600Y1600
X28400Y1600
X28400Y22900
X1600Y22900
M30
