G75*
%MOIN*%
%OFA0B0*%
%FSLAX24Y24*%
%IPPOS*%
%LPD*%
%AMOC8*
5,1,8,0,0,1.08239X$1,22.5*
%
%ADD10R,0.0800X0.1050*%
%ADD11R,0.1050X0.0800*%
%ADD12R,0.0244X0.0283*%
%ADD13R,0.0253X0.0304*%
%ADD14R,0.0283X0.0244*%
%ADD15C,0.0205*%
%ADD16R,0.0434X0.0729*%
%ADD17R,0.0304X0.0253*%
%ADD18C,0.1020*%
%ADD19C,0.0480*%
%ADD20R,0.0355X0.0217*%
%ADD21R,0.0237X0.0493*%
%ADD22R,0.0375X0.0375*%
%ADD23R,0.0178X0.0434*%
%ADD24R,0.0434X0.0178*%
%ADD25R,0.1340X0.1260*%
%ADD26R,0.0367X0.0403*%
%ADD27R,0.0410X0.0370*%
%ADD28C,0.0350*%
%ADD29R,0.0563X0.0669*%
%ADD30R,0.0651X0.0651*%
%ADD31R,0.0572X0.0651*%
%ADD32R,0.0375X0.0651*%
%ADD33R,0.0375X0.0611*%
%ADD34R,0.0336X0.0749*%
%ADD35R,0.0651X0.0454*%
%ADD36R,0.0454X0.0651*%
%ADD37R,0.0591X0.0217*%
%ADD38C,0.0960*%
%ADD39C,0.0555*%
%ADD40R,0.0410X0.1009*%
%ADD41R,0.2166X0.3422*%
%ADD42R,0.1005X0.0651*%
%ADD43C,0.1310*%
%ADD44R,0.0454X0.0434*%
%ADD45C,0.0476*%
%ADD46C,0.0296*%
%ADD47R,0.0178X0.0532*%
%ADD48R,0.0532X0.0178*%
%ADD49R,0.0249X0.0151*%
%ADD50R,0.0151X0.0249*%
%ADD51R,0.1084X0.1084*%
%ADD52R,0.0158X0.0188*%
%ADD53R,0.2060X0.1010*%
%ADD54R,0.2060X0.0960*%
%ADD55R,0.0414X0.0375*%
%ADD56R,0.0454X0.0202*%
%ADD57R,0.0202X0.0454*%
%ADD58R,0.0560X0.0360*%
%ADD59C,0.0169*%
%ADD60R,0.0651X0.0257*%
%ADD61R,0.0257X0.0651*%
%ADD62C,0.0660*%
%ADD63R,0.0532X0.0277*%
%ADD64R,0.0454X0.0277*%
%ADD65R,0.0375X0.0277*%
%ADD66R,0.0178X0.0178*%
%ADD67R,0.0283X0.0323*%
%ADD68R,0.0631X0.0375*%
%ADD69R,0.0631X0.0296*%
%ADD70R,0.0454X0.1851*%
%ADD71R,0.1851X0.0454*%
%ADD72R,0.0454X0.1556*%
%ADD73R,0.1556X0.0454*%
%ADD74R,0.0445X0.0331*%
%ADD75R,0.0847X0.2029*%
%ADD76R,0.0729X0.1635*%
D10*
X016250Y000780D03*
X029800Y000780D03*
X015250Y024230D03*
D11*
X005075Y009605D03*
D12*
X007923Y012955D03*
X008277Y012955D03*
X013523Y009955D03*
X013877Y009955D03*
X018473Y007905D03*
X018827Y007905D03*
X019523Y006505D03*
X019877Y006505D03*
X020473Y006605D03*
X020827Y006605D03*
X019877Y006155D03*
X019523Y006155D03*
X019523Y005655D03*
X019523Y005305D03*
X019877Y005305D03*
X019877Y005655D03*
X020473Y005905D03*
X020827Y005905D03*
X018627Y004105D03*
X018627Y003755D03*
X018273Y003755D03*
X018273Y004105D03*
X018427Y003255D03*
X018073Y003255D03*
X018073Y002855D03*
X018427Y002855D03*
X023923Y001405D03*
X024277Y001405D03*
X027623Y006005D03*
X027977Y006005D03*
X024377Y006555D03*
X024023Y006555D03*
X024273Y009005D03*
X024627Y009005D03*
X024523Y010755D03*
X024877Y010755D03*
X025723Y011255D03*
X026077Y011255D03*
X027423Y016905D03*
X027777Y016905D03*
X027627Y017905D03*
X027273Y017905D03*
X023077Y017005D03*
X022723Y017005D03*
X018127Y016405D03*
X017773Y016405D03*
X016377Y018105D03*
X016023Y018105D03*
X015927Y018455D03*
X015573Y018455D03*
X016223Y018855D03*
X016577Y018855D03*
G36*
X014967Y019229D02*
X014795Y019401D01*
X014993Y019599D01*
X015165Y019427D01*
X014967Y019229D01*
G37*
G36*
X014717Y019480D02*
X014545Y019652D01*
X014743Y019850D01*
X014915Y019678D01*
X014717Y019480D01*
G37*
G36*
X015056Y020462D02*
X014884Y020290D01*
X014686Y020488D01*
X014858Y020660D01*
X015056Y020462D01*
G37*
G36*
X015307Y020712D02*
X015135Y020540D01*
X014937Y020738D01*
X015109Y020910D01*
X015307Y020712D01*
G37*
X011327Y018155D03*
X010973Y018155D03*
X016573Y013455D03*
X016927Y013455D03*
X010627Y006305D03*
X010273Y006305D03*
X010273Y005955D03*
X010627Y005955D03*
X033623Y017355D03*
X033977Y017355D03*
X023577Y022705D03*
X023223Y022705D03*
X017927Y023655D03*
X017573Y023655D03*
D13*
X018581Y023655D03*
X018919Y023655D03*
X023781Y019855D03*
X024119Y019855D03*
X024119Y019455D03*
X023781Y019455D03*
X023781Y019055D03*
X024119Y019055D03*
X025631Y018205D03*
X025969Y018205D03*
X025969Y017705D03*
X025631Y017705D03*
X025631Y017205D03*
X025969Y017205D03*
X020619Y016405D03*
X020281Y016405D03*
X017769Y015705D03*
X017431Y015705D03*
X015319Y012255D03*
X014981Y012255D03*
X015181Y011855D03*
X015519Y011855D03*
X008919Y012755D03*
X008581Y012755D03*
X008581Y013155D03*
X008919Y013155D03*
X010981Y018555D03*
X011319Y018555D03*
X023381Y012455D03*
X023719Y012455D03*
X021769Y007255D03*
X021431Y007255D03*
X020819Y006255D03*
X020481Y006255D03*
X027181Y004855D03*
X027519Y004855D03*
X027469Y004205D03*
X027131Y004205D03*
X010319Y007105D03*
X009981Y007105D03*
D14*
X008800Y006632D03*
X008800Y006278D03*
X013400Y008928D03*
X013400Y009282D03*
X015750Y006782D03*
X016100Y006782D03*
X016100Y006428D03*
X015750Y006428D03*
X016900Y007528D03*
X017250Y007528D03*
X017250Y007882D03*
X016900Y007882D03*
X018600Y007282D03*
X018950Y007282D03*
X018950Y006928D03*
X018600Y006928D03*
X020850Y007978D03*
X020850Y008332D03*
X021250Y008332D03*
X021250Y007978D03*
X023350Y011678D03*
X023350Y012032D03*
X024450Y014678D03*
X024450Y015032D03*
X028000Y017878D03*
X028000Y018232D03*
X030100Y014282D03*
X030100Y013928D03*
X026900Y006932D03*
X026900Y006578D03*
X027150Y003032D03*
X027150Y002678D03*
X027150Y002332D03*
X027150Y001978D03*
X014300Y014078D03*
X014300Y014432D03*
X014700Y014878D03*
X014700Y015232D03*
X010750Y014382D03*
X010750Y014028D03*
X010800Y016478D03*
X010800Y016832D03*
X010450Y018278D03*
X010450Y018632D03*
X012000Y019978D03*
X012000Y020332D03*
X007850Y020332D03*
X007850Y019978D03*
X016450Y020478D03*
X016450Y020832D03*
X026350Y023478D03*
X026350Y023832D03*
D15*
X025960Y023891D02*
X025960Y024049D01*
X025740Y024049D01*
X025740Y023891D01*
X025960Y023891D01*
X025960Y024032D02*
X025740Y024032D01*
X025740Y023419D02*
X025960Y023419D01*
X025960Y023261D01*
X025740Y023261D01*
X025740Y023419D01*
X024310Y022749D02*
X024090Y022749D01*
X024090Y022591D01*
X024310Y022591D01*
X024310Y022749D01*
X024310Y022610D02*
X024090Y022610D01*
X024090Y022119D02*
X024090Y021961D01*
X024310Y021961D01*
X024310Y022119D01*
X024090Y022119D01*
X024090Y022000D02*
X024310Y022000D01*
X027206Y017515D02*
X027206Y017295D01*
X027364Y017295D01*
X027364Y017515D01*
X027206Y017515D01*
X027206Y017326D02*
X027364Y017326D01*
X027836Y017326D02*
X027994Y017326D01*
X027994Y017295D02*
X027994Y017515D01*
X027836Y017515D01*
X027836Y017295D01*
X027994Y017295D01*
X030090Y017341D02*
X030310Y017341D01*
X030310Y017499D01*
X030090Y017499D01*
X030090Y017341D01*
X030090Y016869D02*
X030310Y016869D01*
X030310Y016711D01*
X030090Y016711D01*
X030090Y016869D01*
X030090Y016716D02*
X030310Y016716D01*
X022344Y016515D02*
X022344Y016295D01*
X022186Y016295D01*
X022186Y016515D01*
X022344Y016515D01*
X022344Y016513D02*
X022186Y016513D01*
X022186Y016310D02*
X022344Y016310D01*
X021714Y016310D02*
X021556Y016310D01*
X021556Y016295D02*
X021714Y016295D01*
X021714Y016515D01*
X021556Y016515D01*
X021556Y016295D01*
X021556Y016513D02*
X021714Y016513D01*
X014310Y015649D02*
X014310Y015491D01*
X014090Y015491D01*
X014090Y015649D01*
X014310Y015649D01*
X014310Y015497D02*
X014090Y015497D01*
X014090Y015019D02*
X014310Y015019D01*
X014310Y014861D01*
X014090Y014861D01*
X014090Y015019D01*
X014090Y014887D02*
X014310Y014887D01*
X013539Y014887D02*
X013161Y014887D01*
X013161Y014950D02*
X013539Y014950D01*
X013539Y014730D01*
X013161Y014730D01*
X013161Y014950D01*
X013161Y015360D02*
X013539Y015360D01*
X013539Y015580D01*
X013161Y015580D01*
X013161Y015360D01*
X013161Y015497D02*
X013539Y015497D01*
X012710Y019761D02*
X012710Y019919D01*
X012490Y019919D01*
X012490Y019761D01*
X012710Y019761D01*
X012710Y019765D02*
X012490Y019765D01*
X012490Y020391D02*
X012710Y020391D01*
X012710Y020549D01*
X012490Y020549D01*
X012490Y020391D01*
X007410Y020391D02*
X007410Y020549D01*
X007190Y020549D01*
X007190Y020391D01*
X007410Y020391D01*
X007410Y019919D02*
X007190Y019919D01*
X007190Y019761D01*
X007410Y019761D01*
X007410Y019919D01*
X007410Y019765D02*
X007190Y019765D01*
X012790Y009499D02*
X013010Y009499D01*
X013010Y009341D01*
X012790Y009341D01*
X012790Y009499D01*
X012790Y009400D02*
X013010Y009400D01*
X013010Y008869D02*
X012790Y008869D01*
X012790Y008711D01*
X013010Y008711D01*
X013010Y008869D01*
X013010Y008790D02*
X012790Y008790D01*
X014990Y008790D02*
X015210Y008790D01*
X015210Y008711D02*
X015210Y008869D01*
X014990Y008869D01*
X014990Y008711D01*
X015210Y008711D01*
X015210Y009341D02*
X015210Y009499D01*
X014990Y009499D01*
X014990Y009341D01*
X015210Y009341D01*
X015210Y009400D02*
X014990Y009400D01*
X015140Y007249D02*
X015360Y007249D01*
X015360Y007091D01*
X015140Y007091D01*
X015140Y007249D01*
X015140Y007165D02*
X015360Y007165D01*
X015360Y006619D02*
X015140Y006619D01*
X015140Y006461D01*
X015360Y006461D01*
X015360Y006619D01*
X015360Y006555D02*
X015140Y006555D01*
X019506Y007145D02*
X019506Y007365D01*
X019664Y007365D01*
X019664Y007145D01*
X019506Y007145D01*
X019506Y007165D02*
X019664Y007165D01*
X020136Y007165D02*
X020294Y007165D01*
X020294Y007145D02*
X020294Y007365D01*
X020136Y007365D01*
X020136Y007145D01*
X020294Y007145D01*
X023940Y007761D02*
X024160Y007761D01*
X024160Y007919D01*
X023940Y007919D01*
X023940Y007761D01*
X023940Y007774D02*
X024160Y007774D01*
X024160Y008391D02*
X023940Y008391D01*
X023940Y008549D01*
X024160Y008549D01*
X024160Y008391D01*
X025740Y008391D02*
X025960Y008391D01*
X025960Y008549D01*
X025740Y008549D01*
X025740Y008391D01*
X025740Y007919D02*
X025960Y007919D01*
X025960Y007761D01*
X025740Y007761D01*
X025740Y007919D01*
X025740Y007774D02*
X025960Y007774D01*
X028740Y006949D02*
X028740Y006791D01*
X028960Y006791D01*
X028960Y006949D01*
X028740Y006949D01*
X028740Y006319D02*
X028740Y006161D01*
X028960Y006161D01*
X028960Y006319D01*
X028740Y006319D01*
X028294Y005615D02*
X028294Y005395D01*
X028136Y005395D01*
X028136Y005615D01*
X028294Y005615D01*
X028294Y005539D02*
X028136Y005539D01*
X027664Y005539D02*
X027506Y005539D01*
X027506Y005615D02*
X027506Y005395D01*
X027664Y005395D01*
X027664Y005615D01*
X027506Y005615D01*
D16*
X013401Y014205D03*
X012299Y014205D03*
X012199Y016105D03*
X013301Y016105D03*
X009251Y017705D03*
X008149Y017705D03*
D17*
X008950Y018286D03*
X008950Y018624D03*
X010950Y017724D03*
X010950Y017386D03*
X014250Y016874D03*
X014250Y016536D03*
X016450Y019486D03*
X016450Y019824D03*
X012300Y023186D03*
X012300Y023524D03*
X024050Y023786D03*
X024050Y024124D03*
X026750Y017174D03*
X026750Y016836D03*
X016500Y007874D03*
X016500Y007536D03*
X019950Y004374D03*
X019950Y004036D03*
X027550Y002324D03*
X027550Y001986D03*
X029550Y006586D03*
X029550Y006924D03*
X009150Y006624D03*
X009150Y006286D03*
D18*
X006650Y011666D03*
X006650Y017808D03*
D19*
X006400Y016605D02*
X005980Y016605D01*
X005980Y016105D02*
X006400Y016105D01*
X006900Y016105D02*
X007320Y016105D01*
X007320Y015605D02*
X006900Y015605D01*
X006400Y015605D02*
X005980Y015605D01*
X005980Y015105D02*
X006400Y015105D01*
X006900Y015105D02*
X007320Y015105D01*
X007320Y014605D02*
X006900Y014605D01*
X006400Y014605D02*
X005980Y014605D01*
X005980Y014105D02*
X006400Y014105D01*
X006900Y014105D02*
X007320Y014105D01*
X007320Y013605D02*
X006900Y013605D01*
X006400Y013605D02*
X005980Y013605D01*
X005980Y013105D02*
X006400Y013105D01*
X006900Y013105D02*
X007320Y013105D01*
X007320Y016605D02*
X006900Y016605D01*
D20*
X008036Y016012D03*
X008036Y015698D03*
X008764Y015698D03*
X008764Y016012D03*
X008764Y014012D03*
X008764Y013698D03*
X008036Y013698D03*
X008036Y014012D03*
X013875Y009461D03*
X013875Y008949D03*
X014525Y008949D03*
X014525Y009205D03*
X014525Y009461D03*
X024625Y008511D03*
X025275Y008511D03*
X025275Y008255D03*
X025275Y007999D03*
X024625Y007999D03*
X027525Y006911D03*
X027525Y006399D03*
X028175Y006399D03*
X028175Y006655D03*
X028175Y006911D03*
D21*
X010341Y012818D03*
X010066Y012818D03*
X009269Y012818D03*
X009259Y014392D03*
X009534Y014392D03*
X010331Y014392D03*
X010341Y015268D03*
X010066Y015268D03*
X009269Y015268D03*
X009259Y016842D03*
X009534Y016842D03*
X010331Y016842D03*
D22*
X014700Y016950D03*
X014700Y016360D03*
X012300Y022060D03*
X012300Y022650D03*
X024605Y018205D03*
X024605Y017705D03*
X024605Y017205D03*
X025195Y017205D03*
X025195Y017705D03*
X025195Y018205D03*
X027805Y004205D03*
X028395Y004205D03*
D23*
X018191Y004740D03*
X017994Y004740D03*
X017797Y004740D03*
X017600Y004740D03*
X017403Y004740D03*
X017206Y004740D03*
X017009Y004740D03*
X017009Y006670D03*
X017206Y006670D03*
X017403Y006670D03*
X017600Y006670D03*
X017797Y006670D03*
X017994Y006670D03*
X018191Y006670D03*
D24*
X018565Y006296D03*
X018565Y006099D03*
X018565Y005902D03*
X018565Y005705D03*
X018565Y005508D03*
X018565Y005311D03*
X018565Y005114D03*
X016635Y005114D03*
X016635Y005311D03*
X016635Y005508D03*
X016635Y005705D03*
X016635Y005902D03*
X016635Y006099D03*
X016635Y006296D03*
D25*
X017600Y005720D03*
D26*
X019206Y007887D03*
X019206Y008423D03*
X020394Y008423D03*
X020394Y007887D03*
D27*
X024450Y023580D03*
X025350Y023955D03*
X024450Y024330D03*
D28*
X020650Y023605D03*
X020200Y023605D03*
X016450Y022155D03*
X015950Y021805D03*
X012550Y018855D03*
X012550Y017455D03*
X006050Y019055D03*
X005350Y021055D03*
X005250Y015955D03*
X005250Y015255D03*
X005250Y014455D03*
X005250Y013755D03*
X011050Y009455D03*
X012200Y008605D03*
X018450Y008455D03*
X023000Y006805D03*
X023550Y006805D03*
X023250Y007705D03*
X024900Y006405D03*
X026400Y006605D03*
X028900Y005505D03*
X028400Y003705D03*
X028200Y002305D03*
X025000Y001355D03*
X021450Y003905D03*
X019200Y003655D03*
X017500Y003055D03*
X023200Y009355D03*
X026950Y011155D03*
X027600Y011155D03*
X028250Y011155D03*
X028900Y011155D03*
X023400Y015455D03*
X019450Y016105D03*
X029550Y016155D03*
D29*
X027383Y018904D03*
D30*
X026536Y022806D03*
D31*
X031015Y022806D03*
D32*
X031103Y019814D03*
D33*
X026398Y019558D03*
D34*
X027501Y022855D03*
X027934Y022855D03*
X028367Y022855D03*
X028800Y022855D03*
X029233Y022855D03*
X029666Y022855D03*
X030099Y022855D03*
X030532Y022855D03*
D35*
X030965Y019223D03*
D36*
X026556Y018603D03*
D37*
X032947Y019093D03*
X032947Y019349D03*
X032947Y019605D03*
X032947Y019861D03*
X032947Y020117D03*
D38*
X034000Y020987D03*
X034000Y018223D03*
D39*
X032819Y018650D03*
X032819Y020560D03*
D40*
X011450Y019451D03*
X010962Y019451D03*
X010450Y019451D03*
X009950Y019451D03*
X009450Y019451D03*
X008950Y019451D03*
X008450Y019451D03*
D41*
X009950Y022455D03*
D42*
X013600Y020761D03*
X013600Y018949D03*
D43*
X006150Y023155D03*
X032950Y023155D03*
X032950Y001855D03*
X006150Y001855D03*
D44*
X029550Y005490D03*
X029550Y006120D03*
X006600Y019840D03*
X006600Y020470D03*
D45*
X013184Y021505D02*
X013600Y021505D01*
X014100Y021505D02*
X014516Y021505D01*
X014516Y022005D02*
X014100Y022005D01*
X014100Y022505D02*
X014516Y022505D01*
X014516Y023005D02*
X014100Y023005D01*
X013600Y023005D02*
X013184Y023005D01*
X013184Y022505D02*
X013600Y022505D01*
X013600Y023505D02*
X013184Y023505D01*
X014100Y023505D02*
X014516Y023505D01*
D46*
X016550Y021455D03*
X016550Y018455D03*
X016450Y014505D03*
X026800Y018055D03*
X025881Y005086D03*
X025291Y005086D03*
X024700Y005086D03*
X024109Y005086D03*
X023519Y005086D03*
X023519Y004496D03*
X024109Y004496D03*
X024700Y004496D03*
X025291Y004496D03*
X025881Y004496D03*
X025881Y003905D03*
X025291Y003905D03*
X025291Y003314D03*
X025881Y003314D03*
X025881Y002724D03*
X025291Y002724D03*
X024700Y002724D03*
X024109Y002724D03*
X023519Y002724D03*
X023519Y003314D03*
X024109Y003314D03*
X024700Y003314D03*
X024700Y003905D03*
X024109Y003905D03*
X023519Y003905D03*
D47*
X022462Y017004D03*
X022265Y017004D03*
X022069Y017004D03*
X021872Y017004D03*
X021675Y017004D03*
X021478Y017004D03*
X021281Y017004D03*
X021084Y017004D03*
X020887Y017004D03*
X020691Y017004D03*
X020494Y017004D03*
X020297Y017004D03*
X020100Y017004D03*
X019903Y017004D03*
X019706Y017004D03*
X019509Y017004D03*
X019313Y017004D03*
X019116Y017004D03*
X018919Y017004D03*
X018722Y017004D03*
X018525Y017004D03*
X018328Y017004D03*
X018138Y017004D03*
X017935Y017004D03*
X017731Y017004D03*
X017738Y023106D03*
X017935Y023106D03*
X018131Y023106D03*
X018328Y023106D03*
X018525Y023106D03*
X018722Y023106D03*
X018919Y023106D03*
X019116Y023106D03*
X019313Y023106D03*
X019509Y023106D03*
X019706Y023106D03*
X019903Y023106D03*
X020100Y023106D03*
X020297Y023106D03*
X020494Y023106D03*
X020691Y023106D03*
X020887Y023106D03*
X021084Y023106D03*
X021281Y023106D03*
X021478Y023106D03*
X021675Y023106D03*
X021872Y023106D03*
X022069Y023106D03*
X022265Y023106D03*
X022462Y023106D03*
D48*
X023151Y022417D03*
X023151Y022220D03*
X023151Y022024D03*
X023151Y021827D03*
X023151Y021630D03*
X023151Y021433D03*
X023151Y021236D03*
X023151Y021039D03*
X023151Y020842D03*
X023151Y020646D03*
X023151Y020449D03*
X023151Y020252D03*
X023151Y020055D03*
X023151Y019858D03*
X023151Y019661D03*
X023151Y019464D03*
X023151Y019268D03*
X023151Y019071D03*
X023151Y018874D03*
X023151Y018677D03*
X023151Y018480D03*
X023151Y018283D03*
X023151Y018086D03*
X023151Y017890D03*
X023151Y017693D03*
X017049Y017693D03*
X017049Y017890D03*
X017049Y018086D03*
X017049Y018283D03*
X017049Y018480D03*
X017049Y018677D03*
X017049Y018874D03*
X017049Y019071D03*
X017049Y019268D03*
X017049Y019464D03*
X017049Y019661D03*
X017049Y019858D03*
X017049Y020055D03*
X017049Y020252D03*
X017049Y020449D03*
X017049Y020646D03*
X017049Y020842D03*
X017049Y021039D03*
X017049Y021236D03*
X017049Y021433D03*
X017049Y021630D03*
X017049Y021827D03*
X017049Y022024D03*
X017049Y022220D03*
X017049Y022417D03*
D49*
X016182Y014247D03*
X016182Y014050D03*
X016182Y013853D03*
X016182Y013657D03*
X016182Y013460D03*
X016182Y013263D03*
X014718Y013263D03*
X014718Y013460D03*
X014718Y013657D03*
X014718Y013853D03*
X014718Y014050D03*
X014718Y014247D03*
D50*
X014958Y014487D03*
X015155Y014487D03*
X015352Y014487D03*
X015548Y014487D03*
X015745Y014487D03*
X015942Y014487D03*
X015942Y013023D03*
X015745Y013023D03*
X015548Y013023D03*
X015352Y013023D03*
X015155Y013023D03*
X014958Y013023D03*
D51*
X015450Y013755D03*
D52*
X017600Y003918D03*
X017797Y003918D03*
X017797Y003692D03*
X017600Y003692D03*
X017403Y003805D03*
D53*
X005550Y004055D03*
X005550Y007455D03*
D54*
X005550Y005755D03*
D55*
G36*
X015066Y019708D02*
X015358Y020000D01*
X015622Y019736D01*
X015330Y019444D01*
X015066Y019708D01*
G37*
G36*
X014759Y020014D02*
X015051Y020306D01*
X015315Y020042D01*
X015023Y019750D01*
X014759Y020014D01*
G37*
G36*
X015149Y020404D02*
X015441Y020696D01*
X015705Y020432D01*
X015413Y020140D01*
X015149Y020404D01*
G37*
G36*
X015455Y020097D02*
X015747Y020389D01*
X016011Y020125D01*
X015719Y019833D01*
X015455Y020097D01*
G37*
D56*
X022771Y005480D03*
X022771Y005165D03*
X022771Y004850D03*
X022771Y004535D03*
X022771Y004220D03*
X022771Y003905D03*
X022771Y003590D03*
X022771Y003275D03*
X022771Y002960D03*
X022771Y002645D03*
X022771Y002330D03*
X026629Y002330D03*
X026629Y002645D03*
X026629Y002960D03*
X026629Y003275D03*
X026629Y003590D03*
X026629Y003905D03*
X026629Y004220D03*
X026629Y004535D03*
X026629Y004850D03*
X026629Y005165D03*
X026629Y005480D03*
D57*
X026275Y005834D03*
X025960Y005834D03*
X025645Y005834D03*
X025330Y005834D03*
X025015Y005834D03*
X024700Y005834D03*
X024385Y005834D03*
X024070Y005834D03*
X023755Y005834D03*
X023440Y005834D03*
X023125Y005834D03*
X023125Y001976D03*
X023440Y001976D03*
X023755Y001976D03*
X024070Y001976D03*
X024385Y001976D03*
X024700Y001976D03*
X025015Y001976D03*
X025330Y001976D03*
X025645Y001976D03*
X025960Y001976D03*
X026275Y001976D03*
D58*
X013125Y003805D03*
X013125Y004305D03*
X013125Y004805D03*
X013125Y005305D03*
X010675Y005305D03*
X010675Y004805D03*
X010675Y004305D03*
X010675Y003805D03*
D59*
X022967Y001521D02*
X022967Y001289D01*
X023081Y001289D01*
X023081Y001521D01*
X022967Y001521D01*
X023519Y001521D02*
X023519Y001289D01*
X023633Y001289D01*
X023633Y001521D01*
X023519Y001521D01*
X027484Y002622D02*
X027716Y002622D01*
X027716Y002736D01*
X027484Y002736D01*
X027484Y002622D01*
X027484Y003174D02*
X027716Y003174D01*
X027716Y003288D01*
X027484Y003288D01*
X027484Y003174D01*
D60*
X029544Y012480D03*
X029544Y012795D03*
X029544Y013110D03*
X029544Y013425D03*
X029544Y013740D03*
X029544Y014055D03*
X029544Y014370D03*
X029544Y014685D03*
X029544Y015000D03*
X029544Y015315D03*
X029544Y015630D03*
X025056Y015630D03*
X025056Y015315D03*
X025056Y015000D03*
X025056Y014685D03*
X025056Y014370D03*
X025056Y014055D03*
X025056Y013740D03*
X025056Y013425D03*
X025056Y013110D03*
X025056Y012795D03*
X025056Y012480D03*
D61*
X025725Y011811D03*
X026040Y011811D03*
X026355Y011811D03*
X026670Y011811D03*
X026985Y011811D03*
X027300Y011811D03*
X027615Y011811D03*
X027930Y011811D03*
X028245Y011811D03*
X028560Y011811D03*
X028875Y011811D03*
X028875Y016299D03*
X028560Y016299D03*
X028245Y016299D03*
X027930Y016299D03*
X027615Y016299D03*
X027300Y016299D03*
X026985Y016299D03*
X026670Y016299D03*
X026355Y016299D03*
X026040Y016299D03*
X025725Y016299D03*
D62*
X030950Y016405D02*
X031550Y016405D01*
X031550Y015405D02*
X030950Y015405D01*
X030950Y014405D02*
X031550Y014405D01*
X031550Y013405D02*
X030950Y013405D01*
X030950Y012405D02*
X031550Y012405D01*
X031550Y017405D02*
X030950Y017405D01*
D63*
X029562Y017405D03*
X029562Y017031D03*
X029562Y017779D03*
X028538Y017779D03*
X028538Y017031D03*
D64*
X008744Y005455D03*
D65*
X009217Y005455D03*
D66*
X009315Y005160D03*
X009551Y005160D03*
X009551Y005455D03*
X009551Y005750D03*
X009315Y005750D03*
X008815Y005750D03*
X008606Y005750D03*
X008606Y005160D03*
X008815Y005160D03*
D67*
X009553Y006205D03*
X009947Y006205D03*
X009953Y006705D03*
X010347Y006705D03*
D68*
X024650Y019042D03*
X024650Y019868D03*
X025850Y019868D03*
X025850Y019042D03*
D69*
X025850Y019455D03*
X024650Y019455D03*
D70*
X014409Y007065D03*
X007991Y007065D03*
X007991Y002045D03*
X014409Y002045D03*
D71*
X013710Y001346D03*
X008690Y001346D03*
X008690Y007764D03*
X013710Y007764D03*
D72*
X014409Y004555D03*
X007991Y004555D03*
D73*
X011200Y001346D03*
X011200Y007764D03*
D74*
X023838Y011281D03*
X023838Y011655D03*
X023838Y012029D03*
X024862Y012029D03*
X024862Y011655D03*
X024862Y011281D03*
D75*
X026791Y008605D03*
D76*
X031319Y008605D03*
M02*
