G75*
%MOIN*%
%OFA0B0*%
%FSLAX24Y24*%
%IPPOS*%
%LPD*%
%AMOC8*
5,1,8,0,0,1.08239X$1,22.5*
%
%ADD10C,0.0000*%
%ADD11C,0.0080*%
%ADD12C,0.0050*%
%ADD13C,0.0020*%
%ADD14R,0.0059X0.0217*%
%ADD15C,0.0004*%
%ADD16C,0.0039*%
%ADD17R,0.0079X0.0197*%
%ADD18R,0.0217X0.0059*%
%ADD19C,0.0031*%
%ADD20R,0.0315X0.0081*%
%ADD21R,0.0081X0.0315*%
%ADD22C,0.0059*%
%ADD23R,0.0472X0.0148*%
%ADD24C,0.0079*%
%ADD25R,0.0197X0.0079*%
%ADD26C,0.0040*%
%ADD27C,0.0020*%
%ADD28R,0.0079X0.0059*%
%ADD29R,0.0020X0.0020*%
%ADD30R,0.0020X0.0148*%
%ADD31R,0.0079X0.0118*%
%ADD32R,0.0354X0.0089*%
%ADD33R,0.0217X0.0089*%
%ADD34R,0.0039X0.0039*%
%ADD35R,0.0098X0.0098*%
%ADD36R,0.0197X0.0098*%
%ADD37R,0.0098X0.0197*%
%ADD38C,0.0118*%
%ADD39R,0.0256X0.0197*%
%ADD40R,0.0079X0.0079*%
%ADD41C,0.0100*%
%ADD42C,0.0060*%
%ADD43R,0.0315X0.0079*%
%ADD44R,0.0087X0.0433*%
%ADD45R,0.0433X0.0087*%
%ADD46R,0.0059X0.0079*%
%ADD47R,0.0148X0.0020*%
%ADD48R,0.0118X0.0079*%
%ADD49R,0.0089X0.0354*%
%ADD50R,0.0089X0.0217*%
%ADD51R,0.0472X0.0157*%
%ADD52R,0.0157X0.0472*%
%ADD53R,0.0200X0.0200*%
%ADD54C,0.0012*%
%ADD55R,0.0118X0.0118*%
%ADD56C,0.0126*%
%ADD57R,0.0236X0.0197*%
D10*
X000000Y000000D02*
X030000Y000000D01*
X030000Y024500D01*
X000000Y024500D01*
X000000Y000000D01*
X000975Y001600D02*
X000977Y001650D01*
X000983Y001699D01*
X000993Y001748D01*
X001006Y001795D01*
X001024Y001842D01*
X001045Y001887D01*
X001069Y001930D01*
X001097Y001971D01*
X001128Y002010D01*
X001162Y002046D01*
X001199Y002080D01*
X001239Y002110D01*
X001280Y002137D01*
X001324Y002161D01*
X001369Y002181D01*
X001416Y002197D01*
X001464Y002210D01*
X001513Y002219D01*
X001563Y002224D01*
X001612Y002225D01*
X001662Y002222D01*
X001711Y002215D01*
X001760Y002204D01*
X001807Y002190D01*
X001853Y002171D01*
X001898Y002149D01*
X001941Y002124D01*
X001981Y002095D01*
X002019Y002063D01*
X002055Y002029D01*
X002088Y001991D01*
X002117Y001951D01*
X002143Y001909D01*
X002166Y001865D01*
X002185Y001819D01*
X002201Y001772D01*
X002213Y001723D01*
X002221Y001674D01*
X002225Y001625D01*
X002225Y001575D01*
X002221Y001526D01*
X002213Y001477D01*
X002201Y001428D01*
X002185Y001381D01*
X002166Y001335D01*
X002143Y001291D01*
X002117Y001249D01*
X002088Y001209D01*
X002055Y001171D01*
X002019Y001137D01*
X001981Y001105D01*
X001941Y001076D01*
X001898Y001051D01*
X001853Y001029D01*
X001807Y001010D01*
X001760Y000996D01*
X001711Y000985D01*
X001662Y000978D01*
X001612Y000975D01*
X001563Y000976D01*
X001513Y000981D01*
X001464Y000990D01*
X001416Y001003D01*
X001369Y001019D01*
X001324Y001039D01*
X001280Y001063D01*
X001239Y001090D01*
X001199Y001120D01*
X001162Y001154D01*
X001128Y001190D01*
X001097Y001229D01*
X001069Y001270D01*
X001045Y001313D01*
X001024Y001358D01*
X001006Y001405D01*
X000993Y001452D01*
X000983Y001501D01*
X000977Y001550D01*
X000975Y001600D01*
X001620Y011411D02*
X001622Y011455D01*
X001628Y011498D01*
X001638Y011541D01*
X001651Y011582D01*
X001669Y011622D01*
X001690Y011660D01*
X001714Y011697D01*
X001742Y011731D01*
X001772Y011762D01*
X001806Y011790D01*
X001841Y011815D01*
X001879Y011837D01*
X001919Y011856D01*
X001960Y011870D01*
X002002Y011881D01*
X002045Y011888D01*
X002089Y011891D01*
X002133Y011890D01*
X002176Y011885D01*
X002219Y011876D01*
X002261Y011863D01*
X002301Y011847D01*
X002340Y011827D01*
X002377Y011803D01*
X002411Y011776D01*
X002443Y011747D01*
X002472Y011714D01*
X002498Y011679D01*
X002521Y011641D01*
X002540Y011602D01*
X002556Y011561D01*
X002568Y011519D01*
X002576Y011476D01*
X002580Y011433D01*
X002580Y011389D01*
X002576Y011346D01*
X002568Y011303D01*
X002556Y011261D01*
X002540Y011220D01*
X002521Y011181D01*
X002498Y011143D01*
X002472Y011108D01*
X002443Y011075D01*
X002411Y011046D01*
X002377Y011019D01*
X002340Y010995D01*
X002301Y010975D01*
X002261Y010959D01*
X002219Y010946D01*
X002176Y010937D01*
X002133Y010932D01*
X002089Y010931D01*
X002045Y010934D01*
X002002Y010941D01*
X001960Y010952D01*
X001919Y010966D01*
X001879Y010985D01*
X001841Y011007D01*
X001806Y011032D01*
X001772Y011060D01*
X001742Y011091D01*
X001714Y011125D01*
X001690Y011162D01*
X001669Y011200D01*
X001651Y011240D01*
X001638Y011281D01*
X001628Y011324D01*
X001622Y011367D01*
X001620Y011411D01*
X001620Y017553D02*
X001622Y017597D01*
X001628Y017640D01*
X001638Y017683D01*
X001651Y017724D01*
X001669Y017764D01*
X001690Y017802D01*
X001714Y017839D01*
X001742Y017873D01*
X001772Y017904D01*
X001806Y017932D01*
X001841Y017957D01*
X001879Y017979D01*
X001919Y017998D01*
X001960Y018012D01*
X002002Y018023D01*
X002045Y018030D01*
X002089Y018033D01*
X002133Y018032D01*
X002176Y018027D01*
X002219Y018018D01*
X002261Y018005D01*
X002301Y017989D01*
X002340Y017969D01*
X002377Y017945D01*
X002411Y017918D01*
X002443Y017889D01*
X002472Y017856D01*
X002498Y017821D01*
X002521Y017783D01*
X002540Y017744D01*
X002556Y017703D01*
X002568Y017661D01*
X002576Y017618D01*
X002580Y017575D01*
X002580Y017531D01*
X002576Y017488D01*
X002568Y017445D01*
X002556Y017403D01*
X002540Y017362D01*
X002521Y017323D01*
X002498Y017285D01*
X002472Y017250D01*
X002443Y017217D01*
X002411Y017188D01*
X002377Y017161D01*
X002340Y017137D01*
X002301Y017117D01*
X002261Y017101D01*
X002219Y017088D01*
X002176Y017079D01*
X002133Y017074D01*
X002089Y017073D01*
X002045Y017076D01*
X002002Y017083D01*
X001960Y017094D01*
X001919Y017108D01*
X001879Y017127D01*
X001841Y017149D01*
X001806Y017174D01*
X001772Y017202D01*
X001742Y017233D01*
X001714Y017267D01*
X001690Y017304D01*
X001669Y017342D01*
X001651Y017382D01*
X001638Y017423D01*
X001628Y017466D01*
X001622Y017509D01*
X001620Y017553D01*
X000975Y022900D02*
X000977Y022950D01*
X000983Y022999D01*
X000993Y023048D01*
X001006Y023095D01*
X001024Y023142D01*
X001045Y023187D01*
X001069Y023230D01*
X001097Y023271D01*
X001128Y023310D01*
X001162Y023346D01*
X001199Y023380D01*
X001239Y023410D01*
X001280Y023437D01*
X001324Y023461D01*
X001369Y023481D01*
X001416Y023497D01*
X001464Y023510D01*
X001513Y023519D01*
X001563Y023524D01*
X001612Y023525D01*
X001662Y023522D01*
X001711Y023515D01*
X001760Y023504D01*
X001807Y023490D01*
X001853Y023471D01*
X001898Y023449D01*
X001941Y023424D01*
X001981Y023395D01*
X002019Y023363D01*
X002055Y023329D01*
X002088Y023291D01*
X002117Y023251D01*
X002143Y023209D01*
X002166Y023165D01*
X002185Y023119D01*
X002201Y023072D01*
X002213Y023023D01*
X002221Y022974D01*
X002225Y022925D01*
X002225Y022875D01*
X002221Y022826D01*
X002213Y022777D01*
X002201Y022728D01*
X002185Y022681D01*
X002166Y022635D01*
X002143Y022591D01*
X002117Y022549D01*
X002088Y022509D01*
X002055Y022471D01*
X002019Y022437D01*
X001981Y022405D01*
X001941Y022376D01*
X001898Y022351D01*
X001853Y022329D01*
X001807Y022310D01*
X001760Y022296D01*
X001711Y022285D01*
X001662Y022278D01*
X001612Y022275D01*
X001563Y022276D01*
X001513Y022281D01*
X001464Y022290D01*
X001416Y022303D01*
X001369Y022319D01*
X001324Y022339D01*
X001280Y022363D01*
X001239Y022390D01*
X001199Y022420D01*
X001162Y022454D01*
X001128Y022490D01*
X001097Y022529D01*
X001069Y022570D01*
X001045Y022613D01*
X001024Y022658D01*
X001006Y022705D01*
X000993Y022752D01*
X000983Y022801D01*
X000977Y022850D01*
X000975Y022900D01*
X027775Y022900D02*
X027777Y022950D01*
X027783Y022999D01*
X027793Y023048D01*
X027806Y023095D01*
X027824Y023142D01*
X027845Y023187D01*
X027869Y023230D01*
X027897Y023271D01*
X027928Y023310D01*
X027962Y023346D01*
X027999Y023380D01*
X028039Y023410D01*
X028080Y023437D01*
X028124Y023461D01*
X028169Y023481D01*
X028216Y023497D01*
X028264Y023510D01*
X028313Y023519D01*
X028363Y023524D01*
X028412Y023525D01*
X028462Y023522D01*
X028511Y023515D01*
X028560Y023504D01*
X028607Y023490D01*
X028653Y023471D01*
X028698Y023449D01*
X028741Y023424D01*
X028781Y023395D01*
X028819Y023363D01*
X028855Y023329D01*
X028888Y023291D01*
X028917Y023251D01*
X028943Y023209D01*
X028966Y023165D01*
X028985Y023119D01*
X029001Y023072D01*
X029013Y023023D01*
X029021Y022974D01*
X029025Y022925D01*
X029025Y022875D01*
X029021Y022826D01*
X029013Y022777D01*
X029001Y022728D01*
X028985Y022681D01*
X028966Y022635D01*
X028943Y022591D01*
X028917Y022549D01*
X028888Y022509D01*
X028855Y022471D01*
X028819Y022437D01*
X028781Y022405D01*
X028741Y022376D01*
X028698Y022351D01*
X028653Y022329D01*
X028607Y022310D01*
X028560Y022296D01*
X028511Y022285D01*
X028462Y022278D01*
X028412Y022275D01*
X028363Y022276D01*
X028313Y022281D01*
X028264Y022290D01*
X028216Y022303D01*
X028169Y022319D01*
X028124Y022339D01*
X028080Y022363D01*
X028039Y022390D01*
X027999Y022420D01*
X027962Y022454D01*
X027928Y022490D01*
X027897Y022529D01*
X027869Y022570D01*
X027845Y022613D01*
X027824Y022658D01*
X027806Y022705D01*
X027793Y022752D01*
X027783Y022801D01*
X027777Y022850D01*
X027775Y022900D01*
X027775Y001600D02*
X027777Y001650D01*
X027783Y001699D01*
X027793Y001748D01*
X027806Y001795D01*
X027824Y001842D01*
X027845Y001887D01*
X027869Y001930D01*
X027897Y001971D01*
X027928Y002010D01*
X027962Y002046D01*
X027999Y002080D01*
X028039Y002110D01*
X028080Y002137D01*
X028124Y002161D01*
X028169Y002181D01*
X028216Y002197D01*
X028264Y002210D01*
X028313Y002219D01*
X028363Y002224D01*
X028412Y002225D01*
X028462Y002222D01*
X028511Y002215D01*
X028560Y002204D01*
X028607Y002190D01*
X028653Y002171D01*
X028698Y002149D01*
X028741Y002124D01*
X028781Y002095D01*
X028819Y002063D01*
X028855Y002029D01*
X028888Y001991D01*
X028917Y001951D01*
X028943Y001909D01*
X028966Y001865D01*
X028985Y001819D01*
X029001Y001772D01*
X029013Y001723D01*
X029021Y001674D01*
X029025Y001625D01*
X029025Y001575D01*
X029021Y001526D01*
X029013Y001477D01*
X029001Y001428D01*
X028985Y001381D01*
X028966Y001335D01*
X028943Y001291D01*
X028917Y001249D01*
X028888Y001209D01*
X028855Y001171D01*
X028819Y001137D01*
X028781Y001105D01*
X028741Y001076D01*
X028698Y001051D01*
X028653Y001029D01*
X028607Y001010D01*
X028560Y000996D01*
X028511Y000985D01*
X028462Y000978D01*
X028412Y000975D01*
X028363Y000976D01*
X028313Y000981D01*
X028264Y000990D01*
X028216Y001003D01*
X028169Y001019D01*
X028124Y001039D01*
X028080Y001063D01*
X028039Y001090D01*
X027999Y001120D01*
X027962Y001154D01*
X027928Y001190D01*
X027897Y001229D01*
X027869Y001270D01*
X027845Y001313D01*
X027824Y001358D01*
X027806Y001405D01*
X027793Y001452D01*
X027783Y001501D01*
X027777Y001550D01*
X027775Y001600D01*
D11*
X027840Y003690D02*
X027840Y003850D01*
X027893Y003904D01*
X028000Y003904D01*
X028053Y003850D01*
X028053Y003690D01*
X028160Y003690D02*
X027840Y003690D01*
X027667Y003690D02*
X027667Y003743D01*
X027613Y003797D01*
X027346Y003797D01*
X027240Y003797D02*
X027186Y003797D01*
X027293Y003936D02*
X027507Y003936D01*
X027560Y003989D01*
X027560Y004096D01*
X027507Y004149D01*
X027400Y004149D01*
X027400Y004042D01*
X027293Y003936D02*
X027240Y003989D01*
X027240Y004096D01*
X027293Y004149D01*
X027240Y004304D02*
X027240Y004464D01*
X027293Y004517D01*
X027400Y004517D01*
X027453Y004464D01*
X027453Y004304D01*
X027560Y004304D02*
X027240Y004304D01*
X027293Y004672D02*
X027346Y004672D01*
X027400Y004726D01*
X027400Y004832D01*
X027453Y004886D01*
X027507Y004886D01*
X027560Y004832D01*
X027560Y004726D01*
X027507Y004672D01*
X027293Y004672D02*
X027240Y004726D01*
X027240Y004832D01*
X027293Y004886D01*
X027400Y005409D02*
X027400Y005622D01*
X027293Y005516D02*
X027507Y005516D01*
X027946Y005593D02*
X027946Y005753D01*
X028000Y005806D01*
X028160Y005806D01*
X028107Y005961D02*
X028000Y005961D01*
X027946Y006015D01*
X027946Y006175D01*
X027840Y006175D02*
X028160Y006175D01*
X028160Y006015D01*
X028107Y005961D01*
X028160Y005593D02*
X027946Y005593D01*
X028000Y005438D02*
X028160Y005438D01*
X028160Y005278D01*
X028107Y005225D01*
X028053Y005278D01*
X028053Y005438D01*
X028000Y005438D02*
X027946Y005385D01*
X027946Y005278D01*
X027840Y005032D02*
X028160Y005032D01*
X028160Y004979D02*
X028160Y005086D01*
X028160Y004840D02*
X028107Y004787D01*
X027893Y004787D01*
X027946Y004734D02*
X027946Y004840D01*
X027840Y004979D02*
X027840Y005032D01*
X027946Y004587D02*
X027946Y004533D01*
X028053Y004427D01*
X028160Y004427D02*
X027946Y004427D01*
X028000Y004272D02*
X027946Y004218D01*
X027946Y004112D01*
X028000Y004058D01*
X028107Y004058D01*
X028160Y004112D01*
X028160Y004218D01*
X028107Y004272D01*
X028000Y004272D01*
X028493Y004357D02*
X028707Y004357D01*
X028760Y004411D01*
X028760Y004549D02*
X028760Y004710D01*
X028707Y004763D01*
X028600Y004763D01*
X028546Y004710D01*
X028546Y004549D01*
X028867Y004549D01*
X029146Y004587D02*
X029146Y004427D01*
X029360Y004427D01*
X029253Y004272D02*
X029253Y004058D01*
X029200Y004058D02*
X029146Y004112D01*
X029146Y004218D01*
X029200Y004272D01*
X029253Y004272D01*
X029360Y004218D02*
X029360Y004112D01*
X029307Y004058D01*
X029200Y004058D01*
X029040Y003904D02*
X029040Y003797D01*
X029040Y003850D02*
X029307Y003850D01*
X029360Y003797D01*
X029360Y003743D01*
X029307Y003690D01*
X028760Y003690D02*
X028440Y003690D01*
X028546Y003743D02*
X028600Y003690D01*
X028546Y003743D02*
X028546Y003850D01*
X028600Y003904D01*
X028760Y003904D01*
X028707Y004112D02*
X028760Y004165D01*
X028707Y004112D02*
X028493Y004112D01*
X028546Y004165D02*
X028546Y004058D01*
X028546Y004304D02*
X028546Y004411D01*
X028546Y004918D02*
X028600Y004918D01*
X028600Y004971D01*
X028546Y004971D01*
X028546Y004918D01*
X028707Y004918D02*
X028760Y004918D01*
X028760Y004971D01*
X028707Y004971D01*
X028707Y004918D01*
X028760Y005102D02*
X028440Y005315D01*
X028760Y005470D02*
X028440Y005684D01*
X028546Y005839D02*
X028546Y005999D01*
X028600Y006052D01*
X028707Y006052D01*
X028760Y005999D01*
X028760Y005839D01*
X028867Y005839D02*
X028546Y005839D01*
X028600Y006207D02*
X028546Y006260D01*
X028546Y006420D01*
X028653Y006367D02*
X028653Y006260D01*
X028600Y006207D01*
X028760Y006207D02*
X028760Y006367D01*
X028707Y006420D01*
X028653Y006367D01*
X028707Y006575D02*
X028653Y006629D01*
X028653Y006789D01*
X028600Y006789D02*
X028760Y006789D01*
X028760Y006629D01*
X028707Y006575D01*
X028546Y006629D02*
X028546Y006735D01*
X028600Y006789D01*
X028600Y006943D02*
X028546Y006997D01*
X028546Y007157D01*
X028653Y007104D02*
X028707Y007157D01*
X028760Y007104D01*
X028760Y006943D01*
X028653Y006997D02*
X028600Y006943D01*
X028653Y006997D02*
X028653Y007104D01*
X028707Y007312D02*
X028707Y007365D01*
X028760Y007365D01*
X028760Y007312D01*
X028707Y007312D01*
X028760Y007496D02*
X028760Y007656D01*
X028707Y007709D01*
X028600Y007709D01*
X028546Y007656D01*
X028546Y007496D01*
X028867Y007496D01*
X028986Y007733D02*
X029040Y007733D01*
X029146Y007733D02*
X029360Y007733D01*
X029360Y007680D02*
X029360Y007787D01*
X029146Y007733D02*
X029146Y007680D01*
X029200Y007525D02*
X029360Y007525D01*
X029200Y007525D02*
X029146Y007472D01*
X029146Y007312D01*
X029360Y007312D01*
X029360Y007157D02*
X029200Y007157D01*
X029146Y007104D01*
X029146Y006943D01*
X029360Y006943D01*
X029360Y006789D02*
X029360Y006629D01*
X029307Y006575D01*
X029253Y006629D01*
X029253Y006789D01*
X029200Y006789D02*
X029360Y006789D01*
X029200Y006789D02*
X029146Y006735D01*
X029146Y006629D01*
X029200Y006420D02*
X029200Y006207D01*
X029360Y006207D02*
X029040Y006207D01*
X029040Y006420D02*
X029360Y006420D01*
X029146Y005692D02*
X029146Y005638D01*
X029253Y005532D01*
X029360Y005532D02*
X029146Y005532D01*
X029200Y005377D02*
X029253Y005377D01*
X029253Y005163D01*
X029200Y005163D02*
X029146Y005217D01*
X029146Y005323D01*
X029200Y005377D01*
X029360Y005323D02*
X029360Y005217D01*
X029307Y005163D01*
X029200Y005163D01*
X029200Y005008D02*
X029360Y005008D01*
X029200Y005008D02*
X029146Y004955D01*
X029146Y004795D01*
X029360Y004795D01*
X029360Y004640D02*
X029200Y004640D01*
X029146Y004587D01*
X027560Y006199D02*
X027560Y006306D01*
X027507Y006359D01*
X027507Y006514D02*
X027560Y006567D01*
X027560Y006674D01*
X027507Y006727D01*
X027293Y006727D01*
X027240Y006674D01*
X027240Y006567D01*
X027293Y006514D01*
X027507Y006514D01*
X027293Y006359D02*
X027240Y006306D01*
X027240Y006199D01*
X027293Y006145D01*
X027507Y006145D01*
X027560Y006199D01*
X027893Y006698D02*
X027946Y006698D01*
X028000Y006751D01*
X028000Y006858D01*
X028053Y006911D01*
X028107Y006911D01*
X028160Y006858D01*
X028160Y006751D01*
X028107Y006698D01*
X027893Y006698D02*
X027840Y006751D01*
X027840Y006858D01*
X027893Y006911D01*
X027946Y007066D02*
X027946Y007173D01*
X027893Y007120D02*
X028107Y007120D01*
X028160Y007173D01*
X028107Y007312D02*
X028053Y007365D01*
X028053Y007525D01*
X028000Y007525D02*
X028160Y007525D01*
X028160Y007365D01*
X028107Y007312D01*
X027946Y007365D02*
X027946Y007472D01*
X028000Y007525D01*
X027946Y007680D02*
X027946Y007787D01*
X027893Y007733D02*
X028107Y007733D01*
X028160Y007787D01*
X028107Y007926D02*
X028000Y007926D01*
X027946Y007979D01*
X027946Y008086D01*
X028000Y008139D01*
X028053Y008139D01*
X028053Y007926D01*
X028107Y007926D02*
X028160Y007979D01*
X028160Y008086D01*
X028440Y008078D02*
X028760Y008078D01*
X028760Y007918D01*
X028707Y007864D01*
X028600Y007864D01*
X028546Y007918D01*
X028546Y008078D01*
X028546Y008233D02*
X028760Y008446D01*
X028760Y008601D02*
X028760Y008654D01*
X028707Y008654D01*
X028707Y008601D01*
X028760Y008601D01*
X028707Y008785D02*
X028600Y008785D01*
X028546Y008838D01*
X028546Y008945D01*
X028600Y008999D01*
X028653Y008999D01*
X028653Y008785D01*
X028707Y008785D02*
X028760Y008838D01*
X028760Y008945D01*
X028707Y009153D02*
X028600Y009153D01*
X028546Y009207D01*
X028546Y009367D01*
X028440Y009367D02*
X028760Y009367D01*
X028760Y009207D01*
X028707Y009153D01*
X029040Y009244D02*
X029360Y009244D01*
X029360Y009084D01*
X029307Y009031D01*
X029200Y009031D01*
X029146Y009084D01*
X029146Y009244D01*
X028760Y009575D02*
X028760Y009735D01*
X028546Y009735D01*
X028546Y009522D02*
X028707Y009522D01*
X028760Y009575D01*
X028760Y009890D02*
X028440Y010103D01*
X028160Y010074D02*
X028160Y010234D01*
X028107Y010288D01*
X028053Y010234D01*
X028053Y010127D01*
X028000Y010074D01*
X027946Y010127D01*
X027946Y010288D01*
X027946Y010442D02*
X027946Y010603D01*
X028000Y010656D01*
X028107Y010656D01*
X028160Y010603D01*
X028160Y010442D01*
X028267Y010442D02*
X027946Y010442D01*
X027560Y010557D02*
X027507Y010504D01*
X027560Y010557D02*
X027560Y010664D01*
X027507Y010717D01*
X027453Y010717D01*
X027400Y010664D01*
X027400Y010611D01*
X027400Y010664D02*
X027346Y010717D01*
X027293Y010717D01*
X027240Y010664D01*
X027240Y010557D01*
X027293Y010504D01*
X027240Y010349D02*
X027453Y010349D01*
X027560Y010242D01*
X027453Y010136D01*
X027240Y010136D01*
X027240Y009612D02*
X027560Y009612D01*
X027560Y009452D01*
X027507Y009399D01*
X027400Y009399D01*
X027346Y009452D01*
X027346Y009612D01*
X027346Y009252D02*
X027346Y009199D01*
X027453Y009092D01*
X027560Y009092D02*
X027346Y009092D01*
X027400Y008937D02*
X027560Y008937D01*
X027560Y008777D01*
X027507Y008724D01*
X027453Y008777D01*
X027453Y008937D01*
X027400Y008937D02*
X027346Y008884D01*
X027346Y008777D01*
X027400Y008569D02*
X027346Y008515D01*
X027346Y008409D01*
X027400Y008355D01*
X027507Y008355D01*
X027560Y008409D01*
X027560Y008515D01*
X027507Y008569D01*
X027400Y008569D01*
X027453Y008201D02*
X027507Y008201D01*
X027560Y008147D01*
X027560Y007987D01*
X027240Y007987D01*
X027240Y008147D01*
X027293Y008201D01*
X027346Y008201D01*
X027400Y008147D01*
X027400Y007987D01*
X027400Y008147D02*
X027453Y008201D01*
X027946Y008662D02*
X027840Y008769D01*
X027946Y008876D01*
X028160Y008876D01*
X028000Y008876D02*
X028000Y008662D01*
X027946Y008662D02*
X028160Y008662D01*
X028546Y008446D02*
X028760Y008233D01*
X029146Y008347D02*
X029146Y008454D01*
X029200Y008507D01*
X029360Y008507D01*
X029360Y008347D01*
X029307Y008294D01*
X029253Y008347D01*
X029253Y008507D01*
X029146Y008662D02*
X029146Y008822D01*
X029200Y008876D01*
X029360Y008876D01*
X029360Y008662D02*
X029146Y008662D01*
X028160Y009084D02*
X028107Y009031D01*
X028000Y009031D01*
X027946Y009084D01*
X027946Y009191D01*
X028000Y009244D01*
X028053Y009244D01*
X028053Y009031D01*
X028160Y009084D02*
X028160Y009191D01*
X028160Y009399D02*
X027946Y009399D01*
X027946Y009506D02*
X027946Y009559D01*
X027946Y009506D02*
X028053Y009399D01*
X028000Y009706D02*
X028107Y009706D01*
X028160Y009759D01*
X028160Y009866D01*
X028107Y009919D01*
X028000Y009919D01*
X027946Y009866D01*
X027946Y009759D01*
X028000Y009706D01*
X029040Y009874D02*
X029146Y009981D01*
X029360Y009981D01*
X029360Y010136D02*
X029146Y010136D01*
X029146Y010296D01*
X029200Y010349D01*
X029360Y010349D01*
X029307Y010504D02*
X029200Y010504D01*
X029146Y010557D01*
X029146Y010717D01*
X029040Y010717D02*
X029360Y010717D01*
X029360Y010557D01*
X029307Y010504D01*
X029360Y010872D02*
X029146Y010872D01*
X029146Y010979D02*
X029146Y011032D01*
X029146Y010979D02*
X029253Y010872D01*
X029253Y011179D02*
X029253Y011393D01*
X029200Y011393D01*
X029146Y011339D01*
X029146Y011232D01*
X029200Y011179D01*
X029307Y011179D01*
X029360Y011232D01*
X029360Y011339D01*
X029307Y011547D02*
X029360Y011601D01*
X029307Y011654D01*
X029360Y011708D01*
X029307Y011761D01*
X029146Y011761D01*
X029146Y011547D02*
X029307Y011547D01*
X029307Y012284D02*
X029360Y012337D01*
X029360Y012444D01*
X029307Y012498D01*
X029200Y012498D01*
X029200Y012391D01*
X029093Y012498D02*
X029040Y012444D01*
X029040Y012337D01*
X029093Y012284D01*
X029307Y012284D01*
X029360Y012652D02*
X029146Y012652D01*
X029146Y012759D02*
X029146Y012812D01*
X029146Y012759D02*
X029253Y012652D01*
X029253Y012959D02*
X029253Y013173D01*
X029200Y013173D01*
X029146Y013119D01*
X029146Y013013D01*
X029200Y012959D01*
X029307Y012959D01*
X029360Y013013D01*
X029360Y013119D01*
X029307Y013328D02*
X029200Y013328D01*
X029146Y013381D01*
X029146Y013488D01*
X029200Y013541D01*
X029253Y013541D01*
X029253Y013328D01*
X029307Y013328D02*
X029360Y013381D01*
X029360Y013488D01*
X029360Y013696D02*
X029146Y013696D01*
X029146Y013856D01*
X029200Y013909D01*
X029360Y013909D01*
X029360Y014064D02*
X029040Y014064D01*
X029146Y014064D02*
X029146Y014224D01*
X029200Y014278D01*
X029307Y014278D01*
X029360Y014224D01*
X029360Y014064D01*
X029307Y014433D02*
X029200Y014433D01*
X029146Y014486D01*
X029146Y014593D01*
X029200Y014646D01*
X029253Y014646D01*
X029253Y014433D01*
X029307Y014433D02*
X029360Y014486D01*
X029360Y014593D01*
X029360Y014801D02*
X029146Y014801D01*
X029146Y014908D02*
X029146Y014961D01*
X029146Y014908D02*
X029253Y014801D01*
X029200Y015108D02*
X029307Y015108D01*
X029360Y015161D01*
X029360Y015321D01*
X029413Y015321D02*
X029146Y015321D01*
X029146Y015161D01*
X029200Y015108D01*
X029467Y015215D02*
X029467Y015268D01*
X029413Y015321D01*
X028267Y014408D02*
X028267Y014355D01*
X028267Y014408D02*
X028213Y014462D01*
X027946Y014462D01*
X027946Y014248D02*
X028107Y014248D01*
X028160Y014302D01*
X028160Y014462D01*
X028160Y014110D02*
X028107Y014056D01*
X027893Y014056D01*
X027946Y014003D02*
X027946Y014110D01*
X028000Y013848D02*
X028053Y013848D01*
X028053Y013634D01*
X028000Y013634D02*
X028107Y013634D01*
X028160Y013688D01*
X028160Y013795D01*
X028000Y013848D02*
X027946Y013795D01*
X027946Y013688D01*
X028000Y013634D01*
X027946Y013442D02*
X028160Y013442D01*
X028160Y013389D02*
X028160Y013496D01*
X027946Y013442D02*
X027946Y013389D01*
X027840Y013442D02*
X027786Y013442D01*
X027946Y013234D02*
X027946Y013074D01*
X028000Y013021D01*
X028107Y013021D01*
X028160Y013074D01*
X028160Y013234D01*
X028107Y012866D02*
X028000Y012866D01*
X027946Y012812D01*
X027946Y012706D01*
X028000Y012652D01*
X028107Y012652D01*
X028160Y012706D01*
X028160Y012812D01*
X028107Y012866D01*
X028107Y012498D02*
X028160Y012444D01*
X028160Y012337D01*
X028107Y012284D01*
X028000Y012337D02*
X028000Y012444D01*
X028053Y012498D01*
X028107Y012498D01*
X028000Y012337D02*
X027946Y012284D01*
X027893Y012284D01*
X027840Y012337D01*
X027840Y012444D01*
X027893Y012498D01*
X028000Y011761D02*
X028053Y011761D01*
X028053Y011547D01*
X028000Y011547D02*
X028107Y011547D01*
X028160Y011601D01*
X028160Y011708D01*
X028000Y011761D02*
X027946Y011708D01*
X027946Y011601D01*
X028000Y011547D01*
X027946Y011393D02*
X027946Y011232D01*
X028000Y011179D01*
X028107Y011179D01*
X028160Y011232D01*
X028160Y011393D01*
X028160Y011024D02*
X028000Y011024D01*
X027946Y010971D01*
X027946Y010864D01*
X028053Y010864D02*
X028053Y011024D01*
X028160Y011024D02*
X028160Y010864D01*
X028107Y010811D01*
X028053Y010864D01*
X029040Y009874D02*
X029146Y009767D01*
X029360Y009767D01*
X029200Y009767D02*
X029200Y009981D01*
X027507Y007464D02*
X027560Y007411D01*
X027560Y007304D01*
X027507Y007250D01*
X027400Y007304D02*
X027400Y007411D01*
X027453Y007464D01*
X027507Y007464D01*
X027400Y007304D02*
X027346Y007250D01*
X027293Y007250D01*
X027240Y007304D01*
X027240Y007411D01*
X027293Y007464D01*
X027240Y007096D02*
X027240Y006882D01*
X027240Y006989D02*
X027560Y006989D01*
X018070Y017083D02*
X018267Y017280D01*
X018267Y022320D01*
X018070Y022517D01*
X013030Y022517D01*
X012833Y022320D01*
X012833Y017280D01*
X013030Y017083D01*
X018070Y017083D01*
X013030Y022123D02*
X013032Y022150D01*
X013038Y022177D01*
X013047Y022203D01*
X013060Y022227D01*
X013076Y022250D01*
X013095Y022269D01*
X013117Y022286D01*
X013141Y022300D01*
X013166Y022310D01*
X013193Y022317D01*
X013220Y022320D01*
X013248Y022319D01*
X013275Y022314D01*
X013301Y022306D01*
X013325Y022294D01*
X013348Y022278D01*
X013369Y022260D01*
X013386Y022239D01*
X013401Y022215D01*
X013412Y022190D01*
X013420Y022164D01*
X013424Y022137D01*
X013424Y022109D01*
X013420Y022082D01*
X013412Y022056D01*
X013401Y022031D01*
X013386Y022007D01*
X013369Y021986D01*
X013348Y021968D01*
X013326Y021952D01*
X013301Y021940D01*
X013275Y021932D01*
X013248Y021927D01*
X013220Y021926D01*
X013193Y021929D01*
X013166Y021936D01*
X013141Y021946D01*
X013117Y021960D01*
X013095Y021977D01*
X013076Y021996D01*
X013060Y022019D01*
X013047Y022043D01*
X013038Y022069D01*
X013032Y022096D01*
X013030Y022123D01*
D12*
X012889Y022575D02*
X012755Y022575D01*
X012889Y022708D01*
X012889Y022742D01*
X012855Y022775D01*
X012789Y022775D01*
X012755Y022742D01*
X012658Y022775D02*
X012658Y022608D01*
X012625Y022575D01*
X012558Y022575D01*
X012525Y022608D01*
X012525Y022775D01*
X012016Y022457D02*
X012016Y022323D01*
X011983Y022290D01*
X011916Y022290D01*
X011883Y022323D01*
X011916Y022390D02*
X012016Y022390D01*
X012016Y022457D02*
X011983Y022490D01*
X011916Y022490D01*
X011883Y022457D01*
X011883Y022423D01*
X011916Y022390D01*
X011786Y022357D02*
X011752Y022390D01*
X011719Y022390D01*
X011752Y022390D02*
X011786Y022423D01*
X011786Y022457D01*
X011752Y022490D01*
X011686Y022490D01*
X011652Y022457D01*
X011556Y022457D02*
X011556Y022390D01*
X011522Y022357D01*
X011422Y022357D01*
X011422Y022290D02*
X011422Y022490D01*
X011522Y022490D01*
X011556Y022457D01*
X011652Y022323D02*
X011686Y022290D01*
X011752Y022290D01*
X011786Y022323D01*
X011786Y022357D01*
X011664Y022136D02*
X012136Y022136D01*
X012136Y021664D01*
X011664Y021664D01*
X011664Y022136D01*
X011259Y022290D02*
X011259Y022490D01*
X011325Y022490D02*
X011192Y022490D01*
X010942Y021899D02*
X010975Y021866D01*
X010975Y021799D01*
X010942Y021766D01*
X010808Y021899D01*
X010942Y021899D01*
X010942Y021766D02*
X010808Y021766D01*
X010775Y021799D01*
X010775Y021866D01*
X010808Y021899D01*
X010875Y021669D02*
X010875Y021535D01*
X010775Y021635D01*
X010975Y021635D01*
X010875Y021439D02*
X010908Y021405D01*
X010908Y021305D01*
X010975Y021305D02*
X010775Y021305D01*
X010775Y021405D01*
X010808Y021439D01*
X010875Y021439D01*
X010775Y021208D02*
X010775Y021075D01*
X010775Y021142D02*
X010975Y021142D01*
X011025Y021225D02*
X011158Y021225D01*
X011092Y021225D02*
X011092Y021025D01*
X011255Y021025D02*
X011255Y021225D01*
X011355Y021225D01*
X011389Y021192D01*
X011389Y021125D01*
X011355Y021092D01*
X011255Y021092D01*
X011275Y020869D02*
X011308Y020869D01*
X011442Y020735D01*
X011475Y020735D01*
X011475Y020605D02*
X011275Y020605D01*
X011375Y020505D01*
X011375Y020639D01*
X011275Y020735D02*
X011275Y020869D01*
X011485Y021058D02*
X011519Y021025D01*
X011585Y021025D01*
X011619Y021058D01*
X011619Y021125D01*
X011585Y021158D01*
X011552Y021158D01*
X011485Y021125D01*
X011485Y021225D01*
X011619Y021225D01*
X011636Y021314D02*
X011164Y021314D01*
X011164Y021786D01*
X011636Y021786D01*
X011636Y021314D01*
X010814Y020584D02*
X010816Y020602D01*
X010821Y020619D01*
X010830Y020634D01*
X010842Y020647D01*
X010856Y020658D01*
X010873Y020665D01*
X010890Y020669D01*
X010908Y020669D01*
X010925Y020665D01*
X010941Y020658D01*
X010956Y020647D01*
X010968Y020634D01*
X010977Y020619D01*
X010982Y020602D01*
X010984Y020584D01*
X010982Y020566D01*
X010977Y020549D01*
X010968Y020534D01*
X010956Y020521D01*
X010942Y020510D01*
X010925Y020503D01*
X010908Y020499D01*
X010890Y020499D01*
X010873Y020503D01*
X010857Y020510D01*
X010842Y020521D01*
X010830Y020534D01*
X010821Y020549D01*
X010816Y020566D01*
X010814Y020584D01*
X010891Y020316D02*
X010334Y019759D01*
X010780Y019314D01*
X011336Y019870D01*
X010891Y020316D01*
X010627Y020051D02*
X010599Y020023D01*
X010158Y019890D02*
X010064Y019796D01*
X010111Y019843D02*
X009970Y019985D01*
X009970Y019890D01*
X009854Y019869D02*
X009901Y019633D01*
X009996Y019727D02*
X009760Y019775D01*
X009951Y020440D02*
X009998Y020440D01*
X010045Y020488D01*
X010045Y020535D01*
X010114Y020603D02*
X010161Y020603D01*
X010208Y020650D01*
X010208Y020698D01*
X010184Y020721D01*
X010137Y020721D01*
X010114Y020698D01*
X010137Y020721D02*
X010137Y020768D01*
X010114Y020792D01*
X010066Y020792D01*
X010019Y020745D01*
X010019Y020698D01*
X009951Y020629D02*
X009904Y020629D01*
X009856Y020582D01*
X009856Y020535D01*
X009951Y020440D01*
X010276Y020766D02*
X010276Y020955D01*
X010371Y020860D01*
X010371Y020813D01*
X010323Y020766D01*
X010276Y020766D01*
X010182Y020860D01*
X010182Y020907D01*
X010229Y020955D01*
X010276Y020955D01*
X009680Y020860D02*
X009680Y018498D01*
X009444Y018261D01*
X008656Y018261D01*
X008420Y018498D01*
X008420Y020860D01*
X009680Y020860D01*
X008225Y021650D02*
X008225Y021783D01*
X008225Y021880D02*
X008025Y021880D01*
X008025Y022014D01*
X008025Y022110D02*
X008025Y022210D01*
X008058Y022244D01*
X008192Y022244D01*
X008225Y022210D01*
X008225Y022110D01*
X008025Y022110D01*
X008125Y021947D02*
X008125Y021880D01*
X008225Y021880D02*
X008225Y022014D01*
X008225Y022341D02*
X008225Y022474D01*
X008225Y022407D02*
X008025Y022407D01*
X008092Y022341D01*
X008025Y021650D02*
X008225Y021650D01*
X008142Y021319D02*
X008008Y021319D01*
X007975Y021285D01*
X007975Y021219D01*
X008008Y021185D01*
X008042Y021185D01*
X008075Y021219D01*
X008075Y021319D01*
X008142Y021319D02*
X008175Y021285D01*
X008175Y021219D01*
X008142Y021185D01*
X008142Y021089D02*
X008175Y021055D01*
X008175Y020989D01*
X008142Y020955D01*
X008075Y021022D02*
X008075Y021055D01*
X008108Y021089D01*
X008142Y021089D01*
X008075Y021055D02*
X008042Y021089D01*
X008008Y021089D01*
X007975Y021055D01*
X007975Y020989D01*
X008008Y020955D01*
X008008Y020858D02*
X007975Y020825D01*
X007975Y020758D01*
X008008Y020725D01*
X008142Y020725D01*
X008175Y020758D01*
X008175Y020825D01*
X008142Y020858D01*
X007400Y020401D02*
X003400Y020401D01*
X003400Y024279D01*
X007400Y024279D01*
X007400Y020401D01*
X007475Y019319D02*
X007475Y019185D01*
X007375Y019285D01*
X007575Y019285D01*
X007542Y019089D02*
X007475Y019089D01*
X007442Y019055D01*
X007442Y019022D01*
X007475Y018955D01*
X007375Y018955D01*
X007375Y019089D01*
X007542Y019089D02*
X007575Y019055D01*
X007575Y018989D01*
X007542Y018955D01*
X007542Y018858D02*
X007575Y018825D01*
X007575Y018758D01*
X007542Y018725D01*
X007408Y018725D01*
X007375Y018758D01*
X007375Y018825D01*
X007408Y018858D01*
X007764Y018836D02*
X008236Y018836D01*
X008236Y018364D01*
X007764Y018364D01*
X007764Y018836D01*
X007758Y018275D02*
X007625Y018275D01*
X007692Y018275D02*
X007692Y018075D01*
X007719Y017975D02*
X007652Y017942D01*
X007585Y017875D01*
X007685Y017875D01*
X007719Y017842D01*
X007719Y017808D01*
X007685Y017775D01*
X007619Y017775D01*
X007585Y017808D01*
X007585Y017875D01*
X007489Y017908D02*
X007489Y017942D01*
X007455Y017975D01*
X007389Y017975D01*
X007355Y017942D01*
X007258Y017942D02*
X007225Y017975D01*
X007158Y017975D01*
X007125Y017942D01*
X007125Y017808D01*
X007158Y017775D01*
X007225Y017775D01*
X007258Y017808D01*
X007355Y017775D02*
X007489Y017908D01*
X007489Y017775D02*
X007355Y017775D01*
X007764Y017436D02*
X008236Y017436D01*
X008236Y016964D01*
X007764Y016964D01*
X007764Y017436D01*
X007855Y018075D02*
X007855Y018275D01*
X007955Y018275D01*
X007989Y018242D01*
X007989Y018175D01*
X007955Y018142D01*
X007855Y018142D01*
X008085Y018208D02*
X008152Y018275D01*
X008152Y018075D01*
X008085Y018075D02*
X008219Y018075D01*
X008316Y018108D02*
X008349Y018075D01*
X008416Y018075D01*
X008449Y018108D01*
X008449Y018142D01*
X008416Y018175D01*
X008382Y018175D01*
X008416Y018175D02*
X008449Y018208D01*
X008449Y018242D01*
X008416Y018275D01*
X008349Y018275D01*
X008316Y018242D01*
X007489Y018175D02*
X007355Y018175D01*
X007422Y018175D02*
X007422Y018375D01*
X007355Y018308D01*
X007258Y018275D02*
X007225Y018242D01*
X007125Y018242D01*
X007192Y018242D02*
X007258Y018175D01*
X007258Y018275D02*
X007258Y018342D01*
X007225Y018375D01*
X007125Y018375D01*
X007125Y018175D01*
X006792Y017428D02*
X006758Y017428D01*
X006725Y017395D01*
X006725Y017362D01*
X006725Y017395D02*
X006692Y017428D01*
X006658Y017428D01*
X006625Y017395D01*
X006625Y017328D01*
X006658Y017295D01*
X006658Y017198D02*
X006725Y017198D01*
X006758Y017165D01*
X006758Y017065D01*
X006758Y017131D02*
X006825Y017198D01*
X006792Y017295D02*
X006825Y017328D01*
X006825Y017395D01*
X006792Y017428D01*
X006658Y017198D02*
X006625Y017165D01*
X006625Y017065D01*
X006825Y017065D01*
X006642Y016669D02*
X006675Y016635D01*
X006675Y016569D01*
X006642Y016535D01*
X006575Y016535D02*
X006542Y016602D01*
X006542Y016635D01*
X006575Y016669D01*
X006642Y016669D01*
X006575Y016535D02*
X006475Y016535D01*
X006475Y016669D01*
X006508Y016439D02*
X006542Y016439D01*
X006575Y016405D01*
X006608Y016439D01*
X006642Y016439D01*
X006675Y016405D01*
X006675Y016339D01*
X006642Y016305D01*
X006575Y016372D02*
X006575Y016405D01*
X006508Y016439D02*
X006475Y016405D01*
X006475Y016339D01*
X006508Y016305D01*
X006508Y016208D02*
X006475Y016175D01*
X006475Y016108D01*
X006508Y016075D01*
X006642Y016075D01*
X006675Y016108D01*
X006675Y016175D01*
X006642Y016208D01*
X005880Y016233D02*
X005880Y015367D01*
X006075Y015125D02*
X006208Y015125D01*
X006142Y015125D02*
X006142Y014925D01*
X006305Y014925D02*
X006439Y014925D01*
X006372Y014925D02*
X006372Y015125D01*
X006305Y015058D01*
X005880Y014914D02*
X004620Y014914D01*
X004620Y016686D01*
X005880Y016686D01*
X005880Y014914D01*
X005250Y014914D02*
X004935Y014914D01*
X004620Y015367D02*
X004620Y016233D01*
X004085Y016775D02*
X004019Y016775D01*
X003985Y016808D01*
X004052Y016875D02*
X004085Y016875D01*
X004119Y016842D01*
X004119Y016808D01*
X004085Y016775D01*
X004085Y016875D02*
X004119Y016908D01*
X004119Y016942D01*
X004085Y016975D01*
X004019Y016975D01*
X003985Y016942D01*
X003889Y016942D02*
X003889Y016908D01*
X003855Y016875D01*
X003889Y016842D01*
X003889Y016808D01*
X003855Y016775D01*
X003789Y016775D01*
X003755Y016808D01*
X003822Y016875D02*
X003855Y016875D01*
X003889Y016942D02*
X003855Y016975D01*
X003789Y016975D01*
X003755Y016942D01*
X003658Y016942D02*
X003625Y016975D01*
X003558Y016975D01*
X003525Y016942D01*
X003525Y016808D01*
X003558Y016775D01*
X003625Y016775D01*
X003658Y016808D01*
X003742Y016180D02*
X003742Y015979D01*
X003675Y015979D02*
X003809Y015979D01*
X003675Y016113D02*
X003742Y016180D01*
X003579Y015979D02*
X003445Y015979D01*
X003445Y016180D01*
X005250Y016686D02*
X005565Y016686D01*
X005542Y017825D02*
X005575Y017858D01*
X005575Y017925D01*
X005542Y017958D01*
X005575Y018055D02*
X005442Y018189D01*
X005408Y018189D01*
X005375Y018155D01*
X005375Y018089D01*
X005408Y018055D01*
X005408Y017958D02*
X005375Y017925D01*
X005375Y017858D01*
X005408Y017825D01*
X005542Y017825D01*
X005575Y018055D02*
X005575Y018189D01*
X005575Y018285D02*
X005575Y018419D01*
X005575Y018352D02*
X005375Y018352D01*
X005442Y018285D01*
X004825Y018255D02*
X004792Y018255D01*
X004658Y018389D01*
X004625Y018389D01*
X004625Y018255D01*
X004658Y018158D02*
X004625Y018125D01*
X004625Y018025D01*
X004825Y018025D01*
X004758Y018025D02*
X004758Y018125D01*
X004725Y018158D01*
X004658Y018158D01*
X004758Y018092D02*
X004825Y018158D01*
X003375Y018758D02*
X003375Y018825D01*
X003342Y018858D01*
X003375Y018955D02*
X003242Y019089D01*
X003208Y019089D01*
X003175Y019055D01*
X003175Y018989D01*
X003208Y018955D01*
X003208Y018858D02*
X003175Y018825D01*
X003175Y018758D01*
X003208Y018725D01*
X003342Y018725D01*
X003375Y018758D01*
X003375Y018955D02*
X003375Y019089D01*
X003342Y019185D02*
X003375Y019219D01*
X003375Y019285D01*
X003342Y019319D01*
X003275Y019319D01*
X003242Y019285D01*
X003242Y019252D01*
X003275Y019185D01*
X003175Y019185D01*
X003175Y019319D01*
X002875Y019035D02*
X002875Y018969D01*
X002842Y018935D01*
X002775Y018935D02*
X002742Y019002D01*
X002742Y019035D01*
X002775Y019069D01*
X002842Y019069D01*
X002875Y019035D01*
X002775Y018935D02*
X002675Y018935D01*
X002675Y019069D01*
X002675Y018839D02*
X002708Y018772D01*
X002775Y018705D01*
X002775Y018805D01*
X002808Y018839D01*
X002842Y018839D01*
X002875Y018805D01*
X002875Y018739D01*
X002842Y018705D01*
X002775Y018705D01*
X002842Y018608D02*
X002875Y018575D01*
X002875Y018508D01*
X002842Y018475D01*
X002708Y018475D01*
X002675Y018508D01*
X002675Y018575D01*
X002708Y018608D01*
X002125Y018925D02*
X002125Y019025D01*
X002092Y019058D01*
X001958Y019058D01*
X001925Y019025D01*
X001925Y018925D01*
X002125Y018925D01*
X002125Y019155D02*
X001992Y019289D01*
X001958Y019289D01*
X001925Y019255D01*
X001925Y019189D01*
X001958Y019155D01*
X002125Y019155D02*
X002125Y019289D01*
X001736Y019036D02*
X001736Y018564D01*
X001264Y018564D01*
X001264Y019036D01*
X001736Y019036D01*
X001652Y018475D02*
X001652Y018275D01*
X001585Y018275D02*
X001719Y018275D01*
X001816Y018275D02*
X001949Y018408D01*
X001949Y018442D01*
X001916Y018475D01*
X001849Y018475D01*
X001816Y018442D01*
X001816Y018275D02*
X001949Y018275D01*
X001652Y018475D02*
X001585Y018408D01*
X001489Y018375D02*
X001455Y018342D01*
X001355Y018342D01*
X001355Y018275D02*
X001355Y018475D01*
X001455Y018475D01*
X001489Y018442D01*
X001489Y018375D01*
X001258Y018475D02*
X001125Y018475D01*
X001192Y018475D02*
X001192Y018275D01*
X001199Y020275D02*
X001066Y020275D01*
X001132Y020275D02*
X001132Y020475D01*
X001066Y020408D01*
X001036Y020564D02*
X000564Y020564D01*
X000564Y021036D01*
X001036Y021036D01*
X001036Y020564D01*
X000902Y020475D02*
X000902Y020275D01*
X000835Y020275D02*
X000969Y020275D01*
X000835Y020408D02*
X000902Y020475D01*
X000739Y020442D02*
X000739Y020375D01*
X000705Y020342D01*
X000605Y020342D01*
X000605Y020275D02*
X000605Y020475D01*
X000705Y020475D01*
X000739Y020442D01*
X000508Y020475D02*
X000375Y020475D01*
X000442Y020475D02*
X000442Y020275D01*
X000878Y021650D02*
X000157Y022900D01*
X000878Y024150D01*
X002322Y024150D01*
X003043Y022900D01*
X002322Y021650D01*
X000878Y021650D01*
X007625Y023475D02*
X007625Y023575D01*
X007658Y023608D01*
X007725Y023608D01*
X007758Y023575D01*
X007758Y023475D01*
X007758Y023542D02*
X007825Y023608D01*
X007792Y023705D02*
X007825Y023739D01*
X007825Y023805D01*
X007792Y023839D01*
X007758Y023839D01*
X007725Y023805D01*
X007725Y023705D01*
X007792Y023705D01*
X007725Y023705D02*
X007658Y023772D01*
X007625Y023839D01*
X007625Y024075D02*
X007658Y024108D01*
X007658Y024275D01*
X007755Y024242D02*
X007755Y024208D01*
X007789Y024175D01*
X007855Y024175D01*
X007889Y024142D01*
X007889Y024108D01*
X007855Y024075D01*
X007789Y024075D01*
X007755Y024108D01*
X007755Y024142D01*
X007789Y024175D01*
X007855Y024175D02*
X007889Y024208D01*
X007889Y024242D01*
X007855Y024275D01*
X007789Y024275D01*
X007755Y024242D01*
X007625Y024075D02*
X007558Y024075D01*
X007525Y024108D01*
X007525Y024275D01*
X007625Y023475D02*
X007825Y023475D01*
X008625Y023658D02*
X008658Y023625D01*
X008692Y023625D01*
X008725Y023658D01*
X008725Y023825D01*
X008692Y023825D02*
X008758Y023825D01*
X008855Y023758D02*
X008922Y023825D01*
X008922Y023625D01*
X008855Y023625D02*
X008989Y023625D01*
X012875Y023658D02*
X012908Y023625D01*
X012975Y023625D01*
X013008Y023658D01*
X013105Y023725D02*
X013239Y023725D01*
X013335Y023758D02*
X013369Y023725D01*
X013469Y023725D01*
X013469Y023658D02*
X013469Y023792D01*
X013435Y023825D01*
X013369Y023825D01*
X013335Y023792D01*
X013335Y023758D01*
X013335Y023658D02*
X013369Y023625D01*
X013435Y023625D01*
X013469Y023658D01*
X013205Y023625D02*
X013205Y023825D01*
X013105Y023725D01*
X013008Y023792D02*
X012975Y023825D01*
X012908Y023825D01*
X012875Y023792D01*
X012875Y023658D01*
X013925Y023625D02*
X013925Y023825D01*
X014025Y023825D01*
X014058Y023792D01*
X014058Y023725D01*
X014025Y023692D01*
X013925Y023692D01*
X013992Y023692D02*
X014058Y023625D01*
X014155Y023625D02*
X014289Y023625D01*
X014222Y023625D02*
X014222Y023825D01*
X014155Y023758D01*
X014385Y023758D02*
X014419Y023725D01*
X014519Y023725D01*
X014519Y023658D02*
X014519Y023792D01*
X014485Y023825D01*
X014419Y023825D01*
X014385Y023792D01*
X014385Y023758D01*
X014385Y023658D02*
X014419Y023625D01*
X014485Y023625D01*
X014519Y023658D01*
X014975Y023875D02*
X015108Y023875D01*
X015042Y023875D02*
X015042Y023675D01*
X015205Y023675D02*
X015205Y023875D01*
X015305Y023875D01*
X015339Y023842D01*
X015339Y023775D01*
X015305Y023742D01*
X015205Y023742D01*
X015435Y023708D02*
X015469Y023675D01*
X015535Y023675D01*
X015569Y023708D01*
X015569Y023742D01*
X015535Y023775D01*
X015502Y023775D01*
X015535Y023775D02*
X015569Y023808D01*
X015569Y023842D01*
X015535Y023875D01*
X015469Y023875D01*
X015435Y023842D01*
X015666Y023775D02*
X015766Y023775D01*
X015799Y023742D01*
X015799Y023708D01*
X015766Y023675D01*
X015699Y023675D01*
X015666Y023708D01*
X015666Y023775D01*
X015732Y023842D01*
X015799Y023875D01*
X016075Y023875D02*
X016208Y023875D01*
X016142Y023875D02*
X016142Y023675D01*
X016305Y023675D02*
X016305Y023875D01*
X016405Y023875D01*
X016439Y023842D01*
X016439Y023775D01*
X016405Y023742D01*
X016305Y023742D01*
X016336Y023586D02*
X015864Y023586D01*
X015864Y023114D01*
X016336Y023114D01*
X016336Y023586D01*
X016535Y023708D02*
X016569Y023675D01*
X016635Y023675D01*
X016669Y023708D01*
X016669Y023742D01*
X016635Y023775D01*
X016602Y023775D01*
X016635Y023775D02*
X016669Y023808D01*
X016669Y023842D01*
X016635Y023875D01*
X016569Y023875D01*
X016535Y023842D01*
X016766Y023875D02*
X016766Y023775D01*
X016832Y023808D01*
X016866Y023808D01*
X016899Y023775D01*
X016899Y023708D01*
X016866Y023675D01*
X016799Y023675D01*
X016766Y023708D01*
X016766Y023875D02*
X016899Y023875D01*
X015886Y023586D02*
X015886Y023114D01*
X015414Y023114D01*
X015414Y023586D01*
X015886Y023586D01*
X018525Y023042D02*
X018525Y022908D01*
X018558Y022875D01*
X018625Y022875D01*
X018658Y022908D01*
X018755Y022908D02*
X018789Y022875D01*
X018855Y022875D01*
X018889Y022908D01*
X018889Y022975D01*
X018855Y023008D01*
X018822Y023008D01*
X018755Y022975D01*
X018755Y023075D01*
X018889Y023075D01*
X018985Y023042D02*
X019019Y023075D01*
X019085Y023075D01*
X019119Y023042D01*
X018985Y022908D01*
X019019Y022875D01*
X019085Y022875D01*
X019119Y022908D01*
X019119Y023042D01*
X018985Y023042D02*
X018985Y022908D01*
X018658Y023042D02*
X018625Y023075D01*
X018558Y023075D01*
X018525Y023042D01*
X019075Y023425D02*
X019075Y023525D01*
X019108Y023558D01*
X019175Y023558D01*
X019208Y023525D01*
X019208Y023425D01*
X019208Y023492D02*
X019275Y023558D01*
X019275Y023655D02*
X019275Y023789D01*
X019275Y023722D02*
X019075Y023722D01*
X019142Y023655D01*
X019108Y023885D02*
X019075Y023919D01*
X019075Y023985D01*
X019108Y024019D01*
X019142Y024019D01*
X019275Y023885D01*
X019275Y024019D01*
X019275Y023425D02*
X019075Y023425D01*
X020225Y022992D02*
X020225Y022858D01*
X020258Y022825D01*
X020325Y022825D01*
X020358Y022858D01*
X020358Y022992D01*
X020325Y023025D01*
X020258Y023025D01*
X020225Y022992D01*
X020292Y022892D02*
X020358Y022825D01*
X020455Y022825D02*
X020589Y022825D01*
X020522Y022825D02*
X020522Y023025D01*
X020455Y022958D01*
X021025Y022735D02*
X021058Y022769D01*
X021192Y022635D01*
X021225Y022669D01*
X021225Y022735D01*
X021192Y022769D01*
X021058Y022769D01*
X021025Y022735D02*
X021025Y022669D01*
X021058Y022635D01*
X021192Y022635D01*
X021225Y022539D02*
X021225Y022405D01*
X021092Y022539D01*
X021058Y022539D01*
X021025Y022505D01*
X021025Y022439D01*
X021058Y022405D01*
X021058Y022308D02*
X021025Y022275D01*
X021025Y022208D01*
X021058Y022175D01*
X021192Y022175D01*
X021225Y022208D01*
X021225Y022275D01*
X021192Y022308D01*
X021425Y022275D02*
X021425Y022208D01*
X021458Y022175D01*
X021592Y022175D01*
X021625Y022208D01*
X021625Y022275D01*
X021592Y022308D01*
X021625Y022405D02*
X021625Y022539D01*
X021625Y022472D02*
X021425Y022472D01*
X021492Y022405D01*
X021458Y022308D02*
X021425Y022275D01*
X021829Y022147D02*
X021829Y019687D01*
X021298Y019889D02*
X020102Y019889D01*
X020256Y020012D02*
X020389Y020012D01*
X020486Y020012D02*
X020619Y020012D01*
X020716Y020012D02*
X020816Y020012D01*
X020850Y020046D01*
X020850Y020179D01*
X020816Y020213D01*
X020716Y020213D01*
X020716Y020012D01*
X020553Y020112D02*
X020486Y020112D01*
X020486Y020012D02*
X020486Y020213D01*
X020619Y020213D01*
X020946Y020179D02*
X020980Y020213D01*
X021046Y020213D01*
X021080Y020179D01*
X021080Y020146D01*
X021046Y020112D01*
X021080Y020079D01*
X021080Y020046D01*
X021046Y020012D01*
X020980Y020012D01*
X020946Y020046D01*
X021013Y020112D02*
X021046Y020112D01*
X020897Y019759D02*
X020503Y019759D01*
X020700Y019751D02*
X020700Y018649D01*
X020503Y018641D02*
X020897Y018641D01*
X021653Y018511D02*
X020102Y018511D01*
X019799Y018025D02*
X019666Y018025D01*
X019666Y017925D01*
X019732Y017958D01*
X019766Y017958D01*
X019799Y017925D01*
X019799Y017858D01*
X019766Y017825D01*
X019699Y017825D01*
X019666Y017858D01*
X019569Y017858D02*
X019569Y017992D01*
X019535Y018025D01*
X019435Y018025D01*
X019435Y017825D01*
X019535Y017825D01*
X019569Y017858D01*
X019339Y017825D02*
X019205Y017825D01*
X019205Y018025D01*
X019339Y018025D01*
X019272Y017925D02*
X019205Y017925D01*
X019108Y017825D02*
X018975Y017825D01*
X018975Y018025D01*
X018975Y017525D02*
X018975Y017325D01*
X019108Y017325D01*
X019205Y017325D02*
X019205Y017525D01*
X019339Y017525D01*
X019435Y017525D02*
X019535Y017525D01*
X019569Y017492D01*
X019569Y017358D01*
X019535Y017325D01*
X019435Y017325D01*
X019435Y017525D01*
X019272Y017425D02*
X019205Y017425D01*
X019205Y017325D02*
X019339Y017325D01*
X019339Y017025D02*
X019205Y017025D01*
X019205Y016825D01*
X019339Y016825D01*
X019435Y016825D02*
X019535Y016825D01*
X019569Y016858D01*
X019569Y016992D01*
X019535Y017025D01*
X019435Y017025D01*
X019435Y016825D01*
X019272Y016925D02*
X019205Y016925D01*
X019108Y016825D02*
X018975Y016825D01*
X018975Y017025D01*
X019666Y016992D02*
X019699Y017025D01*
X019766Y017025D01*
X019799Y016992D01*
X019799Y016958D01*
X019666Y016825D01*
X019799Y016825D01*
X020175Y016675D02*
X020175Y016475D01*
X020175Y016542D02*
X020275Y016542D01*
X020308Y016575D01*
X020308Y016642D01*
X020275Y016675D01*
X020175Y016675D01*
X020242Y016542D02*
X020308Y016475D01*
X020405Y016475D02*
X020539Y016608D01*
X020539Y016642D01*
X020505Y016675D01*
X020439Y016675D01*
X020405Y016642D01*
X020405Y016475D02*
X020539Y016475D01*
X020635Y016508D02*
X020769Y016642D01*
X020769Y016508D01*
X020735Y016475D01*
X020669Y016475D01*
X020635Y016508D01*
X020635Y016642D01*
X020669Y016675D01*
X020735Y016675D01*
X020769Y016642D01*
X020769Y016375D02*
X020702Y016342D01*
X020635Y016275D01*
X020735Y016275D01*
X020769Y016242D01*
X020769Y016208D01*
X020735Y016175D01*
X020669Y016175D01*
X020635Y016208D01*
X020635Y016275D01*
X020539Y016175D02*
X020405Y016175D01*
X020472Y016175D02*
X020472Y016375D01*
X020405Y016308D01*
X020308Y016275D02*
X020275Y016242D01*
X020175Y016242D01*
X020242Y016242D02*
X020308Y016175D01*
X020308Y016275D02*
X020308Y016342D01*
X020275Y016375D01*
X020175Y016375D01*
X020175Y016175D01*
X020175Y016075D02*
X020275Y016075D01*
X020308Y016042D01*
X020308Y015975D01*
X020275Y015942D01*
X020175Y015942D01*
X020242Y015942D02*
X020308Y015875D01*
X020405Y015875D02*
X020539Y015875D01*
X020472Y015875D02*
X020472Y016075D01*
X020405Y016008D01*
X020635Y015975D02*
X020735Y016075D01*
X020735Y015875D01*
X020769Y015975D02*
X020635Y015975D01*
X020175Y015875D02*
X020175Y016075D01*
X019692Y015519D02*
X019725Y015485D01*
X019725Y015419D01*
X019692Y015385D01*
X019625Y015452D02*
X019625Y015485D01*
X019658Y015519D01*
X019692Y015519D01*
X019625Y015485D02*
X019592Y015519D01*
X019558Y015519D01*
X019525Y015485D01*
X019525Y015419D01*
X019558Y015385D01*
X019558Y015289D02*
X019692Y015155D01*
X019725Y015155D01*
X019692Y015058D02*
X019725Y015025D01*
X019725Y014958D01*
X019692Y014925D01*
X019558Y014925D01*
X019525Y014958D01*
X019525Y015025D01*
X019558Y015058D01*
X019525Y015155D02*
X019525Y015289D01*
X019558Y015289D01*
X019086Y015436D02*
X019086Y014964D01*
X018614Y014964D01*
X018614Y015436D01*
X019086Y015436D01*
X019002Y015540D02*
X019036Y015573D01*
X019036Y015607D01*
X019002Y015640D01*
X018902Y015640D01*
X018902Y015573D01*
X018936Y015540D01*
X019002Y015540D01*
X018902Y015640D02*
X018969Y015707D01*
X019036Y015740D01*
X018806Y015707D02*
X018806Y015640D01*
X018772Y015607D01*
X018672Y015607D01*
X018672Y015540D02*
X018672Y015740D01*
X018772Y015740D01*
X018806Y015707D01*
X018575Y015740D02*
X018442Y015740D01*
X018509Y015740D02*
X018509Y015540D01*
X018569Y016175D02*
X018535Y016208D01*
X018535Y016242D01*
X018569Y016275D01*
X018635Y016275D01*
X018669Y016242D01*
X018669Y016208D01*
X018635Y016175D01*
X018569Y016175D01*
X018569Y016275D02*
X018535Y016308D01*
X018535Y016342D01*
X018569Y016375D01*
X018635Y016375D01*
X018669Y016342D01*
X018669Y016308D01*
X018635Y016275D01*
X018439Y016275D02*
X018305Y016275D01*
X018405Y016375D01*
X018405Y016175D01*
X018208Y016208D02*
X018175Y016175D01*
X018108Y016175D01*
X018075Y016208D01*
X018075Y016342D01*
X018108Y016375D01*
X018175Y016375D01*
X018208Y016342D01*
X017419Y015642D02*
X017385Y015675D01*
X017319Y015675D01*
X017285Y015642D01*
X017189Y015675D02*
X017055Y015675D01*
X017055Y015575D01*
X017122Y015608D01*
X017155Y015608D01*
X017189Y015575D01*
X017189Y015508D01*
X017155Y015475D01*
X017089Y015475D01*
X017055Y015508D01*
X016958Y015508D02*
X016925Y015475D01*
X016858Y015475D01*
X016825Y015508D01*
X016825Y015642D01*
X016858Y015675D01*
X016925Y015675D01*
X016958Y015642D01*
X017285Y015475D02*
X017419Y015608D01*
X017419Y015642D01*
X017419Y015475D02*
X017285Y015475D01*
X016239Y015758D02*
X016205Y015725D01*
X016139Y015725D01*
X016105Y015758D01*
X016105Y015792D01*
X016139Y015825D01*
X016205Y015825D01*
X016239Y015792D01*
X016239Y015758D01*
X016205Y015825D02*
X016239Y015858D01*
X016239Y015892D01*
X016205Y015925D01*
X016139Y015925D01*
X016105Y015892D01*
X016105Y015858D01*
X016139Y015825D01*
X016008Y015825D02*
X015975Y015792D01*
X015875Y015792D01*
X015942Y015792D02*
X016008Y015725D01*
X016008Y015825D02*
X016008Y015892D01*
X015975Y015925D01*
X015875Y015925D01*
X015875Y015725D01*
X015136Y015614D02*
X015136Y016086D01*
X014664Y016086D01*
X014664Y015614D01*
X015136Y015614D01*
X015199Y016175D02*
X015166Y016208D01*
X015166Y016242D01*
X015199Y016275D01*
X015266Y016275D01*
X015299Y016242D01*
X015299Y016208D01*
X015266Y016175D01*
X015199Y016175D01*
X015199Y016275D02*
X015166Y016308D01*
X015166Y016342D01*
X015199Y016375D01*
X015266Y016375D01*
X015299Y016342D01*
X015299Y016308D01*
X015266Y016275D01*
X015069Y016242D02*
X015069Y016208D01*
X015035Y016175D01*
X014969Y016175D01*
X014935Y016208D01*
X015002Y016275D02*
X015035Y016275D01*
X015069Y016242D01*
X015035Y016275D02*
X015069Y016308D01*
X015069Y016342D01*
X015035Y016375D01*
X014969Y016375D01*
X014935Y016342D01*
X014839Y016342D02*
X014839Y016275D01*
X014805Y016242D01*
X014705Y016242D01*
X014705Y016175D02*
X014705Y016375D01*
X014805Y016375D01*
X014839Y016342D01*
X014608Y016375D02*
X014475Y016375D01*
X014542Y016375D02*
X014542Y016175D01*
X013319Y015192D02*
X013319Y015158D01*
X013285Y015125D01*
X013319Y015092D01*
X013319Y015058D01*
X013285Y015025D01*
X013219Y015025D01*
X013185Y015058D01*
X013252Y015125D02*
X013285Y015125D01*
X013319Y015192D02*
X013285Y015225D01*
X013219Y015225D01*
X013185Y015192D01*
X013089Y015125D02*
X012955Y015125D01*
X013055Y015225D01*
X013055Y015025D01*
X012858Y015025D02*
X012792Y015092D01*
X012825Y015092D02*
X012725Y015092D01*
X012725Y015025D02*
X012725Y015225D01*
X012825Y015225D01*
X012858Y015192D01*
X012858Y015125D01*
X012825Y015092D01*
X012399Y014625D02*
X012332Y014592D01*
X012266Y014525D01*
X012366Y014525D01*
X012399Y014492D01*
X012399Y014458D01*
X012366Y014425D01*
X012299Y014425D01*
X012266Y014458D01*
X012266Y014525D01*
X012169Y014425D02*
X012035Y014425D01*
X012102Y014425D02*
X012102Y014625D01*
X012035Y014558D01*
X011939Y014525D02*
X011905Y014492D01*
X011805Y014492D01*
X011805Y014425D02*
X011805Y014625D01*
X011905Y014625D01*
X011939Y014592D01*
X011939Y014525D01*
X011708Y014625D02*
X011575Y014625D01*
X011642Y014625D02*
X011642Y014425D01*
X010630Y014643D02*
X010630Y014710D01*
X010596Y014743D01*
X010630Y014840D02*
X010496Y014974D01*
X010463Y014974D01*
X010430Y014940D01*
X010430Y014874D01*
X010463Y014840D01*
X010463Y014743D02*
X010430Y014710D01*
X010430Y014643D01*
X010463Y014610D01*
X010596Y014610D01*
X010630Y014643D01*
X010630Y014840D02*
X010630Y014974D01*
X010596Y015070D02*
X010630Y015104D01*
X010630Y015171D01*
X010596Y015204D01*
X010563Y015204D01*
X010530Y015171D01*
X010530Y015137D01*
X010530Y015171D02*
X010496Y015204D01*
X010463Y015204D01*
X010430Y015171D01*
X010430Y015104D01*
X010463Y015070D01*
X010425Y016025D02*
X010625Y016025D01*
X010625Y016158D01*
X010625Y016255D02*
X010625Y016389D01*
X010625Y016485D02*
X010625Y016585D01*
X010592Y016619D01*
X010458Y016619D01*
X010425Y016585D01*
X010425Y016485D01*
X010625Y016485D01*
X010525Y016322D02*
X010525Y016255D01*
X010425Y016255D02*
X010625Y016255D01*
X010425Y016255D02*
X010425Y016389D01*
X010525Y016716D02*
X010525Y016816D01*
X010558Y016849D01*
X010592Y016849D01*
X010625Y016816D01*
X010625Y016749D01*
X010592Y016716D01*
X010525Y016716D01*
X010458Y016782D01*
X010425Y016849D01*
X011375Y017458D02*
X011408Y017425D01*
X011475Y017425D01*
X011508Y017458D01*
X011605Y017425D02*
X011739Y017425D01*
X011672Y017425D02*
X011672Y017625D01*
X011605Y017558D01*
X011508Y017592D02*
X011475Y017625D01*
X011408Y017625D01*
X011375Y017592D01*
X011375Y017458D01*
X011835Y017425D02*
X011969Y017425D01*
X011902Y017425D02*
X011902Y017625D01*
X011835Y017558D01*
X010819Y018125D02*
X010685Y018125D01*
X010752Y018125D02*
X010752Y018325D01*
X010685Y018258D01*
X010589Y018192D02*
X010589Y018158D01*
X010555Y018125D01*
X010489Y018125D01*
X010455Y018158D01*
X010455Y018225D01*
X010555Y018225D01*
X010589Y018192D01*
X010522Y018292D02*
X010455Y018225D01*
X010522Y018292D02*
X010589Y018325D01*
X010692Y018525D02*
X010692Y018725D01*
X010758Y018725D02*
X010625Y018725D01*
X010547Y018721D02*
X010500Y018768D01*
X010453Y018768D01*
X010429Y018745D01*
X010429Y018697D01*
X010500Y018627D01*
X010547Y018674D02*
X010547Y018721D01*
X010547Y018674D02*
X010453Y018579D01*
X010405Y018579D01*
X010358Y018627D01*
X010358Y018674D01*
X010266Y018719D02*
X010172Y018813D01*
X010361Y018813D01*
X010384Y018837D01*
X010384Y018884D01*
X010337Y018931D01*
X010290Y018931D01*
X010221Y018999D02*
X010221Y019047D01*
X010174Y019094D01*
X010127Y019094D01*
X010033Y018999D01*
X010033Y018952D01*
X010080Y018905D01*
X010127Y018905D01*
X010258Y018325D02*
X010225Y018292D01*
X010225Y018158D01*
X010258Y018125D01*
X010325Y018125D01*
X010358Y018158D01*
X010358Y018292D02*
X010325Y018325D01*
X010258Y018325D01*
X010855Y018525D02*
X010855Y018725D01*
X010955Y018725D01*
X010989Y018692D01*
X010989Y018625D01*
X010955Y018592D01*
X010855Y018592D01*
X011085Y018625D02*
X011185Y018725D01*
X011185Y018525D01*
X011219Y018625D02*
X011085Y018625D01*
X011258Y018825D02*
X011325Y018825D01*
X011358Y018858D01*
X011258Y018825D02*
X011225Y018858D01*
X011225Y018992D01*
X011258Y019025D01*
X011325Y019025D01*
X011358Y018992D01*
X011455Y018925D02*
X011589Y018925D01*
X011685Y018925D02*
X011785Y018925D01*
X011819Y018892D01*
X011819Y018858D01*
X011785Y018825D01*
X011719Y018825D01*
X011685Y018858D01*
X011685Y018925D01*
X011752Y018992D01*
X011819Y019025D01*
X011675Y019125D02*
X011475Y019125D01*
X011475Y019225D01*
X011508Y019258D01*
X011575Y019258D01*
X011608Y019225D01*
X011608Y019125D01*
X011608Y019192D02*
X011675Y019258D01*
X011675Y019355D02*
X011675Y019489D01*
X011675Y019422D02*
X011475Y019422D01*
X011542Y019355D01*
X011542Y019585D02*
X011508Y019585D01*
X011475Y019619D01*
X011475Y019685D01*
X011508Y019719D01*
X011542Y019719D01*
X011575Y019685D01*
X011575Y019619D01*
X011542Y019585D01*
X011575Y019619D02*
X011608Y019585D01*
X011642Y019585D01*
X011675Y019619D01*
X011675Y019685D01*
X011642Y019719D01*
X011608Y019719D01*
X011575Y019685D01*
X011072Y019606D02*
X011044Y019578D01*
X011555Y019025D02*
X011455Y018925D01*
X011555Y018825D02*
X011555Y019025D01*
X011442Y020275D02*
X011308Y020275D01*
X011275Y020308D01*
X011275Y020375D01*
X011308Y020408D01*
X011442Y020408D02*
X011475Y020375D01*
X011475Y020308D01*
X011442Y020275D01*
X009308Y016769D02*
X009442Y016635D01*
X009475Y016635D01*
X009475Y016539D02*
X009475Y016405D01*
X009475Y016472D02*
X009275Y016472D01*
X009342Y016405D01*
X009375Y016308D02*
X009408Y016275D01*
X009408Y016175D01*
X009408Y016242D02*
X009475Y016308D01*
X009375Y016308D02*
X009308Y016308D01*
X009275Y016275D01*
X009275Y016175D01*
X009475Y016175D01*
X009275Y016635D02*
X009275Y016769D01*
X009308Y016769D01*
X008419Y016442D02*
X008419Y016408D01*
X008385Y016375D01*
X008319Y016375D01*
X008285Y016408D01*
X008285Y016442D01*
X008319Y016475D01*
X008385Y016475D01*
X008419Y016442D01*
X008385Y016375D02*
X008419Y016342D01*
X008419Y016308D01*
X008385Y016275D01*
X008319Y016275D01*
X008285Y016308D01*
X008285Y016342D01*
X008319Y016375D01*
X008189Y016408D02*
X008055Y016275D01*
X008189Y016275D01*
X008189Y016408D02*
X008189Y016442D01*
X008155Y016475D01*
X008089Y016475D01*
X008055Y016442D01*
X007958Y016442D02*
X007925Y016475D01*
X007858Y016475D01*
X007825Y016442D01*
X007825Y016308D01*
X007858Y016275D01*
X007925Y016275D01*
X007958Y016308D01*
X009181Y015304D02*
X009214Y015237D01*
X009281Y015170D01*
X009281Y015271D01*
X009315Y015304D01*
X009348Y015304D01*
X009381Y015271D01*
X009381Y015204D01*
X009348Y015170D01*
X009281Y015170D01*
X009248Y015074D02*
X009281Y015040D01*
X009315Y015074D01*
X009348Y015074D01*
X009381Y015040D01*
X009381Y014974D01*
X009348Y014940D01*
X009281Y015007D02*
X009281Y015040D01*
X009248Y015074D02*
X009214Y015074D01*
X009181Y015040D01*
X009181Y014974D01*
X009214Y014940D01*
X009214Y014843D02*
X009181Y014810D01*
X009181Y014743D01*
X009214Y014710D01*
X009348Y014710D01*
X009381Y014743D01*
X009381Y014810D01*
X009348Y014843D01*
X008425Y014858D02*
X008425Y014725D01*
X008225Y014725D01*
X008205Y014575D02*
X008239Y014542D01*
X008239Y014508D01*
X008205Y014475D01*
X008239Y014442D01*
X008239Y014408D01*
X008205Y014375D01*
X008139Y014375D01*
X008105Y014408D01*
X008172Y014475D02*
X008205Y014475D01*
X008205Y014575D02*
X008139Y014575D01*
X008105Y014542D01*
X008008Y014542D02*
X007975Y014575D01*
X007908Y014575D01*
X007875Y014542D01*
X007875Y014408D01*
X007908Y014375D01*
X007975Y014375D01*
X008008Y014408D01*
X008335Y014375D02*
X008469Y014508D01*
X008469Y014542D01*
X008435Y014575D01*
X008369Y014575D01*
X008335Y014542D01*
X008335Y014375D02*
X008469Y014375D01*
X008392Y014955D02*
X008425Y014989D01*
X008425Y015055D01*
X008392Y015089D01*
X008358Y015089D01*
X008325Y015055D01*
X008325Y015022D01*
X008325Y015055D02*
X008292Y015089D01*
X008258Y015089D01*
X008225Y015055D01*
X008225Y014989D01*
X008258Y014955D01*
X006625Y014145D02*
X006592Y014145D01*
X006458Y014278D01*
X006425Y014278D01*
X006425Y014145D01*
X006458Y014048D02*
X006492Y014048D01*
X006525Y014015D01*
X006558Y014048D01*
X006592Y014048D01*
X006625Y014015D01*
X006625Y013948D01*
X006592Y013915D01*
X006525Y013981D02*
X006525Y014015D01*
X006458Y014048D02*
X006425Y014015D01*
X006425Y013948D01*
X006458Y013915D01*
X006458Y013818D02*
X006425Y013784D01*
X006425Y013718D01*
X006458Y013684D01*
X006592Y013684D01*
X006625Y013718D01*
X006625Y013784D01*
X006592Y013818D01*
X005880Y013783D02*
X005880Y012917D01*
X006006Y012634D02*
X006139Y012634D01*
X006072Y012634D02*
X006072Y012434D01*
X006236Y012434D02*
X006369Y012567D01*
X006369Y012600D01*
X006336Y012634D01*
X006269Y012634D01*
X006236Y012600D01*
X006236Y012434D02*
X006369Y012434D01*
X005880Y012464D02*
X004620Y012464D01*
X004620Y014236D01*
X005880Y014236D01*
X005880Y012464D01*
X005250Y012464D02*
X004935Y012464D01*
X004469Y012192D02*
X004335Y012058D01*
X004369Y012025D01*
X004435Y012025D01*
X004469Y012058D01*
X004469Y012192D01*
X004435Y012225D01*
X004369Y012225D01*
X004335Y012192D01*
X004335Y012058D01*
X004239Y012025D02*
X004105Y012025D01*
X004172Y012025D02*
X004172Y012225D01*
X004105Y012158D01*
X004008Y012125D02*
X003975Y012092D01*
X003875Y012092D01*
X003942Y012092D02*
X004008Y012025D01*
X004008Y012125D02*
X004008Y012192D01*
X003975Y012225D01*
X003875Y012225D01*
X003875Y012025D01*
X003875Y011875D02*
X003975Y011875D01*
X004008Y011842D01*
X004008Y011775D01*
X003975Y011742D01*
X003875Y011742D01*
X003942Y011742D02*
X004008Y011675D01*
X004105Y011675D02*
X004239Y011675D01*
X004172Y011675D02*
X004172Y011875D01*
X004105Y011808D01*
X004335Y011808D02*
X004402Y011875D01*
X004402Y011675D01*
X004335Y011675D02*
X004469Y011675D01*
X003875Y011675D02*
X003875Y011875D01*
X003725Y011875D02*
X003692Y011908D01*
X003725Y011875D02*
X003725Y011808D01*
X003692Y011775D01*
X003558Y011775D01*
X003525Y011808D01*
X003525Y011875D01*
X003558Y011908D01*
X003625Y012005D02*
X003525Y012105D01*
X003725Y012105D01*
X003625Y012139D02*
X003625Y012005D01*
X003625Y012235D02*
X003525Y012335D01*
X003725Y012335D01*
X003625Y012369D02*
X003625Y012235D01*
X004620Y012917D02*
X004620Y013783D01*
X005250Y014236D02*
X005565Y014236D01*
X003809Y014079D02*
X003675Y014079D01*
X003775Y014180D01*
X003775Y013979D01*
X003579Y013979D02*
X003445Y013979D01*
X003445Y014180D01*
X000936Y013964D02*
X000464Y013964D01*
X000464Y014436D01*
X000936Y014436D01*
X000936Y013964D01*
X000936Y013736D02*
X000464Y013736D01*
X000464Y013264D01*
X000936Y013264D01*
X000936Y013736D01*
X000936Y014764D02*
X000464Y014764D01*
X000464Y015236D01*
X000936Y015236D01*
X000936Y014764D01*
X000936Y015464D02*
X000464Y015464D01*
X000464Y015936D01*
X000936Y015936D01*
X000936Y015464D01*
X000000Y010000D02*
X000000Y009500D01*
X000000Y009000D02*
X000000Y008500D01*
X000000Y008000D02*
X000000Y007375D01*
X001625Y007908D02*
X001658Y007875D01*
X001692Y007875D01*
X001725Y007908D01*
X001725Y008075D01*
X001692Y008075D02*
X001758Y008075D01*
X001855Y008042D02*
X001889Y008075D01*
X001955Y008075D01*
X001989Y008042D01*
X001989Y008008D01*
X001855Y007875D01*
X001989Y007875D01*
X004148Y006846D02*
X004348Y006846D01*
X004348Y006780D02*
X004348Y006913D01*
X004475Y006905D02*
X004475Y006839D01*
X004508Y006805D01*
X004508Y006708D02*
X004575Y006708D01*
X004608Y006675D01*
X004608Y006575D01*
X004608Y006642D02*
X004675Y006708D01*
X004675Y006805D02*
X004542Y006939D01*
X004508Y006939D01*
X004475Y006905D01*
X004475Y007035D02*
X004575Y007035D01*
X004542Y007102D01*
X004542Y007135D01*
X004575Y007169D01*
X004642Y007169D01*
X004675Y007135D01*
X004675Y007069D01*
X004642Y007035D01*
X004675Y006939D02*
X004675Y006805D01*
X004508Y006708D02*
X004475Y006675D01*
X004475Y006575D01*
X004675Y006575D01*
X004908Y006574D02*
X004908Y006440D01*
X005008Y006440D01*
X004975Y006507D01*
X004975Y006540D01*
X005008Y006574D01*
X005075Y006574D01*
X005108Y006540D01*
X005108Y006474D01*
X005075Y006440D01*
X005108Y006343D02*
X005108Y006210D01*
X004908Y006210D01*
X004348Y006583D02*
X004348Y006649D01*
X004314Y006683D01*
X004348Y006583D02*
X004314Y006549D01*
X004181Y006549D01*
X004148Y006583D01*
X004148Y006649D01*
X004181Y006683D01*
X004214Y006780D02*
X004148Y006846D01*
X004475Y007035D02*
X004475Y007169D01*
X006010Y006970D02*
X006010Y006770D01*
X006010Y006837D02*
X006110Y006837D01*
X006143Y006870D01*
X006143Y006937D01*
X006110Y006970D01*
X006010Y006970D01*
X006077Y006837D02*
X006143Y006770D01*
X006240Y006770D02*
X006374Y006770D01*
X006307Y006770D02*
X006307Y006970D01*
X006240Y006904D01*
X006470Y006937D02*
X006504Y006970D01*
X006571Y006970D01*
X006604Y006937D01*
X006604Y006904D01*
X006571Y006870D01*
X006604Y006837D01*
X006604Y006804D01*
X006571Y006770D01*
X006504Y006770D01*
X006470Y006804D01*
X006537Y006870D02*
X006571Y006870D01*
X006390Y006592D02*
X006324Y006592D01*
X006290Y006558D01*
X006390Y006592D02*
X006424Y006558D01*
X006424Y006525D01*
X006290Y006392D01*
X006424Y006392D01*
X006193Y006392D02*
X006060Y006392D01*
X006060Y006592D01*
X006510Y006137D02*
X006510Y006004D01*
X006543Y005970D01*
X006610Y005970D01*
X006643Y006004D01*
X006740Y006004D02*
X006774Y005970D01*
X006840Y005970D01*
X006874Y006004D01*
X006874Y006070D01*
X006840Y006104D01*
X006807Y006104D01*
X006740Y006070D01*
X006740Y006170D01*
X006874Y006170D01*
X006970Y006070D02*
X007071Y006070D01*
X007104Y006037D01*
X007104Y006004D01*
X007071Y005970D01*
X007004Y005970D01*
X006970Y006004D01*
X006970Y006070D01*
X007037Y006137D01*
X007104Y006170D01*
X007027Y005802D02*
X007027Y005602D01*
X007093Y005602D02*
X006960Y005602D01*
X006863Y005636D02*
X006830Y005602D01*
X006763Y005602D01*
X006730Y005636D01*
X006730Y005669D01*
X006763Y005702D01*
X006830Y005702D01*
X006863Y005669D01*
X006863Y005636D01*
X006830Y005702D02*
X006863Y005736D01*
X006863Y005769D01*
X006830Y005802D01*
X006763Y005802D01*
X006730Y005769D01*
X006730Y005736D01*
X006763Y005702D01*
X006633Y005636D02*
X006599Y005602D01*
X006533Y005602D01*
X006499Y005636D01*
X006499Y005769D01*
X006533Y005802D01*
X006599Y005802D01*
X006633Y005769D01*
X006960Y005736D02*
X007027Y005802D01*
X006643Y006137D02*
X006610Y006170D01*
X006543Y006170D01*
X006510Y006137D01*
X007625Y005675D02*
X007625Y005508D01*
X007658Y005475D01*
X007725Y005475D01*
X007758Y005508D01*
X007758Y005675D01*
X007855Y005608D02*
X007922Y005675D01*
X007922Y005475D01*
X007855Y005475D02*
X007989Y005475D01*
X008085Y005508D02*
X008219Y005642D01*
X008219Y005508D01*
X008185Y005475D01*
X008119Y005475D01*
X008085Y005508D01*
X008085Y005642D01*
X008119Y005675D01*
X008185Y005675D01*
X008219Y005642D01*
X010119Y006183D02*
X010152Y006149D01*
X010285Y006149D01*
X010319Y006183D01*
X010319Y006249D01*
X010285Y006283D01*
X010285Y006380D02*
X010319Y006413D01*
X010319Y006480D01*
X010285Y006513D01*
X010219Y006513D01*
X010185Y006480D01*
X010185Y006446D01*
X010219Y006380D01*
X010119Y006380D01*
X010119Y006513D01*
X010152Y006610D02*
X010185Y006610D01*
X010219Y006643D01*
X010219Y006710D01*
X010252Y006743D01*
X010285Y006743D01*
X010319Y006710D01*
X010319Y006643D01*
X010285Y006610D01*
X010252Y006610D01*
X010219Y006643D01*
X010219Y006710D02*
X010185Y006743D01*
X010152Y006743D01*
X010119Y006710D01*
X010119Y006643D01*
X010152Y006610D01*
X010152Y006283D02*
X010119Y006249D01*
X010119Y006183D01*
X011075Y006808D02*
X011075Y006875D01*
X011108Y006908D01*
X011108Y007005D02*
X011142Y007005D01*
X011175Y007039D01*
X011175Y007105D01*
X011208Y007139D01*
X011242Y007139D01*
X011275Y007105D01*
X011275Y007039D01*
X011242Y007005D01*
X011208Y007005D01*
X011175Y007039D01*
X011175Y007105D02*
X011142Y007139D01*
X011108Y007139D01*
X011075Y007105D01*
X011075Y007039D01*
X011108Y007005D01*
X011242Y006908D02*
X011275Y006875D01*
X011275Y006808D01*
X011242Y006775D01*
X011108Y006775D01*
X011075Y006808D01*
X011475Y006783D02*
X011475Y006850D01*
X011508Y006883D01*
X011542Y006980D02*
X011475Y007047D01*
X011675Y007047D01*
X011675Y006980D02*
X011675Y007114D01*
X011642Y007210D02*
X011675Y007244D01*
X011675Y007310D01*
X011642Y007344D01*
X011608Y007344D01*
X011575Y007310D01*
X011575Y007277D01*
X011575Y007310D02*
X011542Y007344D01*
X011508Y007344D01*
X011475Y007310D01*
X011475Y007244D01*
X011508Y007210D01*
X011642Y006883D02*
X011675Y006850D01*
X011675Y006783D01*
X011642Y006750D01*
X011508Y006750D01*
X011475Y006783D01*
X011825Y008050D02*
X011825Y008150D01*
X011858Y008183D01*
X011925Y008183D01*
X011958Y008150D01*
X011958Y008050D01*
X011958Y008117D02*
X012025Y008183D01*
X012025Y008050D02*
X011825Y008050D01*
X011925Y008280D02*
X011925Y008414D01*
X012025Y008380D02*
X011825Y008380D01*
X011925Y008280D01*
X012225Y008322D02*
X012425Y008322D01*
X012425Y008255D02*
X012425Y008389D01*
X012325Y008485D02*
X012325Y008619D01*
X012425Y008585D02*
X012225Y008585D01*
X012325Y008485D01*
X012225Y008322D02*
X012292Y008255D01*
X012258Y008158D02*
X012225Y008125D01*
X012225Y008058D01*
X012258Y008025D01*
X012392Y008025D01*
X012425Y008058D01*
X012425Y008125D01*
X012392Y008158D01*
X012575Y008125D02*
X012575Y008058D01*
X012608Y008025D01*
X012742Y008025D01*
X012775Y008058D01*
X012775Y008125D01*
X012742Y008158D01*
X012742Y008255D02*
X012775Y008255D01*
X012742Y008255D02*
X012608Y008389D01*
X012575Y008389D01*
X012575Y008255D01*
X012608Y008158D02*
X012575Y008125D01*
X013340Y007717D02*
X013340Y007583D01*
X013373Y007550D01*
X013440Y007550D01*
X013473Y007583D01*
X013570Y007550D02*
X013703Y007683D01*
X013703Y007717D01*
X013670Y007750D01*
X013603Y007750D01*
X013570Y007717D01*
X013473Y007717D02*
X013440Y007750D01*
X013373Y007750D01*
X013340Y007717D01*
X013570Y007550D02*
X013703Y007550D01*
X013664Y007964D02*
X013664Y008436D01*
X014136Y008436D01*
X014136Y007964D01*
X013664Y007964D01*
X013659Y008540D02*
X013659Y008740D01*
X013725Y008740D02*
X013592Y008740D01*
X013822Y008740D02*
X013922Y008740D01*
X013956Y008707D01*
X013956Y008640D01*
X013922Y008607D01*
X013822Y008607D01*
X013822Y008540D02*
X013822Y008740D01*
X014052Y008673D02*
X014119Y008740D01*
X014119Y008540D01*
X014052Y008540D02*
X014186Y008540D01*
X014593Y008416D02*
X015907Y008416D01*
X014593Y008416D01*
X015050Y008533D02*
X015083Y008500D01*
X015150Y008500D01*
X015183Y008533D01*
X015183Y008700D01*
X015050Y008700D02*
X015050Y008533D01*
X015280Y008600D02*
X015380Y008700D01*
X015380Y008500D01*
X015414Y008600D02*
X015280Y008600D01*
X015356Y008170D02*
X015358Y008193D01*
X015364Y008214D01*
X015373Y008235D01*
X015386Y008254D01*
X015402Y008270D01*
X015421Y008283D01*
X015442Y008292D01*
X015463Y008298D01*
X015486Y008300D01*
X015509Y008298D01*
X015530Y008292D01*
X015551Y008283D01*
X015570Y008270D01*
X015586Y008254D01*
X015599Y008235D01*
X015608Y008214D01*
X015614Y008193D01*
X015616Y008170D01*
X015614Y008147D01*
X015608Y008126D01*
X015599Y008105D01*
X015586Y008086D01*
X015570Y008070D01*
X015551Y008057D01*
X015530Y008048D01*
X015509Y008042D01*
X015486Y008040D01*
X015463Y008042D01*
X015442Y008048D01*
X015421Y008057D01*
X015402Y008070D01*
X015386Y008086D01*
X015373Y008105D01*
X015364Y008126D01*
X015358Y008147D01*
X015356Y008170D01*
X015911Y007928D02*
X015911Y007872D01*
X015911Y007928D01*
X016213Y008310D02*
X016346Y008310D01*
X016380Y008343D01*
X016380Y008410D01*
X016346Y008443D01*
X016346Y008540D02*
X016380Y008574D01*
X016380Y008640D01*
X016346Y008674D01*
X016280Y008674D01*
X016246Y008640D01*
X016246Y008607D01*
X016280Y008540D01*
X016180Y008540D01*
X016180Y008674D01*
X016180Y008770D02*
X016180Y008904D01*
X016213Y008904D01*
X016346Y008770D01*
X016380Y008770D01*
X016630Y008690D02*
X016663Y008724D01*
X016696Y008724D01*
X016730Y008690D01*
X016763Y008724D01*
X016796Y008724D01*
X016830Y008690D01*
X016830Y008624D01*
X016796Y008590D01*
X016730Y008657D02*
X016730Y008690D01*
X016630Y008690D02*
X016630Y008624D01*
X016663Y008590D01*
X016663Y008493D02*
X016630Y008460D01*
X016630Y008393D01*
X016663Y008360D01*
X016796Y008360D01*
X016830Y008393D01*
X016830Y008460D01*
X016796Y008493D01*
X016830Y008820D02*
X016830Y008954D01*
X016830Y008887D02*
X016630Y008887D01*
X016696Y008820D01*
X016213Y008443D02*
X016180Y008410D01*
X016180Y008343D01*
X016213Y008310D01*
X015907Y007384D02*
X014593Y007384D01*
X015907Y007384D01*
X015621Y006719D02*
X015654Y006686D01*
X015654Y006652D01*
X015621Y006619D01*
X015654Y006585D01*
X015654Y006552D01*
X015621Y006519D01*
X015554Y006519D01*
X015520Y006552D01*
X015587Y006619D02*
X015621Y006619D01*
X015621Y006719D02*
X015554Y006719D01*
X015520Y006686D01*
X015424Y006719D02*
X015290Y006719D01*
X015290Y006619D01*
X015357Y006652D01*
X015390Y006652D01*
X015424Y006619D01*
X015424Y006552D01*
X015390Y006519D01*
X015324Y006519D01*
X015290Y006552D01*
X015193Y006552D02*
X015160Y006519D01*
X015093Y006519D01*
X015060Y006552D01*
X015060Y006686D01*
X015093Y006719D01*
X015160Y006719D01*
X015193Y006686D01*
X014775Y006675D02*
X014742Y006708D01*
X014775Y006675D02*
X014775Y006608D01*
X014742Y006575D01*
X014608Y006575D01*
X014575Y006608D01*
X014575Y006675D01*
X014608Y006708D01*
X014642Y006805D02*
X014575Y006872D01*
X014775Y006872D01*
X014775Y006805D02*
X014775Y006939D01*
X014775Y007035D02*
X014742Y007035D01*
X014608Y007169D01*
X014575Y007169D01*
X014575Y007035D01*
X013825Y007055D02*
X013792Y007089D01*
X013658Y007089D01*
X013625Y007055D01*
X013625Y006989D01*
X013658Y006955D01*
X013692Y006955D01*
X013725Y006989D01*
X013725Y007089D01*
X013825Y007055D02*
X013825Y006989D01*
X013792Y006955D01*
X013792Y006858D02*
X013825Y006825D01*
X013825Y006758D01*
X013792Y006725D01*
X013658Y006725D01*
X013625Y006758D01*
X013625Y006825D01*
X013658Y006858D01*
X014593Y007872D02*
X014593Y007928D01*
X014593Y007872D01*
X014035Y009125D02*
X013969Y009125D01*
X013935Y009158D01*
X014002Y009225D02*
X014035Y009225D01*
X014069Y009192D01*
X014069Y009158D01*
X014035Y009125D01*
X014035Y009225D02*
X014069Y009258D01*
X014069Y009292D01*
X014035Y009325D01*
X013969Y009325D01*
X013935Y009292D01*
X013839Y009292D02*
X013839Y009225D01*
X013805Y009192D01*
X013705Y009192D01*
X013705Y009125D02*
X013705Y009325D01*
X013805Y009325D01*
X013839Y009292D01*
X013986Y009414D02*
X013514Y009414D01*
X013514Y009886D01*
X013986Y009886D01*
X013986Y009414D01*
X013608Y009325D02*
X013475Y009325D01*
X013542Y009325D02*
X013542Y009125D01*
X011051Y009154D02*
X011051Y009020D01*
X011051Y009087D02*
X010851Y009087D01*
X010918Y009020D01*
X010951Y008924D02*
X010951Y008790D01*
X010851Y008890D01*
X011051Y008890D01*
X011018Y008693D02*
X011051Y008660D01*
X011051Y008593D01*
X011018Y008560D01*
X010884Y008560D01*
X010851Y008593D01*
X010851Y008660D01*
X010884Y008693D01*
X009896Y008556D02*
X009896Y009344D01*
X009404Y009344D01*
X009404Y008556D01*
X009896Y008556D01*
X009839Y008475D02*
X009839Y008442D01*
X009705Y008308D01*
X009705Y008275D01*
X009608Y008308D02*
X009608Y008475D01*
X009705Y008475D02*
X009839Y008475D01*
X009608Y008308D02*
X009575Y008275D01*
X009508Y008275D01*
X009475Y008308D01*
X009475Y008475D01*
X009175Y008485D02*
X009175Y008419D01*
X009142Y008385D01*
X009075Y008385D02*
X009042Y008452D01*
X009042Y008485D01*
X009075Y008519D01*
X009142Y008519D01*
X009175Y008485D01*
X009075Y008385D02*
X008975Y008385D01*
X008975Y008519D01*
X008975Y008289D02*
X008975Y008155D01*
X009075Y008155D01*
X009042Y008222D01*
X009042Y008255D01*
X009075Y008289D01*
X009142Y008289D01*
X009175Y008255D01*
X009175Y008189D01*
X009142Y008155D01*
X009142Y008058D02*
X009175Y008025D01*
X009175Y007958D01*
X009142Y007925D01*
X009008Y007925D01*
X008975Y007958D01*
X008975Y008025D01*
X009008Y008058D01*
X007886Y008114D02*
X007414Y008114D01*
X007414Y008586D01*
X007886Y008586D01*
X007886Y008114D01*
X007299Y008308D02*
X007266Y008275D01*
X007199Y008275D01*
X007166Y008308D01*
X007166Y008375D02*
X007232Y008408D01*
X007266Y008408D01*
X007299Y008375D01*
X007299Y008308D01*
X007166Y008375D02*
X007166Y008475D01*
X007299Y008475D01*
X007002Y008475D02*
X007002Y008275D01*
X006935Y008275D02*
X007069Y008275D01*
X006935Y008408D02*
X007002Y008475D01*
X006839Y008442D02*
X006839Y008375D01*
X006805Y008342D01*
X006705Y008342D01*
X006705Y008275D02*
X006705Y008475D01*
X006805Y008475D01*
X006839Y008442D01*
X006608Y008475D02*
X006475Y008475D01*
X006542Y008475D02*
X006542Y008275D01*
X006736Y008964D02*
X006264Y008964D01*
X006264Y009436D01*
X006736Y009436D01*
X006736Y008964D01*
X007625Y008875D02*
X007625Y008808D01*
X007658Y008775D01*
X007792Y008775D01*
X007825Y008808D01*
X007825Y008875D01*
X007792Y008908D01*
X007725Y009005D02*
X007725Y009139D01*
X007825Y009105D02*
X007625Y009105D01*
X007725Y009005D01*
X007658Y008908D02*
X007625Y008875D01*
X007658Y009235D02*
X007625Y009269D01*
X007625Y009335D01*
X007658Y009369D01*
X007692Y009369D01*
X007825Y009235D01*
X007825Y009369D01*
X008825Y010008D02*
X008858Y009975D01*
X008925Y009975D01*
X008958Y010008D01*
X009055Y010075D02*
X009189Y010075D01*
X009155Y009975D02*
X009155Y010175D01*
X009055Y010075D01*
X008958Y010142D02*
X008925Y010175D01*
X008858Y010175D01*
X008825Y010142D01*
X008825Y010008D01*
X009285Y010008D02*
X009319Y009975D01*
X009385Y009975D01*
X009419Y010008D01*
X009419Y010042D01*
X009385Y010075D01*
X009352Y010075D01*
X009385Y010075D02*
X009419Y010108D01*
X009419Y010142D01*
X009385Y010175D01*
X009319Y010175D01*
X009285Y010142D01*
X011175Y011525D02*
X011175Y011725D01*
X011275Y011725D01*
X011308Y011692D01*
X011308Y011625D01*
X011275Y011592D01*
X011175Y011592D01*
X011242Y011592D02*
X011308Y011525D01*
X011405Y011625D02*
X011539Y011625D01*
X011505Y011525D02*
X011505Y011725D01*
X011405Y011625D01*
X011635Y011692D02*
X011669Y011725D01*
X011735Y011725D01*
X011769Y011692D01*
X011769Y011658D01*
X011635Y011525D01*
X011769Y011525D01*
X011535Y011925D02*
X011469Y011925D01*
X011435Y011958D01*
X011435Y012025D02*
X011502Y012058D01*
X011535Y012058D01*
X011569Y012025D01*
X011569Y011958D01*
X011535Y011925D01*
X011435Y012025D02*
X011435Y012125D01*
X011569Y012125D01*
X011272Y012125D02*
X011272Y011925D01*
X011205Y011925D02*
X011339Y011925D01*
X011205Y012058D02*
X011272Y012125D01*
X011108Y012092D02*
X011075Y012125D01*
X010975Y012125D01*
X010975Y011925D01*
X010975Y011992D02*
X011075Y011992D01*
X011108Y012025D01*
X011108Y012092D01*
X011042Y011992D02*
X011108Y011925D01*
X009825Y013058D02*
X009825Y013125D01*
X009792Y013158D01*
X009792Y013255D02*
X009825Y013289D01*
X009825Y013355D01*
X009792Y013389D01*
X009758Y013389D01*
X009725Y013355D01*
X009725Y013322D01*
X009725Y013355D02*
X009692Y013389D01*
X009658Y013389D01*
X009625Y013355D01*
X009625Y013289D01*
X009658Y013255D01*
X009658Y013158D02*
X009625Y013125D01*
X009625Y013058D01*
X009658Y013025D01*
X009792Y013025D01*
X009825Y013058D01*
X009725Y013485D02*
X009725Y013619D01*
X009825Y013585D02*
X009625Y013585D01*
X009725Y013485D01*
X012775Y013292D02*
X012775Y013158D01*
X012808Y013125D01*
X012875Y013125D01*
X012908Y013158D01*
X013005Y013125D02*
X013139Y013258D01*
X013139Y013292D01*
X013105Y013325D01*
X013039Y013325D01*
X013005Y013292D01*
X012908Y013292D02*
X012875Y013325D01*
X012808Y013325D01*
X012775Y013292D01*
X013005Y013125D02*
X013139Y013125D01*
X013235Y013125D02*
X013235Y013158D01*
X013369Y013292D01*
X013369Y013325D01*
X013235Y013325D01*
X012835Y016025D02*
X012769Y016025D01*
X012735Y016058D01*
X012735Y016125D02*
X012802Y016158D01*
X012835Y016158D01*
X012869Y016125D01*
X012869Y016058D01*
X012835Y016025D01*
X012735Y016125D02*
X012735Y016225D01*
X012869Y016225D01*
X012639Y016125D02*
X012505Y016125D01*
X012605Y016225D01*
X012605Y016025D01*
X012408Y016058D02*
X012375Y016025D01*
X012308Y016025D01*
X012275Y016058D01*
X012275Y016192D01*
X012308Y016225D01*
X012375Y016225D01*
X012408Y016192D01*
X018698Y012560D02*
X018798Y012460D01*
X018798Y012593D01*
X018898Y012560D02*
X018698Y012560D01*
X018731Y012363D02*
X018764Y012363D01*
X018798Y012330D01*
X018798Y012263D01*
X018764Y012230D01*
X018731Y012230D01*
X018698Y012263D01*
X018698Y012330D01*
X018731Y012363D01*
X018798Y012330D02*
X018831Y012363D01*
X018864Y012363D01*
X018898Y012330D01*
X018898Y012263D01*
X018864Y012230D01*
X018831Y012230D01*
X018798Y012263D01*
X018864Y012133D02*
X018898Y012099D01*
X018898Y012033D01*
X018864Y011999D01*
X018731Y011999D01*
X018698Y012033D01*
X018698Y012099D01*
X018731Y012133D01*
X019260Y012570D02*
X019260Y012770D01*
X019360Y012770D01*
X019393Y012737D01*
X019393Y012670D01*
X019360Y012637D01*
X019260Y012637D01*
X019327Y012637D02*
X019393Y012570D01*
X019490Y012570D02*
X019624Y012704D01*
X019624Y012737D01*
X019590Y012770D01*
X019524Y012770D01*
X019490Y012737D01*
X019490Y012570D02*
X019624Y012570D01*
X019720Y012570D02*
X019720Y012604D01*
X019854Y012737D01*
X019854Y012770D01*
X019720Y012770D01*
X018946Y011057D02*
X018813Y011057D01*
X018813Y010957D01*
X018879Y010990D01*
X018913Y010990D01*
X018946Y010957D01*
X018946Y010890D01*
X018913Y010857D01*
X018846Y010857D01*
X018813Y010890D01*
X018716Y010890D02*
X018716Y011057D01*
X018582Y011057D02*
X018582Y010890D01*
X018616Y010857D01*
X018683Y010857D01*
X018716Y010890D01*
X019875Y010242D02*
X019875Y010108D01*
X019908Y010075D01*
X019975Y010075D01*
X020008Y010108D01*
X020105Y010108D02*
X020105Y010142D01*
X020139Y010175D01*
X020205Y010175D01*
X020239Y010142D01*
X020239Y010108D01*
X020205Y010075D01*
X020139Y010075D01*
X020105Y010108D01*
X020139Y010175D02*
X020105Y010208D01*
X020105Y010242D01*
X020139Y010275D01*
X020205Y010275D01*
X020239Y010242D01*
X020239Y010208D01*
X020205Y010175D01*
X020335Y010108D02*
X020369Y010075D01*
X020435Y010075D01*
X020469Y010108D01*
X020469Y010142D01*
X020435Y010175D01*
X020402Y010175D01*
X020435Y010175D02*
X020469Y010208D01*
X020469Y010242D01*
X020435Y010275D01*
X020369Y010275D01*
X020335Y010242D01*
X020008Y010242D02*
X019975Y010275D01*
X019908Y010275D01*
X019875Y010242D01*
X018886Y009336D02*
X018886Y008864D01*
X018414Y008864D01*
X018414Y009336D01*
X018886Y009336D01*
X019660Y009166D02*
X019660Y009032D01*
X019693Y008999D01*
X019760Y008999D01*
X019793Y009032D01*
X019890Y009032D02*
X019924Y008999D01*
X019990Y008999D01*
X020024Y009032D01*
X020024Y009066D01*
X019990Y009099D01*
X019890Y009099D01*
X019890Y009032D01*
X019890Y009099D02*
X019957Y009166D01*
X020024Y009199D01*
X020120Y009166D02*
X020154Y009199D01*
X020221Y009199D01*
X020254Y009166D01*
X020120Y009032D01*
X020154Y008999D01*
X020221Y008999D01*
X020254Y009032D01*
X020254Y009166D01*
X020120Y009166D02*
X020120Y009032D01*
X019793Y009166D02*
X019760Y009199D01*
X019693Y009199D01*
X019660Y009166D01*
X020154Y008394D02*
X020154Y007606D01*
X020646Y007606D01*
X020646Y008394D01*
X020154Y008394D01*
X019251Y007871D02*
X019218Y007904D01*
X019084Y007904D01*
X019051Y007871D01*
X019051Y007804D01*
X019084Y007770D01*
X019118Y007770D01*
X019151Y007804D01*
X019151Y007904D01*
X019251Y007871D02*
X019251Y007804D01*
X019218Y007770D01*
X019218Y007674D02*
X019251Y007640D01*
X019251Y007574D01*
X019218Y007540D01*
X019151Y007540D02*
X019118Y007607D01*
X019118Y007640D01*
X019151Y007674D01*
X019218Y007674D01*
X019151Y007540D02*
X019051Y007540D01*
X019051Y007674D01*
X018936Y007686D02*
X018464Y007686D01*
X018464Y007214D01*
X018936Y007214D01*
X018936Y007686D01*
X019084Y007443D02*
X019051Y007410D01*
X019051Y007343D01*
X019084Y007310D01*
X019218Y007310D01*
X019251Y007343D01*
X019251Y007410D01*
X019218Y007443D01*
X019236Y006786D02*
X018764Y006786D01*
X018764Y006314D01*
X019236Y006314D01*
X019236Y006786D01*
X019349Y006669D02*
X019349Y006536D01*
X019383Y006502D01*
X019449Y006502D01*
X019483Y006536D01*
X019580Y006536D02*
X019580Y006569D01*
X019613Y006602D01*
X019680Y006602D01*
X019713Y006569D01*
X019713Y006536D01*
X019680Y006502D01*
X019613Y006502D01*
X019580Y006536D01*
X019613Y006602D02*
X019580Y006636D01*
X019580Y006669D01*
X019613Y006702D01*
X019680Y006702D01*
X019713Y006669D01*
X019713Y006636D01*
X019680Y006602D01*
X019810Y006669D02*
X019843Y006702D01*
X019910Y006702D01*
X019943Y006669D01*
X019943Y006636D01*
X019810Y006502D01*
X019943Y006502D01*
X020109Y006490D02*
X020109Y006690D01*
X020175Y006690D02*
X020042Y006690D01*
X020272Y006690D02*
X020272Y006490D01*
X020272Y006557D02*
X020372Y006557D01*
X020406Y006590D01*
X020406Y006657D01*
X020372Y006690D01*
X020272Y006690D01*
X020502Y006657D02*
X020502Y006623D01*
X020536Y006590D01*
X020602Y006590D01*
X020636Y006557D01*
X020636Y006523D01*
X020602Y006490D01*
X020536Y006490D01*
X020502Y006523D01*
X020502Y006557D01*
X020536Y006590D01*
X020602Y006590D02*
X020636Y006623D01*
X020636Y006657D01*
X020602Y006690D01*
X020536Y006690D01*
X020502Y006657D01*
X020586Y006386D02*
X020114Y006386D01*
X020114Y005914D01*
X020586Y005914D01*
X020586Y006386D01*
X020595Y007075D02*
X020528Y007075D01*
X020495Y007108D01*
X020495Y007175D01*
X020595Y007175D01*
X020628Y007142D01*
X020628Y007108D01*
X020595Y007075D01*
X020495Y007175D02*
X020562Y007242D01*
X020628Y007275D01*
X020398Y007275D02*
X020398Y007108D01*
X020365Y007075D01*
X020298Y007075D01*
X020265Y007108D01*
X020265Y007275D01*
X019483Y006669D02*
X019449Y006702D01*
X019383Y006702D01*
X019349Y006669D01*
X019266Y006140D02*
X019133Y006140D01*
X019036Y006107D02*
X019002Y006140D01*
X018936Y006140D01*
X018902Y006107D01*
X018806Y006107D02*
X018806Y006040D01*
X018772Y006007D01*
X018672Y006007D01*
X018672Y005940D02*
X018672Y006140D01*
X018772Y006140D01*
X018806Y006107D01*
X018902Y005940D02*
X019036Y006073D01*
X019036Y006107D01*
X019133Y005973D02*
X019133Y005940D01*
X019133Y005973D02*
X019266Y006107D01*
X019266Y006140D01*
X019036Y005940D02*
X018902Y005940D01*
X018575Y006140D02*
X018442Y006140D01*
X018509Y006140D02*
X018509Y005940D01*
X018378Y005658D02*
X018142Y005658D01*
X018142Y005422D01*
X018181Y005619D02*
X018181Y001681D01*
X021930Y001681D01*
X022119Y001839D01*
X022119Y005619D01*
X018181Y005619D01*
X017960Y006092D02*
X017960Y006225D01*
X017960Y006159D02*
X018160Y006159D01*
X018160Y006322D02*
X017960Y006322D01*
X017960Y006422D01*
X017993Y006456D01*
X018060Y006456D01*
X018093Y006422D01*
X018093Y006322D01*
X018214Y006314D02*
X018214Y006786D01*
X018686Y006786D01*
X018686Y006314D01*
X018214Y006314D01*
X018160Y006552D02*
X018027Y006686D01*
X017993Y006686D01*
X017960Y006652D01*
X017960Y006586D01*
X017993Y006552D01*
X018160Y006552D02*
X018160Y006686D01*
X018127Y006783D02*
X018160Y006816D01*
X018160Y006883D01*
X018127Y006916D01*
X018060Y006916D01*
X018027Y006883D01*
X018027Y006849D01*
X018060Y006783D01*
X017960Y006783D01*
X017960Y006916D01*
X018175Y007075D02*
X018175Y007208D01*
X018175Y007142D02*
X018375Y007142D01*
X018375Y007305D02*
X018175Y007305D01*
X018175Y007405D01*
X018208Y007439D01*
X018275Y007439D01*
X018308Y007405D01*
X018308Y007305D01*
X018242Y007535D02*
X018175Y007602D01*
X018375Y007602D01*
X018375Y007535D02*
X018375Y007669D01*
X018275Y007766D02*
X018275Y007899D01*
X018375Y007866D02*
X018175Y007866D01*
X018275Y007766D01*
X017239Y007425D02*
X017105Y007425D01*
X017105Y007325D01*
X017172Y007358D01*
X017205Y007358D01*
X017239Y007325D01*
X017239Y007258D01*
X017205Y007225D01*
X017139Y007225D01*
X017105Y007258D01*
X017008Y007225D02*
X016942Y007292D01*
X016975Y007292D02*
X016875Y007292D01*
X016875Y007225D02*
X016875Y007425D01*
X016975Y007425D01*
X017008Y007392D01*
X017008Y007325D01*
X016975Y007292D01*
X016969Y006450D02*
X017035Y006450D01*
X017069Y006417D01*
X017069Y006383D01*
X017035Y006350D01*
X016969Y006350D01*
X016935Y006383D01*
X016935Y006417D01*
X016969Y006450D01*
X016969Y006350D02*
X016935Y006317D01*
X016935Y006283D01*
X016969Y006250D01*
X017035Y006250D01*
X017069Y006283D01*
X017069Y006317D01*
X017035Y006350D01*
X016839Y006250D02*
X016705Y006250D01*
X016772Y006250D02*
X016772Y006450D01*
X016705Y006383D01*
X016608Y006417D02*
X016575Y006450D01*
X016508Y006450D01*
X016475Y006417D01*
X016475Y006283D01*
X016508Y006250D01*
X016575Y006250D01*
X016608Y006283D01*
X016575Y006100D02*
X016508Y006100D01*
X016475Y006067D01*
X016475Y005933D01*
X016508Y005900D01*
X016575Y005900D01*
X016608Y005933D01*
X016705Y005900D02*
X016839Y005900D01*
X016772Y005900D02*
X016772Y006100D01*
X016705Y006033D01*
X016608Y006067D02*
X016575Y006100D01*
X016935Y006067D02*
X016969Y006100D01*
X017035Y006100D01*
X017069Y006067D01*
X017069Y006033D01*
X016935Y005900D01*
X017069Y005900D01*
X017325Y005900D02*
X017325Y006100D01*
X017425Y006100D01*
X017458Y006067D01*
X017458Y006000D01*
X017425Y005967D01*
X017325Y005967D01*
X017392Y005967D02*
X017458Y005900D01*
X017555Y005900D02*
X017689Y006033D01*
X017689Y006067D01*
X017655Y006100D01*
X017589Y006100D01*
X017555Y006067D01*
X017555Y005900D02*
X017689Y005900D01*
X017680Y006250D02*
X017680Y006450D01*
X017580Y006350D01*
X017714Y006350D01*
X017483Y006283D02*
X017450Y006250D01*
X017383Y006250D01*
X017350Y006283D01*
X017350Y006417D01*
X017383Y006450D01*
X017450Y006450D01*
X017483Y006417D01*
X016278Y005417D02*
X016278Y005383D01*
X016245Y005350D01*
X016278Y005317D01*
X016278Y005283D01*
X016245Y005250D01*
X016178Y005250D01*
X016145Y005283D01*
X016212Y005350D02*
X016245Y005350D01*
X016278Y005417D02*
X016245Y005450D01*
X016178Y005450D01*
X016145Y005417D01*
X016048Y005417D02*
X016015Y005450D01*
X015948Y005450D01*
X015915Y005417D01*
X015915Y005283D01*
X015948Y005250D01*
X016015Y005250D01*
X016048Y005283D01*
X015364Y004875D02*
X015230Y004875D01*
X015230Y004775D01*
X015297Y004808D01*
X015330Y004808D01*
X015364Y004775D01*
X015364Y004708D01*
X015330Y004675D01*
X015264Y004675D01*
X015230Y004708D01*
X015133Y004708D02*
X015100Y004675D01*
X015033Y004675D01*
X015000Y004708D01*
X015000Y004842D01*
X015033Y004875D01*
X015100Y004875D01*
X015133Y004842D01*
X014650Y004983D02*
X014650Y005050D01*
X014617Y005083D01*
X014617Y005180D02*
X014650Y005214D01*
X014650Y005280D01*
X014617Y005314D01*
X014583Y005314D01*
X014550Y005280D01*
X014550Y005180D01*
X014617Y005180D01*
X014550Y005180D02*
X014483Y005247D01*
X014450Y005314D01*
X014483Y005083D02*
X014450Y005050D01*
X014450Y004983D01*
X014483Y004950D01*
X014617Y004950D01*
X014650Y004983D01*
X014597Y003975D02*
X014597Y003775D01*
X014530Y003775D02*
X014664Y003775D01*
X014760Y003808D02*
X014794Y003775D01*
X014860Y003775D01*
X014894Y003808D01*
X014894Y003842D01*
X014860Y003875D01*
X014760Y003875D01*
X014760Y003808D01*
X014760Y003875D02*
X014827Y003942D01*
X014894Y003975D01*
X014597Y003975D02*
X014530Y003908D01*
X014433Y003942D02*
X014400Y003975D01*
X014333Y003975D01*
X014300Y003942D01*
X014300Y003808D01*
X014333Y003775D01*
X014400Y003775D01*
X014433Y003808D01*
X014414Y003636D02*
X014886Y003636D01*
X014886Y003164D01*
X014414Y003164D01*
X014414Y003636D01*
X014524Y003070D02*
X014457Y003037D01*
X014390Y002970D01*
X014490Y002970D01*
X014524Y002937D01*
X014524Y002904D01*
X014490Y002870D01*
X014424Y002870D01*
X014390Y002904D01*
X014390Y002970D01*
X014293Y002904D02*
X014260Y002870D01*
X014193Y002870D01*
X014160Y002904D01*
X014160Y003037D01*
X014193Y003070D01*
X014260Y003070D01*
X014293Y003037D01*
X014260Y002720D02*
X014193Y002720D01*
X014160Y002687D01*
X014160Y002554D01*
X014193Y002520D01*
X014260Y002520D01*
X014293Y002554D01*
X014390Y002554D02*
X014424Y002520D01*
X014490Y002520D01*
X014524Y002554D01*
X014524Y002587D01*
X014490Y002620D01*
X014390Y002620D01*
X014390Y002554D01*
X014390Y002620D02*
X014457Y002687D01*
X014524Y002720D01*
X014620Y002620D02*
X014754Y002620D01*
X014721Y002520D02*
X014721Y002720D01*
X014620Y002620D01*
X014654Y002870D02*
X014620Y002904D01*
X014654Y002870D02*
X014721Y002870D01*
X014754Y002904D01*
X014754Y002937D01*
X014721Y002970D01*
X014687Y002970D01*
X014721Y002970D02*
X014754Y003004D01*
X014754Y003037D01*
X014721Y003070D01*
X014654Y003070D01*
X014620Y003037D01*
X015000Y003258D02*
X015033Y003225D01*
X015100Y003225D01*
X015133Y003258D01*
X015230Y003225D02*
X015364Y003225D01*
X015297Y003225D02*
X015297Y003425D01*
X015230Y003358D01*
X015133Y003392D02*
X015100Y003425D01*
X015033Y003425D01*
X015000Y003392D01*
X015000Y003258D01*
X015460Y003258D02*
X015494Y003225D01*
X015560Y003225D01*
X015594Y003258D01*
X015594Y003325D01*
X015560Y003358D01*
X015527Y003358D01*
X015460Y003325D01*
X015460Y003425D01*
X015594Y003425D01*
X015675Y003725D02*
X015675Y003825D01*
X015708Y003858D01*
X015775Y003858D01*
X015808Y003825D01*
X015808Y003725D01*
X015808Y003792D02*
X015875Y003858D01*
X015842Y003955D02*
X015875Y003989D01*
X015875Y004055D01*
X015842Y004089D01*
X015708Y004089D01*
X015675Y004055D01*
X015675Y003989D01*
X015708Y003955D01*
X015742Y003955D01*
X015775Y003989D01*
X015775Y004089D01*
X015875Y003725D02*
X015675Y003725D01*
X014293Y002687D02*
X014260Y002720D01*
X013186Y002564D02*
X012714Y002564D01*
X012714Y003036D01*
X013186Y003036D01*
X013186Y002564D01*
X012619Y002749D02*
X012586Y002716D01*
X012519Y002716D01*
X012486Y002749D01*
X012619Y002882D01*
X012619Y002749D01*
X012486Y002749D02*
X012486Y002882D01*
X012519Y002916D01*
X012586Y002916D01*
X012619Y002882D01*
X012389Y002716D02*
X012255Y002716D01*
X012322Y002716D02*
X012322Y002916D01*
X012255Y002849D01*
X012159Y002882D02*
X012159Y002816D01*
X012125Y002782D01*
X012025Y002782D01*
X012025Y002716D02*
X012025Y002916D01*
X012125Y002916D01*
X012159Y002882D01*
X011929Y002916D02*
X011795Y002916D01*
X011862Y002916D02*
X011862Y002716D01*
X012279Y003263D02*
X012413Y003263D01*
X012510Y003296D02*
X012510Y003330D01*
X012543Y003363D01*
X012610Y003363D01*
X012643Y003330D01*
X012643Y003296D01*
X012610Y003263D01*
X012543Y003263D01*
X012510Y003296D01*
X012543Y003363D02*
X012510Y003396D01*
X012510Y003430D01*
X012543Y003463D01*
X012610Y003463D01*
X012643Y003430D01*
X012643Y003396D01*
X012610Y003363D01*
X012279Y003463D02*
X012279Y003263D01*
X011991Y004361D02*
X011858Y004361D01*
X011924Y004361D02*
X011924Y004562D01*
X011858Y004495D01*
X011761Y004562D02*
X011761Y004395D01*
X011727Y004361D01*
X011661Y004361D01*
X011627Y004395D01*
X011627Y004562D01*
X018142Y001878D02*
X018142Y001642D01*
X018378Y001642D01*
X018361Y000870D02*
X018495Y000870D01*
X018495Y000837D01*
X018361Y000704D01*
X018361Y000670D01*
X018265Y000704D02*
X018231Y000670D01*
X018165Y000670D01*
X018131Y000704D01*
X018131Y000837D01*
X018165Y000870D01*
X018231Y000870D01*
X018265Y000837D01*
X018592Y000837D02*
X018592Y000804D01*
X018625Y000770D01*
X018725Y000770D01*
X018725Y000704D02*
X018725Y000837D01*
X018692Y000870D01*
X018625Y000870D01*
X018592Y000837D01*
X018592Y000704D02*
X018625Y000670D01*
X018692Y000670D01*
X018725Y000704D01*
X019499Y000786D02*
X019533Y000752D01*
X019599Y000752D01*
X019633Y000786D01*
X019730Y000786D02*
X019730Y000819D01*
X019763Y000852D01*
X019830Y000852D01*
X019863Y000819D01*
X019863Y000786D01*
X019830Y000752D01*
X019763Y000752D01*
X019730Y000786D01*
X019763Y000852D02*
X019730Y000886D01*
X019730Y000919D01*
X019763Y000952D01*
X019830Y000952D01*
X019863Y000919D01*
X019863Y000886D01*
X019830Y000852D01*
X019960Y000786D02*
X020093Y000919D01*
X020093Y000786D01*
X020060Y000752D01*
X019993Y000752D01*
X019960Y000786D01*
X019960Y000919D01*
X019993Y000952D01*
X020060Y000952D01*
X020093Y000919D01*
X020214Y000864D02*
X020214Y001336D01*
X020686Y001336D01*
X020686Y000864D01*
X020214Y000864D01*
X019633Y000919D02*
X019599Y000952D01*
X019533Y000952D01*
X019499Y000919D01*
X019499Y000786D01*
X020792Y001040D02*
X020925Y001040D01*
X020859Y001040D02*
X020859Y000840D01*
X021022Y000840D02*
X021022Y001040D01*
X021122Y001040D01*
X021156Y001007D01*
X021156Y000940D01*
X021122Y000907D01*
X021022Y000907D01*
X021252Y000873D02*
X021286Y000840D01*
X021352Y000840D01*
X021386Y000873D01*
X021386Y000907D01*
X021352Y000940D01*
X021319Y000940D01*
X021352Y000940D02*
X021386Y000973D01*
X021386Y001007D01*
X021352Y001040D01*
X021286Y001040D01*
X021252Y001007D01*
X021483Y001007D02*
X021516Y001040D01*
X021583Y001040D01*
X021616Y001007D01*
X021483Y000873D01*
X021516Y000840D01*
X021583Y000840D01*
X021616Y000873D01*
X021616Y001007D01*
X021483Y001007D02*
X021483Y000873D01*
X022025Y001358D02*
X022058Y001325D01*
X022125Y001325D01*
X022158Y001358D01*
X022158Y001525D01*
X022255Y001492D02*
X022255Y001458D01*
X022289Y001425D01*
X022389Y001425D01*
X022389Y001358D02*
X022389Y001492D01*
X022355Y001525D01*
X022289Y001525D01*
X022255Y001492D01*
X022255Y001358D02*
X022289Y001325D01*
X022355Y001325D01*
X022389Y001358D01*
X022025Y001358D02*
X022025Y001525D01*
X021930Y001642D02*
X022158Y001839D01*
X022412Y002075D02*
X022414Y002095D01*
X022420Y002113D01*
X022429Y002131D01*
X022441Y002146D01*
X022456Y002158D01*
X022474Y002167D01*
X022492Y002173D01*
X022512Y002175D01*
X022532Y002173D01*
X022550Y002167D01*
X022568Y002158D01*
X022583Y002146D01*
X022595Y002131D01*
X022604Y002113D01*
X022610Y002095D01*
X022612Y002075D01*
X022610Y002055D01*
X022604Y002037D01*
X022595Y002019D01*
X022583Y002004D01*
X022568Y001992D01*
X022550Y001983D01*
X022532Y001977D01*
X022512Y001975D01*
X022492Y001977D01*
X022474Y001983D01*
X022456Y001992D01*
X022441Y002004D01*
X022429Y002019D01*
X022420Y002037D01*
X022414Y002055D01*
X022412Y002075D01*
X023414Y002286D02*
X023414Y001814D01*
X023886Y001814D01*
X023886Y002286D01*
X023414Y002286D01*
X023998Y002383D02*
X024031Y002349D01*
X024164Y002349D01*
X024198Y002383D01*
X024198Y002449D01*
X024164Y002483D01*
X024198Y002580D02*
X024064Y002713D01*
X024031Y002713D01*
X023998Y002680D01*
X023998Y002613D01*
X024031Y002580D01*
X024031Y002483D02*
X023998Y002449D01*
X023998Y002383D01*
X024098Y002193D02*
X024098Y002060D01*
X023998Y002160D01*
X024198Y002160D01*
X024380Y002137D02*
X024580Y002137D01*
X024580Y002070D02*
X024580Y002204D01*
X024496Y002331D02*
X024530Y002365D01*
X024530Y002431D01*
X024496Y002465D01*
X024530Y002561D02*
X024530Y002695D01*
X024530Y002628D02*
X024330Y002628D01*
X024396Y002561D01*
X024363Y002465D02*
X024330Y002431D01*
X024330Y002365D01*
X024363Y002331D01*
X024496Y002331D01*
X024380Y002137D02*
X024446Y002070D01*
X024446Y001974D02*
X024413Y001974D01*
X024380Y001940D01*
X024380Y001874D01*
X024413Y001840D01*
X024413Y001743D02*
X024480Y001743D01*
X024513Y001710D01*
X024513Y001610D01*
X024580Y001610D02*
X024380Y001610D01*
X024380Y001710D01*
X024413Y001743D01*
X024513Y001677D02*
X024580Y001743D01*
X024580Y001840D02*
X024446Y001974D01*
X024580Y001974D02*
X024580Y001840D01*
X024198Y001830D02*
X024198Y001963D01*
X024198Y001830D02*
X024064Y001963D01*
X024031Y001963D01*
X023998Y001930D01*
X023998Y001863D01*
X024031Y001830D01*
X024031Y001733D02*
X023998Y001699D01*
X023998Y001633D01*
X024031Y001599D01*
X024164Y001599D01*
X024198Y001633D01*
X024198Y001699D01*
X024164Y001733D01*
X023790Y001628D02*
X023790Y001561D01*
X023757Y001528D01*
X023723Y001528D01*
X023690Y001561D01*
X023690Y001628D01*
X023723Y001661D01*
X023757Y001661D01*
X023790Y001628D01*
X023690Y001628D02*
X023657Y001661D01*
X023623Y001661D01*
X023590Y001628D01*
X023590Y001561D01*
X023623Y001528D01*
X023657Y001528D01*
X023690Y001561D01*
X023657Y001431D02*
X023623Y001431D01*
X023590Y001398D01*
X023590Y001331D01*
X023623Y001298D01*
X023623Y001201D02*
X023690Y001201D01*
X023723Y001168D01*
X023723Y001067D01*
X023790Y001067D02*
X023590Y001067D01*
X023590Y001168D01*
X023623Y001201D01*
X023790Y001298D02*
X023657Y001431D01*
X023790Y001431D02*
X023790Y001298D01*
X023590Y000971D02*
X023590Y000837D01*
X023590Y000904D02*
X023790Y000904D01*
X024198Y002580D02*
X024198Y002713D01*
X024198Y002810D02*
X024064Y002943D01*
X024031Y002943D01*
X023998Y002910D01*
X023998Y002843D01*
X024031Y002810D01*
X024198Y002810D02*
X024198Y002943D01*
X024330Y002892D02*
X024363Y002925D01*
X024496Y002925D01*
X024530Y002892D01*
X024530Y002825D01*
X024496Y002792D01*
X024430Y002825D02*
X024430Y002925D01*
X024430Y002825D02*
X024396Y002792D01*
X024363Y002792D01*
X024330Y002825D01*
X024330Y002892D01*
X024086Y003214D02*
X023614Y003214D01*
X023614Y003686D01*
X024086Y003686D01*
X024086Y003214D01*
X024259Y003390D02*
X024259Y003590D01*
X024325Y003590D02*
X024192Y003590D01*
X024422Y003590D02*
X024522Y003590D01*
X024556Y003557D01*
X024556Y003490D01*
X024522Y003457D01*
X024422Y003457D01*
X024422Y003390D02*
X024422Y003590D01*
X024652Y003557D02*
X024686Y003590D01*
X024752Y003590D01*
X024786Y003557D01*
X024786Y003523D01*
X024652Y003390D01*
X024786Y003390D01*
X024883Y003423D02*
X024916Y003390D01*
X024983Y003390D01*
X025016Y003423D01*
X025016Y003557D01*
X024983Y003590D01*
X024916Y003590D01*
X024883Y003557D01*
X024883Y003523D01*
X024916Y003490D01*
X025016Y003490D01*
X025016Y003875D02*
X025016Y003908D01*
X025149Y004042D01*
X025149Y004075D01*
X025016Y004075D01*
X024919Y004042D02*
X024885Y004075D01*
X024785Y004075D01*
X024785Y003875D01*
X024885Y003875D01*
X024919Y003908D01*
X024919Y004042D01*
X024689Y004075D02*
X024555Y004075D01*
X024555Y003875D01*
X024689Y003875D01*
X024622Y003975D02*
X024555Y003975D01*
X024458Y003875D02*
X024325Y003875D01*
X024325Y004075D01*
X024004Y004520D02*
X023870Y004520D01*
X024004Y004654D01*
X024004Y004687D01*
X023971Y004720D01*
X023904Y004720D01*
X023870Y004687D01*
X023774Y004687D02*
X023740Y004720D01*
X023674Y004720D01*
X023640Y004687D01*
X023543Y004687D02*
X023543Y004620D01*
X023510Y004587D01*
X023410Y004587D01*
X023410Y004520D02*
X023410Y004720D01*
X023510Y004720D01*
X023543Y004687D01*
X023566Y004790D02*
X023633Y004790D01*
X023666Y004823D01*
X023666Y004857D01*
X023633Y004890D01*
X023533Y004890D01*
X023533Y004823D01*
X023566Y004790D01*
X023533Y004890D02*
X023599Y004957D01*
X023666Y004990D01*
X023763Y004957D02*
X023763Y004923D01*
X023796Y004890D01*
X023863Y004890D01*
X023896Y004857D01*
X023896Y004823D01*
X023863Y004790D01*
X023796Y004790D01*
X023763Y004823D01*
X023763Y004857D01*
X023796Y004890D01*
X023863Y004890D02*
X023896Y004923D01*
X023896Y004957D01*
X023863Y004990D01*
X023796Y004990D01*
X023763Y004957D01*
X023774Y004687D02*
X023774Y004654D01*
X023640Y004520D01*
X023774Y004520D01*
X023543Y004520D02*
X023477Y004587D01*
X023403Y004790D02*
X023436Y004823D01*
X023403Y004790D02*
X023336Y004790D01*
X023303Y004823D01*
X023303Y004957D01*
X023336Y004990D01*
X023403Y004990D01*
X023436Y004957D01*
X024042Y004940D02*
X024175Y004940D01*
X024109Y004940D02*
X024109Y004740D01*
X024272Y004740D02*
X024272Y004940D01*
X024372Y004940D01*
X024406Y004907D01*
X024406Y004840D01*
X024372Y004807D01*
X024272Y004807D01*
X024502Y004773D02*
X024502Y004740D01*
X024502Y004773D02*
X024636Y004907D01*
X024636Y004940D01*
X024502Y004940D01*
X024586Y005014D02*
X024114Y005014D01*
X024114Y005486D01*
X024586Y005486D01*
X024586Y005014D01*
X025331Y005360D02*
X025331Y005460D01*
X025364Y005493D01*
X025498Y005493D01*
X025531Y005460D01*
X025531Y005360D01*
X025331Y005360D01*
X025398Y005590D02*
X025331Y005657D01*
X025531Y005657D01*
X025531Y005590D02*
X025531Y005724D01*
X025480Y006210D02*
X025280Y006210D01*
X025280Y006310D01*
X025313Y006343D01*
X025380Y006343D01*
X025413Y006310D01*
X025413Y006210D01*
X025413Y006277D02*
X025480Y006343D01*
X025480Y006440D02*
X025346Y006574D01*
X025313Y006574D01*
X025280Y006540D01*
X025280Y006474D01*
X025313Y006440D01*
X025480Y006440D02*
X025480Y006574D01*
X025380Y006670D02*
X025380Y006804D01*
X025480Y006771D02*
X025280Y006771D01*
X025380Y006670D01*
X024760Y006613D02*
X024727Y006613D01*
X024593Y006746D01*
X024560Y006746D01*
X024560Y006613D01*
X024560Y006516D02*
X024593Y006449D01*
X024660Y006383D01*
X024660Y006483D01*
X024693Y006516D01*
X024727Y006516D01*
X024760Y006483D01*
X024760Y006416D01*
X024727Y006383D01*
X024660Y006383D01*
X024727Y006286D02*
X024760Y006253D01*
X024760Y006186D01*
X024727Y006153D01*
X024593Y006153D01*
X024560Y006186D01*
X024560Y006253D01*
X024593Y006286D01*
X023546Y006006D02*
X023546Y006794D01*
X023054Y006794D01*
X023054Y006006D01*
X023546Y006006D01*
X022748Y006383D02*
X022748Y006449D01*
X022714Y006483D01*
X022714Y006580D02*
X022748Y006613D01*
X022748Y006680D01*
X022714Y006713D01*
X022681Y006713D01*
X022648Y006680D01*
X022648Y006580D01*
X022714Y006580D01*
X022648Y006580D02*
X022581Y006646D01*
X022548Y006713D01*
X022581Y006810D02*
X022614Y006810D01*
X022648Y006843D01*
X022648Y006943D01*
X022714Y006943D02*
X022581Y006943D01*
X022548Y006910D01*
X022548Y006843D01*
X022581Y006810D01*
X022714Y006810D02*
X022748Y006843D01*
X022748Y006910D01*
X022714Y006943D01*
X022875Y006958D02*
X022908Y006925D01*
X022975Y006925D01*
X023008Y006958D01*
X023008Y007125D01*
X023105Y007058D02*
X023172Y007125D01*
X023172Y006925D01*
X023105Y006925D02*
X023239Y006925D01*
X023335Y006925D02*
X023469Y006925D01*
X023402Y006925D02*
X023402Y007125D01*
X023335Y007058D01*
X022875Y007125D02*
X022875Y006958D01*
X022581Y006483D02*
X022548Y006449D01*
X022548Y006383D01*
X022581Y006349D01*
X022714Y006349D01*
X022748Y006383D01*
X022610Y005952D02*
X022643Y005919D01*
X022510Y005786D01*
X022543Y005752D01*
X022610Y005752D01*
X022643Y005786D01*
X022643Y005919D01*
X022610Y005952D02*
X022543Y005952D01*
X022510Y005919D01*
X022510Y005786D01*
X022413Y005919D02*
X022280Y005786D01*
X022280Y005752D01*
X022183Y005786D02*
X022149Y005752D01*
X022083Y005752D01*
X022049Y005786D01*
X022049Y005919D01*
X022083Y005952D01*
X022149Y005952D01*
X022183Y005919D01*
X022280Y005952D02*
X022413Y005952D01*
X022413Y005919D01*
X022158Y005658D02*
X021922Y005658D01*
X022158Y005658D02*
X022158Y005422D01*
X022086Y006114D02*
X021614Y006114D01*
X021614Y006586D01*
X022086Y006586D01*
X022086Y006114D01*
X022052Y006690D02*
X021986Y006690D01*
X021952Y006723D01*
X021986Y006790D02*
X022086Y006790D01*
X022086Y006723D02*
X022086Y006857D01*
X022052Y006890D01*
X021986Y006890D01*
X021952Y006857D01*
X021952Y006823D01*
X021986Y006790D01*
X022052Y006690D02*
X022086Y006723D01*
X021856Y006790D02*
X021856Y006857D01*
X021822Y006890D01*
X021722Y006890D01*
X021722Y006690D01*
X021722Y006757D02*
X021822Y006757D01*
X021856Y006790D01*
X021625Y006890D02*
X021492Y006890D01*
X021559Y006890D02*
X021559Y006690D01*
X021616Y008449D02*
X021649Y008483D01*
X021649Y008549D01*
X021616Y008583D01*
X021549Y008680D02*
X021549Y008813D01*
X021649Y008780D02*
X021449Y008780D01*
X021549Y008680D01*
X021482Y008583D02*
X021449Y008549D01*
X021449Y008483D01*
X021482Y008449D01*
X021616Y008449D01*
X021616Y008910D02*
X021482Y009043D01*
X021616Y009043D01*
X021649Y009010D01*
X021649Y008943D01*
X021616Y008910D01*
X021482Y008910D01*
X021449Y008943D01*
X021449Y009010D01*
X021482Y009043D01*
X021425Y010575D02*
X021458Y010608D01*
X021425Y010575D02*
X021358Y010575D01*
X021325Y010608D01*
X021325Y010742D01*
X021358Y010775D01*
X021425Y010775D01*
X021458Y010742D01*
X021555Y010775D02*
X021689Y010775D01*
X021689Y010742D01*
X021555Y010608D01*
X021555Y010575D01*
X021785Y010575D02*
X021919Y010708D01*
X021919Y010742D01*
X021885Y010775D01*
X021819Y010775D01*
X021785Y010742D01*
X021785Y010575D02*
X021919Y010575D01*
X022164Y010664D02*
X022636Y010664D01*
X022636Y011136D01*
X022164Y011136D01*
X022164Y010664D01*
X022814Y010664D02*
X022814Y011136D01*
X023286Y011136D01*
X023286Y010664D01*
X022814Y010664D01*
X023464Y010664D02*
X023464Y011136D01*
X023936Y011136D01*
X023936Y010664D01*
X023464Y010664D01*
X024114Y010664D02*
X024586Y010664D01*
X024586Y011136D01*
X024114Y011136D01*
X024114Y010664D01*
X024725Y010675D02*
X024725Y010808D01*
X024725Y010742D02*
X024925Y010742D01*
X025025Y010742D02*
X025225Y010742D01*
X025325Y010742D02*
X025525Y010742D01*
X025625Y010742D02*
X025825Y010742D01*
X025825Y010905D02*
X025625Y010905D01*
X025625Y011005D01*
X025658Y011039D01*
X025725Y011039D01*
X025758Y011005D01*
X025758Y010905D01*
X025625Y010808D02*
X025625Y010675D01*
X025525Y010905D02*
X025325Y010905D01*
X025325Y011005D01*
X025358Y011039D01*
X025425Y011039D01*
X025458Y011005D01*
X025458Y010905D01*
X025325Y010808D02*
X025325Y010675D01*
X025225Y010905D02*
X025025Y010905D01*
X025025Y011005D01*
X025058Y011039D01*
X025125Y011039D01*
X025158Y011005D01*
X025158Y010905D01*
X025025Y010808D02*
X025025Y010675D01*
X024925Y010905D02*
X024725Y010905D01*
X024725Y011005D01*
X024758Y011039D01*
X024825Y011039D01*
X024858Y011005D01*
X024858Y010905D01*
X024892Y011135D02*
X024925Y011169D01*
X024925Y011235D01*
X024892Y011269D01*
X024858Y011269D01*
X024825Y011235D01*
X024825Y011202D01*
X024825Y011235D02*
X024792Y011269D01*
X024758Y011269D01*
X024725Y011235D01*
X024725Y011169D01*
X024758Y011135D01*
X024825Y011366D02*
X024825Y011499D01*
X024925Y011466D02*
X024725Y011466D01*
X024825Y011366D01*
X025025Y011432D02*
X025225Y011432D01*
X025225Y011366D02*
X025225Y011499D01*
X025325Y011466D02*
X025358Y011499D01*
X025392Y011499D01*
X025425Y011466D01*
X025458Y011499D01*
X025492Y011499D01*
X025525Y011466D01*
X025525Y011399D01*
X025492Y011366D01*
X025425Y011432D02*
X025425Y011466D01*
X025325Y011466D02*
X025325Y011399D01*
X025358Y011366D01*
X025358Y011269D02*
X025325Y011235D01*
X025325Y011169D01*
X025358Y011135D01*
X025358Y011269D02*
X025392Y011269D01*
X025525Y011135D01*
X025525Y011269D01*
X025625Y011235D02*
X025625Y011169D01*
X025658Y011135D01*
X025625Y011235D02*
X025658Y011269D01*
X025692Y011269D01*
X025825Y011135D01*
X025825Y011269D01*
X025725Y011366D02*
X025725Y011499D01*
X025825Y011466D02*
X025625Y011466D01*
X025725Y011366D01*
X025225Y011235D02*
X025225Y011169D01*
X025192Y011135D01*
X025125Y011202D02*
X025125Y011235D01*
X025158Y011269D01*
X025192Y011269D01*
X025225Y011235D01*
X025125Y011235D02*
X025092Y011269D01*
X025058Y011269D01*
X025025Y011235D01*
X025025Y011169D01*
X025058Y011135D01*
X025092Y011366D02*
X025025Y011432D01*
X025408Y012125D02*
X025475Y012125D01*
X025508Y012158D01*
X025508Y012325D01*
X025400Y012225D02*
X025402Y012245D01*
X025408Y012263D01*
X025417Y012281D01*
X025429Y012296D01*
X025444Y012308D01*
X025462Y012317D01*
X025480Y012323D01*
X025500Y012325D01*
X025520Y012323D01*
X025538Y012317D01*
X025556Y012308D01*
X025571Y012296D01*
X025583Y012281D01*
X025592Y012263D01*
X025598Y012245D01*
X025600Y012225D01*
X025598Y012205D01*
X025592Y012187D01*
X025583Y012169D01*
X025571Y012154D01*
X025556Y012142D01*
X025538Y012133D01*
X025520Y012127D01*
X025500Y012125D01*
X025480Y012127D01*
X025462Y012133D01*
X025444Y012142D01*
X025429Y012154D01*
X025417Y012169D01*
X025408Y012187D01*
X025402Y012205D01*
X025400Y012225D01*
X025375Y012158D02*
X025408Y012125D01*
X025375Y012158D02*
X025375Y012325D01*
X025605Y012258D02*
X025672Y012325D01*
X025672Y012125D01*
X025605Y012125D02*
X025739Y012125D01*
X025835Y012158D02*
X025869Y012125D01*
X025935Y012125D01*
X025969Y012158D01*
X025969Y012192D01*
X025935Y012225D01*
X025902Y012225D01*
X025935Y012225D02*
X025969Y012258D01*
X025969Y012292D01*
X025935Y012325D01*
X025869Y012325D01*
X025835Y012292D01*
X025808Y013025D02*
X025942Y013025D01*
X025975Y013058D01*
X025975Y013125D01*
X025942Y013158D01*
X025942Y013255D02*
X025808Y013389D01*
X025775Y013389D01*
X025775Y013255D01*
X025808Y013158D02*
X025775Y013125D01*
X025775Y013058D01*
X025808Y013025D01*
X025942Y013255D02*
X025975Y013255D01*
X025975Y013485D02*
X025975Y013619D01*
X025975Y013552D02*
X025775Y013552D01*
X025842Y013485D01*
X025425Y014825D02*
X025425Y014958D01*
X025425Y014892D02*
X025625Y014892D01*
X025625Y015055D02*
X025425Y015055D01*
X025425Y015155D01*
X025458Y015189D01*
X025525Y015189D01*
X025558Y015155D01*
X025558Y015055D01*
X025625Y015285D02*
X025492Y015419D01*
X025458Y015419D01*
X025425Y015385D01*
X025425Y015319D01*
X025458Y015285D01*
X025625Y015285D02*
X025625Y015419D01*
X025625Y015516D02*
X025625Y015649D01*
X025625Y015582D02*
X025425Y015582D01*
X025492Y015516D01*
X025236Y015664D02*
X024764Y015664D01*
X024764Y016136D01*
X025236Y016136D01*
X025236Y015664D01*
X025408Y016075D02*
X025475Y016075D01*
X025508Y016108D01*
X025605Y016108D02*
X025605Y016075D01*
X025605Y016108D02*
X025739Y016242D01*
X025739Y016275D01*
X025605Y016275D01*
X025508Y016242D02*
X025475Y016275D01*
X025408Y016275D01*
X025375Y016242D01*
X025375Y016108D01*
X025408Y016075D01*
X025835Y016108D02*
X025869Y016075D01*
X025935Y016075D01*
X025969Y016108D01*
X025969Y016175D01*
X025935Y016208D01*
X025902Y016208D01*
X025835Y016175D01*
X025835Y016275D01*
X025969Y016275D01*
X027375Y016875D02*
X027375Y017008D01*
X027375Y016942D02*
X027575Y016942D01*
X027575Y017105D02*
X027375Y017105D01*
X027442Y017172D01*
X027375Y017239D01*
X027575Y017239D01*
X027542Y017335D02*
X027575Y017369D01*
X027575Y017435D01*
X027542Y017469D01*
X027508Y017469D01*
X027475Y017435D01*
X027475Y017369D01*
X027442Y017335D01*
X027408Y017335D01*
X027375Y017369D01*
X027375Y017435D01*
X027408Y017469D01*
X026573Y018210D02*
X022301Y018210D01*
X022025Y017969D02*
X022025Y017835D01*
X021892Y017969D01*
X021858Y017969D01*
X021825Y017935D01*
X021825Y017869D01*
X021858Y017835D01*
X021858Y017739D02*
X021925Y017739D01*
X021958Y017705D01*
X021958Y017605D01*
X022025Y017605D02*
X021825Y017605D01*
X021825Y017705D01*
X021858Y017739D01*
X021825Y017508D02*
X021825Y017375D01*
X021825Y017442D02*
X022025Y017442D01*
X021942Y017169D02*
X021908Y017169D01*
X021875Y017135D01*
X021875Y017035D01*
X021942Y017035D01*
X021975Y017069D01*
X021975Y017135D01*
X021942Y017169D01*
X021808Y017102D02*
X021875Y017035D01*
X021808Y017102D02*
X021775Y017169D01*
X021808Y016939D02*
X021775Y016905D01*
X021775Y016839D01*
X021808Y016805D01*
X021808Y016708D02*
X021875Y016708D01*
X021908Y016675D01*
X021908Y016575D01*
X021908Y016642D02*
X021975Y016708D01*
X021975Y016805D02*
X021842Y016939D01*
X021808Y016939D01*
X021975Y016939D02*
X021975Y016805D01*
X021808Y016708D02*
X021775Y016675D01*
X021775Y016575D01*
X021975Y016575D01*
X019766Y017325D02*
X019766Y017525D01*
X019666Y017425D01*
X019799Y017425D01*
X021829Y018742D02*
X021829Y018919D01*
X023275Y019008D02*
X023308Y018975D01*
X023375Y018975D01*
X023408Y019008D01*
X023505Y019008D02*
X023505Y018975D01*
X023505Y019008D02*
X023639Y019142D01*
X023639Y019175D01*
X023505Y019175D01*
X023408Y019142D02*
X023375Y019175D01*
X023308Y019175D01*
X023275Y019142D01*
X023275Y019008D01*
X023308Y019325D02*
X023375Y019325D01*
X023408Y019358D01*
X023505Y019358D02*
X023639Y019492D01*
X023639Y019525D01*
X023505Y019525D01*
X023408Y019492D02*
X023375Y019525D01*
X023308Y019525D01*
X023275Y019492D01*
X023275Y019358D01*
X023308Y019325D01*
X023505Y019325D02*
X023505Y019358D01*
X023735Y019358D02*
X023769Y019325D01*
X023835Y019325D01*
X023869Y019358D01*
X023869Y019392D01*
X023835Y019425D01*
X023735Y019425D01*
X023735Y019358D01*
X023735Y019425D02*
X023802Y019492D01*
X023869Y019525D01*
X023835Y019675D02*
X023769Y019675D01*
X023735Y019708D01*
X023735Y019742D01*
X023769Y019775D01*
X023835Y019775D01*
X023869Y019742D01*
X023869Y019708D01*
X023835Y019675D01*
X023835Y019775D02*
X023869Y019808D01*
X023869Y019842D01*
X023835Y019875D01*
X023769Y019875D01*
X023735Y019842D01*
X023735Y019808D01*
X023769Y019775D01*
X023639Y019842D02*
X023505Y019708D01*
X023505Y019675D01*
X023408Y019708D02*
X023375Y019675D01*
X023308Y019675D01*
X023275Y019708D01*
X023275Y019842D01*
X023308Y019875D01*
X023375Y019875D01*
X023408Y019842D01*
X023505Y019875D02*
X023639Y019875D01*
X023639Y019842D01*
X024125Y019905D02*
X024125Y020039D01*
X024158Y020039D01*
X024292Y019905D01*
X024325Y019905D01*
X024292Y019808D02*
X024325Y019775D01*
X024325Y019708D01*
X024292Y019675D01*
X024158Y019675D01*
X024125Y019708D01*
X024125Y019775D01*
X024158Y019808D01*
X024125Y020135D02*
X024125Y020269D01*
X024158Y020269D01*
X024292Y020135D01*
X024325Y020135D01*
X023835Y019175D02*
X023735Y019075D01*
X023869Y019075D01*
X023835Y018975D02*
X023835Y019175D01*
X024225Y018025D02*
X024225Y017858D01*
X024258Y017825D01*
X024325Y017825D01*
X024358Y017858D01*
X024358Y018025D01*
X024455Y017958D02*
X024522Y018025D01*
X024522Y017825D01*
X024455Y017825D02*
X024589Y017825D01*
X024685Y017925D02*
X024819Y017925D01*
X024785Y017825D02*
X024785Y018025D01*
X024685Y017925D01*
X026573Y018210D02*
X026573Y018683D01*
X026573Y019962D02*
X026573Y022147D01*
X026731Y021625D02*
X026798Y021625D01*
X026765Y021625D02*
X026765Y021458D01*
X026731Y021425D01*
X026698Y021425D01*
X026665Y021458D01*
X026895Y021458D02*
X026895Y021425D01*
X026895Y021458D02*
X027028Y021592D01*
X027028Y021625D01*
X026895Y021625D01*
X027678Y021650D02*
X026957Y022900D01*
X027678Y024150D01*
X029122Y024150D01*
X029843Y022900D01*
X029122Y021650D01*
X027678Y021650D01*
X028192Y021025D02*
X028258Y021025D01*
X028225Y021025D02*
X028225Y020858D01*
X028192Y020825D01*
X028158Y020825D01*
X028125Y020858D01*
X028355Y020925D02*
X028489Y020925D01*
X028455Y020825D02*
X028455Y021025D01*
X028355Y020925D01*
X029008Y016875D02*
X028975Y016842D01*
X028975Y016708D01*
X029008Y016675D01*
X029075Y016675D01*
X029108Y016708D01*
X029205Y016708D02*
X029239Y016675D01*
X029305Y016675D01*
X029339Y016708D01*
X029339Y016742D01*
X029305Y016775D01*
X029205Y016775D01*
X029205Y016708D01*
X029205Y016775D02*
X029272Y016842D01*
X029339Y016875D01*
X029435Y016842D02*
X029469Y016875D01*
X029535Y016875D01*
X029569Y016842D01*
X029569Y016808D01*
X029435Y016675D01*
X029569Y016675D01*
X029108Y016842D02*
X029075Y016875D01*
X029008Y016875D01*
X027542Y013419D02*
X027408Y013419D01*
X027375Y013385D01*
X027375Y013285D01*
X027575Y013285D01*
X027575Y013385D01*
X027542Y013419D01*
X027575Y013189D02*
X027375Y013189D01*
X027375Y013055D02*
X027575Y013189D01*
X027575Y013055D02*
X027375Y013055D01*
X027408Y012958D02*
X027375Y012925D01*
X027375Y012858D01*
X027408Y012825D01*
X027542Y012825D01*
X027575Y012858D01*
X027575Y012925D01*
X027542Y012958D01*
X027475Y012958D01*
X027475Y012892D01*
X027508Y012354D02*
X027542Y012354D01*
X027575Y012320D01*
X027575Y012254D01*
X027542Y012220D01*
X027542Y012139D02*
X027575Y012139D01*
X027575Y012105D01*
X027542Y012105D01*
X027542Y012139D01*
X027542Y012008D02*
X027575Y011975D01*
X027575Y011908D01*
X027542Y011875D01*
X027475Y011942D02*
X027475Y011975D01*
X027508Y012008D01*
X027542Y012008D01*
X027475Y011975D02*
X027442Y012008D01*
X027408Y012008D01*
X027375Y011975D01*
X027375Y011908D01*
X027408Y011875D01*
X027408Y012220D02*
X027375Y012254D01*
X027375Y012320D01*
X027408Y012354D01*
X027442Y012354D01*
X027475Y012320D01*
X027508Y012354D01*
X027475Y012320D02*
X027475Y012287D01*
X026952Y011525D02*
X026885Y011458D01*
X026952Y011525D02*
X026952Y011325D01*
X026885Y011325D02*
X027019Y011325D01*
X026789Y011425D02*
X026755Y011392D01*
X026655Y011392D01*
X026655Y011325D02*
X026655Y011525D01*
X026755Y011525D01*
X026789Y011492D01*
X026789Y011425D01*
X026558Y011525D02*
X026492Y011525D01*
X026525Y011525D02*
X026525Y011358D01*
X026492Y011325D01*
X026458Y011325D01*
X026425Y011358D01*
X026380Y007450D02*
X026413Y007417D01*
X026413Y007383D01*
X026380Y007350D01*
X026313Y007350D01*
X026280Y007383D01*
X026280Y007417D01*
X026313Y007450D01*
X026380Y007450D01*
X026380Y007350D02*
X026413Y007317D01*
X026413Y007283D01*
X026380Y007250D01*
X026313Y007250D01*
X026280Y007283D01*
X026280Y007317D01*
X026313Y007350D01*
X026183Y007417D02*
X026150Y007450D01*
X026083Y007450D01*
X026050Y007417D01*
X026050Y007283D01*
X026083Y007250D01*
X026150Y007250D01*
X026183Y007283D01*
X026510Y007283D02*
X026544Y007250D01*
X026610Y007250D01*
X026644Y007283D01*
X026644Y007350D01*
X026610Y007383D01*
X026577Y007383D01*
X026510Y007350D01*
X026510Y007450D01*
X026644Y007450D01*
X022960Y003680D02*
X022993Y003647D01*
X022993Y003613D01*
X022960Y003580D01*
X022993Y003546D01*
X022993Y003513D01*
X022960Y003480D01*
X022893Y003480D01*
X022860Y003513D01*
X022926Y003580D02*
X022960Y003580D01*
X022960Y003680D02*
X022893Y003680D01*
X022860Y003647D01*
X022763Y003647D02*
X022730Y003680D01*
X022663Y003680D01*
X022630Y003647D01*
X022533Y003647D02*
X022533Y003580D01*
X022499Y003546D01*
X022399Y003546D01*
X022399Y003480D02*
X022399Y003680D01*
X022499Y003680D01*
X022533Y003647D01*
X022466Y003546D02*
X022533Y003480D01*
X022630Y003480D02*
X022763Y003613D01*
X022763Y003647D01*
X022763Y003480D02*
X022630Y003480D01*
X026957Y001600D02*
X027678Y002850D01*
X029122Y002850D01*
X029843Y001600D01*
X029122Y000350D01*
X027678Y000350D01*
X026957Y001600D01*
X004557Y004187D02*
X004424Y004187D01*
X004557Y004320D01*
X004557Y004354D01*
X004524Y004387D01*
X004457Y004387D01*
X004424Y004354D01*
X004260Y004387D02*
X004260Y004187D01*
X004193Y004187D02*
X004327Y004187D01*
X004193Y004320D02*
X004260Y004387D01*
X004097Y004387D02*
X004097Y004220D01*
X004063Y004187D01*
X003997Y004187D01*
X003963Y004220D01*
X003963Y004387D01*
X002322Y002850D02*
X003043Y001600D01*
X002322Y000350D01*
X000878Y000350D01*
X000157Y001600D01*
X000878Y002850D01*
X002322Y002850D01*
X000000Y003000D02*
X000000Y003625D01*
X000000Y002500D02*
X000000Y002000D01*
X000000Y001500D02*
X000000Y001000D01*
X019125Y019825D02*
X019125Y020025D01*
X019225Y020025D01*
X019258Y019992D01*
X019258Y019925D01*
X019225Y019892D01*
X019125Y019892D01*
X019192Y019892D02*
X019258Y019825D01*
X019355Y019858D02*
X019389Y019825D01*
X019455Y019825D01*
X019489Y019858D01*
X019489Y019892D01*
X019455Y019925D01*
X019422Y019925D01*
X019455Y019925D02*
X019489Y019958D01*
X019489Y019992D01*
X019455Y020025D01*
X019389Y020025D01*
X019355Y019992D01*
X019258Y020125D02*
X019192Y020192D01*
X019225Y020192D02*
X019125Y020192D01*
X019125Y020125D02*
X019125Y020325D01*
X019225Y020325D01*
X019258Y020292D01*
X019258Y020225D01*
X019225Y020192D01*
X019355Y020225D02*
X019489Y020225D01*
X019455Y020125D02*
X019455Y020325D01*
X019355Y020225D01*
X019389Y020425D02*
X019355Y020458D01*
X019389Y020425D02*
X019455Y020425D01*
X019489Y020458D01*
X019489Y020492D01*
X019455Y020525D01*
X019422Y020525D01*
X019455Y020525D02*
X019489Y020558D01*
X019489Y020592D01*
X019455Y020625D01*
X019389Y020625D01*
X019355Y020592D01*
X019258Y020592D02*
X019258Y020525D01*
X019225Y020492D01*
X019125Y020492D01*
X019192Y020492D02*
X019258Y020425D01*
X019125Y020425D02*
X019125Y020625D01*
X019225Y020625D01*
X019258Y020592D01*
X019585Y020592D02*
X019585Y020558D01*
X019619Y020525D01*
X019719Y020525D01*
X019719Y020458D02*
X019719Y020592D01*
X019685Y020625D01*
X019619Y020625D01*
X019585Y020592D01*
X019585Y020458D02*
X019619Y020425D01*
X019685Y020425D01*
X019719Y020458D01*
X019685Y020325D02*
X019719Y020292D01*
X019585Y020158D01*
X019619Y020125D01*
X019685Y020125D01*
X019719Y020158D01*
X019719Y020292D01*
X019685Y020325D02*
X019619Y020325D01*
X019585Y020292D01*
X019585Y020158D01*
X019619Y020025D02*
X019685Y020025D01*
X019719Y019992D01*
X019719Y019958D01*
X019685Y019925D01*
X019619Y019925D01*
X019585Y019958D01*
X019585Y019992D01*
X019619Y020025D01*
X019619Y019925D02*
X019585Y019892D01*
X019585Y019858D01*
X019619Y019825D01*
X019685Y019825D01*
X019719Y019858D01*
X019719Y019892D01*
X019685Y019925D01*
X020256Y020012D02*
X020256Y020213D01*
X020092Y021775D02*
X020125Y021808D01*
X020125Y021875D01*
X020092Y021908D01*
X020092Y022005D02*
X020125Y022039D01*
X020125Y022105D01*
X020092Y022139D01*
X020025Y022139D01*
X019992Y022105D01*
X019992Y022072D01*
X020025Y022005D01*
X019925Y022005D01*
X019925Y022139D01*
X019992Y022235D02*
X019925Y022302D01*
X020125Y022302D01*
X020125Y022235D02*
X020125Y022369D01*
X019958Y021908D02*
X019925Y021875D01*
X019925Y021808D01*
X019958Y021775D01*
X020092Y021775D01*
X021425Y022669D02*
X021425Y022735D01*
X021458Y022769D01*
X021592Y022635D01*
X021625Y022669D01*
X021625Y022735D01*
X021592Y022769D01*
X021458Y022769D01*
X021425Y022669D02*
X021458Y022635D01*
X021592Y022635D01*
X022380Y022797D02*
X022715Y022797D01*
D13*
X021908Y023193D02*
X021908Y023607D01*
X021692Y023607D01*
X021692Y023193D01*
X021908Y023193D01*
X019057Y022558D02*
X019057Y022342D01*
X018643Y022342D01*
X018643Y022558D01*
X019057Y022558D01*
X020011Y019672D02*
X020326Y019672D01*
X020326Y019476D01*
X020011Y019476D01*
X020011Y019672D01*
X020011Y019298D02*
X020326Y019298D01*
X020326Y019102D01*
X020011Y019102D01*
X020011Y019298D01*
X020011Y018924D02*
X020326Y018924D01*
X020326Y018728D01*
X020011Y018728D01*
X020011Y018924D01*
X021074Y018924D02*
X021389Y018924D01*
X021389Y018728D01*
X021074Y018728D01*
X021074Y018924D01*
X021074Y019102D02*
X021074Y019298D01*
X021389Y019298D01*
X021389Y019102D01*
X021074Y019102D01*
X021310Y018846D02*
X021113Y018649D01*
X021074Y019476D02*
X021074Y019672D01*
X021389Y019672D01*
X021389Y019476D01*
X021074Y019476D01*
X023342Y018007D02*
X023558Y018007D01*
X023558Y017593D01*
X023342Y017593D01*
X023342Y018007D01*
X023107Y017758D02*
X023107Y017542D01*
X022693Y017542D01*
X022693Y017758D01*
X023107Y017758D01*
X023257Y016758D02*
X022843Y016758D01*
X022843Y016542D01*
X023257Y016542D01*
X023257Y016758D01*
X020008Y014807D02*
X020008Y014393D01*
X019792Y014393D01*
X019792Y014807D01*
X020008Y014807D01*
X018557Y016642D02*
X018143Y016642D01*
X018143Y016858D01*
X018557Y016858D01*
X018557Y016642D01*
X013607Y016258D02*
X013607Y016042D01*
X013193Y016042D01*
X013193Y016258D01*
X013607Y016258D01*
X011857Y017742D02*
X011443Y017742D01*
X011443Y017958D01*
X011857Y017958D01*
X011857Y017742D01*
X011407Y018092D02*
X010993Y018092D01*
X010993Y018308D01*
X011407Y018308D01*
X011407Y018092D01*
X011643Y018492D02*
X011643Y018708D01*
X012057Y018708D01*
X012057Y018492D01*
X011643Y018492D01*
X010528Y019215D02*
X010375Y019062D01*
X010082Y019354D01*
X010235Y019507D01*
X010528Y019215D01*
X010377Y020122D02*
X010224Y020275D01*
X010516Y020568D01*
X010669Y020415D01*
X010377Y020122D01*
X011792Y020193D02*
X011792Y020607D01*
X012008Y020607D01*
X012008Y020193D01*
X011792Y020193D01*
X012993Y023292D02*
X012993Y023508D01*
X013407Y023508D01*
X013407Y023292D01*
X012993Y023292D01*
X007558Y020107D02*
X007558Y019693D01*
X007342Y019693D01*
X007342Y020107D01*
X007558Y020107D01*
X006008Y018407D02*
X005792Y018407D01*
X005792Y017993D01*
X006008Y017993D01*
X006008Y018407D01*
X006393Y018008D02*
X006807Y018008D01*
X006807Y017792D01*
X006393Y017792D01*
X006393Y018008D01*
X006358Y016607D02*
X006358Y016193D01*
X006142Y016193D01*
X006142Y016607D01*
X006358Y016607D01*
X006308Y014157D02*
X006308Y013743D01*
X006092Y013743D01*
X006092Y014157D01*
X006308Y014157D01*
X003757Y012808D02*
X003757Y012592D01*
X003343Y012592D01*
X003343Y012808D01*
X003757Y012808D01*
X008742Y009057D02*
X008958Y009057D01*
X008958Y008643D01*
X008742Y008643D01*
X008742Y009057D01*
X008943Y009592D02*
X008943Y009808D01*
X009357Y009808D01*
X009357Y009592D01*
X008943Y009592D01*
X012242Y007657D02*
X012242Y007243D01*
X012458Y007243D01*
X012458Y007657D01*
X012242Y007657D01*
X012592Y007657D02*
X012808Y007657D01*
X012808Y007243D01*
X012592Y007243D01*
X012592Y007657D01*
X013893Y007758D02*
X013893Y007542D01*
X014307Y007542D01*
X014307Y007758D01*
X013893Y007758D01*
X013942Y007057D02*
X014158Y007057D01*
X014158Y006643D01*
X013942Y006643D01*
X013942Y007057D01*
X014292Y007057D02*
X014292Y006643D01*
X014508Y006643D01*
X014508Y007057D01*
X014292Y007057D01*
X014943Y006358D02*
X014943Y006142D01*
X015357Y006142D01*
X015357Y006358D01*
X014943Y006358D01*
X014943Y006008D02*
X014943Y005792D01*
X015357Y005792D01*
X015357Y006008D01*
X014943Y006008D01*
X014943Y005508D02*
X014943Y005292D01*
X015357Y005292D01*
X015357Y005508D01*
X014943Y005508D01*
X014943Y005158D02*
X014943Y004942D01*
X015357Y004942D01*
X015357Y005158D01*
X014943Y005158D01*
X015893Y005542D02*
X015893Y005758D01*
X016307Y005758D01*
X016307Y005542D01*
X015893Y005542D01*
X015893Y006242D02*
X015893Y006458D01*
X016307Y006458D01*
X016307Y006242D01*
X015893Y006242D01*
X016192Y007693D02*
X016408Y007693D01*
X016408Y008107D01*
X016192Y008107D01*
X016192Y007693D01*
X016592Y007693D02*
X016592Y008107D01*
X016808Y008107D01*
X016808Y007693D01*
X016592Y007693D01*
X019443Y006408D02*
X019443Y006192D01*
X019857Y006192D01*
X019857Y006408D01*
X019443Y006408D01*
X019693Y008642D02*
X019693Y008858D01*
X020107Y008858D01*
X020107Y008642D01*
X019693Y008642D01*
X019943Y010392D02*
X019943Y010608D01*
X020357Y010608D01*
X020357Y010392D01*
X019943Y010392D01*
X021143Y010892D02*
X021143Y011108D01*
X021557Y011108D01*
X021557Y010892D01*
X021143Y010892D01*
X018908Y011393D02*
X018692Y011393D01*
X018692Y011807D01*
X018908Y011807D01*
X018908Y011393D01*
X022242Y006707D02*
X022458Y006707D01*
X022458Y006293D01*
X022242Y006293D01*
X022242Y006707D01*
X023043Y005858D02*
X023043Y005642D01*
X023457Y005642D01*
X023457Y005858D01*
X023043Y005858D01*
X022708Y002807D02*
X022492Y002807D01*
X022492Y002393D01*
X022708Y002393D01*
X022708Y002807D01*
X022708Y002107D02*
X022492Y002107D01*
X022492Y001693D01*
X022708Y001693D01*
X022708Y002107D01*
X019757Y001258D02*
X019757Y001042D01*
X019343Y001042D01*
X019343Y001258D01*
X019757Y001258D01*
X013907Y002492D02*
X013493Y002492D01*
X013493Y002708D01*
X013907Y002708D01*
X013907Y002492D01*
X013907Y002892D02*
X013493Y002892D01*
X013493Y003108D01*
X013907Y003108D01*
X013907Y002892D01*
X014107Y003392D02*
X013693Y003392D01*
X013693Y003608D01*
X014107Y003608D01*
X014107Y003392D01*
X014107Y003742D02*
X013693Y003742D01*
X013693Y003958D01*
X014107Y003958D01*
X014107Y003742D01*
X011708Y006143D02*
X011492Y006143D01*
X011492Y006557D01*
X011708Y006557D01*
X011708Y006143D01*
X011308Y006143D02*
X011308Y006557D01*
X011092Y006557D01*
X011092Y006143D01*
X011308Y006143D01*
X006107Y006158D02*
X006107Y005942D01*
X005693Y005942D01*
X005693Y006158D01*
X006107Y006158D01*
X006107Y005808D02*
X006107Y005592D01*
X005693Y005592D01*
X005693Y005808D01*
X006107Y005808D01*
X005807Y006342D02*
X005393Y006342D01*
X005393Y006558D01*
X005807Y006558D01*
X005807Y006342D01*
X005407Y006058D02*
X005407Y005842D01*
X004993Y005842D01*
X004993Y006058D01*
X005407Y006058D01*
X004358Y005993D02*
X004142Y005993D01*
X004142Y006407D01*
X004358Y006407D01*
X004358Y005993D01*
X010113Y012713D02*
X010113Y014287D01*
X011687Y014287D01*
X011687Y012713D01*
X010113Y012713D01*
X009858Y013793D02*
X009642Y013793D01*
X009642Y014207D01*
X009858Y014207D01*
X009858Y013793D01*
X010191Y014091D02*
X010193Y014112D01*
X010199Y014132D01*
X010208Y014152D01*
X010220Y014169D01*
X010235Y014183D01*
X010253Y014195D01*
X010273Y014203D01*
X010293Y014208D01*
X010314Y014209D01*
X010335Y014206D01*
X010355Y014200D01*
X010374Y014189D01*
X010391Y014176D01*
X010404Y014160D01*
X010415Y014142D01*
X010423Y014122D01*
X010427Y014102D01*
X010427Y014080D01*
X010423Y014060D01*
X010415Y014040D01*
X010404Y014022D01*
X010391Y014006D01*
X010374Y013993D01*
X010355Y013982D01*
X010335Y013976D01*
X010314Y013973D01*
X010293Y013974D01*
X010273Y013979D01*
X010253Y013987D01*
X010235Y013999D01*
X010220Y014013D01*
X010208Y014030D01*
X010199Y014050D01*
X010193Y014070D01*
X010191Y014091D01*
X010258Y014593D02*
X010042Y014593D01*
X010042Y015007D01*
X010258Y015007D01*
X010258Y014593D01*
X011993Y013308D02*
X012407Y013308D01*
X012407Y013092D01*
X011993Y013092D01*
X011993Y013308D01*
X003408Y019693D02*
X003192Y019693D01*
X003192Y020107D01*
X003408Y020107D01*
X003408Y019693D01*
X025442Y014057D02*
X025442Y013643D01*
X025658Y013643D01*
X025658Y014057D01*
X025442Y014057D01*
X029043Y016992D02*
X029043Y017208D01*
X029457Y017208D01*
X029457Y016992D01*
X029043Y016992D01*
D14*
X029142Y017100D03*
X029358Y017100D03*
X023158Y016650D03*
X022942Y016650D03*
X023008Y017650D03*
X022792Y017650D03*
X018458Y016750D03*
X018242Y016750D03*
X013508Y016150D03*
X013292Y016150D03*
X011758Y017850D03*
X011542Y017850D03*
X011308Y018200D03*
X011092Y018200D03*
X011742Y018600D03*
X011958Y018600D03*
G36*
X010327Y019112D02*
X010286Y019153D01*
X010437Y019304D01*
X010478Y019263D01*
X010327Y019112D01*
G37*
G36*
X010173Y019265D02*
X010132Y019306D01*
X010283Y019457D01*
X010324Y019416D01*
X010173Y019265D01*
G37*
G36*
X010466Y020213D02*
X010425Y020172D01*
X010274Y020323D01*
X010315Y020364D01*
X010466Y020213D01*
G37*
G36*
X010619Y020367D02*
X010578Y020326D01*
X010427Y020477D01*
X010468Y020518D01*
X010619Y020367D01*
G37*
X013092Y023400D03*
X013308Y023400D03*
X018742Y022450D03*
X018958Y022450D03*
X012308Y013200D03*
X012092Y013200D03*
X009258Y009700D03*
X009042Y009700D03*
X005708Y006450D03*
X005492Y006450D03*
X005792Y006050D03*
X006008Y006050D03*
X006008Y005700D03*
X005792Y005700D03*
X005308Y005950D03*
X005092Y005950D03*
X013792Y003850D03*
X014008Y003850D03*
X014008Y003500D03*
X013792Y003500D03*
X013808Y003000D03*
X013592Y003000D03*
X013592Y002600D03*
X013808Y002600D03*
X015042Y005050D03*
X015258Y005050D03*
X015258Y005400D03*
X015042Y005400D03*
X015042Y005900D03*
X015258Y005900D03*
X015258Y006250D03*
X015042Y006250D03*
X015992Y006350D03*
X016208Y006350D03*
X016208Y005650D03*
X015992Y005650D03*
X014208Y007650D03*
X013992Y007650D03*
X019542Y006300D03*
X019758Y006300D03*
X019792Y008750D03*
X020008Y008750D03*
X020042Y010500D03*
X020258Y010500D03*
X021242Y011000D03*
X021458Y011000D03*
X023142Y005750D03*
X023358Y005750D03*
X019658Y001150D03*
X019442Y001150D03*
X003658Y012700D03*
X003442Y012700D03*
X006492Y017900D03*
X006708Y017900D03*
D15*
X006679Y018202D02*
X006679Y018398D01*
X006521Y018398D02*
X006521Y018202D01*
X006498Y017379D02*
X006302Y017379D01*
X006302Y017221D02*
X006498Y017221D01*
X007826Y016165D02*
X007826Y015535D01*
X008574Y015535D02*
X008574Y016165D01*
X009602Y016371D02*
X009798Y016371D01*
X009798Y016529D02*
X009602Y016529D01*
X008674Y014265D02*
X008674Y013635D01*
X007926Y013635D02*
X007926Y014265D01*
X010521Y012098D02*
X010521Y011902D01*
X010679Y011902D02*
X010679Y012098D01*
X010721Y011698D02*
X010721Y011502D01*
X010879Y011502D02*
X010879Y011698D01*
X012971Y015352D02*
X012971Y015548D01*
X013129Y015548D02*
X013129Y015352D01*
X015821Y016052D02*
X015821Y016248D01*
X015979Y016248D02*
X015979Y016052D01*
X019321Y018702D02*
X019321Y018898D01*
X019479Y018898D02*
X019479Y018702D01*
X019479Y019102D02*
X019479Y019298D01*
X019321Y019298D02*
X019321Y019102D01*
X019321Y019502D02*
X019321Y019698D01*
X019479Y019698D02*
X019479Y019502D01*
X021171Y018048D02*
X021171Y017852D01*
X021329Y017852D02*
X021329Y018048D01*
X021329Y017548D02*
X021329Y017352D01*
X021171Y017352D02*
X021171Y017548D01*
X021171Y017048D02*
X021171Y016852D01*
X021329Y016852D02*
X021329Y017048D01*
X022102Y016829D02*
X022298Y016829D01*
X022298Y016671D02*
X022102Y016671D01*
X019579Y012448D02*
X019579Y012252D01*
X019421Y012252D02*
X019421Y012448D01*
X017129Y007098D02*
X017129Y006902D01*
X016971Y006902D02*
X016971Y007098D01*
X016179Y006098D02*
X016179Y005902D01*
X016021Y005902D02*
X016021Y006098D01*
X015498Y004029D02*
X015302Y004029D01*
X015302Y003871D02*
X015498Y003871D01*
X012048Y007371D02*
X011852Y007371D01*
X011852Y007529D02*
X012048Y007529D01*
X005679Y006948D02*
X005679Y006752D01*
X005521Y006752D02*
X005521Y006948D01*
X004698Y006279D02*
X004502Y006279D01*
X004502Y006121D02*
X004698Y006121D01*
X004279Y012402D02*
X004279Y012598D01*
X004121Y012598D02*
X004121Y012402D01*
X004121Y012802D02*
X004121Y012998D01*
X004279Y012998D02*
X004279Y012802D01*
X004524Y017135D02*
X004524Y017765D01*
X004498Y018121D02*
X004302Y018121D01*
X004302Y018279D02*
X004498Y018279D01*
X003776Y017765D02*
X003776Y017135D01*
X002207Y019782D02*
X001893Y019782D01*
X001893Y020018D02*
X002207Y020018D01*
X007652Y023021D02*
X007848Y023021D01*
X007848Y023179D02*
X007652Y023179D01*
X011802Y019479D02*
X011998Y019479D01*
X011998Y019321D02*
X011802Y019321D01*
X014121Y023302D02*
X014121Y023498D01*
X014279Y023498D02*
X014279Y023302D01*
X019402Y023621D02*
X019598Y023621D01*
X019598Y023779D02*
X019402Y023779D01*
X024902Y006579D02*
X025098Y006579D01*
X025098Y006421D02*
X024902Y006421D01*
X024843Y005668D02*
X025157Y005668D01*
X025157Y005432D02*
X024843Y005432D01*
X022879Y004698D02*
X022879Y004502D01*
X022721Y004502D02*
X022721Y004698D01*
X022671Y004048D02*
X022671Y003852D01*
X022829Y003852D02*
X022829Y004048D01*
X022902Y001979D02*
X023098Y001979D01*
X023098Y001821D02*
X022902Y001821D01*
D16*
X022902Y001703D01*
X023098Y001703D01*
X023098Y001821D01*
X023098Y001979D01*
X023098Y002097D01*
X022902Y002097D01*
X022902Y001979D01*
X022902Y001821D01*
X022893Y002389D02*
X022893Y003011D01*
X023207Y003011D02*
X023207Y002389D01*
X022947Y003852D02*
X022947Y004048D01*
X022829Y004048D01*
X022671Y004048D01*
X022553Y004048D01*
X022553Y003852D01*
X022671Y003852D01*
X022829Y003852D01*
X022947Y003852D01*
X022997Y004502D02*
X022997Y004698D01*
X022879Y004698D01*
X022721Y004698D01*
X022603Y004698D01*
X022603Y004502D01*
X022721Y004502D01*
X022879Y004502D01*
X022997Y004502D01*
X023039Y005093D02*
X023661Y005093D01*
X023661Y005407D02*
X023039Y005407D01*
X024143Y005989D02*
X024143Y006611D01*
X024457Y006611D02*
X024457Y005989D01*
X024902Y006303D02*
X024902Y006421D01*
X024902Y006579D01*
X024902Y006697D01*
X025098Y006697D01*
X025098Y006579D01*
X025098Y006421D01*
X025098Y006303D01*
X024902Y006303D01*
X021457Y007589D02*
X021457Y008211D01*
X021143Y008211D02*
X021143Y007589D01*
X019657Y007589D02*
X019657Y008211D01*
X019343Y008211D02*
X019343Y007589D01*
X017247Y007098D02*
X017247Y006902D01*
X017129Y006902D01*
X016971Y006902D01*
X016853Y006902D01*
X016853Y007098D01*
X016971Y007098D01*
X017129Y007098D01*
X017247Y007098D01*
X016297Y006098D02*
X016179Y006098D01*
X016021Y006098D01*
X015903Y006098D01*
X015903Y005902D01*
X016021Y005902D01*
X016179Y005902D01*
X016297Y005902D01*
X016297Y006098D01*
X015661Y006843D02*
X015039Y006843D01*
X015039Y007157D02*
X015661Y007157D01*
X012048Y007253D02*
X011852Y007253D01*
X011852Y007371D01*
X011852Y007529D01*
X011852Y007647D01*
X012048Y007647D01*
X012048Y007529D01*
X012048Y007371D01*
X012048Y007253D01*
X010857Y006911D02*
X010857Y006289D01*
X010543Y006289D02*
X010543Y006911D01*
X010393Y008539D02*
X010393Y009161D01*
X010707Y009161D02*
X010707Y008539D01*
X008507Y008539D02*
X008507Y009161D01*
X008193Y009161D02*
X008193Y008539D01*
X005797Y006948D02*
X005797Y006752D01*
X005679Y006752D01*
X005521Y006752D01*
X005403Y006752D01*
X005403Y006948D01*
X005521Y006948D01*
X005679Y006948D01*
X005797Y006948D01*
X004698Y006397D02*
X004698Y006279D01*
X004698Y006121D01*
X004698Y006003D01*
X004502Y006003D01*
X004502Y006121D01*
X004502Y006279D01*
X004502Y006397D01*
X004698Y006397D01*
X004942Y005633D02*
X005139Y005633D01*
X005139Y005436D01*
X005100Y005594D02*
X003958Y005594D01*
X003958Y004806D01*
X005100Y004806D01*
X005100Y005594D01*
X005139Y004964D02*
X005139Y004767D01*
X004942Y004767D01*
X004115Y004767D02*
X003919Y004767D01*
X003919Y004964D01*
X003919Y005436D02*
X003919Y005594D01*
X003919Y005633D01*
X004115Y005633D01*
X003919Y005594D02*
X003903Y005592D01*
X003887Y005587D01*
X003873Y005579D01*
X003860Y005568D01*
X003851Y005555D01*
X003844Y005539D01*
X003840Y005523D01*
X003840Y005507D01*
X003844Y005491D01*
X003851Y005476D01*
X003860Y005462D01*
X003873Y005451D01*
X003887Y005443D01*
X003903Y005438D01*
X003919Y005436D01*
X010603Y011502D02*
X010603Y011698D01*
X010721Y011698D01*
X010879Y011698D01*
X010997Y011698D01*
X010997Y011502D01*
X010879Y011502D01*
X010721Y011502D01*
X010603Y011502D01*
X010679Y011902D02*
X010521Y011902D01*
X010403Y011902D01*
X010403Y012098D01*
X010521Y012098D01*
X010679Y012098D01*
X010797Y012098D01*
X010797Y011902D01*
X010679Y011902D01*
X009807Y014689D02*
X009807Y015311D01*
X009493Y015311D02*
X009493Y014689D01*
X009602Y016253D02*
X009798Y016253D01*
X009798Y016371D01*
X009798Y016529D01*
X009798Y016647D01*
X009602Y016647D01*
X009602Y016529D01*
X009602Y016371D01*
X009602Y016253D01*
X006498Y017103D02*
X006302Y017103D01*
X006302Y017221D01*
X006302Y017379D01*
X006302Y017497D01*
X006498Y017497D01*
X006498Y017379D01*
X006498Y017221D01*
X006498Y017103D01*
X006521Y018202D02*
X006403Y018202D01*
X006403Y018398D01*
X006521Y018398D01*
X006679Y018398D01*
X006797Y018398D01*
X006797Y018202D01*
X006679Y018202D01*
X006521Y018202D01*
X007893Y019589D02*
X007893Y020211D01*
X008207Y020211D02*
X008207Y019589D01*
X011802Y019597D02*
X011998Y019597D01*
X011998Y019479D01*
X011998Y019321D01*
X011998Y019203D01*
X011802Y019203D01*
X011802Y019321D01*
X011802Y019479D01*
X011802Y019597D01*
X015703Y016248D02*
X015703Y016052D01*
X015821Y016052D01*
X015979Y016052D01*
X016097Y016052D01*
X016097Y016248D01*
X015979Y016248D01*
X015821Y016248D01*
X015703Y016248D01*
X017089Y016307D02*
X017711Y016307D01*
X017711Y015993D02*
X017089Y015993D01*
X020090Y018649D02*
X020090Y019751D01*
X021310Y019751D01*
X021310Y018846D01*
X021310Y018649D01*
X021113Y018649D01*
X020090Y018649D01*
X019597Y018702D02*
X019597Y018898D01*
X019479Y018898D01*
X019321Y018898D01*
X019203Y018898D01*
X019203Y018702D01*
X019321Y018702D01*
X019479Y018702D01*
X019597Y018702D01*
X019597Y019102D02*
X019479Y019102D01*
X019321Y019102D01*
X019203Y019102D01*
X019203Y019298D01*
X019321Y019298D01*
X019479Y019298D01*
X019597Y019298D01*
X019597Y019102D01*
X019597Y019502D02*
X019479Y019502D01*
X019321Y019502D01*
X019203Y019502D01*
X019203Y019698D01*
X019321Y019698D01*
X019479Y019698D01*
X019597Y019698D01*
X019597Y019502D01*
X021053Y018048D02*
X021053Y017852D01*
X021171Y017852D01*
X021329Y017852D01*
X021447Y017852D01*
X021447Y018048D01*
X021329Y018048D01*
X021171Y018048D01*
X021053Y018048D01*
X021053Y017548D02*
X021053Y017352D01*
X021171Y017352D01*
X021329Y017352D01*
X021447Y017352D01*
X021447Y017548D01*
X021329Y017548D01*
X021171Y017548D01*
X021053Y017548D01*
X021053Y017048D02*
X021053Y016852D01*
X021171Y016852D01*
X021329Y016852D01*
X021447Y016852D01*
X021447Y017048D01*
X021329Y017048D01*
X021171Y017048D01*
X021053Y017048D01*
X022102Y016947D02*
X022102Y016829D01*
X022102Y016671D01*
X022102Y016553D01*
X022298Y016553D01*
X022298Y016671D01*
X022298Y016829D01*
X022298Y016947D01*
X022102Y016947D01*
X022739Y016993D02*
X023361Y016993D01*
X023361Y017307D02*
X022739Y017307D01*
X021848Y018240D02*
X021848Y022748D01*
X026553Y022748D01*
X026553Y018240D01*
X021848Y018240D01*
X025493Y017161D02*
X025493Y016539D01*
X025807Y016539D02*
X025807Y017161D01*
X030021Y017342D02*
X030021Y021358D01*
X021457Y023089D02*
X021457Y023711D01*
X021143Y023711D02*
X021143Y023089D01*
X019807Y022411D02*
X019807Y021789D01*
X019493Y021789D02*
X019493Y022411D01*
X019402Y023503D02*
X019598Y023503D01*
X019598Y023621D01*
X019598Y023779D01*
X019598Y023897D01*
X019402Y023897D01*
X019402Y023779D01*
X019402Y023621D01*
X019402Y023503D01*
X014397Y023498D02*
X014397Y023302D01*
X014279Y023302D01*
X014121Y023302D01*
X014003Y023302D01*
X014003Y023498D01*
X014121Y023498D01*
X014279Y023498D01*
X014397Y023498D01*
X007848Y023297D02*
X007652Y023297D01*
X007652Y023179D01*
X007652Y023021D01*
X007652Y022903D01*
X007848Y022903D01*
X007848Y023021D01*
X007848Y023179D01*
X007848Y023297D01*
X002907Y020211D02*
X002907Y019589D01*
X002593Y019589D02*
X002593Y020211D01*
X004302Y018397D02*
X004302Y018279D01*
X004302Y018121D01*
X004302Y018003D01*
X004498Y018003D01*
X004498Y018121D01*
X004498Y018279D01*
X004498Y018397D01*
X004302Y018397D01*
X002769Y016698D02*
X001431Y016698D01*
X004003Y012998D02*
X004003Y012802D01*
X004121Y012802D01*
X004279Y012802D01*
X004397Y012802D01*
X004397Y012998D01*
X004279Y012998D01*
X004121Y012998D01*
X004003Y012998D01*
X004003Y012598D02*
X004003Y012402D01*
X004121Y012402D01*
X004279Y012402D01*
X004397Y012402D01*
X004397Y012598D01*
X004279Y012598D01*
X004121Y012598D01*
X004003Y012598D01*
X002769Y012502D02*
X001431Y012502D01*
X012853Y015352D02*
X012971Y015352D01*
X013129Y015352D01*
X013247Y015352D01*
X013247Y015548D01*
X013129Y015548D01*
X012971Y015548D01*
X012853Y015548D01*
X012853Y015352D01*
X019303Y012448D02*
X019303Y012252D01*
X019421Y012252D01*
X019579Y012252D01*
X019697Y012252D01*
X019697Y012448D01*
X019579Y012448D01*
X019421Y012448D01*
X019303Y012448D01*
X019485Y011991D02*
X020115Y011991D01*
X019485Y011991D01*
X019485Y010809D01*
X020115Y010809D01*
X019485Y010809D01*
X020115Y010809D02*
X020115Y011991D01*
X015498Y004147D02*
X015302Y004147D01*
X015302Y004029D01*
X015302Y003871D01*
X015302Y003753D01*
X015498Y003753D01*
X015498Y003871D01*
X015498Y004029D01*
X015498Y004147D01*
X018439Y001307D02*
X019061Y001307D01*
X019061Y000993D02*
X018439Y000993D01*
D17*
X022593Y003950D03*
X022907Y003950D03*
X022957Y004600D03*
X022643Y004600D03*
X017207Y007000D03*
X016893Y007000D03*
X016257Y006000D03*
X015943Y006000D03*
X010957Y011600D03*
X010643Y011600D03*
X010757Y012000D03*
X010443Y012000D03*
X012893Y015450D03*
X013207Y015450D03*
X015743Y016150D03*
X016057Y016150D03*
X019243Y018800D03*
X019557Y018800D03*
X019557Y019200D03*
X019243Y019200D03*
X019243Y019600D03*
X019557Y019600D03*
X021093Y017950D03*
X021407Y017950D03*
X021407Y017450D03*
X021093Y017450D03*
X021093Y016950D03*
X021407Y016950D03*
X019657Y012350D03*
X019343Y012350D03*
X010288Y016636D03*
X010012Y016636D03*
X006757Y018300D03*
X006443Y018300D03*
X007612Y021864D03*
X007888Y021864D03*
X014043Y023400D03*
X014357Y023400D03*
X004357Y012900D03*
X004043Y012900D03*
X004043Y012500D03*
X004357Y012500D03*
X005443Y006850D03*
X005757Y006850D03*
D18*
X004250Y006308D03*
X004250Y006092D03*
X008850Y008742D03*
X008850Y008958D03*
X011200Y006458D03*
X011200Y006242D03*
X011600Y006242D03*
X011600Y006458D03*
X012350Y007342D03*
X012350Y007558D03*
X012700Y007558D03*
X012700Y007342D03*
X014050Y006958D03*
X014050Y006742D03*
X014400Y006742D03*
X014400Y006958D03*
X016300Y007792D03*
X016300Y008008D03*
X016700Y008008D03*
X016700Y007792D03*
X018800Y011492D03*
X018800Y011708D03*
X019900Y014492D03*
X019900Y014708D03*
X023450Y017692D03*
X023450Y017908D03*
X025550Y013958D03*
X025550Y013742D03*
X022350Y006608D03*
X022350Y006392D03*
X022600Y002708D03*
X022600Y002492D03*
X022600Y002008D03*
X022600Y001792D03*
X009750Y013892D03*
X009750Y014108D03*
X010150Y014692D03*
X010150Y014908D03*
X006200Y014058D03*
X006200Y013842D03*
X006250Y016292D03*
X006250Y016508D03*
X005900Y018092D03*
X005900Y018308D03*
X007450Y019792D03*
X007450Y020008D03*
X003300Y020008D03*
X003300Y019792D03*
X011900Y020292D03*
X011900Y020508D03*
X021800Y023292D03*
X021800Y023508D03*
D19*
X021461Y023715D02*
X021139Y023715D01*
X021139Y023085D02*
X021461Y023085D01*
X019811Y022415D02*
X019489Y022415D01*
X019489Y021785D02*
X019811Y021785D01*
X022735Y017311D02*
X022735Y016989D01*
X023365Y016989D02*
X023365Y017311D01*
X025489Y017165D02*
X025811Y017165D01*
X025811Y016535D02*
X025489Y016535D01*
X017715Y016311D02*
X017715Y015989D01*
X017085Y015989D02*
X017085Y016311D01*
X009811Y015315D02*
X009489Y015315D01*
X009489Y014685D02*
X009811Y014685D01*
X008211Y019585D02*
X007889Y019585D01*
X007889Y020215D02*
X008211Y020215D01*
X002911Y020215D02*
X002589Y020215D01*
X002589Y019585D02*
X002911Y019585D01*
X008189Y009165D02*
X008511Y009165D01*
X008511Y008535D02*
X008189Y008535D01*
X010389Y008535D02*
X010711Y008535D01*
X010711Y009165D02*
X010389Y009165D01*
X010539Y006915D02*
X010861Y006915D01*
X010861Y006285D02*
X010539Y006285D01*
X015035Y006839D02*
X015035Y007161D01*
X015665Y007161D02*
X015665Y006839D01*
X019339Y007585D02*
X019661Y007585D01*
X019661Y008215D02*
X019339Y008215D01*
X021139Y008215D02*
X021461Y008215D01*
X021461Y007585D02*
X021139Y007585D01*
X023035Y005411D02*
X023035Y005089D01*
X023665Y005089D02*
X023665Y005411D01*
X024139Y005985D02*
X024461Y005985D01*
X024461Y006615D02*
X024139Y006615D01*
X023211Y003015D02*
X022889Y003015D01*
X022889Y002385D02*
X023211Y002385D01*
X019065Y001311D02*
X019065Y000989D01*
X018435Y000989D02*
X018435Y001311D01*
D20*
X023050Y002522D03*
X023050Y002878D03*
X024300Y006122D03*
X024300Y006478D03*
X021300Y007722D03*
X021300Y008078D03*
X019500Y008078D03*
X019500Y007722D03*
X010700Y006778D03*
X010700Y006422D03*
X010550Y008672D03*
X010550Y009028D03*
X008350Y009028D03*
X008350Y008672D03*
X009650Y014822D03*
X009650Y015178D03*
X008050Y019722D03*
X008050Y020078D03*
X002750Y020078D03*
X002750Y019722D03*
X019650Y021922D03*
X019650Y022278D03*
X021300Y023222D03*
X021300Y023578D03*
X025650Y017028D03*
X025650Y016672D03*
D21*
X023228Y017150D03*
X022872Y017150D03*
X017578Y016150D03*
X017222Y016150D03*
X015528Y007000D03*
X015172Y007000D03*
X018572Y001150D03*
X018928Y001150D03*
X023172Y005250D03*
X023528Y005250D03*
D22*
X011687Y012713D02*
X011530Y012713D01*
X011687Y012713D02*
X011687Y012870D01*
X010270Y012713D02*
X010113Y012713D01*
X010113Y012870D01*
X010113Y014130D02*
X010270Y014287D01*
X009995Y014366D02*
X009997Y014378D01*
X010002Y014389D01*
X010011Y014398D01*
X010022Y014403D01*
X010034Y014405D01*
X010046Y014403D01*
X010057Y014398D01*
X010066Y014389D01*
X010071Y014378D01*
X010073Y014366D01*
X010071Y014354D01*
X010066Y014343D01*
X010057Y014334D01*
X010046Y014329D01*
X010034Y014327D01*
X010022Y014329D01*
X010011Y014334D01*
X010002Y014343D01*
X009997Y014354D01*
X009995Y014366D01*
X009046Y014506D02*
X008554Y014506D01*
X008554Y015294D01*
X009046Y015294D01*
X009046Y014506D01*
X011530Y014287D02*
X011687Y014287D01*
X011687Y014130D01*
X002769Y012600D02*
X001431Y012600D01*
X001431Y016600D01*
X002769Y016600D01*
X002769Y012600D01*
X020205Y023154D02*
X020502Y023154D01*
X020502Y023494D01*
X020198Y023565D02*
X020198Y023845D01*
X020502Y023896D02*
X020502Y024246D01*
X020205Y024246D01*
D23*
X008800Y015141D03*
X008800Y014659D03*
D24*
X008674Y014265D02*
X007926Y014265D01*
X007670Y014265D01*
X007670Y013635D01*
X007926Y013635D01*
X008674Y013635D01*
X008930Y013635D01*
X008930Y014265D01*
X008674Y014265D01*
X008517Y014265D02*
X008083Y014265D01*
X008083Y013635D02*
X008517Y013635D01*
X008574Y015535D02*
X007826Y015535D01*
X007570Y015535D01*
X007570Y016165D01*
X007826Y016165D01*
X008574Y016165D01*
X008830Y016165D01*
X008830Y015535D01*
X008574Y015535D01*
X008417Y015535D02*
X007983Y015535D01*
X007983Y016165D02*
X008417Y016165D01*
X004780Y017135D02*
X004780Y017765D01*
X004524Y017765D01*
X003776Y017765D01*
X003520Y017765D01*
X003520Y017135D01*
X003776Y017135D01*
X004524Y017135D01*
X004780Y017135D01*
X004367Y017135D02*
X003933Y017135D01*
X003933Y017765D02*
X004367Y017765D01*
X004244Y015836D02*
X003456Y015836D01*
X003456Y015364D01*
X004244Y015364D01*
X004244Y015836D01*
X004244Y013836D02*
X003456Y013836D01*
X003456Y013364D01*
X004244Y013364D01*
X004244Y013836D01*
X002207Y019585D02*
X001893Y019585D01*
X001893Y019782D01*
X001893Y020018D01*
X001893Y020215D01*
X002207Y020215D01*
X002207Y020018D01*
X002207Y019782D01*
X002207Y019585D01*
X019584Y011872D02*
X019586Y011884D01*
X019591Y011895D01*
X019600Y011904D01*
X019611Y011909D01*
X019623Y011911D01*
X019635Y011909D01*
X019646Y011904D01*
X019655Y011895D01*
X019660Y011884D01*
X019662Y011872D01*
X019660Y011860D01*
X019655Y011849D01*
X019646Y011840D01*
X019635Y011835D01*
X019623Y011833D01*
X019611Y011835D01*
X019600Y011840D01*
X019591Y011849D01*
X019586Y011860D01*
X019584Y011872D01*
X020821Y012068D02*
X020821Y015532D01*
X021018Y015729D01*
X024482Y015729D01*
X024679Y015532D01*
X024679Y012068D01*
X024482Y011871D01*
X021018Y011871D01*
X020821Y012068D01*
X020860Y012028D02*
X020978Y011910D01*
X023028Y009570D02*
X023028Y009334D01*
X022910Y009452D02*
X023146Y009452D01*
X022753Y009137D02*
X023698Y009137D01*
X023461Y008350D02*
X023463Y008423D01*
X023469Y008496D01*
X023479Y008568D01*
X023493Y008640D01*
X023511Y008711D01*
X023532Y008781D01*
X023558Y008850D01*
X023587Y008917D01*
X023620Y008982D01*
X023656Y009046D01*
X023696Y009107D01*
X023739Y009166D01*
X023785Y009223D01*
X023834Y009277D01*
X023886Y009329D01*
X023941Y009377D01*
X023998Y009422D01*
X024058Y009465D01*
X024120Y009503D01*
X024184Y009539D01*
X024250Y009571D01*
X024317Y009599D01*
X024386Y009623D01*
X024456Y009644D01*
X024528Y009661D01*
X024600Y009674D01*
X024672Y009683D01*
X024745Y009688D01*
X024818Y009689D01*
X024891Y009686D01*
X024964Y009679D01*
X025037Y009668D01*
X025108Y009653D01*
X025179Y009634D01*
X025248Y009612D01*
X025317Y009585D01*
X025383Y009555D01*
X025448Y009522D01*
X025511Y009484D01*
X025572Y009444D01*
X025631Y009400D01*
X025687Y009353D01*
X025740Y009303D01*
X025791Y009250D01*
X025839Y009195D01*
X025883Y009137D01*
X025925Y009077D01*
X025963Y009014D01*
X025997Y008950D01*
X026028Y008883D01*
X026055Y008816D01*
X026079Y008746D01*
X026099Y008676D01*
X026115Y008604D01*
X026127Y008532D01*
X026135Y008460D01*
X026139Y008387D01*
X026139Y008313D01*
X026135Y008240D01*
X026127Y008168D01*
X026115Y008096D01*
X026099Y008024D01*
X026079Y007954D01*
X026055Y007884D01*
X026028Y007817D01*
X025997Y007750D01*
X025963Y007686D01*
X025925Y007623D01*
X025883Y007563D01*
X025839Y007505D01*
X025791Y007450D01*
X025740Y007397D01*
X025687Y007347D01*
X025631Y007300D01*
X025572Y007256D01*
X025511Y007216D01*
X025448Y007178D01*
X025383Y007145D01*
X025317Y007115D01*
X025248Y007088D01*
X025179Y007066D01*
X025108Y007047D01*
X025037Y007032D01*
X024964Y007021D01*
X024891Y007014D01*
X024818Y007011D01*
X024745Y007012D01*
X024672Y007017D01*
X024600Y007026D01*
X024528Y007039D01*
X024456Y007056D01*
X024386Y007077D01*
X024317Y007101D01*
X024250Y007129D01*
X024184Y007161D01*
X024120Y007197D01*
X024058Y007235D01*
X023998Y007278D01*
X023941Y007323D01*
X023886Y007371D01*
X023834Y007423D01*
X023785Y007477D01*
X023739Y007534D01*
X023696Y007593D01*
X023656Y007654D01*
X023620Y007718D01*
X023587Y007783D01*
X023558Y007850D01*
X023532Y007919D01*
X023511Y007989D01*
X023493Y008060D01*
X023479Y008132D01*
X023469Y008204D01*
X023463Y008277D01*
X023461Y008350D01*
X023698Y007563D02*
X022753Y007563D01*
X024843Y005865D02*
X024843Y005668D01*
X024843Y005432D01*
X024843Y005235D01*
X025157Y005235D01*
X025157Y005432D01*
X025157Y005668D01*
X025157Y005865D01*
X024843Y005865D01*
X026020Y007759D02*
X026335Y007759D01*
X026335Y008941D02*
X026020Y008941D01*
X026139Y009374D02*
X026139Y009610D01*
X024522Y011910D02*
X024640Y012028D01*
X024640Y015572D02*
X024522Y015690D01*
X020978Y015690D02*
X020860Y015572D01*
X022868Y018555D02*
X026057Y018555D01*
X026090Y018557D01*
X026122Y018562D01*
X026154Y018570D01*
X026185Y018582D01*
X026215Y018597D01*
X026242Y018615D01*
X026268Y018636D01*
X026291Y018659D01*
X026312Y018685D01*
X026330Y018713D01*
X026345Y018742D01*
X026357Y018773D01*
X026365Y018805D01*
X026370Y018837D01*
X026372Y018870D01*
X026372Y023936D01*
X026372Y024145D01*
X026370Y024178D01*
X026365Y024210D01*
X026357Y024242D01*
X026345Y024273D01*
X026330Y024303D01*
X026312Y024330D01*
X026291Y024356D01*
X026268Y024379D01*
X026242Y024400D01*
X026215Y024418D01*
X026185Y024433D01*
X026154Y024445D01*
X026122Y024453D01*
X026090Y024458D01*
X026057Y024460D01*
X022356Y024460D01*
X022323Y024458D01*
X022291Y024453D01*
X022259Y024445D01*
X022228Y024433D01*
X022199Y024418D01*
X022171Y024400D01*
X022145Y024379D01*
X022122Y024356D01*
X022101Y024330D01*
X022083Y024303D01*
X022068Y024273D01*
X022056Y024242D01*
X022048Y024210D01*
X022043Y024178D01*
X022041Y024145D01*
X022041Y023936D01*
X022041Y022413D01*
X022317Y022137D01*
X022317Y021665D01*
X022041Y021665D01*
X022041Y021074D01*
X022553Y020563D01*
X022553Y018870D01*
X022555Y018837D01*
X022560Y018805D01*
X022568Y018773D01*
X022580Y018742D01*
X022595Y018713D01*
X022613Y018685D01*
X022634Y018659D01*
X022657Y018636D01*
X022683Y018615D01*
X022711Y018597D01*
X022740Y018582D01*
X022771Y018570D01*
X022803Y018562D01*
X022835Y018557D01*
X022868Y018555D01*
X022042Y023936D02*
X022310Y023889D01*
X022579Y023849D01*
X022849Y023814D01*
X023120Y023786D01*
X023391Y023764D01*
X023663Y023749D01*
X023935Y023739D01*
X024207Y023736D01*
X024479Y023739D01*
X024751Y023749D01*
X025023Y023764D01*
X025294Y023786D01*
X025565Y023814D01*
X025835Y023849D01*
X026104Y023889D01*
X026372Y023936D01*
X014034Y006434D02*
X012066Y006434D01*
X012263Y006434D01*
X012066Y006434D02*
X012066Y006237D01*
X012066Y006434D02*
X012066Y004663D01*
X012263Y004466D01*
X012066Y004663D01*
X012263Y004466D02*
X014034Y004466D01*
X013837Y004466D01*
X014034Y004466D02*
X014034Y004663D01*
X014034Y004466D02*
X014034Y006434D01*
X014034Y006237D01*
X014034Y006434D02*
X013837Y006434D01*
D25*
X011950Y007293D03*
X011950Y007607D03*
X015400Y004107D03*
X015400Y003793D03*
X023000Y002057D03*
X023000Y001743D03*
X023786Y003812D03*
X023786Y004088D03*
X025000Y006343D03*
X025000Y006657D03*
X022200Y016593D03*
X022200Y016907D03*
X020586Y016812D03*
X020586Y017088D03*
X020586Y017312D03*
X020586Y017588D03*
X020586Y017812D03*
X020586Y018088D03*
X019500Y023543D03*
X019500Y023857D03*
X011900Y019557D03*
X011900Y019243D03*
X009700Y016607D03*
X009700Y016293D03*
X006400Y017143D03*
X006400Y017457D03*
X004400Y018043D03*
X004400Y018357D03*
X007750Y022943D03*
X007750Y023257D03*
X004600Y006357D03*
X004600Y006043D03*
D26*
X010031Y016085D02*
X010035Y016106D01*
X010042Y016125D01*
X010052Y016143D01*
X010066Y016159D01*
X010082Y016172D01*
X010100Y016183D01*
X010119Y016190D01*
X010140Y016194D01*
X010160Y016194D01*
X010181Y016190D01*
X010200Y016183D01*
X010218Y016172D01*
X010234Y016159D01*
X010248Y016143D01*
X010258Y016125D01*
X010265Y016106D01*
X010269Y016085D01*
X010307Y016252D02*
X010307Y016538D01*
X009993Y016538D02*
X009993Y016262D01*
X007907Y021962D02*
X007907Y022238D01*
X007869Y022415D02*
X007865Y022394D01*
X007858Y022375D01*
X007848Y022357D01*
X007834Y022341D01*
X007818Y022328D01*
X007800Y022317D01*
X007781Y022310D01*
X007760Y022306D01*
X007740Y022306D01*
X007719Y022310D01*
X007700Y022317D01*
X007682Y022328D01*
X007666Y022341D01*
X007652Y022357D01*
X007642Y022375D01*
X007635Y022394D01*
X007631Y022415D01*
X007593Y022248D02*
X007593Y021962D01*
X020035Y018069D02*
X020056Y018065D01*
X020075Y018058D01*
X020093Y018048D01*
X020109Y018034D01*
X020122Y018018D01*
X020133Y018000D01*
X020140Y017981D01*
X020144Y017960D01*
X020144Y017940D01*
X020140Y017919D01*
X020133Y017900D01*
X020122Y017882D01*
X020109Y017866D01*
X020093Y017852D01*
X020075Y017842D01*
X020056Y017835D01*
X020035Y017831D01*
X020202Y017793D02*
X020488Y017793D01*
X020488Y017607D02*
X020212Y017607D01*
X020035Y017569D02*
X020056Y017565D01*
X020075Y017558D01*
X020093Y017548D01*
X020109Y017534D01*
X020122Y017518D01*
X020133Y017500D01*
X020140Y017481D01*
X020144Y017460D01*
X020144Y017440D01*
X020140Y017419D01*
X020133Y017400D01*
X020122Y017382D01*
X020109Y017366D01*
X020093Y017352D01*
X020075Y017342D01*
X020056Y017335D01*
X020035Y017331D01*
X020202Y017293D02*
X020488Y017293D01*
X020488Y017107D02*
X020212Y017107D01*
X020035Y017069D02*
X020056Y017065D01*
X020075Y017058D01*
X020093Y017048D01*
X020109Y017034D01*
X020122Y017018D01*
X020133Y017000D01*
X020140Y016981D01*
X020144Y016960D01*
X020144Y016940D01*
X020140Y016919D01*
X020133Y016900D01*
X020122Y016882D01*
X020109Y016866D01*
X020093Y016852D01*
X020075Y016842D01*
X020056Y016835D01*
X020035Y016831D01*
X020202Y016793D02*
X020488Y016793D01*
X020488Y018107D02*
X020212Y018107D01*
X023412Y004107D02*
X023688Y004107D01*
X023688Y003793D02*
X023402Y003793D01*
X023235Y003831D02*
X023256Y003835D01*
X023275Y003842D01*
X023293Y003852D01*
X023309Y003866D01*
X023322Y003882D01*
X023333Y003900D01*
X023340Y003919D01*
X023344Y003940D01*
X023344Y003960D01*
X023340Y003981D01*
X023333Y004000D01*
X023322Y004018D01*
X023309Y004034D01*
X023293Y004048D01*
X023275Y004058D01*
X023256Y004065D01*
X023235Y004069D01*
D27*
X023274Y003812D02*
X023276Y003822D01*
X023281Y003831D01*
X023289Y003838D01*
X023299Y003842D01*
X023309Y003842D01*
X023319Y003838D01*
X023327Y003831D01*
X023332Y003822D01*
X023334Y003812D01*
X023332Y003802D01*
X023327Y003793D01*
X023319Y003786D01*
X023309Y003782D01*
X023299Y003782D01*
X023289Y003786D01*
X023281Y003793D01*
X023276Y003802D01*
X023274Y003812D01*
X023875Y003842D02*
X023855Y003844D01*
X023836Y003849D01*
X023818Y003858D01*
X023802Y003870D01*
X023789Y003885D01*
X023778Y003902D01*
X023771Y003920D01*
X023767Y003940D01*
X023767Y003960D01*
X023771Y003980D01*
X023778Y003998D01*
X023789Y004015D01*
X023802Y004030D01*
X023818Y004042D01*
X023836Y004051D01*
X023855Y004056D01*
X023875Y004058D01*
X010258Y016154D02*
X010260Y016164D01*
X010265Y016173D01*
X010273Y016180D01*
X010283Y016184D01*
X010293Y016184D01*
X010303Y016180D01*
X010311Y016173D01*
X010316Y016164D01*
X010318Y016154D01*
X010316Y016144D01*
X010311Y016135D01*
X010303Y016128D01*
X010293Y016124D01*
X010283Y016124D01*
X010273Y016128D01*
X010265Y016135D01*
X010260Y016144D01*
X010258Y016154D01*
X010258Y016725D02*
X010256Y016705D01*
X010251Y016686D01*
X010242Y016668D01*
X010230Y016652D01*
X010215Y016639D01*
X010198Y016628D01*
X010180Y016621D01*
X010160Y016617D01*
X010140Y016617D01*
X010120Y016621D01*
X010102Y016628D01*
X010085Y016639D01*
X010070Y016652D01*
X010058Y016668D01*
X010049Y016686D01*
X010044Y016705D01*
X010042Y016725D01*
X007858Y021775D02*
X007856Y021795D01*
X007851Y021814D01*
X007842Y021832D01*
X007830Y021848D01*
X007815Y021861D01*
X007798Y021872D01*
X007780Y021879D01*
X007760Y021883D01*
X007740Y021883D01*
X007720Y021879D01*
X007702Y021872D01*
X007685Y021861D01*
X007670Y021848D01*
X007658Y021832D01*
X007649Y021814D01*
X007644Y021795D01*
X007642Y021775D01*
X007582Y022346D02*
X007584Y022356D01*
X007589Y022365D01*
X007597Y022372D01*
X007607Y022376D01*
X007617Y022376D01*
X007627Y022372D01*
X007635Y022365D01*
X007640Y022356D01*
X007642Y022346D01*
X007640Y022336D01*
X007635Y022327D01*
X007627Y022320D01*
X007617Y022316D01*
X007607Y022316D01*
X007597Y022320D01*
X007589Y022327D01*
X007584Y022336D01*
X007582Y022346D01*
X020074Y017812D02*
X020076Y017822D01*
X020081Y017831D01*
X020089Y017838D01*
X020099Y017842D01*
X020109Y017842D01*
X020119Y017838D01*
X020127Y017831D01*
X020132Y017822D01*
X020134Y017812D01*
X020132Y017802D01*
X020127Y017793D01*
X020119Y017786D01*
X020109Y017782D01*
X020099Y017782D01*
X020089Y017786D01*
X020081Y017793D01*
X020076Y017802D01*
X020074Y017812D01*
X020074Y017312D02*
X020076Y017322D01*
X020081Y017331D01*
X020089Y017338D01*
X020099Y017342D01*
X020109Y017342D01*
X020119Y017338D01*
X020127Y017331D01*
X020132Y017322D01*
X020134Y017312D01*
X020132Y017302D01*
X020127Y017293D01*
X020119Y017286D01*
X020109Y017282D01*
X020099Y017282D01*
X020089Y017286D01*
X020081Y017293D01*
X020076Y017302D01*
X020074Y017312D01*
X020074Y016812D02*
X020076Y016822D01*
X020081Y016831D01*
X020089Y016838D01*
X020099Y016842D01*
X020109Y016842D01*
X020119Y016838D01*
X020127Y016831D01*
X020132Y016822D01*
X020134Y016812D01*
X020132Y016802D01*
X020127Y016793D01*
X020119Y016786D01*
X020109Y016782D01*
X020099Y016782D01*
X020089Y016786D01*
X020081Y016793D01*
X020076Y016802D01*
X020074Y016812D01*
X020675Y016842D02*
X020655Y016844D01*
X020636Y016849D01*
X020618Y016858D01*
X020602Y016870D01*
X020589Y016885D01*
X020578Y016902D01*
X020571Y016920D01*
X020567Y016940D01*
X020567Y016960D01*
X020571Y016980D01*
X020578Y016998D01*
X020589Y017015D01*
X020602Y017030D01*
X020618Y017042D01*
X020636Y017051D01*
X020655Y017056D01*
X020675Y017058D01*
X020675Y017342D02*
X020655Y017344D01*
X020636Y017349D01*
X020618Y017358D01*
X020602Y017370D01*
X020589Y017385D01*
X020578Y017402D01*
X020571Y017420D01*
X020567Y017440D01*
X020567Y017460D01*
X020571Y017480D01*
X020578Y017498D01*
X020589Y017515D01*
X020602Y017530D01*
X020618Y017542D01*
X020636Y017551D01*
X020655Y017556D01*
X020675Y017558D01*
X020675Y017842D02*
X020655Y017844D01*
X020636Y017849D01*
X020618Y017858D01*
X020602Y017870D01*
X020589Y017885D01*
X020578Y017902D01*
X020571Y017920D01*
X020567Y017940D01*
X020567Y017960D01*
X020571Y017980D01*
X020578Y017998D01*
X020589Y018015D01*
X020602Y018030D01*
X020618Y018042D01*
X020636Y018051D01*
X020655Y018056D01*
X020675Y018058D01*
D28*
X010288Y016095D03*
X007612Y022405D03*
D29*
X007652Y022326D03*
X010248Y016174D03*
X020124Y016852D03*
X020124Y017352D03*
X020124Y017852D03*
X023324Y003852D03*
D30*
X010317Y016188D03*
X007583Y022312D03*
D31*
X007888Y022376D03*
X010012Y016124D03*
D32*
X010150Y016218D03*
X007750Y022282D03*
D33*
X007750Y021918D03*
X010150Y016582D03*
D34*
X010061Y016636D03*
X010239Y016636D03*
X007839Y021864D03*
X007661Y021864D03*
X020586Y018039D03*
X020586Y017861D03*
X020586Y017539D03*
X020586Y017361D03*
X020586Y017039D03*
X020586Y016861D03*
X023786Y004039D03*
X023786Y003861D03*
D35*
X023501Y003950D03*
X010150Y016351D03*
X007750Y022149D03*
X020301Y017950D03*
X020301Y017450D03*
X020301Y016950D03*
D36*
X013936Y006041D03*
X013936Y005844D03*
X013936Y005647D03*
X013936Y005450D03*
X013936Y005253D03*
X013936Y005056D03*
X013936Y004859D03*
X012164Y004859D03*
X012164Y005056D03*
X012164Y005253D03*
X012164Y005450D03*
X012164Y005647D03*
X012164Y005844D03*
X012164Y006041D03*
D37*
X012459Y006336D03*
X012656Y006336D03*
X012853Y006336D03*
X013050Y006336D03*
X013247Y006336D03*
X013444Y006336D03*
X013641Y006336D03*
X013641Y004564D03*
X013444Y004564D03*
X013247Y004564D03*
X013050Y004564D03*
X012853Y004564D03*
X012656Y004564D03*
X012459Y004564D03*
D38*
X020114Y023149D02*
X020586Y023149D01*
X020586Y024251D01*
X020114Y024251D01*
X020114Y023149D01*
D39*
X019966Y023326D03*
X020734Y023700D03*
X019966Y024074D03*
X024037Y017524D03*
X024037Y016776D03*
X024963Y016776D03*
X024963Y017150D03*
X024963Y017524D03*
D40*
X025000Y015900D03*
X020810Y019200D03*
X020558Y019377D03*
X020558Y019023D03*
X018850Y015200D03*
X014900Y015850D03*
X008000Y017200D03*
X008000Y018600D03*
X011400Y021550D03*
X011900Y021900D03*
X015650Y023350D03*
X016100Y023350D03*
X001500Y018800D03*
X000800Y020800D03*
X000700Y015700D03*
X000700Y015000D03*
X000700Y014200D03*
X000700Y013500D03*
X006500Y009200D03*
X007650Y008350D03*
X013750Y009650D03*
X013900Y008200D03*
X018450Y006550D03*
X019000Y006550D03*
X018700Y007450D03*
X020350Y006150D03*
X021850Y006350D03*
X024350Y005250D03*
X023850Y003450D03*
X023650Y002050D03*
X020450Y001100D03*
X014650Y003400D03*
X012950Y002800D03*
X018650Y009100D03*
X022400Y010900D03*
X023050Y010900D03*
X023700Y010900D03*
X024350Y010900D03*
D41*
X026900Y001600D02*
X026902Y001677D01*
X026908Y001754D01*
X026918Y001831D01*
X026932Y001907D01*
X026949Y001982D01*
X026971Y002056D01*
X026996Y002129D01*
X027026Y002201D01*
X027058Y002271D01*
X027095Y002339D01*
X027134Y002405D01*
X027177Y002469D01*
X027224Y002531D01*
X027273Y002590D01*
X027326Y002647D01*
X027381Y002701D01*
X027439Y002752D01*
X027500Y002800D01*
X027563Y002845D01*
X027628Y002886D01*
X027695Y002924D01*
X027764Y002959D01*
X027835Y002989D01*
X027907Y003017D01*
X027981Y003040D01*
X028055Y003060D01*
X028131Y003076D01*
X028207Y003088D01*
X028284Y003096D01*
X028361Y003100D01*
X028439Y003100D01*
X028516Y003096D01*
X028593Y003088D01*
X028669Y003076D01*
X028745Y003060D01*
X028819Y003040D01*
X028893Y003017D01*
X028965Y002989D01*
X029036Y002959D01*
X029105Y002924D01*
X029172Y002886D01*
X029237Y002845D01*
X029300Y002800D01*
X029361Y002752D01*
X029419Y002701D01*
X029474Y002647D01*
X029527Y002590D01*
X029576Y002531D01*
X029623Y002469D01*
X029666Y002405D01*
X029705Y002339D01*
X029742Y002271D01*
X029774Y002201D01*
X029804Y002129D01*
X029829Y002056D01*
X029851Y001982D01*
X029868Y001907D01*
X029882Y001831D01*
X029892Y001754D01*
X029898Y001677D01*
X029900Y001600D01*
X029898Y001523D01*
X029892Y001446D01*
X029882Y001369D01*
X029868Y001293D01*
X029851Y001218D01*
X029829Y001144D01*
X029804Y001071D01*
X029774Y000999D01*
X029742Y000929D01*
X029705Y000861D01*
X029666Y000795D01*
X029623Y000731D01*
X029576Y000669D01*
X029527Y000610D01*
X029474Y000553D01*
X029419Y000499D01*
X029361Y000448D01*
X029300Y000400D01*
X029237Y000355D01*
X029172Y000314D01*
X029105Y000276D01*
X029036Y000241D01*
X028965Y000211D01*
X028893Y000183D01*
X028819Y000160D01*
X028745Y000140D01*
X028669Y000124D01*
X028593Y000112D01*
X028516Y000104D01*
X028439Y000100D01*
X028361Y000100D01*
X028284Y000104D01*
X028207Y000112D01*
X028131Y000124D01*
X028055Y000140D01*
X027981Y000160D01*
X027907Y000183D01*
X027835Y000211D01*
X027764Y000241D01*
X027695Y000276D01*
X027628Y000314D01*
X027563Y000355D01*
X027500Y000400D01*
X027439Y000448D01*
X027381Y000499D01*
X027326Y000553D01*
X027273Y000610D01*
X027224Y000669D01*
X027177Y000731D01*
X027134Y000795D01*
X027095Y000861D01*
X027058Y000929D01*
X027026Y000999D01*
X026996Y001071D01*
X026971Y001144D01*
X026949Y001218D01*
X026932Y001293D01*
X026918Y001369D01*
X026908Y001446D01*
X026902Y001523D01*
X026900Y001600D01*
X027275Y001600D02*
X027277Y001667D01*
X027283Y001733D01*
X027293Y001799D01*
X027306Y001864D01*
X027324Y001929D01*
X027345Y001992D01*
X027370Y002054D01*
X027399Y002114D01*
X027431Y002172D01*
X027467Y002228D01*
X027506Y002283D01*
X027548Y002334D01*
X027593Y002384D01*
X027641Y002430D01*
X027691Y002474D01*
X027744Y002514D01*
X027799Y002551D01*
X027857Y002585D01*
X027916Y002616D01*
X027977Y002643D01*
X028040Y002666D01*
X028103Y002685D01*
X028168Y002701D01*
X028234Y002713D01*
X028300Y002721D01*
X028367Y002725D01*
X028433Y002725D01*
X028500Y002721D01*
X028566Y002713D01*
X028632Y002701D01*
X028697Y002685D01*
X028760Y002666D01*
X028823Y002643D01*
X028884Y002616D01*
X028943Y002585D01*
X029001Y002551D01*
X029056Y002514D01*
X029109Y002474D01*
X029159Y002430D01*
X029207Y002384D01*
X029252Y002334D01*
X029294Y002283D01*
X029333Y002228D01*
X029369Y002172D01*
X029401Y002114D01*
X029430Y002054D01*
X029455Y001992D01*
X029476Y001929D01*
X029494Y001864D01*
X029507Y001799D01*
X029517Y001733D01*
X029523Y001667D01*
X029525Y001600D01*
X029523Y001533D01*
X029517Y001467D01*
X029507Y001401D01*
X029494Y001336D01*
X029476Y001271D01*
X029455Y001208D01*
X029430Y001146D01*
X029401Y001086D01*
X029369Y001028D01*
X029333Y000972D01*
X029294Y000917D01*
X029252Y000866D01*
X029207Y000816D01*
X029159Y000770D01*
X029109Y000726D01*
X029056Y000686D01*
X029001Y000649D01*
X028943Y000615D01*
X028884Y000584D01*
X028823Y000557D01*
X028760Y000534D01*
X028697Y000515D01*
X028632Y000499D01*
X028566Y000487D01*
X028500Y000479D01*
X028433Y000475D01*
X028367Y000475D01*
X028300Y000479D01*
X028234Y000487D01*
X028168Y000499D01*
X028103Y000515D01*
X028040Y000534D01*
X027977Y000557D01*
X027916Y000584D01*
X027857Y000615D01*
X027799Y000649D01*
X027744Y000686D01*
X027691Y000726D01*
X027641Y000770D01*
X027593Y000816D01*
X027548Y000866D01*
X027506Y000917D01*
X027467Y000972D01*
X027431Y001028D01*
X027399Y001086D01*
X027370Y001146D01*
X027345Y001208D01*
X027324Y001271D01*
X027306Y001336D01*
X027293Y001401D01*
X027283Y001467D01*
X027277Y001533D01*
X027275Y001600D01*
X008165Y003250D02*
X006535Y003250D01*
X006535Y005350D01*
X008165Y005350D01*
X008165Y003250D01*
X005926Y005600D02*
X005928Y005629D01*
X005934Y005658D01*
X005943Y005686D01*
X005956Y005712D01*
X005972Y005736D01*
X005992Y005758D01*
X006014Y005778D01*
X006038Y005794D01*
X006064Y005807D01*
X006092Y005816D01*
X006121Y005822D01*
X006150Y005824D01*
X006179Y005822D01*
X006208Y005816D01*
X006236Y005807D01*
X006262Y005794D01*
X006286Y005778D01*
X006308Y005758D01*
X006328Y005736D01*
X006344Y005712D01*
X006357Y005686D01*
X006366Y005658D01*
X006372Y005629D01*
X006374Y005600D01*
X006372Y005571D01*
X006366Y005542D01*
X006357Y005514D01*
X006344Y005488D01*
X006328Y005464D01*
X006308Y005442D01*
X006286Y005422D01*
X006262Y005406D01*
X006236Y005393D01*
X006208Y005384D01*
X006179Y005378D01*
X006150Y005376D01*
X006121Y005378D01*
X006092Y005384D01*
X006064Y005393D01*
X006038Y005406D01*
X006014Y005422D01*
X005992Y005442D01*
X005972Y005464D01*
X005956Y005488D01*
X005943Y005514D01*
X005934Y005542D01*
X005928Y005571D01*
X005926Y005600D01*
X002117Y007200D02*
X002119Y007233D01*
X002125Y007266D01*
X002135Y007299D01*
X002148Y007329D01*
X002165Y007358D01*
X002186Y007385D01*
X002209Y007409D01*
X002235Y007430D01*
X002263Y007448D01*
X002294Y007462D01*
X002325Y007473D01*
X002358Y007480D01*
X002392Y007483D01*
X002425Y007482D01*
X002458Y007477D01*
X002491Y007468D01*
X002522Y007455D01*
X002551Y007439D01*
X002578Y007420D01*
X002603Y007397D01*
X002625Y007372D01*
X002644Y007344D01*
X002659Y007314D01*
X002671Y007283D01*
X002679Y007250D01*
X002683Y007217D01*
X002683Y007183D01*
X002679Y007150D01*
X002671Y007117D01*
X002659Y007086D01*
X002644Y007056D01*
X002625Y007028D01*
X002603Y007003D01*
X002578Y006980D01*
X002551Y006961D01*
X002522Y006945D01*
X002491Y006932D01*
X002458Y006923D01*
X002425Y006918D01*
X002392Y006917D01*
X002358Y006920D01*
X002325Y006927D01*
X002294Y006938D01*
X002263Y006952D01*
X002235Y006970D01*
X002209Y006991D01*
X002186Y007015D01*
X002165Y007042D01*
X002148Y007071D01*
X002135Y007101D01*
X002125Y007134D01*
X002119Y007167D01*
X002117Y007200D01*
X001900Y007375D02*
X001900Y006975D01*
X000000Y006975D01*
X000000Y007375D02*
X-000650Y007375D01*
X-000650Y006560D01*
X-002700Y006560D01*
X-002700Y006750D01*
X-002850Y006750D01*
X-002700Y004250D01*
X-002700Y004440D01*
X-000650Y004440D01*
X-000650Y006560D01*
X000000Y007375D02*
X000000Y005650D01*
X001900Y005650D01*
X001900Y005350D01*
X000000Y005350D01*
X000000Y005650D01*
X000000Y005350D02*
X000000Y004025D01*
X001900Y004025D01*
X001900Y003625D01*
X000000Y003625D01*
X000000Y004025D01*
X-000650Y003625D02*
X-000650Y004440D01*
X-000650Y003625D02*
X000000Y003625D01*
X002117Y003800D02*
X002119Y003833D01*
X002125Y003866D01*
X002135Y003899D01*
X002148Y003929D01*
X002165Y003958D01*
X002186Y003985D01*
X002209Y004009D01*
X002235Y004030D01*
X002263Y004048D01*
X002294Y004062D01*
X002325Y004073D01*
X002358Y004080D01*
X002392Y004083D01*
X002425Y004082D01*
X002458Y004077D01*
X002491Y004068D01*
X002522Y004055D01*
X002551Y004039D01*
X002578Y004020D01*
X002603Y003997D01*
X002625Y003972D01*
X002644Y003944D01*
X002659Y003914D01*
X002671Y003883D01*
X002679Y003850D01*
X002683Y003817D01*
X002683Y003783D01*
X002679Y003750D01*
X002671Y003717D01*
X002659Y003686D01*
X002644Y003656D01*
X002625Y003628D01*
X002603Y003603D01*
X002578Y003580D01*
X002551Y003561D01*
X002522Y003545D01*
X002491Y003532D01*
X002458Y003523D01*
X002425Y003518D01*
X002392Y003517D01*
X002358Y003520D01*
X002325Y003527D01*
X002294Y003538D01*
X002263Y003552D01*
X002235Y003570D01*
X002209Y003591D01*
X002186Y003615D01*
X002165Y003642D01*
X002148Y003671D01*
X002135Y003701D01*
X002125Y003734D01*
X002119Y003767D01*
X002117Y003800D01*
X000100Y001600D02*
X000102Y001677D01*
X000108Y001754D01*
X000118Y001831D01*
X000132Y001907D01*
X000149Y001982D01*
X000171Y002056D01*
X000196Y002129D01*
X000226Y002201D01*
X000258Y002271D01*
X000295Y002339D01*
X000334Y002405D01*
X000377Y002469D01*
X000424Y002531D01*
X000473Y002590D01*
X000526Y002647D01*
X000581Y002701D01*
X000639Y002752D01*
X000700Y002800D01*
X000763Y002845D01*
X000828Y002886D01*
X000895Y002924D01*
X000964Y002959D01*
X001035Y002989D01*
X001107Y003017D01*
X001181Y003040D01*
X001255Y003060D01*
X001331Y003076D01*
X001407Y003088D01*
X001484Y003096D01*
X001561Y003100D01*
X001639Y003100D01*
X001716Y003096D01*
X001793Y003088D01*
X001869Y003076D01*
X001945Y003060D01*
X002019Y003040D01*
X002093Y003017D01*
X002165Y002989D01*
X002236Y002959D01*
X002305Y002924D01*
X002372Y002886D01*
X002437Y002845D01*
X002500Y002800D01*
X002561Y002752D01*
X002619Y002701D01*
X002674Y002647D01*
X002727Y002590D01*
X002776Y002531D01*
X002823Y002469D01*
X002866Y002405D01*
X002905Y002339D01*
X002942Y002271D01*
X002974Y002201D01*
X003004Y002129D01*
X003029Y002056D01*
X003051Y001982D01*
X003068Y001907D01*
X003082Y001831D01*
X003092Y001754D01*
X003098Y001677D01*
X003100Y001600D01*
X003098Y001523D01*
X003092Y001446D01*
X003082Y001369D01*
X003068Y001293D01*
X003051Y001218D01*
X003029Y001144D01*
X003004Y001071D01*
X002974Y000999D01*
X002942Y000929D01*
X002905Y000861D01*
X002866Y000795D01*
X002823Y000731D01*
X002776Y000669D01*
X002727Y000610D01*
X002674Y000553D01*
X002619Y000499D01*
X002561Y000448D01*
X002500Y000400D01*
X002437Y000355D01*
X002372Y000314D01*
X002305Y000276D01*
X002236Y000241D01*
X002165Y000211D01*
X002093Y000183D01*
X002019Y000160D01*
X001945Y000140D01*
X001869Y000124D01*
X001793Y000112D01*
X001716Y000104D01*
X001639Y000100D01*
X001561Y000100D01*
X001484Y000104D01*
X001407Y000112D01*
X001331Y000124D01*
X001255Y000140D01*
X001181Y000160D01*
X001107Y000183D01*
X001035Y000211D01*
X000964Y000241D01*
X000895Y000276D01*
X000828Y000314D01*
X000763Y000355D01*
X000700Y000400D01*
X000639Y000448D01*
X000581Y000499D01*
X000526Y000553D01*
X000473Y000610D01*
X000424Y000669D01*
X000377Y000731D01*
X000334Y000795D01*
X000295Y000861D01*
X000258Y000929D01*
X000226Y000999D01*
X000196Y001071D01*
X000171Y001144D01*
X000149Y001218D01*
X000132Y001293D01*
X000118Y001369D01*
X000108Y001446D01*
X000102Y001523D01*
X000100Y001600D01*
X000475Y001600D02*
X000477Y001667D01*
X000483Y001733D01*
X000493Y001799D01*
X000506Y001864D01*
X000524Y001929D01*
X000545Y001992D01*
X000570Y002054D01*
X000599Y002114D01*
X000631Y002172D01*
X000667Y002228D01*
X000706Y002283D01*
X000748Y002334D01*
X000793Y002384D01*
X000841Y002430D01*
X000891Y002474D01*
X000944Y002514D01*
X000999Y002551D01*
X001057Y002585D01*
X001116Y002616D01*
X001177Y002643D01*
X001240Y002666D01*
X001303Y002685D01*
X001368Y002701D01*
X001434Y002713D01*
X001500Y002721D01*
X001567Y002725D01*
X001633Y002725D01*
X001700Y002721D01*
X001766Y002713D01*
X001832Y002701D01*
X001897Y002685D01*
X001960Y002666D01*
X002023Y002643D01*
X002084Y002616D01*
X002143Y002585D01*
X002201Y002551D01*
X002256Y002514D01*
X002309Y002474D01*
X002359Y002430D01*
X002407Y002384D01*
X002452Y002334D01*
X002494Y002283D01*
X002533Y002228D01*
X002569Y002172D01*
X002601Y002114D01*
X002630Y002054D01*
X002655Y001992D01*
X002676Y001929D01*
X002694Y001864D01*
X002707Y001799D01*
X002717Y001733D01*
X002723Y001667D01*
X002725Y001600D01*
X002723Y001533D01*
X002717Y001467D01*
X002707Y001401D01*
X002694Y001336D01*
X002676Y001271D01*
X002655Y001208D01*
X002630Y001146D01*
X002601Y001086D01*
X002569Y001028D01*
X002533Y000972D01*
X002494Y000917D01*
X002452Y000866D01*
X002407Y000816D01*
X002359Y000770D01*
X002309Y000726D01*
X002256Y000686D01*
X002201Y000649D01*
X002143Y000615D01*
X002084Y000584D01*
X002023Y000557D01*
X001960Y000534D01*
X001897Y000515D01*
X001832Y000499D01*
X001766Y000487D01*
X001700Y000479D01*
X001633Y000475D01*
X001567Y000475D01*
X001500Y000479D01*
X001434Y000487D01*
X001368Y000499D01*
X001303Y000515D01*
X001240Y000534D01*
X001177Y000557D01*
X001116Y000584D01*
X001057Y000615D01*
X000999Y000649D01*
X000944Y000686D01*
X000891Y000726D01*
X000841Y000770D01*
X000793Y000816D01*
X000748Y000866D01*
X000706Y000917D01*
X000667Y000972D01*
X000631Y001028D01*
X000599Y001086D01*
X000570Y001146D01*
X000545Y001208D01*
X000524Y001271D01*
X000506Y001336D01*
X000493Y001401D01*
X000483Y001467D01*
X000477Y001533D01*
X000475Y001600D01*
X-002700Y004250D02*
X-002900Y004250D01*
X-003050Y006750D01*
X-003250Y006750D01*
X-003100Y004250D01*
X-002900Y004250D01*
X-003100Y004250D02*
X-003300Y004250D01*
X-003450Y006750D01*
X-003650Y006750D01*
X-003500Y004250D01*
X-003300Y004250D01*
X-003500Y004250D02*
X-003700Y004250D01*
X-003850Y006750D01*
X-004050Y006750D01*
X-003900Y004250D01*
X-003700Y004250D01*
X-003900Y004250D02*
X-004100Y004250D01*
X-004250Y006750D01*
X-004400Y006750D01*
X-004400Y004250D01*
X-004100Y004250D01*
X-002700Y004440D02*
X-002700Y006560D01*
X-002850Y006750D02*
X-003050Y006750D01*
X-003250Y006750D02*
X-003450Y006750D01*
X-003650Y006750D02*
X-003850Y006750D01*
X-004050Y006750D02*
X-004250Y006750D01*
X000000Y007375D02*
X001900Y007375D01*
X000100Y022900D02*
X000102Y022977D01*
X000108Y023054D01*
X000118Y023131D01*
X000132Y023207D01*
X000149Y023282D01*
X000171Y023356D01*
X000196Y023429D01*
X000226Y023501D01*
X000258Y023571D01*
X000295Y023639D01*
X000334Y023705D01*
X000377Y023769D01*
X000424Y023831D01*
X000473Y023890D01*
X000526Y023947D01*
X000581Y024001D01*
X000639Y024052D01*
X000700Y024100D01*
X000763Y024145D01*
X000828Y024186D01*
X000895Y024224D01*
X000964Y024259D01*
X001035Y024289D01*
X001107Y024317D01*
X001181Y024340D01*
X001255Y024360D01*
X001331Y024376D01*
X001407Y024388D01*
X001484Y024396D01*
X001561Y024400D01*
X001639Y024400D01*
X001716Y024396D01*
X001793Y024388D01*
X001869Y024376D01*
X001945Y024360D01*
X002019Y024340D01*
X002093Y024317D01*
X002165Y024289D01*
X002236Y024259D01*
X002305Y024224D01*
X002372Y024186D01*
X002437Y024145D01*
X002500Y024100D01*
X002561Y024052D01*
X002619Y024001D01*
X002674Y023947D01*
X002727Y023890D01*
X002776Y023831D01*
X002823Y023769D01*
X002866Y023705D01*
X002905Y023639D01*
X002942Y023571D01*
X002974Y023501D01*
X003004Y023429D01*
X003029Y023356D01*
X003051Y023282D01*
X003068Y023207D01*
X003082Y023131D01*
X003092Y023054D01*
X003098Y022977D01*
X003100Y022900D01*
X003098Y022823D01*
X003092Y022746D01*
X003082Y022669D01*
X003068Y022593D01*
X003051Y022518D01*
X003029Y022444D01*
X003004Y022371D01*
X002974Y022299D01*
X002942Y022229D01*
X002905Y022161D01*
X002866Y022095D01*
X002823Y022031D01*
X002776Y021969D01*
X002727Y021910D01*
X002674Y021853D01*
X002619Y021799D01*
X002561Y021748D01*
X002500Y021700D01*
X002437Y021655D01*
X002372Y021614D01*
X002305Y021576D01*
X002236Y021541D01*
X002165Y021511D01*
X002093Y021483D01*
X002019Y021460D01*
X001945Y021440D01*
X001869Y021424D01*
X001793Y021412D01*
X001716Y021404D01*
X001639Y021400D01*
X001561Y021400D01*
X001484Y021404D01*
X001407Y021412D01*
X001331Y021424D01*
X001255Y021440D01*
X001181Y021460D01*
X001107Y021483D01*
X001035Y021511D01*
X000964Y021541D01*
X000895Y021576D01*
X000828Y021614D01*
X000763Y021655D01*
X000700Y021700D01*
X000639Y021748D01*
X000581Y021799D01*
X000526Y021853D01*
X000473Y021910D01*
X000424Y021969D01*
X000377Y022031D01*
X000334Y022095D01*
X000295Y022161D01*
X000258Y022229D01*
X000226Y022299D01*
X000196Y022371D01*
X000171Y022444D01*
X000149Y022518D01*
X000132Y022593D01*
X000118Y022669D01*
X000108Y022746D01*
X000102Y022823D01*
X000100Y022900D01*
X000475Y022900D02*
X000477Y022967D01*
X000483Y023033D01*
X000493Y023099D01*
X000506Y023164D01*
X000524Y023229D01*
X000545Y023292D01*
X000570Y023354D01*
X000599Y023414D01*
X000631Y023472D01*
X000667Y023528D01*
X000706Y023583D01*
X000748Y023634D01*
X000793Y023684D01*
X000841Y023730D01*
X000891Y023774D01*
X000944Y023814D01*
X000999Y023851D01*
X001057Y023885D01*
X001116Y023916D01*
X001177Y023943D01*
X001240Y023966D01*
X001303Y023985D01*
X001368Y024001D01*
X001434Y024013D01*
X001500Y024021D01*
X001567Y024025D01*
X001633Y024025D01*
X001700Y024021D01*
X001766Y024013D01*
X001832Y024001D01*
X001897Y023985D01*
X001960Y023966D01*
X002023Y023943D01*
X002084Y023916D01*
X002143Y023885D01*
X002201Y023851D01*
X002256Y023814D01*
X002309Y023774D01*
X002359Y023730D01*
X002407Y023684D01*
X002452Y023634D01*
X002494Y023583D01*
X002533Y023528D01*
X002569Y023472D01*
X002601Y023414D01*
X002630Y023354D01*
X002655Y023292D01*
X002676Y023229D01*
X002694Y023164D01*
X002707Y023099D01*
X002717Y023033D01*
X002723Y022967D01*
X002725Y022900D01*
X002723Y022833D01*
X002717Y022767D01*
X002707Y022701D01*
X002694Y022636D01*
X002676Y022571D01*
X002655Y022508D01*
X002630Y022446D01*
X002601Y022386D01*
X002569Y022328D01*
X002533Y022272D01*
X002494Y022217D01*
X002452Y022166D01*
X002407Y022116D01*
X002359Y022070D01*
X002309Y022026D01*
X002256Y021986D01*
X002201Y021949D01*
X002143Y021915D01*
X002084Y021884D01*
X002023Y021857D01*
X001960Y021834D01*
X001897Y021815D01*
X001832Y021799D01*
X001766Y021787D01*
X001700Y021779D01*
X001633Y021775D01*
X001567Y021775D01*
X001500Y021779D01*
X001434Y021787D01*
X001368Y021799D01*
X001303Y021815D01*
X001240Y021834D01*
X001177Y021857D01*
X001116Y021884D01*
X001057Y021915D01*
X000999Y021949D01*
X000944Y021986D01*
X000891Y022026D01*
X000841Y022070D01*
X000793Y022116D01*
X000748Y022166D01*
X000706Y022217D01*
X000667Y022272D01*
X000631Y022328D01*
X000599Y022386D01*
X000570Y022446D01*
X000545Y022508D01*
X000524Y022571D01*
X000506Y022636D01*
X000493Y022701D01*
X000483Y022767D01*
X000477Y022833D01*
X000475Y022900D01*
X026900Y022900D02*
X026902Y022977D01*
X026908Y023054D01*
X026918Y023131D01*
X026932Y023207D01*
X026949Y023282D01*
X026971Y023356D01*
X026996Y023429D01*
X027026Y023501D01*
X027058Y023571D01*
X027095Y023639D01*
X027134Y023705D01*
X027177Y023769D01*
X027224Y023831D01*
X027273Y023890D01*
X027326Y023947D01*
X027381Y024001D01*
X027439Y024052D01*
X027500Y024100D01*
X027563Y024145D01*
X027628Y024186D01*
X027695Y024224D01*
X027764Y024259D01*
X027835Y024289D01*
X027907Y024317D01*
X027981Y024340D01*
X028055Y024360D01*
X028131Y024376D01*
X028207Y024388D01*
X028284Y024396D01*
X028361Y024400D01*
X028439Y024400D01*
X028516Y024396D01*
X028593Y024388D01*
X028669Y024376D01*
X028745Y024360D01*
X028819Y024340D01*
X028893Y024317D01*
X028965Y024289D01*
X029036Y024259D01*
X029105Y024224D01*
X029172Y024186D01*
X029237Y024145D01*
X029300Y024100D01*
X029361Y024052D01*
X029419Y024001D01*
X029474Y023947D01*
X029527Y023890D01*
X029576Y023831D01*
X029623Y023769D01*
X029666Y023705D01*
X029705Y023639D01*
X029742Y023571D01*
X029774Y023501D01*
X029804Y023429D01*
X029829Y023356D01*
X029851Y023282D01*
X029868Y023207D01*
X029882Y023131D01*
X029892Y023054D01*
X029898Y022977D01*
X029900Y022900D01*
X029898Y022823D01*
X029892Y022746D01*
X029882Y022669D01*
X029868Y022593D01*
X029851Y022518D01*
X029829Y022444D01*
X029804Y022371D01*
X029774Y022299D01*
X029742Y022229D01*
X029705Y022161D01*
X029666Y022095D01*
X029623Y022031D01*
X029576Y021969D01*
X029527Y021910D01*
X029474Y021853D01*
X029419Y021799D01*
X029361Y021748D01*
X029300Y021700D01*
X029237Y021655D01*
X029172Y021614D01*
X029105Y021576D01*
X029036Y021541D01*
X028965Y021511D01*
X028893Y021483D01*
X028819Y021460D01*
X028745Y021440D01*
X028669Y021424D01*
X028593Y021412D01*
X028516Y021404D01*
X028439Y021400D01*
X028361Y021400D01*
X028284Y021404D01*
X028207Y021412D01*
X028131Y021424D01*
X028055Y021440D01*
X027981Y021460D01*
X027907Y021483D01*
X027835Y021511D01*
X027764Y021541D01*
X027695Y021576D01*
X027628Y021614D01*
X027563Y021655D01*
X027500Y021700D01*
X027439Y021748D01*
X027381Y021799D01*
X027326Y021853D01*
X027273Y021910D01*
X027224Y021969D01*
X027177Y022031D01*
X027134Y022095D01*
X027095Y022161D01*
X027058Y022229D01*
X027026Y022299D01*
X026996Y022371D01*
X026971Y022444D01*
X026949Y022518D01*
X026932Y022593D01*
X026918Y022669D01*
X026908Y022746D01*
X026902Y022823D01*
X026900Y022900D01*
X027275Y022900D02*
X027277Y022967D01*
X027283Y023033D01*
X027293Y023099D01*
X027306Y023164D01*
X027324Y023229D01*
X027345Y023292D01*
X027370Y023354D01*
X027399Y023414D01*
X027431Y023472D01*
X027467Y023528D01*
X027506Y023583D01*
X027548Y023634D01*
X027593Y023684D01*
X027641Y023730D01*
X027691Y023774D01*
X027744Y023814D01*
X027799Y023851D01*
X027857Y023885D01*
X027916Y023916D01*
X027977Y023943D01*
X028040Y023966D01*
X028103Y023985D01*
X028168Y024001D01*
X028234Y024013D01*
X028300Y024021D01*
X028367Y024025D01*
X028433Y024025D01*
X028500Y024021D01*
X028566Y024013D01*
X028632Y024001D01*
X028697Y023985D01*
X028760Y023966D01*
X028823Y023943D01*
X028884Y023916D01*
X028943Y023885D01*
X029001Y023851D01*
X029056Y023814D01*
X029109Y023774D01*
X029159Y023730D01*
X029207Y023684D01*
X029252Y023634D01*
X029294Y023583D01*
X029333Y023528D01*
X029369Y023472D01*
X029401Y023414D01*
X029430Y023354D01*
X029455Y023292D01*
X029476Y023229D01*
X029494Y023164D01*
X029507Y023099D01*
X029517Y023033D01*
X029523Y022967D01*
X029525Y022900D01*
X029523Y022833D01*
X029517Y022767D01*
X029507Y022701D01*
X029494Y022636D01*
X029476Y022571D01*
X029455Y022508D01*
X029430Y022446D01*
X029401Y022386D01*
X029369Y022328D01*
X029333Y022272D01*
X029294Y022217D01*
X029252Y022166D01*
X029207Y022116D01*
X029159Y022070D01*
X029109Y022026D01*
X029056Y021986D01*
X029001Y021949D01*
X028943Y021915D01*
X028884Y021884D01*
X028823Y021857D01*
X028760Y021834D01*
X028697Y021815D01*
X028632Y021799D01*
X028566Y021787D01*
X028500Y021779D01*
X028433Y021775D01*
X028367Y021775D01*
X028300Y021779D01*
X028234Y021787D01*
X028168Y021799D01*
X028103Y021815D01*
X028040Y021834D01*
X027977Y021857D01*
X027916Y021884D01*
X027857Y021915D01*
X027799Y021949D01*
X027744Y021986D01*
X027691Y022026D01*
X027641Y022070D01*
X027593Y022116D01*
X027548Y022166D01*
X027506Y022217D01*
X027467Y022272D01*
X027431Y022328D01*
X027399Y022386D01*
X027370Y022446D01*
X027345Y022508D01*
X027324Y022571D01*
X027306Y022636D01*
X027293Y022701D01*
X027283Y022767D01*
X027277Y022833D01*
X027275Y022900D01*
D42*
X026950Y017650D02*
X026450Y017650D01*
X026200Y017400D01*
X026200Y016900D01*
X026450Y016650D01*
X026950Y016650D01*
X027200Y016900D01*
X027200Y017400D01*
X026950Y017650D01*
X026950Y016650D02*
X027200Y016400D01*
X027200Y015900D01*
X026950Y015650D01*
X027200Y015400D01*
X027200Y014900D01*
X026950Y014650D01*
X027200Y014400D01*
X027200Y013900D01*
X026950Y013650D01*
X027200Y013400D01*
X027200Y012900D01*
X026950Y012650D01*
X027200Y012400D01*
X027200Y011900D01*
X026950Y011650D01*
X026450Y011650D01*
X026200Y011900D01*
X026200Y012400D01*
X026450Y012650D01*
X026200Y012900D01*
X026200Y013400D01*
X026450Y013650D01*
X026950Y013650D01*
X026450Y013650D02*
X026200Y013900D01*
X026200Y014400D01*
X026450Y014650D01*
X026200Y014900D01*
X026200Y015400D01*
X026450Y015650D01*
X026200Y015900D01*
X026200Y016400D01*
X026450Y016650D01*
X026450Y015650D02*
X026950Y015650D01*
X026950Y014650D02*
X026450Y014650D01*
X026450Y012650D02*
X026950Y012650D01*
X024815Y016559D02*
X024813Y016541D01*
X024808Y016524D01*
X024800Y016507D01*
X024789Y016493D01*
X024776Y016481D01*
X024761Y016471D01*
X024744Y016465D01*
X024726Y016461D01*
X024708Y016461D01*
X024690Y016465D01*
X024673Y016471D01*
X024658Y016481D01*
X024645Y016493D01*
X024634Y016507D01*
X024626Y016524D01*
X024621Y016541D01*
X024619Y016559D01*
X024819Y016590D02*
X024181Y016590D01*
X024181Y017710D01*
X024819Y017710D01*
X024819Y016590D01*
X024181Y016984D02*
X024181Y017316D01*
X012395Y022231D02*
X012395Y022391D01*
X012395Y022311D02*
X012155Y022311D01*
X012235Y022231D01*
X010300Y021250D02*
X010000Y021250D01*
X010000Y023250D01*
X010300Y023250D01*
X010300Y021250D01*
X010000Y021250D02*
X010000Y021000D01*
X008600Y021000D01*
X008600Y021250D01*
X008600Y023250D01*
X008600Y023500D01*
X010000Y023500D01*
X010000Y023250D01*
X008600Y023250D02*
X008300Y023250D01*
X008300Y022650D01*
X008500Y022650D01*
X008500Y021850D01*
X008300Y021850D01*
X008300Y021250D01*
X008600Y021250D01*
X008140Y023180D02*
X007980Y023180D01*
X008060Y023180D02*
X008060Y023420D01*
X007980Y023340D01*
X002150Y019950D02*
X002050Y019850D01*
X001950Y019950D01*
X012774Y003767D02*
X013326Y003767D01*
X013326Y003333D01*
X012774Y003333D01*
X012774Y003767D01*
X012893Y003767D01*
X012774Y003767D02*
X012774Y003707D01*
X012774Y003393D02*
X012774Y003333D01*
X012893Y003333D01*
X024900Y005500D02*
X025000Y005600D01*
X025100Y005500D01*
D43*
X025000Y005274D03*
X025000Y005826D03*
X002050Y019624D03*
X002050Y020176D03*
D44*
X013188Y022745D03*
X013385Y022745D03*
X013581Y022745D03*
X013778Y022745D03*
X013975Y022745D03*
X014172Y022745D03*
X014369Y022745D03*
X014566Y022745D03*
X014763Y022745D03*
X014959Y022745D03*
X015156Y022745D03*
X015353Y022745D03*
X015550Y022745D03*
X015747Y022745D03*
X015944Y022745D03*
X016141Y022745D03*
X016337Y022745D03*
X016534Y022745D03*
X016731Y022745D03*
X016928Y022745D03*
X017125Y022745D03*
X017322Y022745D03*
X017519Y022745D03*
X017715Y022745D03*
X017912Y022745D03*
X017912Y016855D03*
X017715Y016855D03*
X017519Y016855D03*
X017322Y016855D03*
X017125Y016855D03*
X016928Y016855D03*
X016731Y016855D03*
X016534Y016855D03*
X016337Y016855D03*
X016141Y016855D03*
X015944Y016855D03*
X015747Y016855D03*
X015550Y016855D03*
X015353Y016855D03*
X015156Y016855D03*
X014959Y016855D03*
X014763Y016855D03*
X014566Y016855D03*
X014369Y016855D03*
X014172Y016855D03*
X013975Y016855D03*
X013778Y016855D03*
X013581Y016855D03*
X013385Y016855D03*
X013188Y016855D03*
D45*
X012605Y017438D03*
X012605Y017635D03*
X012605Y017831D03*
X012605Y018028D03*
X012605Y018225D03*
X012605Y018422D03*
X012605Y018619D03*
X012605Y018816D03*
X012605Y019013D03*
X012605Y019209D03*
X012605Y019406D03*
X012605Y019603D03*
X012605Y019800D03*
X012605Y019997D03*
X012605Y020194D03*
X012605Y020391D03*
X012605Y020587D03*
X012605Y020784D03*
X012605Y020981D03*
X012605Y021178D03*
X012605Y021375D03*
X012605Y021572D03*
X012605Y021769D03*
X012605Y021965D03*
X012605Y022162D03*
X018495Y022162D03*
X018495Y021965D03*
X018495Y021769D03*
X018495Y021572D03*
X018495Y021375D03*
X018495Y021178D03*
X018495Y020981D03*
X018495Y020784D03*
X018495Y020587D03*
X018495Y020391D03*
X018495Y020194D03*
X018495Y019997D03*
X018495Y019800D03*
X018495Y019603D03*
X018495Y019406D03*
X018495Y019209D03*
X018495Y019013D03*
X018495Y018816D03*
X018495Y018619D03*
X018495Y018422D03*
X018495Y018225D03*
X018495Y018028D03*
X018495Y017831D03*
X018495Y017635D03*
X018495Y017438D03*
D46*
X020045Y017312D03*
X020045Y016812D03*
X020045Y017812D03*
X023245Y003812D03*
D47*
X023338Y003783D03*
X020138Y016783D03*
X020138Y017283D03*
X020138Y017783D03*
D48*
X020074Y017588D03*
X020074Y018088D03*
X020074Y017088D03*
X023274Y004088D03*
D49*
X023368Y003950D03*
X020168Y016950D03*
X020168Y017450D03*
X020168Y017950D03*
D50*
X020532Y017950D03*
X020532Y017450D03*
X020532Y016950D03*
X023732Y003950D03*
D51*
X024876Y012225D03*
X024876Y012540D03*
X024876Y012855D03*
X024876Y013170D03*
X024876Y013485D03*
X024876Y013800D03*
X024876Y014115D03*
X024876Y014430D03*
X024876Y014745D03*
X024876Y015060D03*
X024876Y015375D03*
X020624Y015375D03*
X020624Y015060D03*
X020624Y014745D03*
X020624Y014430D03*
X020624Y014115D03*
X020624Y013800D03*
X020624Y013485D03*
X020624Y013170D03*
X020624Y012855D03*
X020624Y012540D03*
X020624Y012225D03*
D52*
X021175Y011674D03*
X021490Y011674D03*
X021805Y011674D03*
X022120Y011674D03*
X022435Y011674D03*
X022750Y011674D03*
X023065Y011674D03*
X023380Y011674D03*
X023695Y011674D03*
X024010Y011674D03*
X024325Y011674D03*
X024325Y015926D03*
X024010Y015926D03*
X023695Y015926D03*
X023380Y015926D03*
X023065Y015926D03*
X022750Y015926D03*
X022435Y015926D03*
X022120Y015926D03*
X021805Y015926D03*
X021490Y015926D03*
X021175Y015926D03*
D53*
X026700Y016150D03*
X026700Y015150D03*
X026700Y014150D03*
X026700Y013150D03*
X026700Y012150D03*
X026700Y017150D03*
D54*
X021212Y018826D02*
X021212Y019574D01*
X021210Y019589D01*
X021206Y019604D01*
X021199Y019618D01*
X021189Y019630D01*
X021177Y019640D01*
X021163Y019647D01*
X021148Y019651D01*
X021133Y019653D01*
X020267Y019653D01*
X020252Y019651D01*
X020237Y019647D01*
X020223Y019640D01*
X020211Y019630D01*
X020201Y019618D01*
X020194Y019604D01*
X020190Y019589D01*
X020188Y019574D01*
X020188Y018826D01*
X020190Y018811D01*
X020194Y018796D01*
X020201Y018782D01*
X020211Y018770D01*
X020223Y018760D01*
X020237Y018753D01*
X020252Y018749D01*
X020267Y018747D01*
X021133Y018747D01*
X021148Y018749D01*
X021163Y018753D01*
X021177Y018760D01*
X021189Y018770D01*
X021199Y018782D01*
X021206Y018796D01*
X021210Y018811D01*
X021212Y018826D01*
D55*
X020818Y019200D03*
X020562Y019377D03*
X020562Y019023D03*
D56*
X019642Y012034D02*
X019643Y012048D01*
X019641Y012062D01*
X019635Y012075D01*
X019627Y012087D01*
X019616Y012096D01*
X019604Y012102D01*
X019590Y012106D01*
X019576Y012106D01*
X019562Y012102D01*
X019550Y012096D01*
X019539Y012087D01*
X019531Y012075D01*
X019525Y012062D01*
X019523Y012048D01*
X019524Y012034D01*
D57*
X019367Y011774D03*
X019367Y011400D03*
X019367Y011026D03*
X020233Y011026D03*
X020233Y011400D03*
X020233Y011774D03*
M02*
