G75*
%MOIN*%
%OFA0B0*%
%FSLAX24Y24*%
%IPPOS*%
%LPD*%
%AMOC8*
5,1,8,0,0,1.08239X$1,22.5*
%
%ADD10R,0.0800X0.1050*%
%ADD11R,0.1050X0.0800*%
%ADD12C,0.1020*%
%ADD13C,0.0480*%
%ADD14C,0.0350*%
%ADD15C,0.0960*%
%ADD16C,0.0555*%
%ADD17C,0.1310*%
%ADD18C,0.0476*%
%ADD19R,0.2060X0.1010*%
%ADD20C,0.0660*%
D10*
X016250Y000780D03*
X029800Y000780D03*
X023250Y024230D03*
X015250Y024230D03*
D11*
X034025Y016005D03*
X034025Y005605D03*
X005075Y009605D03*
D12*
X006650Y011666D03*
X006650Y017808D03*
D13*
X006400Y016605D02*
X005980Y016605D01*
X005980Y016105D02*
X006400Y016105D01*
X006900Y016105D02*
X007320Y016105D01*
X007320Y015605D02*
X006900Y015605D01*
X006400Y015605D02*
X005980Y015605D01*
X005980Y015105D02*
X006400Y015105D01*
X006900Y015105D02*
X007320Y015105D01*
X007320Y014605D02*
X006900Y014605D01*
X006400Y014605D02*
X005980Y014605D01*
X005980Y014105D02*
X006400Y014105D01*
X006900Y014105D02*
X007320Y014105D01*
X007320Y013605D02*
X006900Y013605D01*
X006400Y013605D02*
X005980Y013605D01*
X005980Y013105D02*
X006400Y013105D01*
X006900Y013105D02*
X007320Y013105D01*
X007320Y016605D02*
X006900Y016605D01*
D14*
X005250Y015955D03*
X005250Y015255D03*
X005250Y014455D03*
X005250Y013755D03*
X011050Y009455D03*
X012200Y008605D03*
X018450Y008455D03*
X023000Y006805D03*
X023550Y006805D03*
X023250Y007705D03*
X024900Y006405D03*
X026400Y006605D03*
X028900Y005505D03*
X028400Y003705D03*
X028200Y002305D03*
X025000Y001355D03*
X021450Y003905D03*
X019200Y003655D03*
X017500Y003055D03*
X023200Y009355D03*
X026950Y011155D03*
X027600Y011155D03*
X028250Y011155D03*
X028900Y011155D03*
X023400Y015455D03*
X019450Y016105D03*
X012550Y017455D03*
X012550Y018855D03*
X015950Y021805D03*
X016450Y022155D03*
X020200Y023605D03*
X020650Y023605D03*
X029550Y016155D03*
X006050Y019055D03*
X005350Y021055D03*
D15*
X034000Y020987D03*
X034000Y018223D03*
D16*
X032819Y018650D03*
X032819Y020560D03*
D17*
X032950Y023155D03*
X006150Y023155D03*
X006150Y001855D03*
X032950Y001855D03*
D18*
X014516Y021505D02*
X014100Y021505D01*
X013600Y021505D02*
X013184Y021505D01*
X014100Y022005D02*
X014516Y022005D01*
X014516Y022505D02*
X014100Y022505D01*
X013600Y022505D02*
X013184Y022505D01*
X013184Y023005D02*
X013600Y023005D01*
X014100Y023005D02*
X014516Y023005D01*
X014516Y023505D02*
X014100Y023505D01*
X013600Y023505D02*
X013184Y023505D01*
D19*
X005550Y004055D03*
X005550Y007455D03*
D20*
X030950Y012405D02*
X031550Y012405D01*
X031550Y013405D02*
X030950Y013405D01*
X030950Y014405D02*
X031550Y014405D01*
X031550Y015405D02*
X030950Y015405D01*
X030950Y016405D02*
X031550Y016405D01*
X031550Y017405D02*
X030950Y017405D01*
M02*
