G75*
%MOIN*%
%OFA0B0*%
%FSLAX24Y24*%
%IPPOS*%
%LPD*%
%AMOC8*
5,1,8,0,0,1.08239X$1,22.5*
%
%ADD10C,0.0000*%
D10*
X004550Y000255D02*
X034550Y000255D01*
X034550Y024755D01*
X004550Y024755D01*
X004550Y000255D01*
X005525Y001855D02*
X005527Y001905D01*
X005533Y001954D01*
X005543Y002003D01*
X005556Y002050D01*
X005574Y002097D01*
X005595Y002142D01*
X005619Y002185D01*
X005647Y002226D01*
X005678Y002265D01*
X005712Y002301D01*
X005749Y002335D01*
X005789Y002365D01*
X005830Y002392D01*
X005874Y002416D01*
X005919Y002436D01*
X005966Y002452D01*
X006014Y002465D01*
X006063Y002474D01*
X006113Y002479D01*
X006162Y002480D01*
X006212Y002477D01*
X006261Y002470D01*
X006310Y002459D01*
X006357Y002445D01*
X006403Y002426D01*
X006448Y002404D01*
X006491Y002379D01*
X006531Y002350D01*
X006569Y002318D01*
X006605Y002284D01*
X006638Y002246D01*
X006667Y002206D01*
X006693Y002164D01*
X006716Y002120D01*
X006735Y002074D01*
X006751Y002027D01*
X006763Y001978D01*
X006771Y001929D01*
X006775Y001880D01*
X006775Y001830D01*
X006771Y001781D01*
X006763Y001732D01*
X006751Y001683D01*
X006735Y001636D01*
X006716Y001590D01*
X006693Y001546D01*
X006667Y001504D01*
X006638Y001464D01*
X006605Y001426D01*
X006569Y001392D01*
X006531Y001360D01*
X006491Y001331D01*
X006448Y001306D01*
X006403Y001284D01*
X006357Y001265D01*
X006310Y001251D01*
X006261Y001240D01*
X006212Y001233D01*
X006162Y001230D01*
X006113Y001231D01*
X006063Y001236D01*
X006014Y001245D01*
X005966Y001258D01*
X005919Y001274D01*
X005874Y001294D01*
X005830Y001318D01*
X005789Y001345D01*
X005749Y001375D01*
X005712Y001409D01*
X005678Y001445D01*
X005647Y001484D01*
X005619Y001525D01*
X005595Y001568D01*
X005574Y001613D01*
X005556Y001660D01*
X005543Y001707D01*
X005533Y001756D01*
X005527Y001805D01*
X005525Y001855D01*
X006170Y011666D02*
X006172Y011710D01*
X006178Y011753D01*
X006188Y011796D01*
X006201Y011837D01*
X006219Y011877D01*
X006240Y011915D01*
X006264Y011952D01*
X006292Y011986D01*
X006322Y012017D01*
X006356Y012045D01*
X006391Y012070D01*
X006429Y012092D01*
X006469Y012111D01*
X006510Y012125D01*
X006552Y012136D01*
X006595Y012143D01*
X006639Y012146D01*
X006683Y012145D01*
X006726Y012140D01*
X006769Y012131D01*
X006811Y012118D01*
X006851Y012102D01*
X006890Y012082D01*
X006927Y012058D01*
X006961Y012031D01*
X006993Y012002D01*
X007022Y011969D01*
X007048Y011934D01*
X007071Y011896D01*
X007090Y011857D01*
X007106Y011816D01*
X007118Y011774D01*
X007126Y011731D01*
X007130Y011688D01*
X007130Y011644D01*
X007126Y011601D01*
X007118Y011558D01*
X007106Y011516D01*
X007090Y011475D01*
X007071Y011436D01*
X007048Y011398D01*
X007022Y011363D01*
X006993Y011330D01*
X006961Y011301D01*
X006927Y011274D01*
X006890Y011250D01*
X006851Y011230D01*
X006811Y011214D01*
X006769Y011201D01*
X006726Y011192D01*
X006683Y011187D01*
X006639Y011186D01*
X006595Y011189D01*
X006552Y011196D01*
X006510Y011207D01*
X006469Y011221D01*
X006429Y011240D01*
X006391Y011262D01*
X006356Y011287D01*
X006322Y011315D01*
X006292Y011346D01*
X006264Y011380D01*
X006240Y011417D01*
X006219Y011455D01*
X006201Y011495D01*
X006188Y011536D01*
X006178Y011579D01*
X006172Y011622D01*
X006170Y011666D01*
X006170Y017808D02*
X006172Y017852D01*
X006178Y017895D01*
X006188Y017938D01*
X006201Y017979D01*
X006219Y018019D01*
X006240Y018057D01*
X006264Y018094D01*
X006292Y018128D01*
X006322Y018159D01*
X006356Y018187D01*
X006391Y018212D01*
X006429Y018234D01*
X006469Y018253D01*
X006510Y018267D01*
X006552Y018278D01*
X006595Y018285D01*
X006639Y018288D01*
X006683Y018287D01*
X006726Y018282D01*
X006769Y018273D01*
X006811Y018260D01*
X006851Y018244D01*
X006890Y018224D01*
X006927Y018200D01*
X006961Y018173D01*
X006993Y018144D01*
X007022Y018111D01*
X007048Y018076D01*
X007071Y018038D01*
X007090Y017999D01*
X007106Y017958D01*
X007118Y017916D01*
X007126Y017873D01*
X007130Y017830D01*
X007130Y017786D01*
X007126Y017743D01*
X007118Y017700D01*
X007106Y017658D01*
X007090Y017617D01*
X007071Y017578D01*
X007048Y017540D01*
X007022Y017505D01*
X006993Y017472D01*
X006961Y017443D01*
X006927Y017416D01*
X006890Y017392D01*
X006851Y017372D01*
X006811Y017356D01*
X006769Y017343D01*
X006726Y017334D01*
X006683Y017329D01*
X006639Y017328D01*
X006595Y017331D01*
X006552Y017338D01*
X006510Y017349D01*
X006469Y017363D01*
X006429Y017382D01*
X006391Y017404D01*
X006356Y017429D01*
X006322Y017457D01*
X006292Y017488D01*
X006264Y017522D01*
X006240Y017559D01*
X006219Y017597D01*
X006201Y017637D01*
X006188Y017678D01*
X006178Y017721D01*
X006172Y017764D01*
X006170Y017808D01*
X005525Y023155D02*
X005527Y023205D01*
X005533Y023254D01*
X005543Y023303D01*
X005556Y023350D01*
X005574Y023397D01*
X005595Y023442D01*
X005619Y023485D01*
X005647Y023526D01*
X005678Y023565D01*
X005712Y023601D01*
X005749Y023635D01*
X005789Y023665D01*
X005830Y023692D01*
X005874Y023716D01*
X005919Y023736D01*
X005966Y023752D01*
X006014Y023765D01*
X006063Y023774D01*
X006113Y023779D01*
X006162Y023780D01*
X006212Y023777D01*
X006261Y023770D01*
X006310Y023759D01*
X006357Y023745D01*
X006403Y023726D01*
X006448Y023704D01*
X006491Y023679D01*
X006531Y023650D01*
X006569Y023618D01*
X006605Y023584D01*
X006638Y023546D01*
X006667Y023506D01*
X006693Y023464D01*
X006716Y023420D01*
X006735Y023374D01*
X006751Y023327D01*
X006763Y023278D01*
X006771Y023229D01*
X006775Y023180D01*
X006775Y023130D01*
X006771Y023081D01*
X006763Y023032D01*
X006751Y022983D01*
X006735Y022936D01*
X006716Y022890D01*
X006693Y022846D01*
X006667Y022804D01*
X006638Y022764D01*
X006605Y022726D01*
X006569Y022692D01*
X006531Y022660D01*
X006491Y022631D01*
X006448Y022606D01*
X006403Y022584D01*
X006357Y022565D01*
X006310Y022551D01*
X006261Y022540D01*
X006212Y022533D01*
X006162Y022530D01*
X006113Y022531D01*
X006063Y022536D01*
X006014Y022545D01*
X005966Y022558D01*
X005919Y022574D01*
X005874Y022594D01*
X005830Y022618D01*
X005789Y022645D01*
X005749Y022675D01*
X005712Y022709D01*
X005678Y022745D01*
X005647Y022784D01*
X005619Y022825D01*
X005595Y022868D01*
X005574Y022913D01*
X005556Y022960D01*
X005543Y023007D01*
X005533Y023056D01*
X005527Y023105D01*
X005525Y023155D01*
X032325Y023155D02*
X032327Y023205D01*
X032333Y023254D01*
X032343Y023303D01*
X032356Y023350D01*
X032374Y023397D01*
X032395Y023442D01*
X032419Y023485D01*
X032447Y023526D01*
X032478Y023565D01*
X032512Y023601D01*
X032549Y023635D01*
X032589Y023665D01*
X032630Y023692D01*
X032674Y023716D01*
X032719Y023736D01*
X032766Y023752D01*
X032814Y023765D01*
X032863Y023774D01*
X032913Y023779D01*
X032962Y023780D01*
X033012Y023777D01*
X033061Y023770D01*
X033110Y023759D01*
X033157Y023745D01*
X033203Y023726D01*
X033248Y023704D01*
X033291Y023679D01*
X033331Y023650D01*
X033369Y023618D01*
X033405Y023584D01*
X033438Y023546D01*
X033467Y023506D01*
X033493Y023464D01*
X033516Y023420D01*
X033535Y023374D01*
X033551Y023327D01*
X033563Y023278D01*
X033571Y023229D01*
X033575Y023180D01*
X033575Y023130D01*
X033571Y023081D01*
X033563Y023032D01*
X033551Y022983D01*
X033535Y022936D01*
X033516Y022890D01*
X033493Y022846D01*
X033467Y022804D01*
X033438Y022764D01*
X033405Y022726D01*
X033369Y022692D01*
X033331Y022660D01*
X033291Y022631D01*
X033248Y022606D01*
X033203Y022584D01*
X033157Y022565D01*
X033110Y022551D01*
X033061Y022540D01*
X033012Y022533D01*
X032962Y022530D01*
X032913Y022531D01*
X032863Y022536D01*
X032814Y022545D01*
X032766Y022558D01*
X032719Y022574D01*
X032674Y022594D01*
X032630Y022618D01*
X032589Y022645D01*
X032549Y022675D01*
X032512Y022709D01*
X032478Y022745D01*
X032447Y022784D01*
X032419Y022825D01*
X032395Y022868D01*
X032374Y022913D01*
X032356Y022960D01*
X032343Y023007D01*
X032333Y023056D01*
X032327Y023105D01*
X032325Y023155D01*
X032325Y001855D02*
X032327Y001905D01*
X032333Y001954D01*
X032343Y002003D01*
X032356Y002050D01*
X032374Y002097D01*
X032395Y002142D01*
X032419Y002185D01*
X032447Y002226D01*
X032478Y002265D01*
X032512Y002301D01*
X032549Y002335D01*
X032589Y002365D01*
X032630Y002392D01*
X032674Y002416D01*
X032719Y002436D01*
X032766Y002452D01*
X032814Y002465D01*
X032863Y002474D01*
X032913Y002479D01*
X032962Y002480D01*
X033012Y002477D01*
X033061Y002470D01*
X033110Y002459D01*
X033157Y002445D01*
X033203Y002426D01*
X033248Y002404D01*
X033291Y002379D01*
X033331Y002350D01*
X033369Y002318D01*
X033405Y002284D01*
X033438Y002246D01*
X033467Y002206D01*
X033493Y002164D01*
X033516Y002120D01*
X033535Y002074D01*
X033551Y002027D01*
X033563Y001978D01*
X033571Y001929D01*
X033575Y001880D01*
X033575Y001830D01*
X033571Y001781D01*
X033563Y001732D01*
X033551Y001683D01*
X033535Y001636D01*
X033516Y001590D01*
X033493Y001546D01*
X033467Y001504D01*
X033438Y001464D01*
X033405Y001426D01*
X033369Y001392D01*
X033331Y001360D01*
X033291Y001331D01*
X033248Y001306D01*
X033203Y001284D01*
X033157Y001265D01*
X033110Y001251D01*
X033061Y001240D01*
X033012Y001233D01*
X032962Y001230D01*
X032913Y001231D01*
X032863Y001236D01*
X032814Y001245D01*
X032766Y001258D01*
X032719Y001274D01*
X032674Y001294D01*
X032630Y001318D01*
X032589Y001345D01*
X032549Y001375D01*
X032512Y001409D01*
X032478Y001445D01*
X032447Y001484D01*
X032419Y001525D01*
X032395Y001568D01*
X032374Y001613D01*
X032356Y001660D01*
X032343Y001707D01*
X032333Y001756D01*
X032327Y001805D01*
X032325Y001855D01*
M02*
