%
M48
M72
T01C0.0100
T02C0.0150
T03C0.0276
T04C0.0280
T05C0.0330
T06C0.0400
T07C0.0600
T08C0.0960
T09C0.1250
%
T01
X4800Y3155
X5350Y3355
X5550Y4055
X5700Y4955
X6250Y4955
X6800Y5105
X7100Y5355
X7650Y5355
X8350Y5355
X8750Y5455
X9200Y5455
X9050Y5755
X8350Y6155
X7650Y6155
X7100Y6155
X6750Y6505
X6250Y6555
X5700Y6555
X5100Y6555
X4800Y6705
X5550Y7455
X4800Y8105
X4800Y9105
X4800Y10105
X4800Y10505
X5800Y10505
X5800Y10105
X6750Y10105
X6750Y10505
X7750Y10505
X7750Y10105
X8750Y10105
X8750Y10505
X9750Y10505
X9750Y10105
X10750Y10105
X10750Y10505
X11750Y10505
X11750Y10105
X12500Y9605
X12500Y9305
X12900Y9805
X12750Y10105
X13300Y9955
X13400Y9605
X14200Y9205
X13800Y8605
X13400Y8455
X13000Y8405
X12700Y8405
X14600Y8605
X14800Y8405
X15100Y8405
X15400Y8405
X16500Y8105
X16900Y8105
X17250Y8105
X17250Y7305
X16900Y7305
X16500Y7305
X15750Y7005
X15600Y7155
X15250Y7455
X14900Y7155
X15050Y6205
X15250Y6205
X15450Y6205
X15850Y6205
X16050Y6205
X16250Y6205
X16250Y5930
X16250Y5455
X15750Y5305
X15250Y5305
X14750Y5305
X14050Y5055
X13550Y4855
X13550Y4255
X14050Y4055
X14750Y3805
X15250Y3805
X15900Y3605
X16300Y3105
X16550Y2505
X17050Y2505
X17550Y2505
X18050Y2505
X18550Y2505
X19050Y2505
X19550Y2505
X20050Y2505
X20550Y2505
X21050Y2505
X21550Y2505
X21850Y2905
X22400Y3105
X22450Y2155
X22100Y1755
X21550Y1705
X21050Y1705
X20550Y1705
X20050Y1705
X19550Y1705
X19050Y1705
X18550Y1705
X18050Y1705
X17550Y1705
X17050Y1705
X16550Y1705
X16050Y1805
X15650Y2155
X15550Y2755
X14900Y3005
X14000Y3005
X13500Y3305
X12900Y3305
X12550Y3805
X12650Y4205
X12650Y4855
X12550Y5355
X12950Y5805
X13500Y5805
X14000Y6105
X14750Y6105
X16650Y4755
X17200Y5305
X17600Y5705
X18000Y5305
X18000Y6105
X17200Y6105
X18600Y6705
X18950Y6705
X18950Y6105
X19250Y6105
X19300Y5705
X19300Y5405
X18900Y5705
X20100Y5655
X20100Y5305
X19450Y4305
X19050Y4455
X18050Y4105
X18050Y3755
X17600Y4155
X17400Y4305
X17600Y4430
X20550Y7130
X20550Y7380
X20850Y7730
X21250Y7730
X20100Y7880
X18950Y7505
X18600Y7505
X18250Y8155
X18250Y9255
X18700Y10305
X19300Y10305
X20050Y10305
X20000Y11005
X20250Y11855
X20150Y12405
X19850Y12755
X20650Y12255
X21850Y11805
X22100Y12205
X22350Y11805
X22600Y12205
X22850Y11805
X23100Y11655
X23350Y11455
X22650Y11355
X22600Y10905
X22650Y10305
X23300Y10105
X23300Y10505
X24300Y10505
X24300Y10755
X24300Y10105
X25300Y10105
X25750Y10955
X25200Y11055
X25200Y11255
X25500Y11255
X25250Y11855
X25250Y12055
X26040Y12305
X26040Y12505
X24300Y12855
X23100Y12505
X24450Y14435
X24150Y14705
X24150Y15005
X24450Y15305
X25050Y15905
X25650Y15655
X26000Y15305
X25500Y15105
X25500Y14905
X26750Y15605
X27200Y15855
X27400Y15855
X28250Y15655
X28900Y15655
X29350Y16690
X29550Y16690
X29750Y16690
X30100Y16005
X30100Y14520
X30350Y14305
X30400Y13955
X30100Y13705
X30000Y13505
X30000Y13305
X29050Y13305
X29050Y13505
X29000Y12355
X29300Y10505
X29300Y10105
X28300Y10105
X28300Y10505
X27300Y10505
X27300Y10105
X26300Y10105
X26300Y10505
X25850Y8855
X25550Y8855
X25250Y8855
X24950Y8255
X24550Y7655
X24350Y7455
X24050Y7455
X23750Y7455
X23650Y8355
X23650Y8655
X24050Y9005
X25350Y7655
X25550Y7455
X25850Y7455
X26150Y7455
X27200Y6405
X27350Y6005
X27250Y5655
X27250Y5455
X27800Y4855
X28750Y4205
X29550Y5155
X28850Y5955
X28450Y6405
X28500Y6655
X28700Y7155
X29000Y7155
X28200Y7155
X27850Y6655
X26250Y5455
X26250Y5155
X25900Y5405
X25900Y4805
X25300Y5455
X25350Y6205
X24100Y5355
X24100Y4805
X24500Y4705
X24900Y4705
X24900Y4305
X27150Y3255
X27950Y3205
X28000Y2705
X28200Y2705
X27550Y1755
X27150Y1755
X26850Y2005
X26300Y1555
X25650Y1555
X24500Y1405
X23900Y1155
X23600Y1105
X23750Y505
X22750Y1405
X22650Y505
X21750Y505
X20750Y505
X19750Y505
X18750Y505
X17750Y505
X16750Y505
X15750Y505
X14750Y505
X13750Y505
X12750Y505
X11750Y505
X10750Y505
X9750Y505
X8750Y505
X7750Y505
X7500Y805
X8450Y1805
X8950Y2305
X9400Y2705
X9550Y2605
X9550Y2405
X9550Y2205
X9550Y2005
X9400Y1905
X9250Y1805
X9250Y2805
X8450Y2805
X7600Y2755
X6750Y3455
X5100Y4955
X4800Y4805
X8550Y4855
X8800Y4855
X9300Y4855
X9650Y4855
X10200Y4405
X11100Y4355
X11300Y4805
X11100Y5255
X10300Y5555
X9900Y5855
X14500Y9805
X14800Y9805
X15100Y9805
X15400Y9805
X15750Y10105
X15750Y10505
X14750Y10505
X14750Y10105
X13750Y10505
X12750Y10505
X12150Y11855
X14200Y13155
X15150Y12705
X14700Y12255
X14900Y11855
X16600Y13155
X16900Y13155
X17200Y13455
X16900Y13755
X17000Y14455
X17800Y14605
X17850Y14255
X16050Y14955
X15350Y15055
X15350Y14805
X14700Y15505
X14700Y15705
X14900Y16005
X14300Y15855
X14100Y15855
X13550Y16655
X13150Y16655
X13350Y17055
X13950Y16855
X15150Y16705
X15900Y17305
X15750Y17505
X15548Y17703
X15600Y18155
X16250Y18455
X15600Y18755
X15950Y18855
X16550Y19155
X17550Y19005
X17550Y18655
X17800Y18655
X17550Y18255
X16650Y17155
X16800Y16955
X17550Y16405
X17750Y16155
X18150Y16155
X18350Y16405
X17350Y16055
X18000Y15705
X19450Y15705
X20300Y16155
X21350Y16405
X21650Y16055
X22100Y15955
X21850Y15555
X21500Y15555
X22350Y15555
X22600Y14955
X22850Y14555
X21150Y14405
X20350Y14405
X22750Y16755
X23100Y16755
X23100Y17255
X22750Y17255
X22300Y17655
X22300Y17905
X22050Y17655
X21750Y17505
X21450Y17505
X20900Y17505
X20650Y17505
X19700Y17505
X19450Y18305
X19200Y18505
X20100Y19055
X21150Y18555
X21550Y18855
X22650Y19255
X22650Y19805
X24000Y20205
X24400Y20605
X24800Y20805
X25850Y20205
X26750Y19555
X25850Y18705
X26200Y17705
X27000Y17405
X27200Y16905
X26350Y16755
X26000Y16755
X29050Y17405
X29550Y18090
X30100Y17705
X30300Y17705
X31950Y18705
X31950Y19005
X32250Y19005
X32250Y18705
X32500Y20005
X32500Y20205
X31300Y20905
X32250Y21605
X31350Y22355
X30500Y21955
X30100Y21955
X29800Y22355
X29550Y22355
X29200Y22255
X28350Y21855
X27900Y22255
X27500Y22255
X26350Y23255
X25500Y23405
X24550Y22705
X24200Y22955
X23850Y22705
X23650Y22955
X23250Y22955
X23000Y22705
X22650Y22305
X22650Y22105
X23600Y22255
X24600Y21855
X26200Y21205
X29550Y23355
X29800Y23355
X29300Y24505
X28300Y24505
X27300Y24505
X26300Y24505
X25300Y24505
X24150Y23555
X23950Y23555
X23700Y24505
X22750Y24505
X21750Y24505
X21850Y23655
X21650Y23505
X22050Y23505
X21050Y23505
X20750Y24505
X19750Y24505
X19300Y23655
X18750Y24505
X17750Y24505
X17350Y23655
X16950Y23655
X16700Y23455
X16300Y23505
X17500Y23105
X17950Y22655
X18200Y23655
X16750Y24505
X15750Y24505
X14750Y24505
X13750Y24505
X12750Y24505
X11750Y24505
X10900Y24055
X10750Y24505
X9950Y24055
X9750Y24505
X9000Y24055
X8750Y24505
X7750Y24505
X7550Y24155
X7850Y23205
X9000Y22455
X9750Y22255
X10150Y22255
X10150Y22655
X9750Y22655
X10900Y22455
X12300Y21705
X12500Y20805
X12700Y20805
X12150Y20605
X11600Y20305
X10900Y20855
X10000Y20855
X9250Y20305
X9800Y20105
X10100Y20105
X9000Y20855
X8150Y20355
X7850Y20555
X7400Y20755
X7200Y20755
X6800Y20805
X6800Y21155
X6400Y21155
X6400Y20805
X6050Y20705
X5850Y21505
X5000Y21905
X4800Y21555
X4800Y20505
X4800Y19505
X4800Y18505
X4800Y17505
X4800Y16505
X4800Y15505
X4800Y14505
X4800Y13505
X4800Y12505
X4800Y11505
X7950Y12605
X7950Y13305
X9600Y12105
X10750Y13755
X11900Y14205
X12300Y14755
X12650Y14205
X13900Y14555
X14000Y14405
X15200Y14005
X15200Y13505
X15700Y13505
X15700Y14005
X12550Y16105
X12200Y15555
X11800Y16105
X12200Y16655
X10950Y17155
X10650Y17405
X10450Y18055
X10200Y18305
X10100Y18805
X9800Y18805
X8900Y17955
X8900Y17705
X8900Y17455
X8500Y17405
X8500Y17705
X8500Y18005
X7800Y17705
X8450Y18805
X8100Y19455
X7850Y19755
X7400Y19555
X7200Y19555
X6050Y19605
X6850Y21605
X7600Y22255
X11900Y19705
X12100Y19705
X12500Y19505
X12700Y19505
X13200Y19405
X13600Y19405
X14000Y19405
X14537Y19504
X14572Y19822
X14714Y20317
X14714Y20671
X14000Y20305
X13800Y20305
X13600Y20305
X13400Y20305
X13200Y20305
X11800Y19155
X11550Y18555
X11550Y18155
X13400Y18505
X13800Y18505
X16150Y20455
X16150Y20805
X16450Y21105
X16300Y21455
X17550Y20705
X17550Y20355
X19100Y20055
X20100Y21055
X19500Y22155
X20900Y22455
X22500Y21255
X21100Y20055
X15150Y21605
X9600Y17705
X10800Y16255
X16750Y10505
X16750Y10105
X17350Y10305
X20250Y9555
X20650Y9705
X21250Y10305
X24050Y6205
X26250Y2655
X24350Y2455
X23950Y2455
X25300Y505
X26300Y505
X27300Y505
X28300Y505
X29300Y505
X30300Y505
X31300Y505
X31600Y805
X31250Y1755
X31500Y2755
X32300Y3405
X33300Y3505
X34300Y3105
X34300Y4105
X34300Y5105
X34300Y6105
X34300Y7105
X34300Y8105
X34300Y9105
X34300Y10105
X34300Y10505
X33300Y10505
X33300Y10105
X32300Y10105
X32300Y10505
X31300Y10505
X31300Y10105
X30300Y10105
X30300Y10505
X34300Y11505
X34300Y12505
X34300Y13505
X34300Y14505
X34300Y15505
X34300Y16505
X34300Y17505
X30500Y19255
X33500Y21555
X34300Y22105
X31250Y23255
X31650Y24255
X31300Y24505
X30300Y24505
X27300Y14055
T02
X29550Y16155
X23400Y15455
X19450Y16105
X12550Y17455
X12550Y18855
X15950Y21805
X16450Y22155
X20200Y23605
X20650Y23605
X6050Y19055
X5350Y21055
X5250Y15955
X5250Y15255
X5250Y14455
X5250Y13755
X11050Y9455
X12200Y8605
X18450Y8455
X23000Y6805
X23550Y6805
X23250Y7705
X24900Y6405
X26400Y6605
X28900Y5505
X28400Y3705
X28200Y2305
X25000Y1355
X21450Y3905
X19200Y3655
X17500Y3055
X23200Y9355
X26950Y11155
X27600Y11155
X28250Y11155
X28900Y11155
T03
X14100Y21505
X13600Y21505
X14100Y22005
X14100Y22505
X13600Y22505
X13600Y23005
X14100Y23005
X14100Y23505
X13600Y23505
T04
X6900Y16605
X6400Y16605
X6400Y16105
X6900Y16105
X6900Y15605
X6400Y15605
X6400Y15105
X6900Y15105
X6900Y14605
X6400Y14605
X6400Y14105
X6900Y14105
X6900Y13605
X6400Y13605
X6400Y13105
X6900Y13105
T05
X32819Y18650
X32819Y20560
T06
X31250Y17405
X31250Y16405
X31250Y15405
X31250Y14405
X31250Y13405
X31250Y12405
T07
X34000Y18223
X34000Y20987
T08
X6650Y17808
X6650Y11666
T09
X6150Y1855
X32950Y1855
X32950Y23155
X6150Y23155
M30
