G75*
%MOIN*%
%OFA0B0*%
%FSLAX24Y24*%
%IPPOS*%
%LPD*%
%AMOC8*
5,1,8,0,0,1.08239X$1,22.5*
%
%ADD10R,0.0244X0.0283*%
%ADD11R,0.0253X0.0304*%
%ADD12R,0.0283X0.0244*%
%ADD13C,0.0205*%
%ADD14R,0.0434X0.0729*%
%ADD15R,0.0304X0.0253*%
%ADD16C,0.1020*%
%ADD17C,0.0480*%
%ADD18R,0.0355X0.0217*%
%ADD19R,0.0237X0.0493*%
%ADD20R,0.0375X0.0375*%
%ADD21R,0.0178X0.0434*%
%ADD22R,0.0434X0.0178*%
%ADD23R,0.1340X0.1260*%
%ADD24R,0.0367X0.0403*%
%ADD25R,0.0410X0.0370*%
%ADD26C,0.0350*%
%ADD27R,0.0563X0.0669*%
%ADD28R,0.0651X0.0651*%
%ADD29R,0.0375X0.0651*%
%ADD30R,0.0375X0.0611*%
%ADD31R,0.0336X0.0749*%
%ADD32R,0.0651X0.0454*%
%ADD33R,0.0454X0.0651*%
%ADD34R,0.0591X0.0217*%
%ADD35C,0.0960*%
%ADD36C,0.0555*%
%ADD37R,0.0410X0.1009*%
%ADD38R,0.2166X0.3422*%
%ADD39R,0.1005X0.0651*%
%ADD40C,0.1310*%
%ADD41R,0.0454X0.0434*%
%ADD42C,0.0476*%
%ADD43C,0.0296*%
%ADD44R,0.0178X0.0532*%
%ADD45R,0.0532X0.0178*%
%ADD46R,0.0249X0.0151*%
%ADD47R,0.0151X0.0249*%
%ADD48R,0.1084X0.1084*%
%ADD49R,0.0158X0.0188*%
%ADD50R,0.2060X0.1010*%
%ADD51R,0.2126X0.0354*%
%ADD52R,0.0414X0.0375*%
%ADD53R,0.0454X0.0202*%
%ADD54R,0.0202X0.0454*%
%ADD55R,0.0560X0.0360*%
%ADD56C,0.0169*%
%ADD57R,0.0651X0.0257*%
%ADD58R,0.0257X0.0651*%
%ADD59C,0.0660*%
%ADD60R,0.0532X0.0277*%
%ADD61R,0.0454X0.0277*%
%ADD62R,0.0375X0.0277*%
%ADD63R,0.0178X0.0178*%
%ADD64R,0.0283X0.0323*%
%ADD65R,0.0631X0.0375*%
%ADD66R,0.0631X0.0296*%
%ADD67R,0.0454X0.1851*%
%ADD68R,0.1851X0.0454*%
%ADD69R,0.0454X0.1556*%
%ADD70R,0.1556X0.0454*%
%ADD71R,0.0445X0.0331*%
%ADD72R,0.0847X0.2029*%
%ADD73R,0.0729X0.1635*%
D10*
X005723Y005700D03*
X005723Y006050D03*
X006077Y006050D03*
X006077Y005700D03*
X008973Y009700D03*
X009327Y009700D03*
X013923Y007650D03*
X014277Y007650D03*
X015923Y006350D03*
X016277Y006350D03*
X015327Y006250D03*
X015327Y005900D03*
X014973Y005900D03*
X014973Y006250D03*
X015923Y005650D03*
X016277Y005650D03*
X015327Y005400D03*
X015327Y005050D03*
X014973Y005050D03*
X014973Y005400D03*
X014077Y003850D03*
X014077Y003500D03*
X013723Y003500D03*
X013723Y003850D03*
X013877Y003000D03*
X013523Y003000D03*
X013523Y002600D03*
X013877Y002600D03*
X019373Y001150D03*
X019727Y001150D03*
X023073Y005750D03*
X023427Y005750D03*
X019827Y006300D03*
X019473Y006300D03*
X019723Y008750D03*
X020077Y008750D03*
X019973Y010500D03*
X020327Y010500D03*
X021173Y011000D03*
X021527Y011000D03*
X022873Y016650D03*
X023227Y016650D03*
X023077Y017650D03*
X022723Y017650D03*
X018527Y016750D03*
X018173Y016750D03*
X013577Y016150D03*
X013223Y016150D03*
X011827Y017850D03*
X011473Y017850D03*
X011377Y018200D03*
X011023Y018200D03*
X011673Y018600D03*
X012027Y018600D03*
G36*
X010417Y018974D02*
X010245Y019146D01*
X010443Y019344D01*
X010615Y019172D01*
X010417Y018974D01*
G37*
G36*
X010167Y019225D02*
X009995Y019397D01*
X010193Y019595D01*
X010365Y019423D01*
X010167Y019225D01*
G37*
G36*
X010506Y020207D02*
X010334Y020035D01*
X010136Y020233D01*
X010308Y020405D01*
X010506Y020207D01*
G37*
G36*
X010757Y020457D02*
X010585Y020285D01*
X010387Y020483D01*
X010559Y020655D01*
X010757Y020457D01*
G37*
X013023Y023400D03*
X013377Y023400D03*
X018673Y022450D03*
X019027Y022450D03*
X029073Y017100D03*
X029427Y017100D03*
X012377Y013200D03*
X012023Y013200D03*
X006777Y017900D03*
X006423Y017900D03*
X003727Y012700D03*
X003373Y012700D03*
D11*
X004031Y012500D03*
X004369Y012500D03*
X004369Y012900D03*
X004031Y012900D03*
X010431Y012000D03*
X010769Y012000D03*
X010631Y011600D03*
X010969Y011600D03*
X012881Y015450D03*
X013219Y015450D03*
X015731Y016150D03*
X016069Y016150D03*
X019231Y018800D03*
X019569Y018800D03*
X019569Y019200D03*
X019231Y019200D03*
X019231Y019600D03*
X019569Y019600D03*
X021081Y017950D03*
X021419Y017950D03*
X021419Y017450D03*
X021081Y017450D03*
X021081Y016950D03*
X021419Y016950D03*
X019669Y012350D03*
X019331Y012350D03*
X017219Y007000D03*
X016881Y007000D03*
X016269Y006000D03*
X015931Y006000D03*
X022631Y004600D03*
X022969Y004600D03*
X022919Y003950D03*
X022581Y003950D03*
X005769Y006850D03*
X005431Y006850D03*
X006431Y018300D03*
X006769Y018300D03*
X014031Y023400D03*
X014369Y023400D03*
D12*
X011900Y020577D03*
X011900Y020223D03*
X007450Y020077D03*
X007450Y019723D03*
X005900Y018377D03*
X005900Y018023D03*
X006250Y016577D03*
X006250Y016223D03*
X006200Y014127D03*
X006200Y013773D03*
X009750Y013823D03*
X009750Y014177D03*
X010150Y014623D03*
X010150Y014977D03*
X003300Y019723D03*
X003300Y020077D03*
X008850Y009027D03*
X008850Y008673D03*
X011200Y006527D03*
X011200Y006173D03*
X011600Y006173D03*
X011600Y006527D03*
X012350Y007273D03*
X012700Y007273D03*
X012700Y007627D03*
X012350Y007627D03*
X014050Y007027D03*
X014400Y007027D03*
X014400Y006673D03*
X014050Y006673D03*
X016300Y007723D03*
X016300Y008077D03*
X016700Y008077D03*
X016700Y007723D03*
X018800Y011423D03*
X018800Y011777D03*
X019900Y014423D03*
X019900Y014777D03*
X023450Y017623D03*
X023450Y017977D03*
X025550Y014027D03*
X025550Y013673D03*
X022350Y006677D03*
X022350Y006323D03*
X022600Y002777D03*
X022600Y002423D03*
X022600Y002077D03*
X022600Y001723D03*
X004250Y006023D03*
X004250Y006377D03*
X021800Y023223D03*
X021800Y023577D03*
D13*
X021410Y023636D02*
X021410Y023794D01*
X021190Y023794D01*
X021190Y023636D01*
X021410Y023636D01*
X021410Y023777D02*
X021190Y023777D01*
X021190Y023164D02*
X021410Y023164D01*
X021410Y023006D01*
X021190Y023006D01*
X021190Y023164D01*
X019760Y022494D02*
X019760Y022336D01*
X019540Y022336D01*
X019540Y022494D01*
X019760Y022494D01*
X019760Y022355D02*
X019540Y022355D01*
X019540Y021864D02*
X019540Y021706D01*
X019760Y021706D01*
X019760Y021864D01*
X019540Y021864D01*
X019540Y021745D02*
X019760Y021745D01*
X022656Y017260D02*
X022656Y017040D01*
X022814Y017040D01*
X022814Y017260D01*
X022656Y017260D01*
X022656Y017071D02*
X022814Y017071D01*
X023286Y017071D02*
X023444Y017071D01*
X023444Y017040D02*
X023444Y017260D01*
X023286Y017260D01*
X023286Y017040D01*
X023444Y017040D01*
X025540Y017086D02*
X025760Y017086D01*
X025760Y017244D01*
X025540Y017244D01*
X025540Y017086D01*
X025540Y016614D02*
X025760Y016614D01*
X025760Y016456D01*
X025540Y016456D01*
X025540Y016614D01*
X025540Y016461D02*
X025760Y016461D01*
X017794Y016260D02*
X017794Y016040D01*
X017636Y016040D01*
X017636Y016260D01*
X017794Y016260D01*
X017794Y016258D02*
X017636Y016258D01*
X017636Y016055D02*
X017794Y016055D01*
X017164Y016055D02*
X017006Y016055D01*
X017006Y016040D02*
X017164Y016040D01*
X017164Y016260D01*
X017006Y016260D01*
X017006Y016040D01*
X017006Y016258D02*
X017164Y016258D01*
X009760Y015394D02*
X009760Y015236D01*
X009540Y015236D01*
X009540Y015394D01*
X009760Y015394D01*
X009760Y015242D02*
X009540Y015242D01*
X009540Y014764D02*
X009760Y014764D01*
X009760Y014606D01*
X009540Y014606D01*
X009540Y014764D01*
X009540Y014632D02*
X009760Y014632D01*
X008989Y014632D02*
X008611Y014632D01*
X008611Y014695D02*
X008989Y014695D01*
X008989Y014475D01*
X008611Y014475D01*
X008611Y014695D01*
X008611Y015105D02*
X008989Y015105D01*
X008989Y015325D01*
X008611Y015325D01*
X008611Y015105D01*
X008611Y015242D02*
X008989Y015242D01*
X008160Y019506D02*
X008160Y019664D01*
X007940Y019664D01*
X007940Y019506D01*
X008160Y019506D01*
X008160Y019510D02*
X007940Y019510D01*
X007940Y020136D02*
X008160Y020136D01*
X008160Y020294D01*
X007940Y020294D01*
X007940Y020136D01*
X002860Y020136D02*
X002860Y020294D01*
X002640Y020294D01*
X002640Y020136D01*
X002860Y020136D01*
X002860Y019664D02*
X002640Y019664D01*
X002640Y019506D01*
X002860Y019506D01*
X002860Y019664D01*
X002860Y019510D02*
X002640Y019510D01*
X008240Y009244D02*
X008460Y009244D01*
X008460Y009086D01*
X008240Y009086D01*
X008240Y009244D01*
X008240Y009145D02*
X008460Y009145D01*
X008460Y008614D02*
X008240Y008614D01*
X008240Y008456D01*
X008460Y008456D01*
X008460Y008614D01*
X008460Y008535D02*
X008240Y008535D01*
X010440Y008535D02*
X010660Y008535D01*
X010660Y008456D02*
X010660Y008614D01*
X010440Y008614D01*
X010440Y008456D01*
X010660Y008456D01*
X010660Y009086D02*
X010660Y009244D01*
X010440Y009244D01*
X010440Y009086D01*
X010660Y009086D01*
X010660Y009145D02*
X010440Y009145D01*
X010590Y006994D02*
X010810Y006994D01*
X010810Y006836D01*
X010590Y006836D01*
X010590Y006994D01*
X010590Y006910D02*
X010810Y006910D01*
X010810Y006364D02*
X010590Y006364D01*
X010590Y006206D01*
X010810Y006206D01*
X010810Y006364D01*
X010810Y006300D02*
X010590Y006300D01*
X014956Y006890D02*
X014956Y007110D01*
X015114Y007110D01*
X015114Y006890D01*
X014956Y006890D01*
X014956Y006910D02*
X015114Y006910D01*
X015586Y006910D02*
X015744Y006910D01*
X015744Y006890D02*
X015744Y007110D01*
X015586Y007110D01*
X015586Y006890D01*
X015744Y006890D01*
X019390Y007506D02*
X019610Y007506D01*
X019610Y007664D01*
X019390Y007664D01*
X019390Y007506D01*
X019390Y007519D02*
X019610Y007519D01*
X019610Y008136D02*
X019390Y008136D01*
X019390Y008294D01*
X019610Y008294D01*
X019610Y008136D01*
X021190Y008136D02*
X021410Y008136D01*
X021410Y008294D01*
X021190Y008294D01*
X021190Y008136D01*
X021190Y007664D02*
X021410Y007664D01*
X021410Y007506D01*
X021190Y007506D01*
X021190Y007664D01*
X021190Y007519D02*
X021410Y007519D01*
X022956Y005360D02*
X022956Y005140D01*
X023114Y005140D01*
X023114Y005360D01*
X022956Y005360D01*
X022956Y005284D02*
X023114Y005284D01*
X023586Y005284D02*
X023744Y005284D01*
X023744Y005360D02*
X023744Y005140D01*
X023586Y005140D01*
X023586Y005360D01*
X023744Y005360D01*
X024190Y005906D02*
X024410Y005906D01*
X024410Y006064D01*
X024190Y006064D01*
X024190Y005906D01*
X024190Y006536D02*
X024410Y006536D01*
X024410Y006694D01*
X024190Y006694D01*
X024190Y006536D01*
D14*
X008851Y013950D03*
X007749Y013950D03*
X007649Y015850D03*
X008751Y015850D03*
X004701Y017450D03*
X003599Y017450D03*
D15*
X004400Y018031D03*
X004400Y018369D03*
X006400Y017469D03*
X006400Y017131D03*
X009700Y016619D03*
X009700Y016281D03*
X011900Y019231D03*
X011900Y019569D03*
X007750Y022931D03*
X007750Y023269D03*
X019500Y023531D03*
X019500Y023869D03*
X022200Y016919D03*
X022200Y016581D03*
X011950Y007619D03*
X011950Y007281D03*
X015400Y004119D03*
X015400Y003781D03*
X023000Y002069D03*
X023000Y001731D03*
X025000Y006331D03*
X025000Y006669D03*
X004600Y006369D03*
X004600Y006031D03*
D16*
X002100Y011411D03*
X002100Y017553D03*
D17*
X001850Y016350D02*
X001430Y016350D01*
X001430Y015850D02*
X001850Y015850D01*
X002350Y015850D02*
X002770Y015850D01*
X002770Y015350D02*
X002350Y015350D01*
X001850Y015350D02*
X001430Y015350D01*
X001430Y014850D02*
X001850Y014850D01*
X002350Y014850D02*
X002770Y014850D01*
X002770Y014350D02*
X002350Y014350D01*
X001850Y014350D02*
X001430Y014350D01*
X001430Y013850D02*
X001850Y013850D01*
X002350Y013850D02*
X002770Y013850D01*
X002770Y013350D02*
X002350Y013350D01*
X001850Y013350D02*
X001430Y013350D01*
X001430Y012850D02*
X001850Y012850D01*
X002350Y012850D02*
X002770Y012850D01*
X002770Y016350D02*
X002350Y016350D01*
D18*
X003486Y015757D03*
X003486Y015443D03*
X004214Y015443D03*
X004214Y015757D03*
X004214Y013757D03*
X004214Y013443D03*
X003486Y013443D03*
X003486Y013757D03*
X009325Y009206D03*
X009325Y008694D03*
X009975Y008694D03*
X009975Y008950D03*
X009975Y009206D03*
X020075Y008256D03*
X020075Y007744D03*
X020725Y007744D03*
X020725Y008000D03*
X020725Y008256D03*
X022975Y006656D03*
X022975Y006144D03*
X023625Y006144D03*
X023625Y006400D03*
X023625Y006656D03*
D19*
X005791Y012563D03*
X005516Y012563D03*
X004719Y012563D03*
X004709Y014137D03*
X004984Y014137D03*
X005781Y014137D03*
X005791Y015013D03*
X005516Y015013D03*
X004719Y015013D03*
X004709Y016587D03*
X004984Y016587D03*
X005781Y016587D03*
D20*
X010150Y016695D03*
X010150Y016105D03*
X007750Y021805D03*
X007750Y022395D03*
X020055Y017950D03*
X020055Y017450D03*
X020055Y016950D03*
X020645Y016950D03*
X020645Y017450D03*
X020645Y017950D03*
X023255Y003950D03*
X023845Y003950D03*
D21*
X013641Y004485D03*
X013444Y004485D03*
X013247Y004485D03*
X013050Y004485D03*
X012853Y004485D03*
X012656Y004485D03*
X012459Y004485D03*
X012459Y006415D03*
X012656Y006415D03*
X012853Y006415D03*
X013050Y006415D03*
X013247Y006415D03*
X013444Y006415D03*
X013641Y006415D03*
D22*
X014015Y006041D03*
X014015Y005844D03*
X014015Y005647D03*
X014015Y005450D03*
X014015Y005253D03*
X014015Y005056D03*
X014015Y004859D03*
X012085Y004859D03*
X012085Y005056D03*
X012085Y005253D03*
X012085Y005450D03*
X012085Y005647D03*
X012085Y005844D03*
X012085Y006041D03*
D23*
X013050Y005465D03*
D24*
X014656Y007632D03*
X014656Y008168D03*
X015844Y008168D03*
X015844Y007632D03*
D25*
X019900Y023325D03*
X020800Y023700D03*
X019900Y024075D03*
D26*
X016100Y023350D03*
X015650Y023350D03*
X011900Y021900D03*
X011400Y021550D03*
X008000Y018600D03*
X008000Y017200D03*
X001500Y018800D03*
X000800Y020800D03*
X000700Y015700D03*
X000700Y015000D03*
X000700Y014200D03*
X000700Y013500D03*
X006500Y009200D03*
X007650Y008350D03*
X013750Y009650D03*
X013900Y008200D03*
X018450Y006550D03*
X019000Y006550D03*
X018700Y007450D03*
X020350Y006150D03*
X021850Y006350D03*
X024350Y005250D03*
X023850Y003450D03*
X023650Y002050D03*
X020450Y001100D03*
X014650Y003400D03*
X012950Y002800D03*
X018650Y009100D03*
X022400Y010900D03*
X023050Y010900D03*
X023700Y010900D03*
X024350Y010900D03*
X018850Y015200D03*
X014900Y015850D03*
X025000Y015900D03*
D27*
X022833Y018649D03*
D28*
X021986Y022551D03*
D29*
X026553Y019559D03*
D30*
X021848Y019303D03*
D31*
X022951Y022600D03*
X023384Y022600D03*
X023817Y022600D03*
X024250Y022600D03*
X024683Y022600D03*
X025116Y022600D03*
X025549Y022600D03*
X025982Y022600D03*
D32*
X026415Y018968D03*
D33*
X022006Y018348D03*
D34*
X028397Y018838D03*
X028397Y019094D03*
X028397Y019350D03*
X028397Y019606D03*
X028397Y019862D03*
D35*
X029450Y020732D03*
X029450Y017968D03*
D36*
X028269Y018395D03*
X028269Y020305D03*
D37*
X006900Y019196D03*
X006412Y019196D03*
X005900Y019196D03*
X005400Y019196D03*
X004900Y019196D03*
X004400Y019196D03*
X003900Y019196D03*
D38*
X005400Y022200D03*
D39*
X009050Y020506D03*
X009050Y018694D03*
D40*
X001600Y001600D03*
X028400Y001600D03*
X028400Y022900D03*
X001600Y022900D03*
D41*
X002050Y020215D03*
X002050Y019585D03*
X025000Y005865D03*
X025000Y005235D03*
D42*
X009966Y021250D02*
X009550Y021250D01*
X009050Y021250D02*
X008634Y021250D01*
X009550Y021750D02*
X009966Y021750D01*
X009966Y022250D02*
X009550Y022250D01*
X009050Y022250D02*
X008634Y022250D01*
X008634Y022750D02*
X009050Y022750D01*
X009550Y022750D02*
X009966Y022750D01*
X009966Y023250D02*
X009550Y023250D01*
X009050Y023250D02*
X008634Y023250D01*
D43*
X012000Y021200D03*
X012000Y018200D03*
X011900Y014250D03*
X022250Y017800D03*
X021331Y004831D03*
X021331Y004241D03*
X020741Y004241D03*
X020741Y004831D03*
X020150Y004831D03*
X019559Y004831D03*
X018969Y004831D03*
X018969Y004241D03*
X019559Y004241D03*
X020150Y004241D03*
X020150Y003650D03*
X019559Y003650D03*
X018969Y003650D03*
X018969Y003059D03*
X018969Y002469D03*
X019559Y002469D03*
X020150Y002469D03*
X020150Y003059D03*
X019559Y003059D03*
X020741Y003059D03*
X020741Y002469D03*
X021331Y002469D03*
X021331Y003059D03*
X021331Y003650D03*
X020741Y003650D03*
D44*
X017912Y016749D03*
X017715Y016749D03*
X017519Y016749D03*
X017322Y016749D03*
X017125Y016749D03*
X016928Y016749D03*
X016731Y016749D03*
X016534Y016749D03*
X016337Y016749D03*
X016141Y016749D03*
X015944Y016749D03*
X015747Y016749D03*
X015550Y016749D03*
X015353Y016749D03*
X015156Y016749D03*
X014959Y016749D03*
X014763Y016749D03*
X014566Y016749D03*
X014369Y016749D03*
X014172Y016749D03*
X013975Y016749D03*
X013778Y016749D03*
X013588Y016749D03*
X013385Y016749D03*
X013181Y016749D03*
X013188Y022851D03*
X013385Y022851D03*
X013581Y022851D03*
X013778Y022851D03*
X013975Y022851D03*
X014172Y022851D03*
X014369Y022851D03*
X014566Y022851D03*
X014763Y022851D03*
X014959Y022851D03*
X015156Y022851D03*
X015353Y022851D03*
X015550Y022851D03*
X015747Y022851D03*
X015944Y022851D03*
X016141Y022851D03*
X016337Y022851D03*
X016534Y022851D03*
X016731Y022851D03*
X016928Y022851D03*
X017125Y022851D03*
X017322Y022851D03*
X017519Y022851D03*
X017715Y022851D03*
X017912Y022851D03*
D45*
X018601Y022162D03*
X018601Y021965D03*
X018601Y021769D03*
X018601Y021572D03*
X018601Y021375D03*
X018601Y021178D03*
X018601Y020981D03*
X018601Y020784D03*
X018601Y020587D03*
X018601Y020391D03*
X018601Y020194D03*
X018601Y019997D03*
X018601Y019800D03*
X018601Y019603D03*
X018601Y019406D03*
X018601Y019209D03*
X018601Y019013D03*
X018601Y018816D03*
X018601Y018619D03*
X018601Y018422D03*
X018601Y018225D03*
X018601Y018028D03*
X018601Y017831D03*
X018601Y017635D03*
X018601Y017438D03*
X012499Y017438D03*
X012499Y017635D03*
X012499Y017831D03*
X012499Y018028D03*
X012499Y018225D03*
X012499Y018422D03*
X012499Y018619D03*
X012499Y018816D03*
X012499Y019013D03*
X012499Y019209D03*
X012499Y019406D03*
X012499Y019603D03*
X012499Y019800D03*
X012499Y019997D03*
X012499Y020194D03*
X012499Y020391D03*
X012499Y020587D03*
X012499Y020784D03*
X012499Y020981D03*
X012499Y021178D03*
X012499Y021375D03*
X012499Y021572D03*
X012499Y021769D03*
X012499Y021965D03*
X012499Y022162D03*
D46*
X011632Y013992D03*
X011632Y013795D03*
X011632Y013598D03*
X011632Y013402D03*
X011632Y013205D03*
X011632Y013008D03*
X010168Y013008D03*
X010168Y013205D03*
X010168Y013402D03*
X010168Y013598D03*
X010168Y013795D03*
X010168Y013992D03*
D47*
X010408Y014232D03*
X010605Y014232D03*
X010802Y014232D03*
X010998Y014232D03*
X011195Y014232D03*
X011392Y014232D03*
X011392Y012768D03*
X011195Y012768D03*
X010998Y012768D03*
X010802Y012768D03*
X010605Y012768D03*
X010408Y012768D03*
D48*
X010900Y013500D03*
D49*
X013050Y003663D03*
X013247Y003663D03*
X013247Y003437D03*
X013050Y003437D03*
X012853Y003550D03*
D50*
X001000Y003800D03*
X001000Y007200D03*
D51*
X001000Y005500D03*
D52*
G36*
X010516Y019453D02*
X010808Y019745D01*
X011072Y019481D01*
X010780Y019189D01*
X010516Y019453D01*
G37*
G36*
X010209Y019759D02*
X010501Y020051D01*
X010765Y019787D01*
X010473Y019495D01*
X010209Y019759D01*
G37*
G36*
X010599Y020149D02*
X010891Y020441D01*
X011155Y020177D01*
X010863Y019885D01*
X010599Y020149D01*
G37*
G36*
X010905Y019842D02*
X011197Y020134D01*
X011461Y019870D01*
X011169Y019578D01*
X010905Y019842D01*
G37*
D53*
X018221Y005225D03*
X018221Y004910D03*
X018221Y004595D03*
X018221Y004280D03*
X018221Y003965D03*
X018221Y003650D03*
X018221Y003335D03*
X018221Y003020D03*
X018221Y002705D03*
X018221Y002390D03*
X018221Y002075D03*
X022079Y002075D03*
X022079Y002390D03*
X022079Y002705D03*
X022079Y003020D03*
X022079Y003335D03*
X022079Y003650D03*
X022079Y003965D03*
X022079Y004280D03*
X022079Y004595D03*
X022079Y004910D03*
X022079Y005225D03*
D54*
X021725Y005579D03*
X021410Y005579D03*
X021095Y005579D03*
X020780Y005579D03*
X020465Y005579D03*
X020150Y005579D03*
X019835Y005579D03*
X019520Y005579D03*
X019205Y005579D03*
X018890Y005579D03*
X018575Y005579D03*
X018575Y001721D03*
X018890Y001721D03*
X019205Y001721D03*
X019520Y001721D03*
X019835Y001721D03*
X020150Y001721D03*
X020465Y001721D03*
X020780Y001721D03*
X021095Y001721D03*
X021410Y001721D03*
X021725Y001721D03*
D55*
X008575Y003550D03*
X008575Y004050D03*
X008575Y004550D03*
X008575Y005050D03*
X006125Y005050D03*
X006125Y004550D03*
X006125Y004050D03*
X006125Y003550D03*
D56*
X018417Y001266D02*
X018417Y001034D01*
X018531Y001034D01*
X018531Y001266D01*
X018417Y001266D01*
X018969Y001266D02*
X018969Y001034D01*
X019083Y001034D01*
X019083Y001266D01*
X018969Y001266D01*
X022934Y002367D02*
X023166Y002367D01*
X023166Y002481D01*
X022934Y002481D01*
X022934Y002367D01*
X022934Y002919D02*
X023166Y002919D01*
X023166Y003033D01*
X022934Y003033D01*
X022934Y002919D01*
D57*
X024994Y012225D03*
X024994Y012540D03*
X024994Y012855D03*
X024994Y013170D03*
X024994Y013485D03*
X024994Y013800D03*
X024994Y014115D03*
X024994Y014430D03*
X024994Y014745D03*
X024994Y015060D03*
X024994Y015375D03*
X020506Y015375D03*
X020506Y015060D03*
X020506Y014745D03*
X020506Y014430D03*
X020506Y014115D03*
X020506Y013800D03*
X020506Y013485D03*
X020506Y013170D03*
X020506Y012855D03*
X020506Y012540D03*
X020506Y012225D03*
D58*
X021175Y011556D03*
X021490Y011556D03*
X021805Y011556D03*
X022120Y011556D03*
X022435Y011556D03*
X022750Y011556D03*
X023065Y011556D03*
X023380Y011556D03*
X023695Y011556D03*
X024010Y011556D03*
X024325Y011556D03*
X024325Y016044D03*
X024010Y016044D03*
X023695Y016044D03*
X023380Y016044D03*
X023065Y016044D03*
X022750Y016044D03*
X022435Y016044D03*
X022120Y016044D03*
X021805Y016044D03*
X021490Y016044D03*
X021175Y016044D03*
D59*
X026400Y016150D02*
X027000Y016150D01*
X027000Y015150D02*
X026400Y015150D01*
X026400Y014150D02*
X027000Y014150D01*
X027000Y013150D02*
X026400Y013150D01*
X026400Y012150D02*
X027000Y012150D01*
X027000Y017150D02*
X026400Y017150D01*
D60*
X025012Y017150D03*
X025012Y017524D03*
X025012Y016776D03*
X023988Y016776D03*
X023988Y017524D03*
D61*
X004194Y005200D03*
D62*
X004667Y005200D03*
D63*
X004765Y004905D03*
X005001Y004905D03*
X005001Y005200D03*
X005001Y005495D03*
X004765Y005495D03*
X004265Y005495D03*
X004056Y005495D03*
X004056Y004905D03*
X004265Y004905D03*
D64*
X005003Y005950D03*
X005397Y005950D03*
X005403Y006450D03*
X005797Y006450D03*
D65*
X020100Y018787D03*
X020100Y019613D03*
X021300Y019613D03*
X021300Y018787D03*
D66*
X021300Y019200D03*
X020100Y019200D03*
D67*
X009859Y006810D03*
X003441Y006810D03*
X003441Y001790D03*
X009859Y001790D03*
D68*
X009160Y001091D03*
X004140Y001091D03*
X004140Y007509D03*
X009160Y007509D03*
D69*
X009859Y004300D03*
X003441Y004300D03*
D70*
X006650Y001091D03*
X006650Y007509D03*
D71*
X019288Y011026D03*
X019288Y011400D03*
X019288Y011774D03*
X020312Y011774D03*
X020312Y011400D03*
X020312Y011026D03*
D72*
X022241Y008350D03*
D73*
X026769Y008350D03*
M02*
