G75*
%MOIN*%
%OFA0B0*%
%FSLAX24Y24*%
%IPPOS*%
%LPD*%
%AMOC8*
5,1,8,0,0,1.08239X$1,22.5*
%
%ADD10C,0.0004*%
D10*
X005863Y011666D02*
X005865Y011722D01*
X005871Y011777D01*
X005881Y011831D01*
X005894Y011885D01*
X005912Y011938D01*
X005933Y011989D01*
X005957Y012039D01*
X005985Y012087D01*
X006017Y012133D01*
X006051Y012177D01*
X006089Y012218D01*
X006129Y012256D01*
X006172Y012291D01*
X006217Y012323D01*
X006265Y012352D01*
X006314Y012378D01*
X006365Y012400D01*
X006417Y012418D01*
X006471Y012432D01*
X006526Y012443D01*
X006581Y012450D01*
X006636Y012453D01*
X006692Y012452D01*
X006747Y012447D01*
X006802Y012438D01*
X006856Y012426D01*
X006909Y012409D01*
X006961Y012389D01*
X007011Y012365D01*
X007059Y012338D01*
X007106Y012308D01*
X007150Y012274D01*
X007192Y012237D01*
X007230Y012197D01*
X007267Y012155D01*
X007300Y012110D01*
X007329Y012064D01*
X007356Y012015D01*
X007378Y011964D01*
X007398Y011912D01*
X007413Y011858D01*
X007425Y011804D01*
X007433Y011749D01*
X007437Y011694D01*
X007437Y011638D01*
X007433Y011583D01*
X007425Y011528D01*
X007413Y011474D01*
X007398Y011420D01*
X007378Y011368D01*
X007356Y011317D01*
X007329Y011268D01*
X007300Y011222D01*
X007267Y011177D01*
X007230Y011135D01*
X007192Y011095D01*
X007150Y011058D01*
X007106Y011024D01*
X007059Y010994D01*
X007011Y010967D01*
X006961Y010943D01*
X006909Y010923D01*
X006856Y010906D01*
X006802Y010894D01*
X006747Y010885D01*
X006692Y010880D01*
X006636Y010879D01*
X006581Y010882D01*
X006526Y010889D01*
X006471Y010900D01*
X006417Y010914D01*
X006365Y010932D01*
X006314Y010954D01*
X006265Y010980D01*
X006217Y011009D01*
X006172Y011041D01*
X006129Y011076D01*
X006089Y011114D01*
X006051Y011155D01*
X006017Y011199D01*
X005985Y011245D01*
X005957Y011293D01*
X005933Y011343D01*
X005912Y011394D01*
X005894Y011447D01*
X005881Y011501D01*
X005871Y011555D01*
X005865Y011610D01*
X005863Y011666D01*
X005863Y017808D02*
X005865Y017864D01*
X005871Y017919D01*
X005881Y017973D01*
X005894Y018027D01*
X005912Y018080D01*
X005933Y018131D01*
X005957Y018181D01*
X005985Y018229D01*
X006017Y018275D01*
X006051Y018319D01*
X006089Y018360D01*
X006129Y018398D01*
X006172Y018433D01*
X006217Y018465D01*
X006265Y018494D01*
X006314Y018520D01*
X006365Y018542D01*
X006417Y018560D01*
X006471Y018574D01*
X006526Y018585D01*
X006581Y018592D01*
X006636Y018595D01*
X006692Y018594D01*
X006747Y018589D01*
X006802Y018580D01*
X006856Y018568D01*
X006909Y018551D01*
X006961Y018531D01*
X007011Y018507D01*
X007059Y018480D01*
X007106Y018450D01*
X007150Y018416D01*
X007192Y018379D01*
X007230Y018339D01*
X007267Y018297D01*
X007300Y018252D01*
X007329Y018206D01*
X007356Y018157D01*
X007378Y018106D01*
X007398Y018054D01*
X007413Y018000D01*
X007425Y017946D01*
X007433Y017891D01*
X007437Y017836D01*
X007437Y017780D01*
X007433Y017725D01*
X007425Y017670D01*
X007413Y017616D01*
X007398Y017562D01*
X007378Y017510D01*
X007356Y017459D01*
X007329Y017410D01*
X007300Y017364D01*
X007267Y017319D01*
X007230Y017277D01*
X007192Y017237D01*
X007150Y017200D01*
X007106Y017166D01*
X007059Y017136D01*
X007011Y017109D01*
X006961Y017085D01*
X006909Y017065D01*
X006856Y017048D01*
X006802Y017036D01*
X006747Y017027D01*
X006692Y017022D01*
X006636Y017021D01*
X006581Y017024D01*
X006526Y017031D01*
X006471Y017042D01*
X006417Y017056D01*
X006365Y017074D01*
X006314Y017096D01*
X006265Y017122D01*
X006217Y017151D01*
X006172Y017183D01*
X006129Y017218D01*
X006089Y017256D01*
X006051Y017297D01*
X006017Y017341D01*
X005985Y017387D01*
X005957Y017435D01*
X005933Y017485D01*
X005912Y017536D01*
X005894Y017589D01*
X005881Y017643D01*
X005871Y017697D01*
X005865Y017752D01*
X005863Y017808D01*
M02*
